<svg width="270" height="271" viewBox="0 0 270 271" fill="none" xmlns="http://www.w3.org/2000/svg">
<path d="M268.778 135.244C268.778 147.036 259.182 156.633 247.389 156.633C241.615 156.633 236.329 154.356 232.507 150.615V226.328C232.507 229.907 229.579 232.834 226.001 232.834H150.287C154.028 229.012 156.305 223.726 156.305 217.952C156.305 206.16 146.709 196.563 134.917 196.563C123.124 196.563 113.528 206.16 113.528 217.952C113.528 223.726 115.805 229.012 119.546 232.834H43.8322C40.2539 232.834 37.3262 229.907 37.3262 226.328V150.615C41.1485 154.356 46.4346 156.633 52.2087 156.633C64.0009 156.633 73.5972 147.036 73.5972 135.244C73.5972 123.452 64.0009 113.856 52.2087 113.856C46.4346 113.856 41.1485 116.133 37.3262 119.874V44.1598C37.3262 40.5815 40.2539 37.6538 43.8322 37.6538H119.546C115.805 33.8315 113.528 28.5453 113.528 22.7712C113.528 10.9791 123.124 1.38269 134.917 1.38269C146.709 1.38269 156.305 10.9791 156.305 22.7712C156.305 28.5453 154.028 33.8315 150.287 37.6538H226.001C229.579 37.6538 232.507 40.5815 232.507 44.1598V119.874C236.329 116.133 241.615 113.856 247.389 113.856C259.263 113.856 268.778 123.452 268.778 135.244Z" fill="#E8E8E8"/>
<path d="M94.1517 157.825C93.3417 157.825 92.5567 157.71 91.7967 157.48C91.0467 157.25 90.4517 156.945 90.0117 156.565L90.6867 155.05C91.1167 155.39 91.6417 155.67 92.2617 155.89C92.8917 156.1 93.5217 156.205 94.1517 156.205C94.9317 156.205 95.5117 156.08 95.8917 155.83C96.2817 155.58 96.4767 155.25 96.4767 154.84C96.4767 154.54 96.3667 154.295 96.1467 154.105C95.9367 153.905 95.6667 153.75 95.3367 153.64C95.0067 153.53 94.5567 153.405 93.9867 153.265C93.1867 153.075 92.5367 152.885 92.0367 152.695C91.5467 152.505 91.1217 152.21 90.7617 151.81C90.4117 151.4 90.2367 150.85 90.2367 150.16C90.2367 149.58 90.3917 149.055 90.7017 148.585C91.0217 148.105 91.4967 147.725 92.1267 147.445C92.7667 147.165 93.5467 147.025 94.4667 147.025C95.1067 147.025 95.7367 147.105 96.3567 147.265C96.9767 147.425 97.5117 147.655 97.9617 147.955L97.3467 149.47C96.8867 149.2 96.4067 148.995 95.9067 148.855C95.4067 148.715 94.9217 148.645 94.4517 148.645C93.6817 148.645 93.1067 148.775 92.7267 149.035C92.3567 149.295 92.1717 149.64 92.1717 150.07C92.1717 150.37 92.2767 150.615 92.4867 150.805C92.7067 150.995 92.9817 151.145 93.3117 151.255C93.6417 151.365 94.0917 151.49 94.6617 151.63C95.4417 151.81 96.0817 152 96.5817 152.2C97.0817 152.39 97.5067 152.685 97.8567 153.085C98.2167 153.485 98.3967 154.025 98.3967 154.705C98.3967 155.285 98.2367 155.81 97.9167 156.28C97.6067 156.75 97.1317 157.125 96.4917 157.405C95.8517 157.685 95.0717 157.825 94.1517 157.825Z" fill="#262626"/>
<path d="M103.96 156.19C104.83 156.19 105.555 155.9 106.135 155.32L107.125 156.475C106.775 156.905 106.325 157.23 105.775 157.45C105.225 157.67 104.605 157.78 103.915 157.78C103.035 157.78 102.26 157.605 101.59 157.255C100.92 156.905 100.4 156.42 100.03 155.8C99.6703 155.17 99.4903 154.46 99.4903 153.67C99.4903 152.89 99.6653 152.19 100.015 151.57C100.375 150.94 100.865 150.45 101.485 150.1C102.115 149.75 102.825 149.575 103.615 149.575C104.365 149.575 105.045 149.74 105.655 150.07C106.275 150.39 106.765 150.855 107.125 151.465C107.485 152.065 107.665 152.77 107.665 153.58L101.53 154.78C101.72 155.24 102.025 155.59 102.445 155.83C102.865 156.07 103.37 156.19 103.96 156.19ZM103.615 151.075C102.925 151.075 102.365 151.3 101.935 151.75C101.515 152.2 101.305 152.805 101.305 153.565V153.58L105.835 152.71C105.705 152.22 105.44 151.825 105.04 151.525C104.65 151.225 104.175 151.075 103.615 151.075Z" fill="#262626"/>
<path d="M112.107 157.78C111.277 157.78 110.627 157.555 110.157 157.105C109.697 156.645 109.467 156 109.467 155.17V146.545H111.342V155.035C111.342 155.835 111.717 156.235 112.467 156.235C112.717 156.235 112.942 156.185 113.142 156.085L113.232 157.585C112.882 157.715 112.507 157.78 112.107 157.78Z" fill="#262626"/>
<path d="M118.169 156.19C119.039 156.19 119.764 155.9 120.344 155.32L121.334 156.475C120.984 156.905 120.534 157.23 119.984 157.45C119.434 157.67 118.814 157.78 118.124 157.78C117.244 157.78 116.469 157.605 115.799 157.255C115.129 156.905 114.609 156.42 114.239 155.8C113.879 155.17 113.699 154.46 113.699 153.67C113.699 152.89 113.874 152.19 114.224 151.57C114.584 150.94 115.074 150.45 115.694 150.1C116.324 149.75 117.034 149.575 117.824 149.575C118.574 149.575 119.254 149.74 119.864 150.07C120.484 150.39 120.974 150.855 121.334 151.465C121.694 152.065 121.874 152.77 121.874 153.58L115.739 154.78C115.929 155.24 116.234 155.59 116.654 155.83C117.074 156.07 117.579 156.19 118.169 156.19ZM117.824 151.075C117.134 151.075 116.574 151.3 116.144 151.75C115.724 152.2 115.514 152.805 115.514 153.565V153.58L120.044 152.71C119.914 152.22 119.649 151.825 119.249 151.525C118.859 151.225 118.384 151.075 117.824 151.075Z" fill="#262626"/>
<path d="M127.351 157.78C126.521 157.78 125.776 157.605 125.116 157.255C124.456 156.905 123.941 156.42 123.571 155.8C123.201 155.17 123.016 154.46 123.016 153.67C123.016 152.88 123.201 152.175 123.571 151.555C123.941 150.935 124.451 150.45 125.101 150.1C125.761 149.75 126.511 149.575 127.351 149.575C128.141 149.575 128.831 149.735 129.421 150.055C130.021 150.375 130.471 150.835 130.771 151.435L129.331 152.275C129.101 151.905 128.811 151.63 128.461 151.45C128.121 151.26 127.746 151.165 127.336 151.165C126.636 151.165 126.056 151.395 125.596 151.855C125.136 152.305 124.906 152.91 124.906 153.67C124.906 154.43 125.131 155.04 125.581 155.5C126.041 155.95 126.626 156.175 127.336 156.175C127.746 156.175 128.121 156.085 128.461 155.905C128.811 155.715 129.101 155.435 129.331 155.065L130.771 155.905C130.461 156.505 130.006 156.97 129.406 157.3C128.816 157.62 128.131 157.78 127.351 157.78Z" fill="#262626"/>
<path d="M136.818 157.24C136.598 157.42 136.328 157.555 136.008 157.645C135.698 157.735 135.368 157.78 135.018 157.78C134.138 157.78 133.458 157.55 132.978 157.09C132.498 156.63 132.258 155.96 132.258 155.08V147.895H134.133V149.725H136.278V151.225H134.133V155.035C134.133 155.425 134.228 155.725 134.418 155.935C134.618 156.135 134.893 156.235 135.243 156.235C135.663 156.235 136.013 156.125 136.293 155.905L136.818 157.24Z" fill="#262626"/>
<path d="M138.368 149.665H140.243V157.675H138.368V149.665ZM139.313 148.345C138.973 148.345 138.688 148.24 138.458 148.03C138.228 147.81 138.113 147.54 138.113 147.22C138.113 146.9 138.228 146.635 138.458 146.425C138.688 146.205 138.973 146.095 139.313 146.095C139.653 146.095 139.938 146.2 140.168 146.41C140.398 146.61 140.513 146.865 140.513 147.175C140.513 147.505 140.398 147.785 140.168 148.015C139.948 148.235 139.663 148.345 139.313 148.345Z" fill="#262626"/>
<path d="M146.304 157.78C145.494 157.78 144.764 157.605 144.114 157.255C143.464 156.905 142.954 156.42 142.584 155.8C142.224 155.17 142.044 154.46 142.044 153.67C142.044 152.88 142.224 152.175 142.584 151.555C142.954 150.935 143.464 150.45 144.114 150.1C144.764 149.75 145.494 149.575 146.304 149.575C147.124 149.575 147.859 149.75 148.509 150.1C149.159 150.45 149.664 150.935 150.024 151.555C150.394 152.175 150.579 152.88 150.579 153.67C150.579 154.46 150.394 155.17 150.024 155.8C149.664 156.42 149.159 156.905 148.509 157.255C147.859 157.605 147.124 157.78 146.304 157.78ZM146.304 156.175C146.994 156.175 147.564 155.945 148.014 155.485C148.464 155.025 148.689 154.42 148.689 153.67C148.689 152.92 148.464 152.315 148.014 151.855C147.564 151.395 146.994 151.165 146.304 151.165C145.614 151.165 145.044 151.395 144.594 151.855C144.154 152.315 143.934 152.92 143.934 153.67C143.934 154.42 144.154 155.025 144.594 155.485C145.044 155.945 145.614 156.175 146.304 156.175Z" fill="#262626"/>
<path d="M156.917 149.575C157.927 149.575 158.737 149.87 159.347 150.46C159.957 151.05 160.262 151.925 160.262 153.085V157.675H158.387V153.325C158.387 152.625 158.222 152.1 157.892 151.75C157.562 151.39 157.092 151.21 156.482 151.21C155.792 151.21 155.247 151.42 154.847 151.84C154.447 152.25 154.247 152.845 154.247 153.625V157.675H152.372V149.665H154.157V150.7C154.467 150.33 154.857 150.05 155.327 149.86C155.797 149.67 156.327 149.575 156.917 149.575Z" fill="#262626"/>
<path d="M170.386 157.78C169.576 157.78 168.846 157.605 168.196 157.255C167.546 156.905 167.036 156.42 166.666 155.8C166.306 155.17 166.126 154.46 166.126 153.67C166.126 152.88 166.306 152.175 166.666 151.555C167.036 150.935 167.546 150.45 168.196 150.1C168.846 149.75 169.576 149.575 170.386 149.575C171.206 149.575 171.941 149.75 172.591 150.1C173.241 150.45 173.746 150.935 174.106 151.555C174.476 152.175 174.661 152.88 174.661 153.67C174.661 154.46 174.476 155.17 174.106 155.8C173.746 156.42 173.241 156.905 172.591 157.255C171.941 157.605 171.206 157.78 170.386 157.78ZM170.386 156.175C171.076 156.175 171.646 155.945 172.096 155.485C172.546 155.025 172.771 154.42 172.771 153.67C172.771 152.92 172.546 152.315 172.096 151.855C171.646 151.395 171.076 151.165 170.386 151.165C169.696 151.165 169.126 151.395 168.676 151.855C168.236 152.315 168.016 152.92 168.016 153.67C168.016 154.42 168.236 155.025 168.676 155.485C169.126 155.945 169.696 156.175 170.386 156.175Z" fill="#262626"/>
<path d="M179.469 147.955C178.679 147.955 178.284 148.385 178.284 149.245V149.725H180.489V151.225H178.329V157.675H176.454V149.215C176.454 148.365 176.704 147.69 177.204 147.19C177.704 146.69 178.414 146.44 179.334 146.44C180.044 146.44 180.604 146.585 181.014 146.875L180.489 148.285C180.189 148.065 179.849 147.955 179.469 147.955Z" fill="#262626"/>
<path d="M122.953 172.575C123.963 172.575 124.763 172.87 125.353 173.46C125.943 174.04 126.238 174.915 126.238 176.085V180.675H124.363V176.325C124.363 175.625 124.208 175.1 123.898 174.75C123.588 174.39 123.143 174.21 122.563 174.21C121.933 174.21 121.428 174.42 121.048 174.84C120.668 175.25 120.478 175.84 120.478 176.61V180.675H118.603V176.325C118.603 175.625 118.448 175.1 118.138 174.75C117.828 174.39 117.383 174.21 116.803 174.21C116.163 174.21 115.653 174.415 115.273 174.825C114.903 175.235 114.718 175.83 114.718 176.61V180.675H112.843V172.665H114.628V173.685C114.928 173.325 115.303 173.05 115.753 172.86C116.203 172.67 116.703 172.575 117.253 172.575C117.853 172.575 118.383 172.69 118.843 172.92C119.313 173.14 119.683 173.47 119.953 173.91C120.283 173.49 120.708 173.165 121.228 172.935C121.748 172.695 122.323 172.575 122.953 172.575Z" fill="#262626"/>
<path d="M136.389 172.665V180.675H134.604V179.655C134.304 180.015 133.929 180.295 133.479 180.495C133.029 180.685 132.544 180.78 132.024 180.78C130.954 180.78 130.109 180.485 129.489 179.895C128.879 179.295 128.574 178.41 128.574 177.24V172.665H130.449V176.985C130.449 177.705 130.609 178.245 130.929 178.605C131.259 178.955 131.724 179.13 132.324 179.13C132.994 179.13 133.524 178.925 133.914 178.515C134.314 178.095 134.514 177.495 134.514 176.715V172.665H136.389Z" fill="#262626"/>
<path d="M141.319 180.78C140.669 180.78 140.034 180.695 139.414 180.525C138.794 180.355 138.299 180.14 137.929 179.88L138.649 178.455C139.009 178.695 139.439 178.89 139.939 179.04C140.449 179.18 140.949 179.25 141.439 179.25C142.559 179.25 143.119 178.955 143.119 178.365C143.119 178.085 142.974 177.89 142.684 177.78C142.404 177.67 141.949 177.565 141.319 177.465C140.659 177.365 140.119 177.25 139.699 177.12C139.289 176.99 138.929 176.765 138.619 176.445C138.319 176.115 138.169 175.66 138.169 175.08C138.169 174.32 138.484 173.715 139.114 173.265C139.754 172.805 140.614 172.575 141.694 172.575C142.244 172.575 142.794 172.64 143.344 172.77C143.894 172.89 144.344 173.055 144.694 173.265L143.974 174.69C143.294 174.29 142.529 174.09 141.679 174.09C141.129 174.09 140.709 174.175 140.419 174.345C140.139 174.505 139.999 174.72 139.999 174.99C139.999 175.29 140.149 175.505 140.449 175.635C140.759 175.755 141.234 175.87 141.874 175.98C142.514 176.08 143.039 176.195 143.449 176.325C143.859 176.455 144.209 176.675 144.499 176.985C144.799 177.295 144.949 177.735 144.949 178.305C144.949 179.055 144.624 179.655 143.974 180.105C143.324 180.555 142.439 180.78 141.319 180.78Z" fill="#262626"/>
<path d="M146.564 172.665H148.439V180.675H146.564V172.665ZM147.509 171.345C147.169 171.345 146.884 171.24 146.654 171.03C146.424 170.81 146.309 170.54 146.309 170.22C146.309 169.9 146.424 169.635 146.654 169.425C146.884 169.205 147.169 169.095 147.509 169.095C147.849 169.095 148.134 169.2 148.364 169.41C148.594 169.61 148.709 169.865 148.709 170.175C148.709 170.505 148.594 170.785 148.364 171.015C148.144 171.235 147.859 171.345 147.509 171.345Z" fill="#262626"/>
<path d="M154.575 180.78C153.745 180.78 153 180.605 152.34 180.255C151.68 179.905 151.165 179.42 150.795 178.8C150.425 178.17 150.24 177.46 150.24 176.67C150.24 175.88 150.425 175.175 150.795 174.555C151.165 173.935 151.675 173.45 152.325 173.1C152.985 172.75 153.735 172.575 154.575 172.575C155.365 172.575 156.055 172.735 156.645 173.055C157.245 173.375 157.695 173.835 157.995 174.435L156.555 175.275C156.325 174.905 156.035 174.63 155.685 174.45C155.345 174.26 154.97 174.165 154.56 174.165C153.86 174.165 153.28 174.395 152.82 174.855C152.36 175.305 152.13 175.91 152.13 176.67C152.13 177.43 152.355 178.04 152.805 178.5C153.265 178.95 153.85 179.175 154.56 179.175C154.97 179.175 155.345 179.085 155.685 178.905C156.035 178.715 156.325 178.435 156.555 178.065L157.995 178.905C157.685 179.505 157.23 179.97 156.63 180.3C156.04 180.62 155.355 180.78 154.575 180.78Z" fill="#262626"/>
<path d="M147.301 133.575C150.101 116.675 150.001 98.3746 147.001 82.1746C146.901 81.5746 146.301 81.2746 145.801 81.5746C137.001 88.2746 128.201 93.0746 119.701 100.275C114.801 100.375 114.201 100.075 113.101 100.575C112.901 100.575 112.601 100.575 112.401 100.675C111.601 100.975 110.901 101.775 110.601 102.575C110.101 103.775 110.201 104.675 109.901 110.975C109.801 112.475 109.801 114.075 110.601 115.375C111.301 116.575 112.701 117.275 114.101 117.475C115.501 117.675 116.901 117.575 118.301 117.375C126.601 123.575 135.401 128.975 144.401 134.175C144.801 134.375 145.201 134.675 145.701 134.675C146.401 134.675 147.601 134.175 147.301 133.575C147.301 133.675 147.301 133.675 147.301 133.575ZM119.001 114.575C117.801 114.375 114.901 114.275 114.301 114.275C113.301 114.275 112.601 113.475 112.601 112.475L112.801 103.475C112.801 102.475 113.601 101.775 114.601 101.775H119.001C118.901 101.875 118.901 102.075 118.901 102.275C120.101 109.475 118.901 113.975 119.001 114.575ZM146.101 132.375C137.201 126.775 122.201 116.375 120.101 115.075C120.201 114.975 120.301 114.775 120.401 114.675C121.001 110.475 121.001 106.275 120.301 102.075C120.301 101.975 120.201 101.875 120.201 101.775C120.301 101.775 120.401 101.675 120.501 101.675C128.701 94.6746 137.201 89.9746 145.801 83.4746C148.501 98.8746 148.601 116.175 146.101 132.375Z" fill="black"/>
<path d="M119.002 114.575C117.802 114.375 114.902 114.275 114.302 114.275C113.302 114.275 112.602 113.475 112.602 112.475L112.802 103.475C112.802 102.475 113.602 101.775 114.602 101.775H119.002C118.902 101.875 118.902 102.075 118.902 102.275C120.102 109.475 118.902 113.975 119.002 114.575Z" fill="#FF7700"/>
<path d="M145.802 83.3746C137.102 89.8746 128.602 94.5746 120.502 101.575C120.402 101.675 120.302 101.675 120.202 101.675C120.202 101.775 120.302 101.875 120.302 101.975C121.002 106.175 121.002 110.375 120.402 114.575C120.402 114.775 120.302 114.875 120.102 114.975C122.202 116.275 137.202 126.675 146.102 132.275C148.602 116.175 148.502 98.8746 145.802 83.3746ZM139.802 95.3746C136.902 97.1746 134.002 99.0746 131.202 101.175C130.902 101.375 130.502 101.375 130.202 101.075C130.002 100.775 130.002 100.375 130.302 100.075C133.102 97.9746 136.002 95.9746 139.002 94.1746C139.302 93.9746 139.802 94.0746 139.902 94.3746C140.302 94.7746 140.202 95.1746 139.802 95.3746Z" fill="white"/>
<path d="M152.502 120.975C152.802 121.275 153.202 121.275 153.502 120.975C159.602 114.875 159.802 104.975 154.002 98.6746C153.702 98.3746 153.302 98.3746 153.002 98.6746C152.702 98.9746 152.702 99.3746 153.002 99.6746C158.302 105.475 158.102 114.475 152.502 120.075C152.302 120.275 152.302 120.775 152.502 120.975Z" fill="black"/>
<path d="M139.8 95.3745C136.9 97.1745 134 99.0745 131.2 101.175C130.9 101.375 130.5 101.375 130.2 101.075C130 100.775 130 100.375 130.3 100.075C133.1 97.9745 136 95.9745 139 94.1745C139.3 93.9745 139.8 94.0745 139.9 94.3745C140.3 94.7745 140.2 95.1745 139.8 95.3745Z" fill="black"/>
<path d="M149.8 81.5746L152.3 75.6746C152.5 75.2746 152.3 74.8746 151.9 74.7746C151.5 74.6746 151.1 74.7746 151 75.1746L148.5 81.0746C148.3 81.4746 148.5 81.8746 148.9 81.9746C149.2 82.0746 149.6 81.8746 149.8 81.5746Z" fill="black"/>
<path d="M151.401 84.0746C151.501 84.4746 151.901 84.6746 152.301 84.4746C154.701 83.6746 157.001 82.4746 159.001 80.8746C159.301 80.6746 159.401 80.1746 159.101 79.8746C158.901 79.5746 158.401 79.4746 158.101 79.7746C156.201 81.2746 154.101 82.3746 151.901 83.0746C151.401 83.2746 151.201 83.6746 151.401 84.0746Z" fill="black"/>
<path d="M153.202 88.0746C153.102 88.4746 153.302 88.8746 153.602 88.9746C159.402 90.8746 159.202 90.7746 159.402 90.7746C159.702 90.7746 160.002 90.5746 160.102 90.2746C160.202 89.8746 160.002 89.4746 159.702 89.3746L154.002 87.5746C153.702 87.4746 153.302 87.6746 153.202 88.0746Z" fill="black"/>
</svg>
