<svg width="270" height="271" viewBox="0 0 270 271" fill="none" xmlns="http://www.w3.org/2000/svg">
<path d="M269.028 135.163C269.028 146.955 259.431 156.551 247.639 156.551C241.946 156.551 236.823 154.355 233.001 150.696V226.247C233.001 229.825 230.073 232.753 226.495 232.753H150.781C154.522 228.931 156.799 223.645 156.799 217.87C156.799 206.078 147.202 196.482 135.41 196.482C123.618 196.482 114.022 206.078 114.022 217.87C114.022 223.645 116.299 228.931 120.04 232.753H44.3259C40.7476 232.753 37.8199 229.825 37.8199 226.247V150.533C33.9976 154.274 28.7114 156.551 22.9373 156.551C11.1452 156.551 1.54883 146.955 1.54883 135.163C1.54883 123.37 11.1452 113.774 22.9373 113.774C28.7114 113.774 33.9976 116.051 37.8199 119.792V44.0783C37.8199 40.5 40.7476 37.5723 44.3259 37.5723H120.04C116.299 41.3946 114.022 46.6807 114.022 52.4548C114.022 64.247 123.618 73.8434 135.41 73.8434C147.202 73.8434 156.799 64.247 156.799 52.4548C156.799 46.6807 154.522 41.3946 150.781 37.5723H226.495C230.073 37.5723 233.001 40.5 233.001 44.0783V119.63C236.823 115.97 242.028 113.774 247.639 113.774C259.431 113.774 269.028 123.37 269.028 135.163Z" fill="#E8E8E8"/>
<path d="M97.7482 157.947C96.7582 157.387 95.7282 157.047 94.6582 156.927V165.837H92.7082V156.927C91.6282 157.047 90.5932 157.387 89.6032 157.947L88.9282 156.447C89.6282 156.027 90.3782 155.712 91.1782 155.502C91.9882 155.292 92.8182 155.187 93.6682 155.187C94.5182 155.187 95.3482 155.292 96.1582 155.502C96.9682 155.712 97.7232 156.027 98.4232 156.447L97.7482 157.947Z" fill="#262626"/>
<path d="M111.587 157.827V162.252C111.587 163.422 111.282 164.332 110.672 164.982C110.062 165.622 109.187 165.942 108.047 165.942C106.817 165.942 105.932 165.527 105.392 164.697C105.112 165.117 104.752 165.432 104.312 165.642C103.882 165.842 103.357 165.942 102.737 165.942C101.597 165.942 100.722 165.622 100.112 164.982C99.5123 164.332 99.2123 163.422 99.2123 162.252V157.827H101.087V162.087C101.087 162.847 101.217 163.407 101.477 163.767C101.747 164.127 102.172 164.307 102.752 164.307C103.332 164.307 103.762 164.127 104.042 163.767C104.322 163.397 104.462 162.837 104.462 162.087V157.827H106.337V162.087C106.337 162.837 106.477 163.397 106.757 163.767C107.037 164.127 107.467 164.307 108.047 164.307C108.627 164.307 109.047 164.127 109.307 163.767C109.577 163.407 109.712 162.847 109.712 162.087V157.827H111.587Z" fill="#262626"/>
<path d="M117.579 165.942C116.769 165.942 116.039 165.767 115.389 165.417C114.739 165.067 114.229 164.582 113.859 163.962C113.499 163.332 113.319 162.622 113.319 161.832C113.319 161.042 113.499 160.337 113.859 159.717C114.229 159.097 114.739 158.612 115.389 158.262C116.039 157.912 116.769 157.737 117.579 157.737C118.399 157.737 119.134 157.912 119.784 158.262C120.434 158.612 120.939 159.097 121.299 159.717C121.669 160.337 121.854 161.042 121.854 161.832C121.854 162.622 121.669 163.332 121.299 163.962C120.939 164.582 120.434 165.067 119.784 165.417C119.134 165.767 118.399 165.942 117.579 165.942ZM117.579 164.337C118.269 164.337 118.839 164.107 119.289 163.647C119.739 163.187 119.964 162.582 119.964 161.832C119.964 161.082 119.739 160.477 119.289 160.017C118.839 159.557 118.269 159.327 117.579 159.327C116.889 159.327 116.319 159.557 115.869 160.017C115.429 160.477 115.209 161.082 115.209 161.832C115.209 162.582 115.429 163.187 115.869 163.647C116.319 164.107 116.889 164.337 117.579 164.337Z" fill="#262626"/>
<path d="M129.578 158.997C130.118 158.157 131.068 157.737 132.428 157.737V159.522C132.268 159.492 132.123 159.477 131.993 159.477C131.263 159.477 130.693 159.692 130.283 160.122C129.873 160.542 129.668 161.152 129.668 161.952V165.837H127.793V157.827H129.578V158.997Z" fill="#262626"/>
<path d="M137.545 165.942C136.735 165.942 136.005 165.767 135.355 165.417C134.705 165.067 134.195 164.582 133.825 163.962C133.465 163.332 133.285 162.622 133.285 161.832C133.285 161.042 133.465 160.337 133.825 159.717C134.195 159.097 134.705 158.612 135.355 158.262C136.005 157.912 136.735 157.737 137.545 157.737C138.365 157.737 139.1 157.912 139.75 158.262C140.4 158.612 140.905 159.097 141.265 159.717C141.635 160.337 141.82 161.042 141.82 161.832C141.82 162.622 141.635 163.332 141.265 163.962C140.905 164.582 140.4 165.067 139.75 165.417C139.1 165.767 138.365 165.942 137.545 165.942ZM137.545 164.337C138.235 164.337 138.805 164.107 139.255 163.647C139.705 163.187 139.93 162.582 139.93 161.832C139.93 161.082 139.705 160.477 139.255 160.017C138.805 159.557 138.235 159.327 137.545 159.327C136.855 159.327 136.285 159.557 135.835 160.017C135.395 160.477 135.175 161.082 135.175 161.832C135.175 162.582 135.395 163.187 135.835 163.647C136.285 164.107 136.855 164.337 137.545 164.337Z" fill="#262626"/>
<path d="M151.368 157.827V165.837H149.583V164.817C149.283 165.177 148.908 165.457 148.458 165.657C148.008 165.847 147.523 165.942 147.003 165.942C145.933 165.942 145.088 165.647 144.468 165.057C143.858 164.457 143.553 163.572 143.553 162.402V157.827H145.428V162.147C145.428 162.867 145.588 163.407 145.908 163.767C146.238 164.117 146.703 164.292 147.303 164.292C147.973 164.292 148.503 164.087 148.893 163.677C149.293 163.257 149.493 162.657 149.493 161.877V157.827H151.368Z" fill="#262626"/>
<path d="M158.368 157.737C159.378 157.737 160.188 158.032 160.798 158.622C161.408 159.212 161.713 160.087 161.713 161.247V165.837H159.838V161.487C159.838 160.787 159.673 160.262 159.343 159.912C159.013 159.552 158.543 159.372 157.933 159.372C157.243 159.372 156.698 159.582 156.298 160.002C155.898 160.412 155.698 161.007 155.698 161.787V165.837H153.823V157.827H155.608V158.862C155.918 158.492 156.308 158.212 156.778 158.022C157.248 157.832 157.778 157.737 158.368 157.737Z" fill="#262626"/>
<path d="M172.01 154.707V165.837H170.21V164.802C169.9 165.182 169.515 165.467 169.055 165.657C168.605 165.847 168.105 165.942 167.555 165.942C166.785 165.942 166.09 165.772 165.47 165.432C164.86 165.092 164.38 164.612 164.03 163.992C163.68 163.362 163.505 162.642 163.505 161.832C163.505 161.022 163.68 160.307 164.03 159.687C164.38 159.067 164.86 158.587 165.47 158.247C166.09 157.907 166.785 157.737 167.555 157.737C168.085 157.737 168.57 157.827 169.01 158.007C169.45 158.187 169.825 158.457 170.135 158.817V154.707H172.01ZM167.78 164.337C168.23 164.337 168.635 164.237 168.995 164.037C169.355 163.827 169.64 163.532 169.85 163.152C170.06 162.772 170.165 162.332 170.165 161.832C170.165 161.332 170.06 160.892 169.85 160.512C169.64 160.132 169.355 159.842 168.995 159.642C168.635 159.432 168.23 159.327 167.78 159.327C167.33 159.327 166.925 159.432 166.565 159.642C166.205 159.842 165.92 160.132 165.71 160.512C165.5 160.892 165.395 161.332 165.395 161.832C165.395 162.332 165.5 162.772 165.71 163.152C165.92 163.532 166.205 163.827 166.565 164.037C166.925 164.237 167.33 164.337 167.78 164.337Z" fill="#262626"/>
<path d="M176.938 165.942C176.288 165.942 175.653 165.857 175.033 165.687C174.413 165.517 173.918 165.302 173.548 165.042L174.268 163.617C174.628 163.857 175.058 164.052 175.558 164.202C176.068 164.342 176.568 164.412 177.058 164.412C178.178 164.412 178.738 164.117 178.738 163.527C178.738 163.247 178.593 163.052 178.303 162.942C178.023 162.832 177.568 162.727 176.938 162.627C176.278 162.527 175.738 162.412 175.318 162.282C174.908 162.152 174.548 161.927 174.238 161.607C173.938 161.277 173.788 160.822 173.788 160.242C173.788 159.482 174.103 158.877 174.733 158.427C175.373 157.967 176.233 157.737 177.313 157.737C177.863 157.737 178.413 157.802 178.963 157.932C179.513 158.052 179.963 158.217 180.313 158.427L179.593 159.852C178.913 159.452 178.148 159.252 177.298 159.252C176.748 159.252 176.328 159.337 176.038 159.507C175.758 159.667 175.618 159.882 175.618 160.152C175.618 160.452 175.768 160.667 176.068 160.797C176.378 160.917 176.853 161.032 177.493 161.142C178.133 161.242 178.658 161.357 179.068 161.487C179.478 161.617 179.828 161.837 180.118 162.147C180.418 162.457 180.568 162.897 180.568 163.467C180.568 164.217 180.243 164.817 179.593 165.267C178.943 165.717 178.058 165.942 176.938 165.942Z" fill="#262626"/>
<path d="M90.8166 188.942C90.0066 188.942 89.2766 188.767 88.6266 188.417C87.9766 188.067 87.4666 187.582 87.0966 186.962C86.7366 186.332 86.5566 185.622 86.5566 184.832C86.5566 184.042 86.7366 183.337 87.0966 182.717C87.4666 182.097 87.9766 181.612 88.6266 181.262C89.2766 180.912 90.0066 180.737 90.8166 180.737C91.6366 180.737 92.3716 180.912 93.0216 181.262C93.6716 181.612 94.1766 182.097 94.5366 182.717C94.9066 183.337 95.0916 184.042 95.0916 184.832C95.0916 185.622 94.9066 186.332 94.5366 186.962C94.1766 187.582 93.6716 188.067 93.0216 188.417C92.3716 188.767 91.6366 188.942 90.8166 188.942ZM90.8166 187.337C91.5066 187.337 92.0766 187.107 92.5266 186.647C92.9766 186.187 93.2016 185.582 93.2016 184.832C93.2016 184.082 92.9766 183.477 92.5266 183.017C92.0766 182.557 91.5066 182.327 90.8166 182.327C90.1266 182.327 89.5566 182.557 89.1066 183.017C88.6666 183.477 88.4466 184.082 88.4466 184.832C88.4466 185.582 88.6666 186.187 89.1066 186.647C89.5566 187.107 90.1266 187.337 90.8166 187.337Z" fill="#262626"/>
<path d="M99.8996 179.117C99.1096 179.117 98.7146 179.547 98.7146 180.407V180.887H100.92V182.387H98.7596V188.837H96.8846V180.377C96.8846 179.527 97.1346 178.852 97.6346 178.352C98.1346 177.852 98.8446 177.602 99.7646 177.602C100.475 177.602 101.035 177.747 101.445 178.037L100.92 179.447C100.62 179.227 100.28 179.117 99.8996 179.117Z" fill="#262626"/>
<path d="M109.993 188.942C109.163 188.942 108.418 188.767 107.758 188.417C107.098 188.067 106.583 187.582 106.213 186.962C105.843 186.332 105.658 185.622 105.658 184.832C105.658 184.042 105.843 183.337 106.213 182.717C106.583 182.097 107.093 181.612 107.743 181.262C108.403 180.912 109.153 180.737 109.993 180.737C110.783 180.737 111.473 180.897 112.063 181.217C112.663 181.537 113.113 181.997 113.413 182.597L111.973 183.437C111.743 183.067 111.453 182.792 111.103 182.612C110.763 182.422 110.388 182.327 109.978 182.327C109.278 182.327 108.698 182.557 108.238 183.017C107.778 183.467 107.548 184.072 107.548 184.832C107.548 185.592 107.773 186.202 108.223 186.662C108.683 187.112 109.268 187.337 109.978 187.337C110.388 187.337 110.763 187.247 111.103 187.067C111.453 186.877 111.743 186.597 111.973 186.227L113.413 187.067C113.103 187.667 112.648 188.132 112.048 188.462C111.458 188.782 110.773 188.942 109.993 188.942Z" fill="#262626"/>
<path d="M118.517 188.942C117.707 188.942 116.977 188.767 116.327 188.417C115.677 188.067 115.167 187.582 114.797 186.962C114.437 186.332 114.257 185.622 114.257 184.832C114.257 184.042 114.437 183.337 114.797 182.717C115.167 182.097 115.677 181.612 116.327 181.262C116.977 180.912 117.707 180.737 118.517 180.737C119.337 180.737 120.072 180.912 120.722 181.262C121.372 181.612 121.877 182.097 122.237 182.717C122.607 183.337 122.792 184.042 122.792 184.832C122.792 185.622 122.607 186.332 122.237 186.962C121.877 187.582 121.372 188.067 120.722 188.417C120.072 188.767 119.337 188.942 118.517 188.942ZM118.517 187.337C119.207 187.337 119.777 187.107 120.227 186.647C120.677 186.187 120.902 185.582 120.902 184.832C120.902 184.082 120.677 183.477 120.227 183.017C119.777 182.557 119.207 182.327 118.517 182.327C117.827 182.327 117.257 182.557 116.807 183.017C116.367 183.477 116.147 184.082 116.147 184.832C116.147 185.582 116.367 186.187 116.807 186.647C117.257 187.107 117.827 187.337 118.517 187.337Z" fill="#262626"/>
<path d="M126.37 181.997C126.91 181.157 127.86 180.737 129.22 180.737V182.522C129.06 182.492 128.915 182.477 128.785 182.477C128.055 182.477 127.485 182.692 127.075 183.122C126.665 183.542 126.46 184.152 126.46 184.952V188.837H124.585V180.827H126.37V181.997Z" fill="#262626"/>
<path d="M132.595 181.997C133.135 181.157 134.085 180.737 135.445 180.737V182.522C135.285 182.492 135.14 182.477 135.01 182.477C134.28 182.477 133.71 182.692 133.3 183.122C132.89 183.542 132.685 184.152 132.685 184.952V188.837H130.81V180.827H132.595V181.997Z" fill="#262626"/>
<path d="M140.773 187.352C141.643 187.352 142.368 187.062 142.948 186.482L143.938 187.637C143.588 188.067 143.138 188.392 142.588 188.612C142.038 188.832 141.418 188.942 140.728 188.942C139.848 188.942 139.073 188.767 138.403 188.417C137.733 188.067 137.213 187.582 136.843 186.962C136.483 186.332 136.303 185.622 136.303 184.832C136.303 184.052 136.478 183.352 136.828 182.732C137.188 182.102 137.678 181.612 138.298 181.262C138.928 180.912 139.638 180.737 140.428 180.737C141.178 180.737 141.858 180.902 142.468 181.232C143.088 181.552 143.578 182.017 143.938 182.627C144.298 183.227 144.478 183.932 144.478 184.742L138.343 185.942C138.533 186.402 138.838 186.752 139.258 186.992C139.678 187.232 140.183 187.352 140.773 187.352ZM140.428 182.237C139.738 182.237 139.178 182.462 138.748 182.912C138.328 183.362 138.118 183.967 138.118 184.727V184.742L142.648 183.872C142.518 183.382 142.253 182.987 141.853 182.687C141.463 182.387 140.988 182.237 140.428 182.237Z" fill="#262626"/>
<path d="M149.954 188.942C149.124 188.942 148.379 188.767 147.719 188.417C147.059 188.067 146.544 187.582 146.174 186.962C145.804 186.332 145.619 185.622 145.619 184.832C145.619 184.042 145.804 183.337 146.174 182.717C146.544 182.097 147.054 181.612 147.704 181.262C148.364 180.912 149.114 180.737 149.954 180.737C150.744 180.737 151.434 180.897 152.024 181.217C152.624 181.537 153.074 181.997 153.374 182.597L151.934 183.437C151.704 183.067 151.414 182.792 151.064 182.612C150.724 182.422 150.349 182.327 149.939 182.327C149.239 182.327 148.659 182.557 148.199 183.017C147.739 183.467 147.509 184.072 147.509 184.832C147.509 185.592 147.734 186.202 148.184 186.662C148.644 187.112 149.229 187.337 149.939 187.337C150.349 187.337 150.724 187.247 151.064 187.067C151.414 186.877 151.704 186.597 151.934 186.227L153.374 187.067C153.064 187.667 152.609 188.132 152.009 188.462C151.419 188.782 150.734 188.942 149.954 188.942Z" fill="#262626"/>
<path d="M159.422 188.402C159.202 188.582 158.932 188.717 158.612 188.807C158.302 188.897 157.972 188.942 157.622 188.942C156.742 188.942 156.062 188.712 155.582 188.252C155.102 187.792 154.862 187.122 154.862 186.242V179.057H156.737V180.887H158.882V182.387H156.737V186.197C156.737 186.587 156.832 186.887 157.022 187.097C157.222 187.297 157.497 187.397 157.847 187.397C158.267 187.397 158.617 187.287 158.897 187.067L159.422 188.402Z" fill="#262626"/>
<path d="M160.972 180.827H162.847V188.837H160.972V180.827ZM161.917 179.507C161.577 179.507 161.292 179.402 161.062 179.192C160.832 178.972 160.717 178.702 160.717 178.382C160.717 178.062 160.832 177.797 161.062 177.587C161.292 177.367 161.577 177.257 161.917 177.257C162.257 177.257 162.542 177.362 162.772 177.572C163.002 177.772 163.117 178.027 163.117 178.337C163.117 178.667 163.002 178.947 162.772 179.177C162.552 179.397 162.267 179.507 161.917 179.507Z" fill="#262626"/>
<path d="M168.907 188.942C168.097 188.942 167.367 188.767 166.717 188.417C166.067 188.067 165.557 187.582 165.187 186.962C164.827 186.332 164.647 185.622 164.647 184.832C164.647 184.042 164.827 183.337 165.187 182.717C165.557 182.097 166.067 181.612 166.717 181.262C167.367 180.912 168.097 180.737 168.907 180.737C169.727 180.737 170.462 180.912 171.112 181.262C171.762 181.612 172.267 182.097 172.627 182.717C172.997 183.337 173.182 184.042 173.182 184.832C173.182 185.622 172.997 186.332 172.627 186.962C172.267 187.582 171.762 188.067 171.112 188.417C170.462 188.767 169.727 188.942 168.907 188.942ZM168.907 187.337C169.597 187.337 170.167 187.107 170.617 186.647C171.067 186.187 171.292 185.582 171.292 184.832C171.292 184.082 171.067 183.477 170.617 183.017C170.167 182.557 169.597 182.327 168.907 182.327C168.217 182.327 167.647 182.557 167.197 183.017C166.757 183.477 166.537 184.082 166.537 184.832C166.537 185.582 166.757 186.187 167.197 186.647C167.647 187.107 168.217 187.337 168.907 187.337Z" fill="#262626"/>
<path d="M179.52 180.737C180.53 180.737 181.34 181.032 181.95 181.622C182.56 182.212 182.865 183.087 182.865 184.247V188.837H180.99V184.487C180.99 183.787 180.825 183.262 180.495 182.912C180.165 182.552 179.695 182.372 179.085 182.372C178.395 182.372 177.85 182.582 177.45 183.002C177.05 183.412 176.85 184.007 176.85 184.787V188.837H174.975V180.827H176.76V181.862C177.07 181.492 177.46 181.212 177.93 181.022C178.4 180.832 178.93 180.737 179.52 180.737Z" fill="#262626"/>
<path d="M159.8 109.437C159.5 105.437 158.3 101.537 156.3 98.1372C156.1 97.8372 155.8 97.7372 155.5 97.7372C152.9 98.2372 150.5 99.1372 148.3 100.537C148 100.737 147.9 101.037 148 101.337C148.1 101.937 148.4 102.637 148.6 103.437C149.6 106.437 150.9 110.537 149.4 118.437C149.1 120.037 148.1 121.637 146.2 123.337C145.3 124.237 144.2 124.937 143 125.237C143.1 123.937 143.2 122.637 143.1 121.337C143.1 121.037 143 120.837 142.7 120.737C142.5 120.637 142.2 120.537 142 120.637C136.6 122.637 130.9 124.537 125.3 126.137C124.9 126.337 124.6 126.737 124.8 127.237C124.8 127.337 124.9 127.337 124.9 127.437C124.8 127.737 124.9 128.137 125.2 128.337C126.4 129.237 127.1 130.637 128 131.837C129 133.137 130.1 134.237 131.2 135.337C132.4 136.437 133.6 137.537 134.8 138.537C135.9 139.537 137.2 141.137 138.8 140.937C139.1 140.937 139.4 140.737 139.5 140.537C139.8 140.437 140.1 140.237 140.2 139.837L140.6 137.337C140.7 137.337 140.9 137.237 141 137.037C141.5 136.537 142.2 136.237 142.8 136.037C143.6 135.737 144.4 135.437 145.2 135.137C146.9 134.437 148.4 133.437 149.9 132.237C152.7 130.037 154.7 127.237 156.5 124.137C156.7 123.837 156.7 123.637 156.6 123.337C159.9 117.937 159.8 112.537 159.8 109.437ZM155.8 121.937C155.7 121.537 155.6 121.137 155.4 120.737C155 119.937 154.5 119.337 153.9 118.737C154 119.537 154.3 120.337 154.7 121.137C154.9 121.537 155.1 121.837 155.3 122.137C155.4 122.337 155.4 122.437 155.5 122.637C155.4 122.737 155.4 122.837 155.3 122.937C155.2 123.037 155.1 123.137 155 123.237C154.6 123.937 154.1 124.637 153.7 125.337C152.6 126.737 151.4 128.037 150.1 129.137C147.3 131.437 143.9 132.937 140.4 133.437C140.1 133.537 139.8 133.737 139.7 134.137L139.1 138.737C138.9 138.637 138.6 138.437 138.5 138.237C138.3 137.937 137.2 136.937 134.9 134.637C132.8 132.637 130.2 130.037 128.3 128.137C128 127.837 127.8 127.437 127.5 127.137C132.3 125.637 137.2 124.137 141.9 122.437C141.9 123.637 141.8 124.837 141.6 126.037C141.6 126.237 141.6 126.537 141.8 126.637C142 126.837 142.2 126.937 142.4 126.937H142.5C144.8 126.937 146.5 125.537 147.6 124.437C149.1 123.037 150.8 121.137 151.3 118.637C152.8 110.337 151.4 105.837 150.4 102.837C150.2 102.337 150.1 101.837 150 101.437C151.7 100.437 153.6 99.6372 155.6 99.2372C157.1 101.937 158 104.937 158.4 108.037C158.1 107.637 157.8 107.237 157.5 106.937C156.7 106.137 155.6 105.637 154.5 105.537C155.3 106.137 156.2 106.837 157 107.537C157.5 108.037 158.1 108.537 158.6 109.137V109.237C158.6 110.237 158.6 111.337 158.5 112.737C158.4 112.537 158.4 112.437 158.3 112.237C158.1 111.737 157.8 111.237 157.4 110.837C156.6 109.937 155.5 109.437 154.4 109.437C154.9 109.737 155.3 110.037 155.7 110.337C156.1 110.637 156.5 111.037 156.8 111.337C157.2 111.737 157.5 112.137 157.8 112.537C158 112.837 158.2 113.137 158.5 113.337C158.4 114.537 158.2 115.637 157.9 116.837C157.6 116.237 157.3 115.637 156.8 115.137C156 114.237 155.1 113.537 154 113.037C154.7 114.037 155.5 114.837 156.2 115.637C156.7 116.237 157.2 116.837 157.7 117.537C157 119.237 156.4 120.637 155.8 121.937Z" fill="black"/>
<path d="M158.099 109.337V109.437C158.099 110.437 158.099 111.537 157.999 112.937C157.899 112.737 157.899 112.637 157.799 112.437C157.599 111.937 157.299 111.437 156.899 111.037C156.099 110.137 154.999 109.637 153.899 109.637C154.399 109.937 154.799 110.237 155.199 110.537C155.599 110.837 155.999 111.237 156.299 111.537C156.699 111.937 156.999 112.337 157.299 112.737C157.499 113.037 157.699 113.337 157.999 113.537C157.899 114.737 157.699 115.837 157.399 117.037C157.099 116.437 156.799 115.837 156.299 115.337C155.499 114.437 154.599 113.737 153.499 113.237C154.199 114.237 154.999 115.037 155.699 115.837C156.199 116.437 156.699 117.037 157.199 117.737C156.799 119.237 156.299 120.637 155.599 121.937C155.499 121.537 155.399 121.137 155.199 120.737C154.799 119.937 154.299 119.337 153.699 118.737C153.799 119.537 154.099 120.337 154.499 121.137C154.699 121.537 154.899 121.837 155.099 122.137C155.199 122.337 155.199 122.437 155.299 122.637C155.199 122.737 155.199 122.837 155.099 122.937C154.999 123.037 154.899 123.137 154.799 123.237C154.399 123.937 153.899 124.637 153.499 125.337C152.399 126.737 151.199 128.037 149.899 129.137C147.099 131.437 143.699 132.937 140.199 133.437C139.899 133.537 139.599 133.737 139.499 134.137L138.899 138.737C138.699 138.637 138.399 138.437 138.299 138.237C138.099 137.937 136.999 136.937 134.699 134.637C132.599 132.637 129.999 130.037 128.099 128.137C127.799 127.837 127.599 127.437 127.299 127.137C132.099 125.637 136.999 124.137 141.699 122.437C141.699 123.637 141.599 124.837 141.399 126.037C141.399 126.237 141.399 126.537 141.599 126.637C141.799 126.837 141.999 126.937 142.199 126.937H142.299C144.599 126.937 146.299 125.537 147.399 124.437C148.899 123.037 150.599 121.137 151.099 118.637C152.599 110.337 151.199 105.837 150.199 102.837C149.999 102.337 149.899 101.837 149.799 101.437C151.499 100.437 153.399 99.6372 155.399 99.2372C156.899 101.937 157.799 104.937 158.199 108.037C157.899 107.637 157.599 107.237 157.299 106.937C156.499 106.137 155.399 105.637 154.299 105.537C155.099 106.137 155.999 106.837 156.799 107.537C157.099 108.237 157.699 108.737 158.099 109.337Z" fill="white"/>
<path d="M144.7 97.6373C143.1 95.9373 139.3 92.2373 136.5 89.4373C134.8 87.7373 133.2 86.1373 133 85.9373C132.4 85.1373 131.4 84.6373 130.4 84.6373C130 84.6373 129.8 84.9373 129.7 85.3373L129 90.1373C125.3 90.8373 121.8 92.3373 119 94.8373C110 102.537 110.2 111.637 110.2 115.937C110.5 119.937 111.7 123.837 113.7 127.237C113.8 127.437 114.1 127.637 114.4 127.637H114.5C117.1 127.137 119.5 126.237 121.7 124.737C122 124.537 122.1 124.237 122 123.937C121.9 123.337 121.6 122.637 121.4 121.837C120.5 119.137 119.4 115.537 120.2 109.037C120.3 108.937 120.4 108.837 120.4 108.637C120.6 107.837 120.7 106.937 121 106.137C121.3 105.237 122 104.637 122.6 103.937C123.3 103.237 124.1 102.737 124.9 102.237C125.5 101.837 126.2 101.437 126.8 100.937C126.7 101.837 126.7 102.737 126.7 103.637C126.5 104.037 126.6 104.637 127 104.937C128.3 105.937 129.8 104.837 131 104.237C132.5 103.537 134.1 103.037 135.6 102.537C138.7 101.637 141.8 100.737 144.6 99.1373C145.6 98.9373 145.3 97.9373 144.7 97.6373ZM128.4 102.637C128.4 101.437 128.5 100.237 128.7 99.1373C128.7 98.9373 128.7 98.6373 128.5 98.4373C128.3 98.2373 128.1 98.1373 127.9 98.1373C125.6 98.1373 123.8 99.5373 122.7 100.637C121.2 102.037 119.5 103.937 119 106.437C117.5 114.837 119 119.337 119.9 122.337C120.1 122.837 120.2 123.337 120.3 123.737C118.6 124.737 116.7 125.537 114.7 125.937C113.2 123.237 112.2 120.237 111.8 117.137C112.1 117.537 112.4 117.937 112.7 118.237C113.5 119.037 114.6 119.537 115.7 119.637C114.8 119.037 114 118.337 113.2 117.637C112.6 117.137 112.1 116.637 111.6 116.037V115.837C111.6 114.937 111.6 113.737 111.7 112.337C112 112.537 112 112.737 112.1 112.837C112.3 113.337 112.6 113.837 113 114.237C113.8 115.137 114.9 115.637 116 115.637C115.5 115.337 115.1 115.037 114.7 114.737C114.3 114.437 113.9 114.037 113.6 113.737C113.2 113.337 112.9 112.937 112.6 112.537C112.4 112.237 112.2 111.937 111.9 111.737C112 110.537 112.2 109.337 112.4 108.237C112.7 108.837 113 109.437 113.5 109.937C114.3 110.837 115.2 111.537 116.3 112.037C115.6 111.037 114.8 110.237 114.1 109.437C113.6 108.837 113.1 108.237 112.6 107.537C113 106.037 113.5 104.637 114.2 103.337C114.3 103.737 114.4 104.137 114.6 104.537C115 105.337 115.5 105.937 116.1 106.537C116 105.737 115.7 104.937 115.3 104.137C115.1 103.737 114.9 103.437 114.7 103.137C114.6 102.937 114.6 102.837 114.5 102.637C115.9 100.137 117.7 97.9373 119.9 96.0373C122.7 93.7373 126.1 92.2373 129.7 91.7373C130.1 91.6373 130.3 91.4373 130.4 91.0373L131.1 86.4373C131.3 86.5373 131.5 86.7373 131.7 86.9373C131.9 87.2373 133 88.2373 135.3 90.5373C137.8 92.9373 141 96.1373 142.8 97.9373C138 99.4373 133.2 100.937 128.4 102.637Z" fill="black"/>
<path d="M128.4 102.637C128.4 101.437 128.5 100.237 128.7 99.1373C128.7 98.9373 128.7 98.6373 128.5 98.4373C128.3 98.2373 128.1 98.1373 127.9 98.1373C125.6 98.1373 123.8 99.5373 122.7 100.637C121.2 102.037 119.5 103.937 119 106.437C117.5 114.837 119 119.337 119.9 122.337C120.1 122.837 120.2 123.337 120.3 123.737C118.6 124.737 116.7 125.537 114.7 125.937C113.2 123.237 112.2 120.237 111.8 117.137C112.1 117.537 112.4 117.937 112.7 118.237C113.5 119.037 114.6 119.537 115.7 119.637C114.8 119.037 114 118.337 113.2 117.637C112.6 117.137 112.1 116.637 111.6 116.037V115.837C111.6 114.937 111.6 113.737 111.7 112.337C112 112.537 112 112.737 112.1 112.837C112.3 113.337 112.6 113.837 113 114.237C113.8 115.137 114.9 115.637 116 115.637C115.5 115.337 115.1 115.037 114.7 114.737C114.3 114.437 113.9 114.037 113.6 113.737C113.2 113.337 112.9 112.937 112.6 112.537C112.4 112.237 112.2 111.937 111.9 111.737C112 110.537 112.2 109.337 112.4 108.237C112.7 108.837 113 109.437 113.5 109.937C114.3 110.837 115.2 111.537 116.3 112.037C115.6 111.037 114.8 110.237 114.1 109.437C113.6 108.837 113.1 108.237 112.6 107.537C113 106.037 113.5 104.637 114.2 103.337C114.3 103.737 114.4 104.137 114.6 104.537C115 105.337 115.5 105.937 116.1 106.537C116 105.737 115.7 104.937 115.3 104.137C115.1 103.737 114.9 103.437 114.7 103.137C114.6 102.937 114.6 102.837 114.5 102.637C115.9 100.137 117.7 97.9373 119.9 96.0373C122.7 93.7373 126.1 92.2373 129.7 91.7373C130.1 91.6373 130.3 91.4373 130.4 91.0373L131.1 86.4373C131.3 86.5373 131.5 86.7373 131.7 86.9373C131.9 87.2373 133 88.2373 135.3 90.5373C137.8 92.9373 141 96.1373 142.8 97.9373C138 99.4373 133.2 100.937 128.4 102.637Z" fill="#FF7700"/>
</svg>
