<svg width="270" height="270" viewBox="0 0 270 270" fill="none" xmlns="http://www.w3.org/2000/svg">
<path d="M268.946 135C268.946 146.792 259.349 156.389 247.557 156.389C241.783 156.389 236.497 154.112 232.674 150.371V226.085C232.674 229.663 229.747 232.591 226.168 232.591H150.455C154.196 228.768 156.473 223.482 156.473 217.708C156.473 205.916 146.876 196.32 135.084 196.32C123.292 196.32 113.696 205.916 113.696 217.708C113.696 223.482 115.973 228.768 119.714 232.591H43.9998C40.4214 232.591 37.4937 229.663 37.4937 226.085V150.371C33.6714 154.112 28.3853 156.389 22.6112 156.389C10.819 156.389 1.22266 146.792 1.22266 135C1.22266 123.208 10.819 113.612 22.6112 113.612C28.3853 113.612 33.5901 115.889 37.4937 119.63V43.9159C37.4937 40.3375 40.4214 37.4098 43.9998 37.4098H120.771C116.461 33.5062 113.777 27.8135 113.777 21.5514C113.777 9.75923 123.373 0.162842 135.165 0.162842C146.958 0.162842 156.554 9.75923 156.554 21.5514C156.554 27.8135 153.87 33.5062 149.56 37.4098H226.25C229.828 37.4098 232.756 40.3375 232.756 43.9159V119.63C236.578 115.889 241.864 113.612 247.638 113.612C259.349 113.612 268.946 123.208 268.946 135Z" fill="#E8E8E8"/>
<path d="M123.81 149.5L119.235 160H117.315L112.725 149.5H114.84L118.335 157.6L121.86 149.5H123.81Z" fill="#262626"/>
<path d="M124.811 151.99H126.686V160H124.811V151.99ZM125.756 150.67C125.416 150.67 125.131 150.565 124.901 150.355C124.671 150.135 124.556 149.865 124.556 149.545C124.556 149.225 124.671 148.96 124.901 148.75C125.131 148.53 125.416 148.42 125.756 148.42C126.096 148.42 126.381 148.525 126.611 148.735C126.841 148.935 126.956 149.19 126.956 149.5C126.956 149.83 126.841 150.11 126.611 150.34C126.391 150.56 126.106 150.67 125.756 150.67Z" fill="#262626"/>
<path d="M136.992 148.87V160H135.192V158.965C134.882 159.345 134.497 159.63 134.037 159.82C133.587 160.01 133.087 160.105 132.537 160.105C131.767 160.105 131.072 159.935 130.452 159.595C129.842 159.255 129.362 158.775 129.012 158.155C128.662 157.525 128.487 156.805 128.487 155.995C128.487 155.185 128.662 154.47 129.012 153.85C129.362 153.23 129.842 152.75 130.452 152.41C131.072 152.07 131.767 151.9 132.537 151.9C133.067 151.9 133.552 151.99 133.992 152.17C134.432 152.35 134.807 152.62 135.117 152.98V148.87H136.992ZM132.762 158.5C133.212 158.5 133.617 158.4 133.977 158.2C134.337 157.99 134.622 157.695 134.832 157.315C135.042 156.935 135.147 156.495 135.147 155.995C135.147 155.495 135.042 155.055 134.832 154.675C134.622 154.295 134.337 154.005 133.977 153.805C133.617 153.595 133.212 153.49 132.762 153.49C132.312 153.49 131.907 153.595 131.547 153.805C131.187 154.005 130.902 154.295 130.692 154.675C130.482 155.055 130.377 155.495 130.377 155.995C130.377 156.495 130.482 156.935 130.692 157.315C130.902 157.695 131.187 157.99 131.547 158.2C131.907 158.4 132.312 158.5 132.762 158.5Z" fill="#262626"/>
<path d="M143.255 158.515C144.125 158.515 144.85 158.225 145.43 157.645L146.42 158.8C146.07 159.23 145.62 159.555 145.07 159.775C144.52 159.995 143.9 160.105 143.21 160.105C142.33 160.105 141.555 159.93 140.885 159.58C140.215 159.23 139.695 158.745 139.325 158.125C138.965 157.495 138.785 156.785 138.785 155.995C138.785 155.215 138.96 154.515 139.31 153.895C139.67 153.265 140.16 152.775 140.78 152.425C141.41 152.075 142.12 151.9 142.91 151.9C143.66 151.9 144.34 152.065 144.95 152.395C145.57 152.715 146.06 153.18 146.42 153.79C146.78 154.39 146.96 155.095 146.96 155.905L140.825 157.105C141.015 157.565 141.32 157.915 141.74 158.155C142.16 158.395 142.665 158.515 143.255 158.515ZM142.91 153.4C142.22 153.4 141.66 153.625 141.23 154.075C140.81 154.525 140.6 155.13 140.6 155.89V155.905L145.13 155.035C145 154.545 144.735 154.15 144.335 153.85C143.945 153.55 143.47 153.4 142.91 153.4Z" fill="#262626"/>
<path d="M152.361 160.105C151.551 160.105 150.821 159.93 150.171 159.58C149.521 159.23 149.011 158.745 148.641 158.125C148.281 157.495 148.101 156.785 148.101 155.995C148.101 155.205 148.281 154.5 148.641 153.88C149.011 153.26 149.521 152.775 150.171 152.425C150.821 152.075 151.551 151.9 152.361 151.9C153.181 151.9 153.916 152.075 154.566 152.425C155.216 152.775 155.721 153.26 156.081 153.88C156.451 154.5 156.636 155.205 156.636 155.995C156.636 156.785 156.451 157.495 156.081 158.125C155.721 158.745 155.216 159.23 154.566 159.58C153.916 159.93 153.181 160.105 152.361 160.105ZM152.361 158.5C153.051 158.5 153.621 158.27 154.071 157.81C154.521 157.35 154.746 156.745 154.746 155.995C154.746 155.245 154.521 154.64 154.071 154.18C153.621 153.72 153.051 153.49 152.361 153.49C151.671 153.49 151.101 153.72 150.651 154.18C150.211 154.64 149.991 155.245 149.991 155.995C149.991 156.745 150.211 157.35 150.651 157.81C151.101 158.27 151.671 158.5 152.361 158.5Z" fill="#262626"/>
<path d="M97.7181 183.105C97.0681 183.105 96.4331 183.02 95.8131 182.85C95.1931 182.68 94.6981 182.465 94.3281 182.205L95.0481 180.78C95.4081 181.02 95.8381 181.215 96.3381 181.365C96.8481 181.505 97.3481 181.575 97.8381 181.575C98.9581 181.575 99.5181 181.28 99.5181 180.69C99.5181 180.41 99.3731 180.215 99.0831 180.105C98.8031 179.995 98.3481 179.89 97.7181 179.79C97.0581 179.69 96.5181 179.575 96.0981 179.445C95.6881 179.315 95.3281 179.09 95.0181 178.77C94.7181 178.44 94.5681 177.985 94.5681 177.405C94.5681 176.645 94.8831 176.04 95.5131 175.59C96.1531 175.13 97.0131 174.9 98.0931 174.9C98.6431 174.9 99.1931 174.965 99.7431 175.095C100.293 175.215 100.743 175.38 101.093 175.59L100.373 177.015C99.6931 176.615 98.9281 176.415 98.0781 176.415C97.5281 176.415 97.1081 176.5 96.8181 176.67C96.5381 176.83 96.3981 177.045 96.3981 177.315C96.3981 177.615 96.5481 177.83 96.8481 177.96C97.1581 178.08 97.6331 178.195 98.2731 178.305C98.9131 178.405 99.4381 178.52 99.8481 178.65C100.258 178.78 100.608 179 100.898 179.31C101.198 179.62 101.348 180.06 101.348 180.63C101.348 181.38 101.023 181.98 100.373 182.43C99.7231 182.88 98.8381 183.105 97.7181 183.105Z" fill="#262626"/>
<path d="M107.463 182.565C107.243 182.745 106.973 182.88 106.653 182.97C106.343 183.06 106.013 183.105 105.663 183.105C104.783 183.105 104.103 182.875 103.623 182.415C103.143 181.955 102.903 181.285 102.903 180.405V173.22H104.778V175.05H106.923V176.55H104.778V180.36C104.778 180.75 104.873 181.05 105.063 181.26C105.263 181.46 105.538 181.56 105.888 181.56C106.308 181.56 106.658 181.45 106.938 181.23L107.463 182.565Z" fill="#262626"/>
<path d="M116.768 174.99V181.785C116.768 184.605 115.383 186.015 112.613 186.015C111.883 186.015 111.183 185.915 110.513 185.715C109.853 185.525 109.308 185.245 108.878 184.875L109.718 183.465C110.058 183.755 110.473 183.985 110.963 184.155C111.453 184.325 111.968 184.41 112.508 184.41C113.328 184.41 113.928 184.21 114.308 183.81C114.698 183.42 114.893 182.815 114.893 181.995V181.62C114.593 181.95 114.228 182.205 113.798 182.385C113.368 182.555 112.903 182.64 112.403 182.64C111.333 182.64 110.488 182.345 109.868 181.755C109.258 181.165 108.953 180.28 108.953 179.1V174.99H110.828V178.86C110.828 179.57 110.988 180.105 111.308 180.465C111.638 180.815 112.103 180.99 112.703 180.99C113.373 180.99 113.903 180.785 114.293 180.375C114.693 179.965 114.893 179.37 114.893 178.59V174.99H116.768Z" fill="#262626"/>
<path d="M121.863 183.105C121.033 183.105 120.383 182.88 119.913 182.43C119.453 181.97 119.223 181.325 119.223 180.495V171.87H121.098V180.36C121.098 181.16 121.473 181.56 122.223 181.56C122.473 181.56 122.698 181.51 122.898 181.41L122.988 182.91C122.638 183.04 122.263 183.105 121.863 183.105Z" fill="#262626"/>
<path d="M124.262 174.99H126.137V183H124.262V174.99ZM125.207 173.67C124.867 173.67 124.582 173.565 124.352 173.355C124.122 173.135 124.007 172.865 124.007 172.545C124.007 172.225 124.122 171.96 124.352 171.75C124.582 171.53 124.867 171.42 125.207 171.42C125.547 171.42 125.832 171.525 126.062 171.735C126.292 171.935 126.407 172.19 126.407 172.5C126.407 172.83 126.292 173.11 126.062 173.34C125.842 173.56 125.557 173.67 125.207 173.67Z" fill="#262626"/>
<path d="M134.928 181.5V183H128.013V181.815L129.813 179.64H128.568V178.26H130.953L132.408 176.49H128.103V174.99H134.808V176.175L133.068 178.275H134.358V179.655H131.928L130.398 181.5H134.928Z" fill="#262626"/>
<path d="M144.44 174.99V183H142.655V181.965C142.345 182.345 141.96 182.63 141.5 182.82C141.05 183.01 140.55 183.105 140 183.105C139.22 183.105 138.52 182.935 137.9 182.595C137.29 182.255 136.81 181.775 136.46 181.155C136.12 180.535 135.95 179.815 135.95 178.995C135.95 178.175 136.12 177.46 136.46 176.85C136.81 176.23 137.29 175.75 137.9 175.41C138.52 175.07 139.22 174.9 140 174.9C140.52 174.9 140.995 174.99 141.425 175.17C141.865 175.35 142.245 175.615 142.565 175.965V174.99H144.44ZM140.21 181.5C140.9 181.5 141.47 181.27 141.92 180.81C142.37 180.35 142.595 179.745 142.595 178.995C142.595 178.245 142.37 177.64 141.92 177.18C141.47 176.72 140.9 176.49 140.21 176.49C139.52 176.49 138.95 176.72 138.5 177.18C138.06 177.64 137.84 178.245 137.84 178.995C137.84 179.745 138.06 180.35 138.5 180.81C138.95 181.27 139.52 181.5 140.21 181.5Z" fill="#262626"/>
<path d="M151.394 182.565C151.174 182.745 150.904 182.88 150.584 182.97C150.274 183.06 149.944 183.105 149.594 183.105C148.714 183.105 148.034 182.875 147.554 182.415C147.074 181.955 146.834 181.285 146.834 180.405V173.22H148.709V175.05H150.854V176.55H148.709V180.36C148.709 180.75 148.804 181.05 148.994 181.26C149.194 181.46 149.469 181.56 149.819 181.56C150.239 181.56 150.589 181.45 150.869 181.23L151.394 182.565Z" fill="#262626"/>
<path d="M152.943 174.99H154.818V183H152.943V174.99ZM153.888 173.67C153.548 173.67 153.263 173.565 153.033 173.355C152.803 173.135 152.688 172.865 152.688 172.545C152.688 172.225 152.803 171.96 153.033 171.75C153.263 171.53 153.548 171.42 153.888 171.42C154.228 171.42 154.513 171.525 154.743 171.735C154.973 171.935 155.088 172.19 155.088 172.5C155.088 172.83 154.973 173.11 154.743 173.34C154.523 173.56 154.238 173.67 153.888 173.67Z" fill="#262626"/>
<path d="M160.879 183.105C160.069 183.105 159.339 182.93 158.689 182.58C158.039 182.23 157.529 181.745 157.159 181.125C156.799 180.495 156.619 179.785 156.619 178.995C156.619 178.205 156.799 177.5 157.159 176.88C157.529 176.26 158.039 175.775 158.689 175.425C159.339 175.075 160.069 174.9 160.879 174.9C161.699 174.9 162.434 175.075 163.084 175.425C163.734 175.775 164.239 176.26 164.599 176.88C164.969 177.5 165.154 178.205 165.154 178.995C165.154 179.785 164.969 180.495 164.599 181.125C164.239 181.745 163.734 182.23 163.084 182.58C162.434 182.93 161.699 183.105 160.879 183.105ZM160.879 181.5C161.569 181.5 162.139 181.27 162.589 180.81C163.039 180.35 163.264 179.745 163.264 178.995C163.264 178.245 163.039 177.64 162.589 177.18C162.139 176.72 161.569 176.49 160.879 176.49C160.189 176.49 159.619 176.72 159.169 177.18C158.729 177.64 158.509 178.245 158.509 178.995C158.509 179.745 158.729 180.35 159.169 180.81C159.619 181.27 160.189 181.5 160.879 181.5Z" fill="#262626"/>
<path d="M171.492 174.9C172.502 174.9 173.312 175.195 173.922 175.785C174.532 176.375 174.837 177.25 174.837 178.41V183H172.962V178.65C172.962 177.95 172.797 177.425 172.467 177.075C172.137 176.715 171.667 176.535 171.057 176.535C170.367 176.535 169.822 176.745 169.422 177.165C169.022 177.575 168.822 178.17 168.822 178.95V183H166.947V174.99H168.732V176.025C169.042 175.655 169.432 175.375 169.902 175.185C170.372 174.995 170.902 174.9 171.492 174.9Z" fill="#262626"/>
<path d="M162.2 99.2H134.4C134.6 98.8 134.7 98.3 134.9 97.9L138.5 97.5C138.9 97.5 139.2 97.1 139.1 96.6C138.7 92.3 138.7 91.9 138.6 91.8C138.5 91.6 138.3 91.4 138 91.4L134.6 91.3L132.6 88.3L135.6 85.2C135.9 84.9 135.8 84.2 135.3 84.1C134.1 82.8 132.6 81.6 131.7 80.6C131.4 80.3 130.9 80.3 130.6 80.6L127.6 83.6C127.6 83.6 127.2 83.5 124.7 82.7C124.3 81.5 124 80.2 124 78.9C124.2 78.5 123.8 78 123.3 78L118.5 77.9C118.2 77.9 118 78.1 117.9 78.3C117.6 78.7 117.8 78.6 117.6 82.4C116.5 83 115.9 83.4 114.9 84.1L111.8 81.6C111.5 81 110.9 81.4 110.8 81.4C109.7 82.4 108.4 84 107.6 85.6C107.5 85.8 107.5 86 107.6 86.2C107.6 86.3 107.7 86.4 107.7 86.5C107.7 86.7 107.6 88.2 107.6 88.3C108.2 88.8 108.4 88.9 110.1 90.4C110.1 90.5 109.5 91.6 109.3 92.1L105.7 92.7C105.1 93 105 93.5 105 93.6C105 96 104.9 96.8 105.1 98.4C105.1 98.7 105.3 98.9 105.6 98.9C105.8 99.2 106.1 99.5 106.7 100C107.6 100 108.8 100 109.8 100C110.1 100.8 110.4 101.4 110.9 102.4C110.4 103.1 109 104.9 108.8 105.1C108.6 105.4 108.6 105.8 108.9 106C110 107.4 111.4 108.8 112.1 109.3C112.4 109.4 112.6 109.5 112.8 109.3C113.1 109.4 113.5 109.6 113.8 109.6C114.8 108.7 115.9 107.8 116.7 107C117.4 107.5 118 107.8 118.7 108C118.7 109.4 118.9 110.7 119.3 112C119.4 112.4 119.9 112.7 120.3 112.4C121.9 112.3 123.5 112 125.1 111.7C125.4 111.6 125.6 111.4 125.6 111.1C125.8 110 125.9 108.8 125.9 107.6L126.7 107.3C126.4 116 126.5 124.9 126.6 129C126.7 132.1 126.8 135.4 129.9 136C130.2 136.1 130.5 136.2 130.8 136.2H162.1C163.6 136.2 164.9 134.9 164.9 133.4V102C165 100.4 163.7 99.2 162.2 99.2ZM128.1 98.9L127.5 99.9C125.7 102.2 122.3 103 119.5 101.8C116.7 100.6 115 97.5 115.4 94.4C115.6 93.2 116 92.2 116.7 91.3C120.2 86.5 126.8 88.2 128.5 92.7C129.3 94.9 129.2 96.5 128.1 98.9ZM129.7 92.2C127.6 86.7 119.7 84.7 115.5 90.5C111.5 96 115.5 103.8 122.2 103.8C124.2 103.8 126.2 103.1 127.6 101.8C127.1 103 127 104.6 126.9 106L125.1 106.6C124.8 106.7 124.7 107 124.7 107.2C124.6 107.6 124.8 108.2 124.4 110.6C123.1 110.9 121.8 111.1 120.6 111.2C120.4 110.2 120.3 109.1 120.2 108C120.5 107.6 120.2 107.1 119.8 107C118.9 106.8 117.9 106.2 116.7 105.2C116.4 104.9 115.9 105 115.6 105.4C114.6 106.3 113.6 107.1 112.5 107.8C111.6 107.1 110.9 106.3 110.2 105.4L112.2 102.8C112.4 102.5 112.4 102.2 112.2 102C111.4 100.3 111.1 99.7 110.7 98.6C110.7 98.3 110.4 98 110.1 97.9L106.4 97.5C106.3 96.3 106.3 95.5 106.4 94L109.4 93.5C109.5 93.5 109.5 93.5 109.6 93.5C109.9 93.5 110.1 93.4 110.2 93.2C110.3 93.1 110.3 93 110.4 92.9C111 91.8 111.6 90.7 112 89.8C112.1 89.5 112.1 89.2 111.8 89C111.5 88.7 110 87.3 108.9 86C109.5 84.9 110.3 83.9 111.2 83C114.5 85.5 114.4 85.7 114.9 85.7C115.1 85.7 115.3 85.6 115.4 85.4C115.4 85.4 115.4 85.4 115.4 85.3C116.5 84.7 117.3 84.1 118.3 83.5C118.6 83.4 118.8 83.2 118.8 82.9L118.9 79.3L122.4 79.4C122.5 80.8 122.8 82.3 123.4 83.6C123.5 83.9 123.8 84 124 84C127.4 85 127.4 85.1 127.7 85C128.1 84.9 127.9 84.9 130.8 82.1C131.8 83.1 132.4 83.6 133.7 84.9L131 87.6H130.9C130.6 87.8 130.5 88.2 130.7 88.6C133.1 92.2 133 92.3 133.4 92.4C133.5 92.6 133.7 92.7 133.9 92.7L136.9 92.8L137.2 96.2L134.3 96.6H134.2C133.8 96.5 133.4 96.7 133.4 97.1C133.2 97.9 132.9 98.6 132.6 99.3C131.1 99.4 130.1 99 128.9 99.9L129 99.7C130.6 96.8 130.7 94.8 129.7 92.2ZM163.6 133.3C163.6 134.1 162.9 134.7 162.2 134.7H130.8C130 134.7 129.4 134 129.4 133.3V102C129.4 101.2 130.1 100.6 130.8 100.6H162.1C162.9 100.6 163.5 101.2 163.5 102V133.3H163.6Z" fill="black"/>
<path d="M162.2 100.5H130.8C130 100.5 129.4 101.1 129.4 101.9V133.2C129.4 134 130.1 134.6 130.8 134.6H162.1C162.9 134.6 163.5 133.9 163.5 133.2V102C163.6 101.2 163 100.5 162.2 100.5ZM131.3 109.7C131.3 109.3 131.6 109 132 109H134.1V106.6C134.1 106.2 134.4 105.9 134.8 105.9H138.1C138.5 105.9 138.8 106.2 138.8 106.6V109H156.3C156.7 109 157 109.3 157 109.7C157 110.1 156.7 110.4 156.3 110.4H138.8V112.8C138.8 113.2 138.5 113.5 138.1 113.5H134.8C134.4 113.5 134.1 113.2 134.1 112.8V110.4H132C131.6 110.4 131.3 110 131.3 109.7ZM157 124.2H155V126.3C155 126.7 154.7 127 154.3 127H151C150.6 127 150.3 126.7 150.3 126.3V124.2H132.8C132.4 124.2 132.1 123.9 132.1 123.5C132.1 123.1 132.4 122.8 132.8 122.8H150.4V120.2C150.4 119.8 150.7 119.5 151.1 119.5H154.4C154.8 119.5 155.1 119.8 155.1 120.2V122.8H157.1C157.5 122.8 157.8 123.1 157.8 123.5C157.8 123.9 157.4 124.2 157 124.2Z" fill="white"/>
<path d="M137.499 96.1L134.599 96.5H134.499C134.099 96.4 133.699 96.6 133.699 97C133.499 97.8 133.199 98.5001 132.899 99.2001C131.399 99.3001 130.399 98.9 129.199 99.8L129.299 99.6C130.599 96.8001 130.699 94.9 129.699 92.3C127.599 86.8 119.699 84.8 115.499 90.6C111.499 96.1 115.499 103.9 122.199 103.9C124.199 103.9 126.199 103.2 127.599 101.9C127.099 103 126.999 104.6 126.899 106L125.099 106.6C124.799 106.7 124.699 107 124.699 107.2C124.599 107.6 124.799 108.2 124.399 110.6C123.099 110.9 121.799 111.1 120.599 111.2C120.399 110.2 120.299 109.1 120.199 108C120.499 107.6 120.199 107.1 119.799 107C118.899 106.8 117.899 106.2 116.699 105.2C116.399 104.9 115.899 105 115.599 105.4C114.599 106.3 113.599 107.1 112.499 107.8C111.599 107.1 110.899 106.3 110.199 105.4L112.199 102.8C112.399 102.5 112.399 102.2 112.199 102C111.399 100.3 111.099 99.7 110.699 98.6C110.699 98.3 110.399 98 110.099 97.9L106.399 97.5C106.299 96.3 106.299 95.5 106.399 94L109.399 93.5C109.499 93.5 109.499 93.5 109.599 93.5C109.899 93.5 110.099 93.4 110.199 93.2C110.299 93.1 110.299 93 110.399 92.9C110.999 91.8 111.599 90.7 111.999 89.8C112.099 89.5 112.099 89.2 111.799 89C111.499 88.7 109.999 87.3 108.899 86C109.499 84.9 110.299 83.9 111.199 83C114.499 85.5 114.399 85.7 114.899 85.7C115.099 85.7 115.299 85.6 115.399 85.4C115.399 85.4 115.399 85.4 115.399 85.3C116.499 84.7 117.299 84.1 118.299 83.5C118.599 83.4 118.799 83.2 118.799 82.9L118.899 79.3L122.399 79.4C122.499 80.8 122.799 82.3 123.399 83.6C123.499 83.9 123.799 84 123.999 84C127.399 85 127.399 85.1 127.699 85C128.099 84.9 127.899 84.9 130.799 82.1C131.799 83.1 132.399 83.6 133.699 84.9L130.999 87.6H130.899C130.599 87.8 130.499 88.2 130.699 88.6C133.099 92.2 132.999 92.3 133.399 92.4C133.499 92.6 133.699 92.7 133.899 92.7L136.899 92.8L137.499 96.1Z" fill="#FF7700"/>
<path d="M157.7 123.5C157.7 123.9 157.4 124.2 157 124.2H155V126.3C155 126.7 154.7 127 154.3 127H151C150.6 127 150.3 126.7 150.3 126.3V124.2H132.8C132.4 124.2 132.1 123.9 132.1 123.5C132.1 123.1 132.4 122.8 132.8 122.8H150.4V120.2C150.4 119.8 150.7 119.5 151.1 119.5H154.4C154.8 119.5 155.1 119.8 155.1 120.2V122.8H157.1C157.4 122.8 157.7 123.1 157.7 123.5Z" fill="black"/>
<path d="M156.999 109.7C156.999 110.1 156.699 110.4 156.299 110.4H138.799V112.8C138.799 113.2 138.499 113.5 138.099 113.5H134.799C134.399 113.5 134.099 113.2 134.099 112.8V110.4H131.999C131.599 110.4 131.299 110.1 131.299 109.7C131.299 109.3 131.599 109 131.999 109H134.099V106.6C134.099 106.2 134.399 105.9 134.799 105.9H138.099C138.499 105.9 138.799 106.2 138.799 106.6V109H156.299C156.699 109 156.999 109.3 156.999 109.7Z" fill="black"/>
<path d="M143.699 84.4C143.299 84.4 142.999 84.6 142.899 85C142.699 86.9 142.199 88.7 141.399 90.3C141.199 90.6 141.399 91.1 141.699 91.2C141.799 91.2 141.899 91.3 141.999 91.3C142.299 91.3 142.499 91.2 142.599 90.9C143.499 89.1 143.999 87.1 144.199 85.1C144.299 84.7 143.999 84.4 143.699 84.4Z" fill="black"/>
<path d="M144.9 93.4C145.1 93.4 145.3 93.3 145.4 93.2L149 89.4C149.3 89.1 149.2 88.7 149 88.4C148.7 88.1 148.3 88.2 148 88.4L144.4 92.2C144.1 92.5 144.2 92.9 144.4 93.2C144.5 93.3 144.7 93.4 144.9 93.4Z" fill="black"/>
<path d="M146.9 96.9C147 96.9 147.1 96.9 147.2 96.8L150.7 95.3C151.1 95.1 151.2 94.7 151.1 94.4C150.9 94 150.5 93.9 150.2 94L146.7 95.5C146.3 95.7 146.2 96.1 146.3 96.4C146.4 96.8 146.6 96.9 146.9 96.9Z" fill="black"/>
</svg>
