<svg width="270" height="270" viewBox="0 0 270 270" fill="none" xmlns="http://www.w3.org/2000/svg">
<path d="M269.19 135.244C269.19 147.118 259.593 156.633 247.72 156.633C241.946 156.633 236.66 154.356 232.837 150.615V226.572C232.837 230.151 229.91 233.078 226.331 233.078H150.374C154.115 229.256 156.392 223.97 156.392 218.196C156.392 206.404 146.795 196.807 135.003 196.807C123.211 196.807 113.533 206.404 113.533 218.196C113.533 223.97 115.81 229.256 119.551 233.078H43.6748C40.0965 233.078 37.1688 230.151 37.1688 226.572L37.1688 150.615C33.3465 154.356 28.0604 156.633 22.2863 156.633C10.4128 156.714 0.816406 147.118 0.816406 135.244C0.816406 123.371 10.4128 113.774 22.205 113.774C27.9791 113.774 33.2652 116.051 37.0875 119.792L37.0875 43.9158C37.0875 40.3375 40.0152 37.4098 43.5935 37.4098H119.551C115.81 33.5875 113.533 28.3013 113.533 22.5272C113.533 10.7351 123.13 1.13867 135.003 1.13867C146.877 1.13867 156.392 10.7351 156.392 22.5272C156.392 28.3013 154.115 33.5875 150.374 37.4098H226.331C229.91 37.4098 232.837 40.3375 232.837 43.9158V119.874C236.66 116.133 241.946 113.856 247.72 113.856C259.593 113.856 269.19 123.452 269.19 135.244Z" fill="#FF7700"/>
<path d="M121.469 95.5V106H119.594V104.665C118.884 105.655 117.784 106.15 116.294 106.15C115.054 106.15 114.079 105.765 113.369 104.995C112.659 104.215 112.304 103.115 112.304 101.695V95.5H114.254V101.62C114.254 102.55 114.474 103.255 114.914 103.735C115.364 104.205 115.979 104.44 116.759 104.44C117.599 104.44 118.269 104.19 118.769 103.69C119.269 103.18 119.519 102.425 119.519 101.425V95.5H121.469Z" fill="white"/>
<path d="M126.583 106.105C125.933 106.105 125.298 106.02 124.678 105.85C124.058 105.68 123.563 105.465 123.193 105.205L123.913 103.78C124.273 104.02 124.703 104.215 125.203 104.365C125.713 104.505 126.213 104.575 126.703 104.575C127.823 104.575 128.383 104.28 128.383 103.69C128.383 103.41 128.238 103.215 127.948 103.105C127.668 102.995 127.213 102.89 126.583 102.79C125.923 102.69 125.383 102.575 124.963 102.445C124.553 102.315 124.193 102.09 123.883 101.77C123.583 101.44 123.433 100.985 123.433 100.405C123.433 99.645 123.748 99.04 124.378 98.59C125.018 98.13 125.878 97.9 126.958 97.9C127.508 97.9 128.058 97.965 128.608 98.095C129.158 98.215 129.608 98.38 129.958 98.59L129.238 100.015C128.558 99.615 127.793 99.415 126.943 99.415C126.393 99.415 125.973 99.5 125.683 99.67C125.403 99.83 125.263 100.045 125.263 100.315C125.263 100.615 125.413 100.83 125.713 100.96C126.023 101.08 126.498 101.195 127.138 101.305C127.778 101.405 128.303 101.52 128.713 101.65C129.123 101.78 129.473 102 129.763 102.31C130.063 102.62 130.213 103.06 130.213 103.63C130.213 104.38 129.888 104.98 129.238 105.43C128.588 105.88 127.703 106.105 126.583 106.105Z" fill="white"/>
<path d="M135.638 104.515C136.508 104.515 137.233 104.225 137.813 103.645L138.803 104.8C138.453 105.23 138.003 105.555 137.453 105.775C136.903 105.995 136.283 106.105 135.593 106.105C134.713 106.105 133.938 105.93 133.268 105.58C132.598 105.23 132.078 104.745 131.708 104.125C131.348 103.495 131.168 102.785 131.168 101.995C131.168 101.215 131.343 100.515 131.693 99.895C132.053 99.265 132.543 98.775 133.163 98.425C133.793 98.075 134.503 97.9 135.293 97.9C136.043 97.9 136.723 98.065 137.333 98.395C137.953 98.715 138.443 99.18 138.803 99.79C139.163 100.39 139.343 101.095 139.343 101.905L133.208 103.105C133.398 103.565 133.703 103.915 134.123 104.155C134.543 104.395 135.048 104.515 135.638 104.515ZM135.293 99.4C134.603 99.4 134.043 99.625 133.613 100.075C133.193 100.525 132.983 101.13 132.983 101.89V101.905L137.513 101.035C137.383 100.545 137.118 100.15 136.718 99.85C136.328 99.55 135.853 99.4 135.293 99.4Z" fill="white"/>
<path d="M148.89 106.105C148.08 106.105 147.35 105.93 146.7 105.58C146.05 105.23 145.54 104.745 145.17 104.125C144.81 103.495 144.63 102.785 144.63 101.995C144.63 101.205 144.81 100.5 145.17 99.88C145.54 99.26 146.05 98.775 146.7 98.425C147.35 98.075 148.08 97.9 148.89 97.9C149.71 97.9 150.445 98.075 151.095 98.425C151.745 98.775 152.25 99.26 152.61 99.88C152.98 100.5 153.165 101.205 153.165 101.995C153.165 102.785 152.98 103.495 152.61 104.125C152.25 104.745 151.745 105.23 151.095 105.58C150.445 105.93 149.71 106.105 148.89 106.105ZM148.89 104.5C149.58 104.5 150.15 104.27 150.6 103.81C151.05 103.35 151.275 102.745 151.275 101.995C151.275 101.245 151.05 100.64 150.6 100.18C150.15 99.72 149.58 99.49 148.89 99.49C148.2 99.49 147.63 99.72 147.18 100.18C146.74 100.64 146.52 101.245 146.52 101.995C146.52 102.745 146.74 103.35 147.18 103.81C147.63 104.27 148.2 104.5 148.89 104.5Z" fill="white"/>
<path d="M157.973 96.28C157.183 96.28 156.788 96.71 156.788 97.57V98.05H158.993V99.55H156.833V106H154.958V97.54C154.958 96.69 155.208 96.015 155.708 95.515C156.208 95.015 156.918 94.765 157.838 94.765C158.548 94.765 159.108 94.91 159.518 95.2L158.993 96.61C158.693 96.39 158.353 96.28 157.973 96.28Z" fill="white"/>
<path d="M101.689 120.99V129H99.9042V127.965C99.5942 128.345 99.2092 128.63 98.7492 128.82C98.2992 129.01 97.7992 129.105 97.2492 129.105C96.4692 129.105 95.7692 128.935 95.1492 128.595C94.5392 128.255 94.0592 127.775 93.7092 127.155C93.3692 126.535 93.1992 125.815 93.1992 124.995C93.1992 124.175 93.3692 123.46 93.7092 122.85C94.0592 122.23 94.5392 121.75 95.1492 121.41C95.7692 121.07 96.4692 120.9 97.2492 120.9C97.7692 120.9 98.2442 120.99 98.6742 121.17C99.1142 121.35 99.4942 121.615 99.8142 121.965V120.99H101.689ZM97.4592 127.5C98.1492 127.5 98.7192 127.27 99.1692 126.81C99.6192 126.35 99.8442 125.745 99.8442 124.995C99.8442 124.245 99.6192 123.64 99.1692 123.18C98.7192 122.72 98.1492 122.49 97.4592 122.49C96.7692 122.49 96.1992 122.72 95.7492 123.18C95.3092 123.64 95.0892 124.245 95.0892 124.995C95.0892 125.745 95.3092 126.35 95.7492 126.81C96.1992 127.27 96.7692 127.5 97.4592 127.5Z" fill="white"/>
<path d="M111.897 120.99V129H110.112V127.98C109.812 128.34 109.437 128.62 108.987 128.82C108.537 129.01 108.052 129.105 107.532 129.105C106.462 129.105 105.617 128.81 104.997 128.22C104.387 127.62 104.082 126.735 104.082 125.565V120.99H105.957V125.31C105.957 126.03 106.117 126.57 106.437 126.93C106.767 127.28 107.232 127.455 107.832 127.455C108.502 127.455 109.032 127.25 109.422 126.84C109.822 126.42 110.022 125.82 110.022 125.04V120.99H111.897Z" fill="white"/>
<path d="M118.852 128.565C118.632 128.745 118.362 128.88 118.042 128.97C117.732 129.06 117.402 129.105 117.052 129.105C116.172 129.105 115.492 128.875 115.012 128.415C114.532 127.955 114.292 127.285 114.292 126.405V119.22H116.167V121.05H118.312V122.55H116.167V126.36C116.167 126.75 116.262 127.05 116.452 127.26C116.652 127.46 116.927 127.56 117.277 127.56C117.697 127.56 118.047 127.45 118.327 127.23L118.852 128.565Z" fill="white"/>
<path d="M124.947 120.9C125.957 120.9 126.767 121.195 127.377 121.785C127.987 122.375 128.292 123.25 128.292 124.41V129H126.417V124.65C126.417 123.95 126.252 123.425 125.922 123.075C125.592 122.715 125.122 122.535 124.512 122.535C123.822 122.535 123.277 122.745 122.877 123.165C122.477 123.575 122.277 124.17 122.277 124.95V129H120.402V117.87H122.277V121.92C122.587 121.59 122.967 121.34 123.417 121.17C123.877 120.99 124.387 120.9 124.947 120.9Z" fill="white"/>
<path d="M134.344 129.105C133.534 129.105 132.804 128.93 132.154 128.58C131.504 128.23 130.994 127.745 130.624 127.125C130.264 126.495 130.084 125.785 130.084 124.995C130.084 124.205 130.264 123.5 130.624 122.88C130.994 122.26 131.504 121.775 132.154 121.425C132.804 121.075 133.534 120.9 134.344 120.9C135.164 120.9 135.899 121.075 136.549 121.425C137.199 121.775 137.704 122.26 138.064 122.88C138.434 123.5 138.619 124.205 138.619 124.995C138.619 125.785 138.434 126.495 138.064 127.125C137.704 127.745 137.199 128.23 136.549 128.58C135.899 128.93 135.164 129.105 134.344 129.105ZM134.344 127.5C135.034 127.5 135.604 127.27 136.054 126.81C136.504 126.35 136.729 125.745 136.729 124.995C136.729 124.245 136.504 123.64 136.054 123.18C135.604 122.72 135.034 122.49 134.344 122.49C133.654 122.49 133.084 122.72 132.634 123.18C132.194 123.64 131.974 124.245 131.974 124.995C131.974 125.745 132.194 126.35 132.634 126.81C133.084 127.27 133.654 127.5 134.344 127.5Z" fill="white"/>
<path d="M142.197 122.16C142.737 121.32 143.687 120.9 145.047 120.9V122.685C144.887 122.655 144.742 122.64 144.612 122.64C143.882 122.64 143.312 122.855 142.902 123.285C142.492 123.705 142.287 124.315 142.287 125.115V129H140.412V120.99H142.197V122.16Z" fill="white"/>
<path d="M146.638 120.99H148.513V129H146.638V120.99ZM147.583 119.67C147.243 119.67 146.958 119.565 146.728 119.355C146.498 119.135 146.383 118.865 146.383 118.545C146.383 118.225 146.498 117.96 146.728 117.75C146.958 117.53 147.243 117.42 147.583 117.42C147.923 117.42 148.208 117.525 148.438 117.735C148.668 117.935 148.783 118.19 148.783 118.5C148.783 118.83 148.668 119.11 148.438 119.34C148.218 119.56 147.933 119.67 147.583 119.67Z" fill="white"/>
<path d="M157.303 127.5V129H150.388V127.815L152.188 125.64H150.943V124.26H153.328L154.783 122.49H150.478V120.99H157.183V122.175L155.443 124.275H156.733V125.655H154.303L152.773 127.5H157.303Z" fill="white"/>
<path d="M162.796 127.515C163.666 127.515 164.391 127.225 164.971 126.645L165.961 127.8C165.611 128.23 165.161 128.555 164.611 128.775C164.061 128.995 163.441 129.105 162.751 129.105C161.871 129.105 161.096 128.93 160.426 128.58C159.756 128.23 159.236 127.745 158.866 127.125C158.506 126.495 158.326 125.785 158.326 124.995C158.326 124.215 158.501 123.515 158.851 122.895C159.211 122.265 159.701 121.775 160.321 121.425C160.951 121.075 161.661 120.9 162.451 120.9C163.201 120.9 163.881 121.065 164.491 121.395C165.111 121.715 165.601 122.18 165.961 122.79C166.321 123.39 166.501 124.095 166.501 124.905L160.366 126.105C160.556 126.565 160.861 126.915 161.281 127.155C161.701 127.395 162.206 127.515 162.796 127.515ZM162.451 122.4C161.761 122.4 161.201 122.625 160.771 123.075C160.351 123.525 160.141 124.13 160.141 124.89V124.905L164.671 124.035C164.541 123.545 164.276 123.15 163.876 122.85C163.486 122.55 163.011 122.4 162.451 122.4Z" fill="white"/>
<path d="M176.148 117.87V129H174.348V127.965C174.038 128.345 173.653 128.63 173.193 128.82C172.743 129.01 172.243 129.105 171.693 129.105C170.923 129.105 170.228 128.935 169.608 128.595C168.998 128.255 168.518 127.775 168.168 127.155C167.818 126.525 167.643 125.805 167.643 124.995C167.643 124.185 167.818 123.47 168.168 122.85C168.518 122.23 168.998 121.75 169.608 121.41C170.228 121.07 170.923 120.9 171.693 120.9C172.223 120.9 172.708 120.99 173.148 121.17C173.588 121.35 173.963 121.62 174.273 121.98V117.87H176.148ZM171.918 127.5C172.368 127.5 172.773 127.4 173.133 127.2C173.493 126.99 173.778 126.695 173.988 126.315C174.198 125.935 174.303 125.495 174.303 124.995C174.303 124.495 174.198 124.055 173.988 123.675C173.778 123.295 173.493 123.005 173.133 122.805C172.773 122.595 172.368 122.49 171.918 122.49C171.468 122.49 171.063 122.595 170.703 122.805C170.343 123.005 170.058 123.295 169.848 123.675C169.638 124.055 169.533 124.495 169.533 124.995C169.533 125.495 169.638 125.935 169.848 126.315C170.058 126.695 170.343 126.99 170.703 127.2C171.063 127.4 171.468 127.5 171.918 127.5Z" fill="white"/>
<path d="M122.585 143.99L119.15 152H117.215L113.78 143.99H115.73L118.22 149.93L120.785 143.99H122.585Z" fill="white"/>
<path d="M123.757 143.99H125.632V152H123.757V143.99ZM124.702 142.67C124.362 142.67 124.077 142.565 123.847 142.355C123.617 142.135 123.502 141.865 123.502 141.545C123.502 141.225 123.617 140.96 123.847 140.75C124.077 140.53 124.362 140.42 124.702 140.42C125.042 140.42 125.327 140.525 125.557 140.735C125.787 140.935 125.902 141.19 125.902 141.5C125.902 141.83 125.787 142.11 125.557 142.34C125.337 142.56 125.052 142.67 124.702 142.67Z" fill="white"/>
<path d="M135.938 140.87V152H134.138V150.965C133.828 151.345 133.443 151.63 132.983 151.82C132.533 152.01 132.033 152.105 131.483 152.105C130.713 152.105 130.018 151.935 129.398 151.595C128.788 151.255 128.308 150.775 127.958 150.155C127.608 149.525 127.433 148.805 127.433 147.995C127.433 147.185 127.608 146.47 127.958 145.85C128.308 145.23 128.788 144.75 129.398 144.41C130.018 144.07 130.713 143.9 131.483 143.9C132.013 143.9 132.498 143.99 132.938 144.17C133.378 144.35 133.753 144.62 134.063 144.98V140.87H135.938ZM131.708 150.5C132.158 150.5 132.563 150.4 132.923 150.2C133.283 149.99 133.568 149.695 133.778 149.315C133.988 148.935 134.093 148.495 134.093 147.995C134.093 147.495 133.988 147.055 133.778 146.675C133.568 146.295 133.283 146.005 132.923 145.805C132.563 145.595 132.158 145.49 131.708 145.49C131.258 145.49 130.853 145.595 130.493 145.805C130.133 146.005 129.848 146.295 129.638 146.675C129.428 147.055 129.323 147.495 129.323 147.995C129.323 148.495 129.428 148.935 129.638 149.315C129.848 149.695 130.133 149.99 130.493 150.2C130.853 150.4 131.258 150.5 131.708 150.5Z" fill="white"/>
<path d="M142.2 150.515C143.07 150.515 143.795 150.225 144.375 149.645L145.365 150.8C145.015 151.23 144.565 151.555 144.015 151.775C143.465 151.995 142.845 152.105 142.155 152.105C141.275 152.105 140.5 151.93 139.83 151.58C139.16 151.23 138.64 150.745 138.27 150.125C137.91 149.495 137.73 148.785 137.73 147.995C137.73 147.215 137.905 146.515 138.255 145.895C138.615 145.265 139.105 144.775 139.725 144.425C140.355 144.075 141.065 143.9 141.855 143.9C142.605 143.9 143.285 144.065 143.895 144.395C144.515 144.715 145.005 145.18 145.365 145.79C145.725 146.39 145.905 147.095 145.905 147.905L139.77 149.105C139.96 149.565 140.265 149.915 140.685 150.155C141.105 150.395 141.61 150.515 142.2 150.515ZM141.855 145.4C141.165 145.4 140.605 145.625 140.175 146.075C139.755 146.525 139.545 147.13 139.545 147.89V147.905L144.075 147.035C143.945 146.545 143.68 146.15 143.28 145.85C142.89 145.55 142.415 145.4 141.855 145.4Z" fill="white"/>
<path d="M151.307 152.105C150.497 152.105 149.767 151.93 149.117 151.58C148.467 151.23 147.957 150.745 147.587 150.125C147.227 149.495 147.047 148.785 147.047 147.995C147.047 147.205 147.227 146.5 147.587 145.88C147.957 145.26 148.467 144.775 149.117 144.425C149.767 144.075 150.497 143.9 151.307 143.9C152.127 143.9 152.862 144.075 153.512 144.425C154.162 144.775 154.667 145.26 155.027 145.88C155.397 146.5 155.582 147.205 155.582 147.995C155.582 148.785 155.397 149.495 155.027 150.125C154.667 150.745 154.162 151.23 153.512 151.58C152.862 151.93 152.127 152.105 151.307 152.105ZM151.307 150.5C151.997 150.5 152.567 150.27 153.017 149.81C153.467 149.35 153.692 148.745 153.692 147.995C153.692 147.245 153.467 146.64 153.017 146.18C152.567 145.72 151.997 145.49 151.307 145.49C150.617 145.49 150.047 145.72 149.597 146.18C149.157 146.64 148.937 147.245 148.937 147.995C148.937 148.745 149.157 149.35 149.597 149.81C150.047 150.27 150.617 150.5 151.307 150.5Z" fill="white"/>
<path d="M100.376 168.16C100.916 167.32 101.866 166.9 103.226 166.9V168.685C103.066 168.655 102.921 168.64 102.791 168.64C102.061 168.64 101.491 168.855 101.081 169.285C100.671 169.705 100.466 170.315 100.466 171.115V175H98.5907V166.99H100.376V168.16Z" fill="white"/>
<path d="M108.553 173.515C109.423 173.515 110.148 173.225 110.728 172.645L111.718 173.8C111.368 174.23 110.918 174.555 110.368 174.775C109.818 174.995 109.198 175.105 108.508 175.105C107.628 175.105 106.853 174.93 106.183 174.58C105.513 174.23 104.993 173.745 104.623 173.125C104.263 172.495 104.083 171.785 104.083 170.995C104.083 170.215 104.258 169.515 104.608 168.895C104.968 168.265 105.458 167.775 106.078 167.425C106.708 167.075 107.418 166.9 108.208 166.9C108.958 166.9 109.638 167.065 110.248 167.395C110.868 167.715 111.358 168.18 111.718 168.79C112.078 169.39 112.258 170.095 112.258 170.905L106.123 172.105C106.313 172.565 106.618 172.915 107.038 173.155C107.458 173.395 107.963 173.515 108.553 173.515ZM108.208 168.4C107.518 168.4 106.958 168.625 106.528 169.075C106.108 169.525 105.898 170.13 105.898 170.89V170.905L110.428 170.035C110.298 169.545 110.033 169.15 109.633 168.85C109.243 168.55 108.768 168.4 108.208 168.4Z" fill="white"/>
<path d="M117.734 175.105C116.904 175.105 116.159 174.93 115.499 174.58C114.839 174.23 114.324 173.745 113.954 173.125C113.584 172.495 113.399 171.785 113.399 170.995C113.399 170.205 113.584 169.5 113.954 168.88C114.324 168.26 114.834 167.775 115.484 167.425C116.144 167.075 116.894 166.9 117.734 166.9C118.524 166.9 119.214 167.06 119.804 167.38C120.404 167.7 120.854 168.16 121.154 168.76L119.714 169.6C119.484 169.23 119.194 168.955 118.844 168.775C118.504 168.585 118.129 168.49 117.719 168.49C117.019 168.49 116.439 168.72 115.979 169.18C115.519 169.63 115.289 170.235 115.289 170.995C115.289 171.755 115.514 172.365 115.964 172.825C116.424 173.275 117.009 173.5 117.719 173.5C118.129 173.5 118.504 173.41 118.844 173.23C119.194 173.04 119.484 172.76 119.714 172.39L121.154 173.23C120.844 173.83 120.389 174.295 119.789 174.625C119.199 174.945 118.514 175.105 117.734 175.105Z" fill="white"/>
<path d="M126.258 175.105C125.448 175.105 124.718 174.93 124.068 174.58C123.418 174.23 122.908 173.745 122.538 173.125C122.178 172.495 121.998 171.785 121.998 170.995C121.998 170.205 122.178 169.5 122.538 168.88C122.908 168.26 123.418 167.775 124.068 167.425C124.718 167.075 125.448 166.9 126.258 166.9C127.078 166.9 127.813 167.075 128.463 167.425C129.113 167.775 129.618 168.26 129.978 168.88C130.348 169.5 130.533 170.205 130.533 170.995C130.533 171.785 130.348 172.495 129.978 173.125C129.618 173.745 129.113 174.23 128.463 174.58C127.813 174.93 127.078 175.105 126.258 175.105ZM126.258 173.5C126.948 173.5 127.518 173.27 127.968 172.81C128.418 172.35 128.643 171.745 128.643 170.995C128.643 170.245 128.418 169.64 127.968 169.18C127.518 168.72 126.948 168.49 126.258 168.49C125.568 168.49 124.998 168.72 124.548 169.18C124.108 169.64 123.888 170.245 123.888 170.995C123.888 171.745 124.108 172.35 124.548 172.81C124.998 173.27 125.568 173.5 126.258 173.5Z" fill="white"/>
<path d="M134.111 168.16C134.651 167.32 135.601 166.9 136.961 166.9V168.685C136.801 168.655 136.656 168.64 136.526 168.64C135.796 168.64 135.226 168.855 134.816 169.285C134.406 169.705 134.201 170.315 134.201 171.115V175H132.326V166.99H134.111V168.16Z" fill="white"/>
<path d="M146.323 163.87V175H144.523V173.965C144.213 174.345 143.828 174.63 143.368 174.82C142.918 175.01 142.418 175.105 141.868 175.105C141.098 175.105 140.403 174.935 139.783 174.595C139.173 174.255 138.693 173.775 138.343 173.155C137.993 172.525 137.818 171.805 137.818 170.995C137.818 170.185 137.993 169.47 138.343 168.85C138.693 168.23 139.173 167.75 139.783 167.41C140.403 167.07 141.098 166.9 141.868 166.9C142.398 166.9 142.883 166.99 143.323 167.17C143.763 167.35 144.138 167.62 144.448 167.98V163.87H146.323ZM142.093 173.5C142.543 173.5 142.948 173.4 143.308 173.2C143.668 172.99 143.953 172.695 144.163 172.315C144.373 171.935 144.478 171.495 144.478 170.995C144.478 170.495 144.373 170.055 144.163 169.675C143.953 169.295 143.668 169.005 143.308 168.805C142.948 168.595 142.543 168.49 142.093 168.49C141.643 168.49 141.238 168.595 140.878 168.805C140.518 169.005 140.233 169.295 140.023 169.675C139.813 170.055 139.708 170.495 139.708 170.995C139.708 171.495 139.813 171.935 140.023 172.315C140.233 172.695 140.518 172.99 140.878 173.2C141.238 173.4 141.643 173.5 142.093 173.5Z" fill="white"/>
<path d="M148.776 166.99H150.651V175H148.776V166.99ZM149.721 165.67C149.381 165.67 149.096 165.565 148.866 165.355C148.636 165.135 148.521 164.865 148.521 164.545C148.521 164.225 148.636 163.96 148.866 163.75C149.096 163.53 149.381 163.42 149.721 163.42C150.061 163.42 150.346 163.525 150.576 163.735C150.806 163.935 150.921 164.19 150.921 164.5C150.921 164.83 150.806 165.11 150.576 165.34C150.356 165.56 150.071 165.67 149.721 165.67Z" fill="white"/>
<path d="M157.657 166.9C158.667 166.9 159.477 167.195 160.087 167.785C160.697 168.375 161.002 169.25 161.002 170.41V175H159.127V170.65C159.127 169.95 158.962 169.425 158.632 169.075C158.302 168.715 157.832 168.535 157.222 168.535C156.532 168.535 155.987 168.745 155.587 169.165C155.187 169.575 154.987 170.17 154.987 170.95V175H153.112V166.99H154.897V168.025C155.207 167.655 155.597 167.375 156.067 167.185C156.537 166.995 157.067 166.9 157.657 166.9Z" fill="white"/>
<path d="M171.404 166.99V173.785C171.404 176.605 169.964 178.015 167.084 178.015C166.314 178.015 165.584 177.915 164.894 177.715C164.204 177.525 163.634 177.245 163.184 176.875L164.024 175.465C164.374 175.755 164.814 175.985 165.344 176.155C165.884 176.335 166.429 176.425 166.979 176.425C167.859 176.425 168.504 176.225 168.914 175.825C169.324 175.425 169.529 174.815 169.529 173.995V173.575C169.209 173.925 168.819 174.19 168.359 174.37C167.899 174.55 167.394 174.64 166.844 174.64C166.084 174.64 165.394 174.48 164.774 174.16C164.164 173.83 163.679 173.37 163.319 172.78C162.969 172.19 162.794 171.515 162.794 170.755C162.794 169.995 162.969 169.325 163.319 168.745C163.679 168.155 164.164 167.7 164.774 167.38C165.394 167.06 166.084 166.9 166.844 166.9C167.424 166.9 167.949 166.995 168.419 167.185C168.899 167.375 169.299 167.665 169.619 168.055V166.99H171.404ZM167.129 173.05C167.839 173.05 168.419 172.84 168.869 172.42C169.329 171.99 169.559 171.435 169.559 170.755C169.559 170.085 169.329 169.54 168.869 169.12C168.419 168.7 167.839 168.49 167.129 168.49C166.409 168.49 165.819 168.7 165.359 169.12C164.909 169.54 164.684 170.085 164.684 170.755C164.684 171.435 164.909 171.99 165.359 172.42C165.819 172.84 166.409 173.05 167.129 173.05Z" fill="white"/>
</svg>
