<svg width="270" height="271" viewBox="0 0 270 271" fill="none" xmlns="http://www.w3.org/2000/svg">
<path d="M196.403 135.081C196.403 146.874 206 156.47 217.792 156.47C223.566 156.47 228.852 154.193 232.674 150.452V226.166C232.674 229.744 229.747 232.672 226.168 232.672H150.455C154.196 228.849 156.473 223.563 156.473 217.789C156.473 205.997 146.876 196.401 135.084 196.401C123.292 196.401 113.696 205.997 113.696 217.789C113.696 223.563 115.973 228.849 119.714 232.672H43.9997C40.4214 232.672 37.4937 229.744 37.4937 226.166V150.452C33.6714 154.193 28.3853 156.47 22.6112 156.47C10.819 156.47 1.22266 146.874 1.22266 135.081C1.22266 123.289 10.819 113.693 22.6112 113.693C28.3853 113.693 33.6714 115.97 37.4937 119.711V43.997C37.4937 40.4187 40.4214 37.491 43.9997 37.491H119.714C115.973 33.6687 113.696 28.3826 113.696 22.6085C113.696 10.8163 123.292 1.21991 135.084 1.21991C146.876 1.21991 156.473 10.8163 156.473 22.6085C156.473 28.3826 154.196 33.6687 150.455 37.491H226.168C229.747 37.491 232.674 40.4187 232.674 43.997V119.711C228.852 115.97 223.566 113.693 217.792 113.693C206 113.693 196.403 123.289 196.403 135.081Z" fill="#FF7700"/>
<path d="M99.6834 105.987C98.6234 105.987 97.6634 105.757 96.8034 105.297C95.9534 104.827 95.2834 104.182 94.7934 103.362C94.3134 102.542 94.0734 101.617 94.0734 100.587C94.0734 99.5573 94.3184 98.6323 94.8084 97.8123C95.2984 96.9923 95.9684 96.3523 96.8184 95.8923C97.6784 95.4223 98.6384 95.1873 99.6984 95.1873C100.558 95.1873 101.343 95.3373 102.053 95.6373C102.763 95.9373 103.363 96.3723 103.853 96.9423L102.593 98.1273C101.833 97.3073 100.898 96.8973 99.7884 96.8973C99.0684 96.8973 98.4234 97.0573 97.8534 97.3773C97.2834 97.6873 96.8384 98.1223 96.5184 98.6823C96.1984 99.2423 96.0384 99.8773 96.0384 100.587C96.0384 101.297 96.1984 101.932 96.5184 102.492C96.8384 103.052 97.2834 103.492 97.8534 103.812C98.4234 104.122 99.0684 104.277 99.7884 104.277C100.898 104.277 101.833 103.862 102.593 103.032L103.853 104.232C103.363 104.802 102.758 105.237 102.038 105.537C101.328 105.837 100.543 105.987 99.6834 105.987Z" fill="white"/>
<path d="M108.849 105.942C108.039 105.942 107.309 105.767 106.659 105.417C106.009 105.067 105.499 104.582 105.129 103.962C104.769 103.332 104.589 102.622 104.589 101.832C104.589 101.042 104.769 100.337 105.129 99.7173C105.499 99.0973 106.009 98.6123 106.659 98.2623C107.309 97.9123 108.039 97.7373 108.849 97.7373C109.669 97.7373 110.404 97.9123 111.054 98.2623C111.704 98.6123 112.209 99.0973 112.569 99.7173C112.939 100.337 113.124 101.042 113.124 101.832C113.124 102.622 112.939 103.332 112.569 103.962C112.209 104.582 111.704 105.067 111.054 105.417C110.404 105.767 109.669 105.942 108.849 105.942ZM108.849 104.337C109.539 104.337 110.109 104.107 110.559 103.647C111.009 103.187 111.234 102.582 111.234 101.832C111.234 101.082 111.009 100.477 110.559 100.017C110.109 99.5573 109.539 99.3273 108.849 99.3273C108.159 99.3273 107.589 99.5573 107.139 100.017C106.699 100.477 106.479 101.082 106.479 101.832C106.479 102.582 106.699 103.187 107.139 103.647C107.589 104.107 108.159 104.337 108.849 104.337Z" fill="white"/>
<path d="M125.027 97.7373C126.037 97.7373 126.837 98.0323 127.427 98.6223C128.017 99.2023 128.312 100.077 128.312 101.247V105.837H126.437V101.487C126.437 100.787 126.282 100.262 125.972 99.9123C125.662 99.5523 125.217 99.3723 124.637 99.3723C124.007 99.3723 123.502 99.5823 123.122 100.002C122.742 100.412 122.552 101.002 122.552 101.772V105.837H120.677V101.487C120.677 100.787 120.522 100.262 120.212 99.9123C119.902 99.5523 119.457 99.3723 118.877 99.3723C118.237 99.3723 117.727 99.5773 117.347 99.9873C116.977 100.397 116.792 100.992 116.792 101.772V105.837H114.917V97.8273H116.702V98.8473C117.002 98.4873 117.377 98.2123 117.827 98.0223C118.277 97.8323 118.777 97.7373 119.327 97.7373C119.927 97.7373 120.457 97.8523 120.917 98.0823C121.387 98.3023 121.757 98.6323 122.027 99.0723C122.357 98.6523 122.782 98.3273 123.302 98.0973C123.822 97.8573 124.397 97.7373 125.027 97.7373Z" fill="white"/>
<path d="M135.148 97.7373C135.928 97.7373 136.623 97.9073 137.233 98.2473C137.853 98.5873 138.338 99.0673 138.688 99.6873C139.038 100.307 139.213 101.022 139.213 101.832C139.213 102.642 139.038 103.362 138.688 103.992C138.338 104.612 137.853 105.092 137.233 105.432C136.623 105.772 135.928 105.942 135.148 105.942C134.068 105.942 133.213 105.582 132.583 104.862V108.747H130.708V97.8273H132.493V98.8773C132.803 98.4973 133.183 98.2123 133.633 98.0223C134.093 97.8323 134.598 97.7373 135.148 97.7373ZM134.938 104.337C135.628 104.337 136.193 104.107 136.633 103.647C137.083 103.187 137.308 102.582 137.308 101.832C137.308 101.082 137.083 100.477 136.633 100.017C136.193 99.5573 135.628 99.3273 134.938 99.3273C134.488 99.3273 134.083 99.4323 133.723 99.6423C133.363 99.8423 133.078 100.132 132.868 100.512C132.658 100.892 132.553 101.332 132.553 101.832C132.553 102.332 132.658 102.772 132.868 103.152C133.078 103.532 133.363 103.827 133.723 104.037C134.083 104.237 134.488 104.337 134.938 104.337Z" fill="white"/>
<path d="M144.591 105.942C143.781 105.942 143.051 105.767 142.401 105.417C141.751 105.067 141.241 104.582 140.871 103.962C140.511 103.332 140.331 102.622 140.331 101.832C140.331 101.042 140.511 100.337 140.871 99.7173C141.241 99.0973 141.751 98.6123 142.401 98.2623C143.051 97.9123 143.781 97.7373 144.591 97.7373C145.411 97.7373 146.146 97.9123 146.796 98.2623C147.446 98.6123 147.951 99.0973 148.311 99.7173C148.681 100.337 148.866 101.042 148.866 101.832C148.866 102.622 148.681 103.332 148.311 103.962C147.951 104.582 147.446 105.067 146.796 105.417C146.146 105.767 145.411 105.942 144.591 105.942ZM144.591 104.337C145.281 104.337 145.851 104.107 146.301 103.647C146.751 103.187 146.976 102.582 146.976 101.832C146.976 101.082 146.751 100.477 146.301 100.017C145.851 99.5573 145.281 99.3273 144.591 99.3273C143.901 99.3273 143.331 99.5573 142.881 100.017C142.441 100.477 142.221 101.082 142.221 101.832C142.221 102.582 142.441 103.187 142.881 103.647C143.331 104.107 143.901 104.337 144.591 104.337Z" fill="white"/>
<path d="M153.134 105.942C152.484 105.942 151.849 105.857 151.229 105.687C150.609 105.517 150.114 105.302 149.744 105.042L150.464 103.617C150.824 103.857 151.254 104.052 151.754 104.202C152.264 104.342 152.764 104.412 153.254 104.412C154.374 104.412 154.934 104.117 154.934 103.527C154.934 103.247 154.789 103.052 154.499 102.942C154.219 102.832 153.764 102.727 153.134 102.627C152.474 102.527 151.934 102.412 151.514 102.282C151.104 102.152 150.744 101.927 150.434 101.607C150.134 101.277 149.984 100.822 149.984 100.242C149.984 99.4823 150.299 98.8773 150.929 98.4273C151.569 97.9673 152.429 97.7373 153.509 97.7373C154.059 97.7373 154.609 97.8023 155.159 97.9323C155.709 98.0523 156.159 98.2173 156.509 98.4273L155.789 99.8523C155.109 99.4523 154.344 99.2523 153.494 99.2523C152.944 99.2523 152.524 99.3373 152.234 99.5073C151.954 99.6673 151.814 99.8823 151.814 100.152C151.814 100.452 151.964 100.667 152.264 100.797C152.574 100.917 153.049 101.032 153.689 101.142C154.329 101.242 154.854 101.357 155.264 101.487C155.674 101.617 156.024 101.837 156.314 102.147C156.614 102.457 156.764 102.897 156.764 103.467C156.764 104.217 156.439 104.817 155.789 105.267C155.139 105.717 154.254 105.942 153.134 105.942Z" fill="white"/>
<path d="M158.379 97.8273H160.254V105.837H158.379V97.8273ZM159.324 96.5073C158.984 96.5073 158.699 96.4023 158.469 96.1923C158.239 95.9723 158.124 95.7023 158.124 95.3823C158.124 95.0623 158.239 94.7973 158.469 94.5873C158.699 94.3673 158.984 94.2573 159.324 94.2573C159.664 94.2573 159.949 94.3623 160.179 94.5723C160.409 94.7723 160.524 95.0273 160.524 95.3373C160.524 95.6673 160.409 95.9473 160.179 96.1773C159.959 96.3973 159.674 96.5073 159.324 96.5073Z" fill="white"/>
<path d="M167.215 105.402C166.995 105.582 166.725 105.717 166.405 105.807C166.095 105.897 165.765 105.942 165.415 105.942C164.535 105.942 163.855 105.712 163.375 105.252C162.895 104.792 162.655 104.122 162.655 103.242V96.0573H164.53V97.8873H166.675V99.3873H164.53V103.197C164.53 103.587 164.625 103.887 164.815 104.097C165.015 104.297 165.29 104.397 165.64 104.397C166.06 104.397 166.41 104.287 166.69 104.067L167.215 105.402Z" fill="white"/>
<path d="M172.311 104.352C173.181 104.352 173.906 104.062 174.486 103.482L175.476 104.637C175.126 105.067 174.676 105.392 174.126 105.612C173.576 105.832 172.956 105.942 172.266 105.942C171.386 105.942 170.611 105.767 169.941 105.417C169.271 105.067 168.751 104.582 168.381 103.962C168.021 103.332 167.841 102.622 167.841 101.832C167.841 101.052 168.016 100.352 168.366 99.7323C168.726 99.1023 169.216 98.6123 169.836 98.2623C170.466 97.9123 171.176 97.7373 171.966 97.7373C172.716 97.7373 173.396 97.9023 174.006 98.2323C174.626 98.5523 175.116 99.0173 175.476 99.6273C175.836 100.227 176.016 100.932 176.016 101.742L169.881 102.942C170.071 103.402 170.376 103.752 170.796 103.992C171.216 104.232 171.721 104.352 172.311 104.352ZM171.966 99.2373C171.276 99.2373 170.716 99.4623 170.286 99.9123C169.866 100.362 169.656 100.967 169.656 101.727V101.742L174.186 100.872C174.056 100.382 173.791 99.9873 173.391 99.6873C173.001 99.3873 172.526 99.2373 171.966 99.2373Z" fill="white"/>
<path d="M89.1429 120.827L85.7079 128.837H83.7729L80.3379 120.827H82.2879L84.7779 126.767L87.3429 120.827H89.1429Z" fill="white"/>
<path d="M90.3148 120.827H92.1898V128.837H90.3148V120.827ZM91.2598 119.507C90.9198 119.507 90.6348 119.402 90.4048 119.192C90.1748 118.972 90.0598 118.702 90.0598 118.382C90.0598 118.062 90.1748 117.797 90.4048 117.587C90.6348 117.367 90.9198 117.257 91.2598 117.257C91.5998 117.257 91.8848 117.362 92.1148 117.572C92.3448 117.772 92.4598 118.027 92.4598 118.337C92.4598 118.667 92.3448 118.947 92.1148 119.177C91.8948 119.397 91.6098 119.507 91.2598 119.507Z" fill="white"/>
<path d="M102.496 117.707V128.837H100.696V127.802C100.386 128.182 100.001 128.467 99.5407 128.657C99.0907 128.847 98.5907 128.942 98.0407 128.942C97.2707 128.942 96.5757 128.772 95.9557 128.432C95.3457 128.092 94.8657 127.612 94.5157 126.992C94.1657 126.362 93.9907 125.642 93.9907 124.832C93.9907 124.022 94.1657 123.307 94.5157 122.687C94.8657 122.067 95.3457 121.587 95.9557 121.247C96.5757 120.907 97.2707 120.737 98.0407 120.737C98.5707 120.737 99.0557 120.827 99.4957 121.007C99.9357 121.187 100.311 121.457 100.621 121.817V117.707H102.496ZM98.2657 127.337C98.7157 127.337 99.1207 127.237 99.4807 127.037C99.8407 126.827 100.126 126.532 100.336 126.152C100.546 125.772 100.651 125.332 100.651 124.832C100.651 124.332 100.546 123.892 100.336 123.512C100.126 123.132 99.8407 122.842 99.4807 122.642C99.1207 122.432 98.7157 122.327 98.2657 122.327C97.8157 122.327 97.4107 122.432 97.0507 122.642C96.6907 122.842 96.4057 123.132 96.1957 123.512C95.9857 123.892 95.8807 124.332 95.8807 124.832C95.8807 125.332 95.9857 125.772 96.1957 126.152C96.4057 126.532 96.6907 126.827 97.0507 127.037C97.4107 127.237 97.8157 127.337 98.2657 127.337Z" fill="white"/>
<path d="M108.759 127.352C109.629 127.352 110.354 127.062 110.934 126.482L111.924 127.637C111.574 128.067 111.124 128.392 110.574 128.612C110.024 128.832 109.404 128.942 108.714 128.942C107.834 128.942 107.059 128.767 106.389 128.417C105.719 128.067 105.199 127.582 104.829 126.962C104.469 126.332 104.289 125.622 104.289 124.832C104.289 124.052 104.464 123.352 104.814 122.732C105.174 122.102 105.664 121.612 106.284 121.262C106.914 120.912 107.624 120.737 108.414 120.737C109.164 120.737 109.844 120.902 110.454 121.232C111.074 121.552 111.564 122.017 111.924 122.627C112.284 123.227 112.464 123.932 112.464 124.742L106.329 125.942C106.519 126.402 106.824 126.752 107.244 126.992C107.664 127.232 108.169 127.352 108.759 127.352ZM108.414 122.237C107.724 122.237 107.164 122.462 106.734 122.912C106.314 123.362 106.104 123.967 106.104 124.727V124.742L110.634 123.872C110.504 123.382 110.239 122.987 109.839 122.687C109.449 122.387 108.974 122.237 108.414 122.237Z" fill="white"/>
<path d="M117.865 128.942C117.055 128.942 116.325 128.767 115.675 128.417C115.025 128.067 114.515 127.582 114.145 126.962C113.785 126.332 113.605 125.622 113.605 124.832C113.605 124.042 113.785 123.337 114.145 122.717C114.515 122.097 115.025 121.612 115.675 121.262C116.325 120.912 117.055 120.737 117.865 120.737C118.685 120.737 119.42 120.912 120.07 121.262C120.72 121.612 121.225 122.097 121.585 122.717C121.955 123.337 122.14 124.042 122.14 124.832C122.14 125.622 121.955 126.332 121.585 126.962C121.225 127.582 120.72 128.067 120.07 128.417C119.42 128.767 118.685 128.942 117.865 128.942ZM117.865 127.337C118.555 127.337 119.125 127.107 119.575 126.647C120.025 126.187 120.25 125.582 120.25 124.832C120.25 124.082 120.025 123.477 119.575 123.017C119.125 122.557 118.555 122.327 117.865 122.327C117.175 122.327 116.605 122.557 116.155 123.017C115.715 123.477 115.495 124.082 115.495 124.832C115.495 125.582 115.715 126.187 116.155 126.647C116.605 127.107 117.175 127.337 117.865 127.337Z" fill="white"/>
<path d="M131.093 119.117C130.303 119.117 129.908 119.547 129.908 120.407V120.887H132.113V122.387H129.953V128.837H128.078V120.377C128.078 119.527 128.328 118.852 128.828 118.352C129.328 117.852 130.038 117.602 130.958 117.602C131.668 117.602 132.228 117.747 132.638 118.037L132.113 119.447C131.813 119.227 131.473 119.117 131.093 119.117Z" fill="white"/>
<path d="M136.353 121.997C136.893 121.157 137.843 120.737 139.203 120.737V122.522C139.043 122.492 138.898 122.477 138.768 122.477C138.038 122.477 137.468 122.692 137.058 123.122C136.648 123.542 136.443 124.152 136.443 124.952V128.837H134.568V120.827H136.353V121.997Z" fill="white"/>
<path d="M144.32 128.942C143.51 128.942 142.78 128.767 142.13 128.417C141.48 128.067 140.97 127.582 140.6 126.962C140.24 126.332 140.06 125.622 140.06 124.832C140.06 124.042 140.24 123.337 140.6 122.717C140.97 122.097 141.48 121.612 142.13 121.262C142.78 120.912 143.51 120.737 144.32 120.737C145.14 120.737 145.875 120.912 146.525 121.262C147.175 121.612 147.68 122.097 148.04 122.717C148.41 123.337 148.595 124.042 148.595 124.832C148.595 125.622 148.41 126.332 148.04 126.962C147.68 127.582 147.175 128.067 146.525 128.417C145.875 128.767 145.14 128.942 144.32 128.942ZM144.32 127.337C145.01 127.337 145.58 127.107 146.03 126.647C146.48 126.187 146.705 125.582 146.705 124.832C146.705 124.082 146.48 123.477 146.03 123.017C145.58 122.557 145.01 122.327 144.32 122.327C143.63 122.327 143.06 122.557 142.61 123.017C142.17 123.477 141.95 124.082 141.95 124.832C141.95 125.582 142.17 126.187 142.61 126.647C143.06 127.107 143.63 127.337 144.32 127.337Z" fill="white"/>
<path d="M160.498 120.737C161.508 120.737 162.308 121.032 162.898 121.622C163.488 122.202 163.783 123.077 163.783 124.247V128.837H161.908V124.487C161.908 123.787 161.753 123.262 161.443 122.912C161.133 122.552 160.688 122.372 160.108 122.372C159.478 122.372 158.973 122.582 158.593 123.002C158.213 123.412 158.023 124.002 158.023 124.772V128.837H156.148V124.487C156.148 123.787 155.993 123.262 155.683 122.912C155.373 122.552 154.928 122.372 154.348 122.372C153.708 122.372 153.198 122.577 152.818 122.987C152.448 123.397 152.263 123.992 152.263 124.772V128.837H150.388V120.827H152.173V121.847C152.473 121.487 152.848 121.212 153.298 121.022C153.748 120.832 154.248 120.737 154.798 120.737C155.398 120.737 155.928 120.852 156.388 121.082C156.858 121.302 157.228 121.632 157.498 122.072C157.828 121.652 158.253 121.327 158.773 121.097C159.293 120.857 159.868 120.737 160.498 120.737Z" fill="white"/>
<path d="M178.08 120.827V128.837H176.295V127.817C175.995 128.177 175.62 128.457 175.17 128.657C174.72 128.847 174.235 128.942 173.715 128.942C172.645 128.942 171.8 128.647 171.18 128.057C170.57 127.457 170.265 126.572 170.265 125.402V120.827H172.14V125.147C172.14 125.867 172.3 126.407 172.62 126.767C172.95 127.117 173.415 127.292 174.015 127.292C174.685 127.292 175.215 127.087 175.605 126.677C176.005 126.257 176.205 125.657 176.205 124.877V120.827H178.08Z" fill="white"/>
<path d="M184.974 120.737C185.754 120.737 186.449 120.907 187.059 121.247C187.679 121.587 188.164 122.067 188.514 122.687C188.864 123.307 189.039 124.022 189.039 124.832C189.039 125.642 188.864 126.362 188.514 126.992C188.164 127.612 187.679 128.092 187.059 128.432C186.449 128.772 185.754 128.942 184.974 128.942C183.894 128.942 183.039 128.582 182.409 127.862V131.747H180.534V120.827H182.319V121.877C182.629 121.497 183.009 121.212 183.459 121.022C183.919 120.832 184.424 120.737 184.974 120.737ZM184.764 127.337C185.454 127.337 186.019 127.107 186.459 126.647C186.909 126.187 187.134 125.582 187.134 124.832C187.134 124.082 186.909 123.477 186.459 123.017C186.019 122.557 185.454 122.327 184.764 122.327C184.314 122.327 183.909 122.432 183.549 122.642C183.189 122.842 182.904 123.132 182.694 123.512C182.484 123.892 182.379 124.332 182.379 124.832C182.379 125.332 182.484 125.772 182.694 126.152C182.904 126.532 183.189 126.827 183.549 127.037C183.909 127.237 184.314 127.337 184.764 127.337Z" fill="white"/>
<path d="M96.7996 151.402C96.5796 151.582 96.3096 151.717 95.9896 151.807C95.6796 151.897 95.3496 151.942 94.9996 151.942C94.1196 151.942 93.4396 151.712 92.9596 151.252C92.4796 150.792 92.2396 150.122 92.2396 149.242V142.057H94.1146V143.887H96.2596V145.387H94.1146V149.197C94.1146 149.587 94.2096 149.887 94.3996 150.097C94.5996 150.297 94.8746 150.397 95.2246 150.397C95.6446 150.397 95.9946 150.287 96.2746 150.067L96.7996 151.402Z" fill="white"/>
<path d="M101.686 151.942C100.876 151.942 100.146 151.767 99.4958 151.417C98.8458 151.067 98.3358 150.582 97.9658 149.962C97.6058 149.332 97.4258 148.622 97.4258 147.832C97.4258 147.042 97.6058 146.337 97.9658 145.717C98.3358 145.097 98.8458 144.612 99.4958 144.262C100.146 143.912 100.876 143.737 101.686 143.737C102.506 143.737 103.241 143.912 103.891 144.262C104.541 144.612 105.046 145.097 105.406 145.717C105.776 146.337 105.961 147.042 105.961 147.832C105.961 148.622 105.776 149.332 105.406 149.962C105.046 150.582 104.541 151.067 103.891 151.417C103.241 151.767 102.506 151.942 101.686 151.942ZM101.686 150.337C102.376 150.337 102.946 150.107 103.396 149.647C103.846 149.187 104.071 148.582 104.071 147.832C104.071 147.082 103.846 146.477 103.396 146.017C102.946 145.557 102.376 145.327 101.686 145.327C100.996 145.327 100.426 145.557 99.9758 146.017C99.5358 146.477 99.3158 147.082 99.3158 147.832C99.3158 148.582 99.5358 149.187 99.9758 149.647C100.426 150.107 100.996 150.337 101.686 150.337Z" fill="white"/>
<path d="M115.799 145.672C116.769 145.792 117.509 146.122 118.019 146.662C118.529 147.202 118.784 147.877 118.784 148.687C118.784 149.297 118.629 149.852 118.319 150.352C118.009 150.852 117.539 151.252 116.909 151.552C116.289 151.842 115.529 151.987 114.629 151.987C113.879 151.987 113.154 151.882 112.454 151.672C111.764 151.452 111.174 151.152 110.684 150.772L111.524 149.257C111.904 149.577 112.364 149.832 112.904 150.022C113.454 150.202 114.019 150.292 114.599 150.292C115.289 150.292 115.829 150.152 116.219 149.872C116.619 149.582 116.819 149.192 116.819 148.702C116.819 148.212 116.629 147.832 116.249 147.562C115.879 147.282 115.309 147.142 114.539 147.142H113.579V145.807L115.964 142.972H111.194V141.337H118.349V142.642L115.799 145.672Z" fill="white"/>
<path d="M128.45 151.942C127.62 151.942 126.875 151.767 126.215 151.417C125.555 151.067 125.04 150.582 124.67 149.962C124.3 149.332 124.115 148.622 124.115 147.832C124.115 147.042 124.3 146.337 124.67 145.717C125.04 145.097 125.55 144.612 126.2 144.262C126.86 143.912 127.61 143.737 128.45 143.737C129.24 143.737 129.93 143.897 130.52 144.217C131.12 144.537 131.57 144.997 131.87 145.597L130.43 146.437C130.2 146.067 129.91 145.792 129.56 145.612C129.22 145.422 128.845 145.327 128.435 145.327C127.735 145.327 127.155 145.557 126.695 146.017C126.235 146.467 126.005 147.072 126.005 147.832C126.005 148.592 126.23 149.202 126.68 149.662C127.14 150.112 127.725 150.337 128.435 150.337C128.845 150.337 129.22 150.247 129.56 150.067C129.91 149.877 130.2 149.597 130.43 149.227L131.87 150.067C131.56 150.667 131.105 151.132 130.505 151.462C129.915 151.782 129.23 151.942 128.45 151.942Z" fill="white"/>
<path d="M141.204 143.827V151.837H139.419V150.802C139.109 151.182 138.724 151.467 138.264 151.657C137.814 151.847 137.314 151.942 136.764 151.942C135.984 151.942 135.284 151.772 134.664 151.432C134.054 151.092 133.574 150.612 133.224 149.992C132.884 149.372 132.714 148.652 132.714 147.832C132.714 147.012 132.884 146.297 133.224 145.687C133.574 145.067 134.054 144.587 134.664 144.247C135.284 143.907 135.984 143.737 136.764 143.737C137.284 143.737 137.759 143.827 138.189 144.007C138.629 144.187 139.009 144.452 139.329 144.802V143.827H141.204ZM136.974 150.337C137.664 150.337 138.234 150.107 138.684 149.647C139.134 149.187 139.359 148.582 139.359 147.832C139.359 147.082 139.134 146.477 138.684 146.017C138.234 145.557 137.664 145.327 136.974 145.327C136.284 145.327 135.714 145.557 135.264 146.017C134.824 146.477 134.604 147.082 134.604 147.832C134.604 148.582 134.824 149.187 135.264 149.647C135.714 150.107 136.284 150.337 136.974 150.337Z" fill="white"/>
<path d="M153.767 143.737C154.777 143.737 155.577 144.032 156.167 144.622C156.757 145.202 157.052 146.077 157.052 147.247V151.837H155.177V147.487C155.177 146.787 155.022 146.262 154.712 145.912C154.402 145.552 153.957 145.372 153.377 145.372C152.747 145.372 152.242 145.582 151.862 146.002C151.482 146.412 151.292 147.002 151.292 147.772V151.837H149.417V147.487C149.417 146.787 149.262 146.262 148.952 145.912C148.642 145.552 148.197 145.372 147.617 145.372C146.977 145.372 146.467 145.577 146.087 145.987C145.717 146.397 145.532 146.992 145.532 147.772V151.837H143.657V143.827H145.442V144.847C145.742 144.487 146.117 144.212 146.567 144.022C147.017 143.832 147.517 143.737 148.067 143.737C148.667 143.737 149.197 143.852 149.657 144.082C150.127 144.302 150.497 144.632 150.767 145.072C151.097 144.652 151.522 144.327 152.042 144.097C152.562 143.857 153.137 143.737 153.767 143.737Z" fill="white"/>
<path d="M161.923 151.942C161.273 151.942 160.638 151.857 160.018 151.687C159.398 151.517 158.903 151.302 158.533 151.042L159.253 149.617C159.613 149.857 160.043 150.052 160.543 150.202C161.053 150.342 161.553 150.412 162.043 150.412C163.163 150.412 163.723 150.117 163.723 149.527C163.723 149.247 163.578 149.052 163.288 148.942C163.008 148.832 162.553 148.727 161.923 148.627C161.263 148.527 160.723 148.412 160.303 148.282C159.893 148.152 159.533 147.927 159.223 147.607C158.923 147.277 158.773 146.822 158.773 146.242C158.773 145.482 159.088 144.877 159.718 144.427C160.358 143.967 161.218 143.737 162.298 143.737C162.848 143.737 163.398 143.802 163.948 143.932C164.498 144.052 164.948 144.217 165.298 144.427L164.578 145.852C163.898 145.452 163.133 145.252 162.283 145.252C161.733 145.252 161.313 145.337 161.023 145.507C160.743 145.667 160.603 145.882 160.603 146.152C160.603 146.452 160.753 146.667 161.053 146.797C161.363 146.917 161.838 147.032 162.478 147.142C163.118 147.242 163.643 147.357 164.053 147.487C164.463 147.617 164.813 147.837 165.103 148.147C165.403 148.457 165.553 148.897 165.553 149.467C165.553 150.217 165.228 150.817 164.578 151.267C163.928 151.717 163.043 151.942 161.923 151.942Z" fill="white"/>
<path d="M177.973 147.337H175.318V149.962H173.713V147.337H171.058V145.837H173.713V143.212H175.318V145.837H177.973V147.337Z" fill="white"/>
<path d="M121.187 163.707V174.837H119.387V173.802C119.077 174.182 118.692 174.467 118.232 174.657C117.782 174.847 117.282 174.942 116.732 174.942C115.962 174.942 115.267 174.772 114.647 174.432C114.037 174.092 113.557 173.612 113.207 172.992C112.857 172.362 112.682 171.642 112.682 170.832C112.682 170.022 112.857 169.307 113.207 168.687C113.557 168.067 114.037 167.587 114.647 167.247C115.267 166.907 115.962 166.737 116.732 166.737C117.262 166.737 117.747 166.827 118.187 167.007C118.627 167.187 119.002 167.457 119.312 167.817V163.707H121.187ZM116.957 173.337C117.407 173.337 117.812 173.237 118.172 173.037C118.532 172.827 118.817 172.532 119.027 172.152C119.237 171.772 119.342 171.332 119.342 170.832C119.342 170.332 119.237 169.892 119.027 169.512C118.817 169.132 118.532 168.842 118.172 168.642C117.812 168.432 117.407 168.327 116.957 168.327C116.507 168.327 116.102 168.432 115.742 168.642C115.382 168.842 115.097 169.132 114.887 169.512C114.677 169.892 114.572 170.332 114.572 170.832C114.572 171.332 114.677 171.772 114.887 172.152C115.097 172.532 115.382 172.827 115.742 173.037C116.102 173.237 116.507 173.337 116.957 173.337Z" fill="white"/>
<path d="M125.425 167.997C125.965 167.157 126.915 166.737 128.275 166.737V168.522C128.115 168.492 127.97 168.477 127.84 168.477C127.11 168.477 126.54 168.692 126.13 169.122C125.72 169.542 125.515 170.152 125.515 170.952V174.837H123.64V166.827H125.425V167.997Z" fill="white"/>
<path d="M133.392 174.942C132.582 174.942 131.852 174.767 131.202 174.417C130.552 174.067 130.042 173.582 129.672 172.962C129.312 172.332 129.132 171.622 129.132 170.832C129.132 170.042 129.312 169.337 129.672 168.717C130.042 168.097 130.552 167.612 131.202 167.262C131.852 166.912 132.582 166.737 133.392 166.737C134.212 166.737 134.947 166.912 135.597 167.262C136.247 167.612 136.752 168.097 137.112 168.717C137.482 169.337 137.667 170.042 137.667 170.832C137.667 171.622 137.482 172.332 137.112 172.962C136.752 173.582 136.247 174.067 135.597 174.417C134.947 174.767 134.212 174.942 133.392 174.942ZM133.392 173.337C134.082 173.337 134.652 173.107 135.102 172.647C135.552 172.187 135.777 171.582 135.777 170.832C135.777 170.082 135.552 169.477 135.102 169.017C134.652 168.557 134.082 168.327 133.392 168.327C132.702 168.327 132.132 168.557 131.682 169.017C131.242 169.477 131.022 170.082 131.022 170.832C131.022 171.582 131.242 172.187 131.682 172.647C132.132 173.107 132.702 173.337 133.392 173.337Z" fill="white"/>
<path d="M144.005 166.737C145.015 166.737 145.825 167.032 146.435 167.622C147.045 168.212 147.35 169.087 147.35 170.247V174.837H145.475V170.487C145.475 169.787 145.31 169.262 144.98 168.912C144.65 168.552 144.18 168.372 143.57 168.372C142.88 168.372 142.335 168.582 141.935 169.002C141.535 169.412 141.335 170.007 141.335 170.787V174.837H139.46V166.827H141.245V167.862C141.555 167.492 141.945 167.212 142.415 167.022C142.885 166.832 143.415 166.737 144.005 166.737Z" fill="white"/>
<path d="M153.612 173.352C154.482 173.352 155.207 173.062 155.787 172.482L156.777 173.637C156.427 174.067 155.977 174.392 155.427 174.612C154.877 174.832 154.257 174.942 153.567 174.942C152.687 174.942 151.912 174.767 151.242 174.417C150.572 174.067 150.052 173.582 149.682 172.962C149.322 172.332 149.142 171.622 149.142 170.832C149.142 170.052 149.317 169.352 149.667 168.732C150.027 168.102 150.517 167.612 151.137 167.262C151.767 166.912 152.477 166.737 153.267 166.737C154.017 166.737 154.697 166.902 155.307 167.232C155.927 167.552 156.417 168.017 156.777 168.627C157.137 169.227 157.317 169.932 157.317 170.742L151.182 171.942C151.372 172.402 151.677 172.752 152.097 172.992C152.517 173.232 153.022 173.352 153.612 173.352ZM153.267 168.237C152.577 168.237 152.017 168.462 151.587 168.912C151.167 169.362 150.957 169.967 150.957 170.727V170.742L155.487 169.872C155.357 169.382 155.092 168.987 154.692 168.687C154.302 168.387 153.827 168.237 153.267 168.237Z" fill="white"/>
</svg>
