<svg width="270" height="271" viewBox="0 0 270 271" fill="none" xmlns="http://www.w3.org/2000/svg">
<path d="M196.236 134.837C196.236 146.63 205.832 156.226 217.624 156.226C223.398 156.226 228.685 153.949 232.507 150.208V225.922C232.507 229.5 229.579 232.428 226.001 232.428H150.287C154.028 236.25 156.305 241.536 156.305 247.31C156.305 259.102 146.709 268.699 134.917 268.699C123.124 268.699 113.528 259.102 113.528 247.31C113.528 241.536 115.805 236.25 119.546 232.428H43.8322C40.2539 232.428 37.3262 229.5 37.3262 225.922V150.208C41.1485 153.949 46.4345 156.226 52.2086 156.226C64.0008 156.226 73.5972 146.63 73.5972 134.837C73.5972 123.045 64.0008 113.449 52.2086 113.449C46.4345 113.449 41.1485 115.726 37.3262 119.467V43.753C37.3262 40.1747 40.2539 37.247 43.8322 37.247H120.522C116.212 33.3434 113.528 27.6506 113.528 21.3886C113.528 9.59638 123.124 0 134.917 0C146.709 0 156.305 9.59638 156.305 21.3886C156.305 27.6506 153.621 33.3434 149.311 37.247H226.082C229.66 37.247 232.588 40.1747 232.588 43.753V119.467C228.766 115.726 223.48 113.449 217.706 113.449C205.751 113.449 196.236 122.964 196.236 134.837Z" fill="#F6F6F6"/>
<path d="M90.6068 118.15C89.7968 118.15 89.0118 118.035 88.2518 117.805C87.5018 117.575 86.9068 117.27 86.4668 116.89L87.1418 115.375C87.5718 115.715 88.0968 115.995 88.7168 116.215C89.3468 116.425 89.9768 116.53 90.6068 116.53C91.3868 116.53 91.9668 116.405 92.3468 116.155C92.7368 115.905 92.9318 115.575 92.9318 115.165C92.9318 114.865 92.8218 114.62 92.6018 114.43C92.3918 114.23 92.1218 114.075 91.7918 113.965C91.4618 113.855 91.0118 113.73 90.4418 113.59C89.6418 113.4 88.9918 113.21 88.4918 113.02C88.0018 112.83 87.5768 112.535 87.2168 112.135C86.8668 111.725 86.6918 111.175 86.6918 110.485C86.6918 109.905 86.8468 109.38 87.1568 108.91C87.4768 108.43 87.9518 108.05 88.5818 107.77C89.2218 107.49 90.0018 107.35 90.9218 107.35C91.5618 107.35 92.1918 107.43 92.8118 107.59C93.4318 107.75 93.9668 107.98 94.4168 108.28L93.8018 109.795C93.3418 109.525 92.8618 109.32 92.3618 109.18C91.8618 109.04 91.3768 108.97 90.9068 108.97C90.1368 108.97 89.5618 109.1 89.1818 109.36C88.8118 109.62 88.6268 109.965 88.6268 110.395C88.6268 110.695 88.7318 110.94 88.9418 111.13C89.1618 111.32 89.4368 111.47 89.7668 111.58C90.0968 111.69 90.5468 111.815 91.1168 111.955C91.8968 112.135 92.5368 112.325 93.0368 112.525C93.5368 112.715 93.9618 113.01 94.3118 113.41C94.6718 113.81 94.8518 114.35 94.8518 115.03C94.8518 115.61 94.6918 116.135 94.3718 116.605C94.0618 117.075 93.5868 117.45 92.9468 117.73C92.3068 118.01 91.5268 118.15 90.6068 118.15Z" fill="#262626"/>
<path d="M101.105 117.565C100.885 117.745 100.615 117.88 100.295 117.97C99.9854 118.06 99.6554 118.105 99.3054 118.105C98.4254 118.105 97.7454 117.875 97.2654 117.415C96.7854 116.955 96.5454 116.285 96.5454 115.405V108.22H98.4204V110.05H100.565V111.55H98.4204V115.36C98.4204 115.75 98.5154 116.05 98.7054 116.26C98.9054 116.46 99.1804 116.56 99.5304 116.56C99.9504 116.56 100.3 116.45 100.58 116.23L101.105 117.565Z" fill="#262626"/>
<path d="M110.222 109.99V118H108.437V116.965C108.127 117.345 107.742 117.63 107.282 117.82C106.832 118.01 106.332 118.105 105.782 118.105C105.002 118.105 104.302 117.935 103.682 117.595C103.072 117.255 102.592 116.775 102.242 116.155C101.902 115.535 101.732 114.815 101.732 113.995C101.732 113.175 101.902 112.46 102.242 111.85C102.592 111.23 103.072 110.75 103.682 110.41C104.302 110.07 105.002 109.9 105.782 109.9C106.302 109.9 106.777 109.99 107.207 110.17C107.647 110.35 108.027 110.615 108.347 110.965V109.99H110.222ZM105.992 116.5C106.682 116.5 107.252 116.27 107.702 115.81C108.152 115.35 108.377 114.745 108.377 113.995C108.377 113.245 108.152 112.64 107.702 112.18C107.252 111.72 106.682 111.49 105.992 111.49C105.302 111.49 104.732 111.72 104.282 112.18C103.842 112.64 103.622 113.245 103.622 113.995C103.622 114.745 103.842 115.35 104.282 115.81C104.732 116.27 105.302 116.5 105.992 116.5Z" fill="#262626"/>
<path d="M117.115 109.9C117.895 109.9 118.59 110.07 119.2 110.41C119.82 110.75 120.305 111.23 120.655 111.85C121.005 112.47 121.18 113.185 121.18 113.995C121.18 114.805 121.005 115.525 120.655 116.155C120.305 116.775 119.82 117.255 119.2 117.595C118.59 117.935 117.895 118.105 117.115 118.105C116.565 118.105 116.06 118.01 115.6 117.82C115.15 117.63 114.77 117.345 114.46 116.965V118H112.675V106.87H114.55V110.965C114.87 110.615 115.245 110.35 115.675 110.17C116.115 109.99 116.595 109.9 117.115 109.9ZM116.905 116.5C117.595 116.5 118.16 116.27 118.6 115.81C119.05 115.35 119.275 114.745 119.275 113.995C119.275 113.245 119.05 112.64 118.6 112.18C118.16 111.72 117.595 111.49 116.905 111.49C116.455 111.49 116.05 111.595 115.69 111.805C115.33 112.005 115.045 112.295 114.835 112.675C114.625 113.055 114.52 113.495 114.52 113.995C114.52 114.495 114.625 114.935 114.835 115.315C115.045 115.695 115.33 115.99 115.69 116.2C116.05 116.4 116.455 116.5 116.905 116.5Z" fill="#262626"/>
<path d="M122.958 109.99H124.833V118H122.958V109.99ZM123.903 108.67C123.563 108.67 123.278 108.565 123.048 108.355C122.818 108.135 122.703 107.865 122.703 107.545C122.703 107.225 122.818 106.96 123.048 106.75C123.278 106.53 123.563 106.42 123.903 106.42C124.243 106.42 124.528 106.525 124.758 106.735C124.988 106.935 125.103 107.19 125.103 107.5C125.103 107.83 124.988 108.11 124.758 108.34C124.538 108.56 124.253 108.67 123.903 108.67Z" fill="#262626"/>
<path d="M129.934 118.105C129.104 118.105 128.454 117.88 127.984 117.43C127.524 116.97 127.294 116.325 127.294 115.495V106.87H129.169V115.36C129.169 116.16 129.544 116.56 130.294 116.56C130.544 116.56 130.769 116.51 130.969 116.41L131.059 117.91C130.709 118.04 130.334 118.105 129.934 118.105Z" fill="#262626"/>
<path d="M132.333 109.99H134.208V118H132.333V109.99ZM133.278 108.67C132.938 108.67 132.653 108.565 132.423 108.355C132.193 108.135 132.078 107.865 132.078 107.545C132.078 107.225 132.193 106.96 132.423 106.75C132.653 106.53 132.938 106.42 133.278 106.42C133.618 106.42 133.903 106.525 134.133 106.735C134.363 106.935 134.478 107.19 134.478 107.5C134.478 107.83 134.363 108.11 134.133 108.34C133.913 108.56 133.628 108.67 133.278 108.67Z" fill="#262626"/>
<path d="M142.999 116.5V118H136.084V116.815L137.884 114.64H136.639V113.26H139.024L140.479 111.49H136.174V109.99H142.879V111.175L141.139 113.275H142.429V114.655H139.999L138.469 116.5H142.999Z" fill="#262626"/>
<path d="M152.512 109.99V118H150.727V116.965C150.417 117.345 150.032 117.63 149.572 117.82C149.122 118.01 148.622 118.105 148.072 118.105C147.292 118.105 146.592 117.935 145.972 117.595C145.362 117.255 144.882 116.775 144.532 116.155C144.192 115.535 144.022 114.815 144.022 113.995C144.022 113.175 144.192 112.46 144.532 111.85C144.882 111.23 145.362 110.75 145.972 110.41C146.592 110.07 147.292 109.9 148.072 109.9C148.592 109.9 149.067 109.99 149.497 110.17C149.937 110.35 150.317 110.615 150.637 110.965V109.99H152.512ZM148.282 116.5C148.972 116.5 149.542 116.27 149.992 115.81C150.442 115.35 150.667 114.745 150.667 113.995C150.667 113.245 150.442 112.64 149.992 112.18C149.542 111.72 148.972 111.49 148.282 111.49C147.592 111.49 147.022 111.72 146.572 112.18C146.132 112.64 145.912 113.245 145.912 113.995C145.912 114.745 146.132 115.35 146.572 115.81C147.022 116.27 147.592 116.5 148.282 116.5Z" fill="#262626"/>
<path d="M159.465 117.565C159.245 117.745 158.975 117.88 158.655 117.97C158.345 118.06 158.015 118.105 157.665 118.105C156.785 118.105 156.105 117.875 155.625 117.415C155.145 116.955 154.905 116.285 154.905 115.405V108.22H156.78V110.05H158.925V111.55H156.78V115.36C156.78 115.75 156.875 116.05 157.065 116.26C157.265 116.46 157.54 116.56 157.89 116.56C158.31 116.56 158.66 116.45 158.94 116.23L159.465 117.565Z" fill="#262626"/>
<path d="M161.015 109.99H162.89V118H161.015V109.99ZM161.96 108.67C161.62 108.67 161.335 108.565 161.105 108.355C160.875 108.135 160.76 107.865 160.76 107.545C160.76 107.225 160.875 106.96 161.105 106.75C161.335 106.53 161.62 106.42 161.96 106.42C162.3 106.42 162.585 106.525 162.815 106.735C163.045 106.935 163.16 107.19 163.16 107.5C163.16 107.83 163.045 108.11 162.815 108.34C162.595 108.56 162.31 108.67 161.96 108.67Z" fill="#262626"/>
<path d="M168.951 118.105C168.141 118.105 167.411 117.93 166.761 117.58C166.111 117.23 165.601 116.745 165.231 116.125C164.871 115.495 164.691 114.785 164.691 113.995C164.691 113.205 164.871 112.5 165.231 111.88C165.601 111.26 166.111 110.775 166.761 110.425C167.411 110.075 168.141 109.9 168.951 109.9C169.771 109.9 170.506 110.075 171.156 110.425C171.806 110.775 172.311 111.26 172.671 111.88C173.041 112.5 173.226 113.205 173.226 113.995C173.226 114.785 173.041 115.495 172.671 116.125C172.311 116.745 171.806 117.23 171.156 117.58C170.506 117.93 169.771 118.105 168.951 118.105ZM168.951 116.5C169.641 116.5 170.211 116.27 170.661 115.81C171.111 115.35 171.336 114.745 171.336 113.995C171.336 113.245 171.111 112.64 170.661 112.18C170.211 111.72 169.641 111.49 168.951 111.49C168.261 111.49 167.691 111.72 167.241 112.18C166.801 112.64 166.581 113.245 166.581 113.995C166.581 114.745 166.801 115.35 167.241 115.81C167.691 116.27 168.261 116.5 168.951 116.5Z" fill="#262626"/>
<path d="M179.563 109.9C180.573 109.9 181.383 110.195 181.993 110.785C182.603 111.375 182.908 112.25 182.908 113.41V118H181.033V113.65C181.033 112.95 180.868 112.425 180.538 112.075C180.208 111.715 179.738 111.535 179.128 111.535C178.438 111.535 177.893 111.745 177.493 112.165C177.093 112.575 176.893 113.17 176.893 113.95V118H175.018V109.99H176.803V111.025C177.113 110.655 177.503 110.375 177.973 110.185C178.443 109.995 178.973 109.9 179.563 109.9Z" fill="#262626"/>
<path d="M109.134 141.105C108.324 141.105 107.594 140.93 106.944 140.58C106.294 140.23 105.784 139.745 105.414 139.125C105.054 138.495 104.874 137.785 104.874 136.995C104.874 136.205 105.054 135.5 105.414 134.88C105.784 134.26 106.294 133.775 106.944 133.425C107.594 133.075 108.324 132.9 109.134 132.9C109.954 132.9 110.689 133.075 111.339 133.425C111.989 133.775 112.494 134.26 112.854 134.88C113.224 135.5 113.409 136.205 113.409 136.995C113.409 137.785 113.224 138.495 112.854 139.125C112.494 139.745 111.989 140.23 111.339 140.58C110.689 140.93 109.954 141.105 109.134 141.105ZM109.134 139.5C109.824 139.5 110.394 139.27 110.844 138.81C111.294 138.35 111.519 137.745 111.519 136.995C111.519 136.245 111.294 135.64 110.844 135.18C110.394 134.72 109.824 134.49 109.134 134.49C108.444 134.49 107.874 134.72 107.424 135.18C106.984 135.64 106.764 136.245 106.764 136.995C106.764 137.745 106.984 138.35 107.424 138.81C107.874 139.27 108.444 139.5 109.134 139.5Z" fill="#262626"/>
<path d="M118.217 131.28C117.427 131.28 117.032 131.71 117.032 132.57V133.05H119.237V134.55H117.077V141H115.202V132.54C115.202 131.69 115.452 131.015 115.952 130.515C116.452 130.015 117.162 129.765 118.082 129.765C118.792 129.765 119.352 129.91 119.762 130.2L119.237 131.61C118.937 131.39 118.597 131.28 118.217 131.28Z" fill="#262626"/>
<path d="M132.135 132.99L128.7 141H126.765L123.33 132.99H125.28L127.77 138.93L130.335 132.99H132.135Z" fill="#262626"/>
<path d="M133.307 132.99H135.182V141H133.307V132.99ZM134.252 131.67C133.912 131.67 133.627 131.565 133.397 131.355C133.167 131.135 133.052 130.865 133.052 130.545C133.052 130.225 133.167 129.96 133.397 129.75C133.627 129.53 133.912 129.42 134.252 129.42C134.592 129.42 134.877 129.525 135.107 129.735C135.337 129.935 135.452 130.19 135.452 130.5C135.452 130.83 135.337 131.11 135.107 131.34C134.887 131.56 134.602 131.67 134.252 131.67Z" fill="#262626"/>
<path d="M145.488 129.87V141H143.688V139.965C143.378 140.345 142.993 140.63 142.533 140.82C142.083 141.01 141.583 141.105 141.033 141.105C140.263 141.105 139.568 140.935 138.948 140.595C138.338 140.255 137.858 139.775 137.508 139.155C137.158 138.525 136.983 137.805 136.983 136.995C136.983 136.185 137.158 135.47 137.508 134.85C137.858 134.23 138.338 133.75 138.948 133.41C139.568 133.07 140.263 132.9 141.033 132.9C141.563 132.9 142.048 132.99 142.488 133.17C142.928 133.35 143.303 133.62 143.613 133.98V129.87H145.488ZM141.258 139.5C141.708 139.5 142.113 139.4 142.473 139.2C142.833 138.99 143.118 138.695 143.328 138.315C143.538 137.935 143.643 137.495 143.643 136.995C143.643 136.495 143.538 136.055 143.328 135.675C143.118 135.295 142.833 135.005 142.473 134.805C142.113 134.595 141.708 134.49 141.258 134.49C140.808 134.49 140.403 134.595 140.043 134.805C139.683 135.005 139.398 135.295 139.188 135.675C138.978 136.055 138.873 136.495 138.873 136.995C138.873 137.495 138.978 137.935 139.188 138.315C139.398 138.695 139.683 138.99 140.043 139.2C140.403 139.4 140.808 139.5 141.258 139.5Z" fill="#262626"/>
<path d="M151.751 139.515C152.621 139.515 153.346 139.225 153.926 138.645L154.916 139.8C154.566 140.23 154.116 140.555 153.566 140.775C153.016 140.995 152.396 141.105 151.706 141.105C150.826 141.105 150.051 140.93 149.381 140.58C148.711 140.23 148.191 139.745 147.821 139.125C147.461 138.495 147.281 137.785 147.281 136.995C147.281 136.215 147.456 135.515 147.806 134.895C148.166 134.265 148.656 133.775 149.276 133.425C149.906 133.075 150.616 132.9 151.406 132.9C152.156 132.9 152.836 133.065 153.446 133.395C154.066 133.715 154.556 134.18 154.916 134.79C155.276 135.39 155.456 136.095 155.456 136.905L149.321 138.105C149.511 138.565 149.816 138.915 150.236 139.155C150.656 139.395 151.161 139.515 151.751 139.515ZM151.406 134.4C150.716 134.4 150.156 134.625 149.726 135.075C149.306 135.525 149.096 136.13 149.096 136.89V136.905L153.626 136.035C153.496 135.545 153.231 135.15 152.831 134.85C152.441 134.55 151.966 134.4 151.406 134.4Z" fill="#262626"/>
<path d="M160.857 141.105C160.047 141.105 159.317 140.93 158.667 140.58C158.017 140.23 157.507 139.745 157.137 139.125C156.777 138.495 156.597 137.785 156.597 136.995C156.597 136.205 156.777 135.5 157.137 134.88C157.507 134.26 158.017 133.775 158.667 133.425C159.317 133.075 160.047 132.9 160.857 132.9C161.677 132.9 162.412 133.075 163.062 133.425C163.712 133.775 164.217 134.26 164.577 134.88C164.947 135.5 165.132 136.205 165.132 136.995C165.132 137.785 164.947 138.495 164.577 139.125C164.217 139.745 163.712 140.23 163.062 140.58C162.412 140.93 161.677 141.105 160.857 141.105ZM160.857 139.5C161.547 139.5 162.117 139.27 162.567 138.81C163.017 138.35 163.242 137.745 163.242 136.995C163.242 136.245 163.017 135.64 162.567 135.18C162.117 134.72 161.547 134.49 160.857 134.49C160.167 134.49 159.597 134.72 159.147 135.18C158.707 135.64 158.487 136.245 158.487 136.995C158.487 137.745 158.707 138.35 159.147 138.81C159.597 139.27 160.167 139.5 160.857 139.5Z" fill="#262626"/>
<path d="M111.332 154.28C110.542 154.28 110.147 154.71 110.147 155.57V156.05H112.352V157.55H110.192V164H108.317V155.54C108.317 154.69 108.567 154.015 109.067 153.515C109.567 153.015 110.277 152.765 111.197 152.765C111.907 152.765 112.467 152.91 112.877 153.2L112.352 154.61C112.052 154.39 111.712 154.28 111.332 154.28Z" fill="#262626"/>
<path d="M116.591 157.16C117.131 156.32 118.081 155.9 119.441 155.9V157.685C119.281 157.655 119.136 157.64 119.006 157.64C118.276 157.64 117.706 157.855 117.296 158.285C116.886 158.705 116.681 159.315 116.681 160.115V164H114.806V155.99H116.591V157.16Z" fill="#262626"/>
<path d="M128.788 155.99V164H127.003V162.965C126.693 163.345 126.308 163.63 125.848 163.82C125.398 164.01 124.898 164.105 124.348 164.105C123.568 164.105 122.868 163.935 122.248 163.595C121.638 163.255 121.158 162.775 120.808 162.155C120.468 161.535 120.298 160.815 120.298 159.995C120.298 159.175 120.468 158.46 120.808 157.85C121.158 157.23 121.638 156.75 122.248 156.41C122.868 156.07 123.568 155.9 124.348 155.9C124.868 155.9 125.343 155.99 125.773 156.17C126.213 156.35 126.593 156.615 126.913 156.965V155.99H128.788ZM124.558 162.5C125.248 162.5 125.818 162.27 126.268 161.81C126.718 161.35 126.943 160.745 126.943 159.995C126.943 159.245 126.718 158.64 126.268 158.18C125.818 157.72 125.248 157.49 124.558 157.49C123.868 157.49 123.298 157.72 122.848 158.18C122.408 158.64 122.188 159.245 122.188 159.995C122.188 160.745 122.408 161.35 122.848 161.81C123.298 162.27 123.868 162.5 124.558 162.5Z" fill="#262626"/>
<path d="M141.352 155.9C142.362 155.9 143.162 156.195 143.752 156.785C144.342 157.365 144.637 158.24 144.637 159.41V164H142.762V159.65C142.762 158.95 142.607 158.425 142.297 158.075C141.987 157.715 141.542 157.535 140.962 157.535C140.332 157.535 139.827 157.745 139.447 158.165C139.067 158.575 138.877 159.165 138.877 159.935V164H137.002V159.65C137.002 158.95 136.847 158.425 136.537 158.075C136.227 157.715 135.782 157.535 135.202 157.535C134.562 157.535 134.052 157.74 133.672 158.15C133.302 158.56 133.117 159.155 133.117 159.935V164H131.242V155.99H133.027V157.01C133.327 156.65 133.702 156.375 134.152 156.185C134.602 155.995 135.102 155.9 135.652 155.9C136.252 155.9 136.782 156.015 137.242 156.245C137.712 156.465 138.082 156.795 138.352 157.235C138.682 156.815 139.107 156.49 139.627 156.26C140.147 156.02 140.722 155.9 141.352 155.9Z" fill="#262626"/>
<path d="M150.916 162.515C151.786 162.515 152.511 162.225 153.091 161.645L154.081 162.8C153.731 163.23 153.281 163.555 152.731 163.775C152.181 163.995 151.561 164.105 150.871 164.105C149.991 164.105 149.216 163.93 148.546 163.58C147.876 163.23 147.356 162.745 146.986 162.125C146.626 161.495 146.446 160.785 146.446 159.995C146.446 159.215 146.621 158.515 146.971 157.895C147.331 157.265 147.821 156.775 148.441 156.425C149.071 156.075 149.781 155.9 150.571 155.9C151.321 155.9 152.001 156.065 152.611 156.395C153.231 156.715 153.721 157.18 154.081 157.79C154.441 158.39 154.621 159.095 154.621 159.905L148.486 161.105C148.676 161.565 148.981 161.915 149.401 162.155C149.821 162.395 150.326 162.515 150.916 162.515ZM150.571 157.4C149.881 157.4 149.321 157.625 148.891 158.075C148.471 158.525 148.261 159.13 148.261 159.89V159.905L152.791 159.035C152.661 158.545 152.396 158.15 151.996 157.85C151.606 157.55 151.131 157.4 150.571 157.4Z" fill="#262626"/>
<path d="M158.897 164.105C158.247 164.105 157.612 164.02 156.992 163.85C156.372 163.68 155.877 163.465 155.507 163.205L156.227 161.78C156.587 162.02 157.017 162.215 157.517 162.365C158.027 162.505 158.527 162.575 159.017 162.575C160.137 162.575 160.697 162.28 160.697 161.69C160.697 161.41 160.552 161.215 160.262 161.105C159.982 160.995 159.527 160.89 158.897 160.79C158.237 160.69 157.697 160.575 157.277 160.445C156.867 160.315 156.507 160.09 156.197 159.77C155.897 159.44 155.747 158.985 155.747 158.405C155.747 157.645 156.062 157.04 156.692 156.59C157.332 156.13 158.192 155.9 159.272 155.9C159.822 155.9 160.372 155.965 160.922 156.095C161.472 156.215 161.922 156.38 162.272 156.59L161.552 158.015C160.872 157.615 160.107 157.415 159.257 157.415C158.707 157.415 158.287 157.5 157.997 157.67C157.717 157.83 157.577 158.045 157.577 158.315C157.577 158.615 157.727 158.83 158.027 158.96C158.337 159.08 158.812 159.195 159.452 159.305C160.092 159.405 160.617 159.52 161.027 159.65C161.437 159.78 161.787 160 162.077 160.31C162.377 160.62 162.527 161.06 162.527 161.63C162.527 162.38 162.202 162.98 161.552 163.43C160.902 163.88 160.017 164.105 158.897 164.105Z" fill="#262626"/>
</svg>
