<svg width="270" height="271" viewBox="0 0 270 271" fill="none" xmlns="http://www.w3.org/2000/svg">
<path d="M196.566 135.244C196.566 147.036 206.162 156.633 217.954 156.633C223.729 156.633 229.015 154.356 232.837 150.615V226.328C232.837 229.907 229.909 232.835 226.331 232.835H150.617C154.358 236.657 156.635 241.943 156.635 247.717C156.635 259.509 147.039 269.106 135.247 269.106C123.454 269.106 113.858 259.509 113.858 247.717C113.858 241.943 116.135 236.657 119.876 232.835H44.1623C40.584 232.835 37.6562 229.907 37.6562 226.328V150.615C41.4785 154.356 46.7646 156.633 52.5387 156.633C64.3309 156.633 73.9273 147.036 73.9273 135.244C73.9273 123.452 64.3309 113.856 52.5387 113.856C46.7646 113.856 41.4785 116.133 37.6562 119.874V44.1598C37.6562 40.5815 40.584 37.6538 44.1623 37.6538H119.876C116.135 33.8315 113.858 28.5453 113.858 22.7712C113.858 10.9791 123.454 1.38269 135.247 1.38269C147.039 1.38269 156.635 10.9791 156.635 22.7712C156.635 28.5453 154.358 33.8315 150.617 37.6538H226.331C229.909 37.6538 232.837 40.5815 232.837 44.1598V119.874C229.015 116.133 223.729 113.856 217.954 113.856C206.081 113.856 196.566 123.452 196.566 135.244Z" fill="#FF7700"/>
<path d="M89.3063 95.1745C90.2163 95.1745 91.0063 95.3245 91.6763 95.6245C92.3563 95.9245 92.8763 96.3545 93.2363 96.9145C93.5963 97.4745 93.7763 98.1395 93.7763 98.9095C93.7763 99.6695 93.5963 100.335 93.2363 100.905C92.8763 101.465 92.3563 101.895 91.6763 102.195C91.0063 102.495 90.2163 102.645 89.3063 102.645H86.9363V105.675H84.9863V95.1745H89.3063ZM89.2163 100.995C90.0663 100.995 90.7113 100.815 91.1513 100.455C91.5913 100.095 91.8113 99.5795 91.8113 98.9095C91.8113 98.2395 91.5913 97.7245 91.1513 97.3645C90.7113 97.0045 90.0663 96.8245 89.2163 96.8245H86.9363V100.995H89.2163Z" fill="white"/>
<path d="M97.2554 98.8345C97.7954 97.9945 98.7454 97.5745 100.105 97.5745V99.3595C99.9454 99.3295 99.8004 99.3145 99.6704 99.3145C98.9404 99.3145 98.3704 99.5295 97.9604 99.9595C97.5504 100.38 97.3454 100.99 97.3454 101.79V105.675H95.4704V97.6645H97.2554V98.8345Z" fill="white"/>
<path d="M105.223 105.78C104.413 105.78 103.683 105.605 103.033 105.255C102.383 104.905 101.873 104.42 101.503 103.8C101.143 103.17 100.963 102.46 100.963 101.67C100.963 100.88 101.143 100.175 101.503 99.5545C101.873 98.9345 102.383 98.4495 103.033 98.0995C103.683 97.7495 104.413 97.5745 105.223 97.5745C106.043 97.5745 106.778 97.7495 107.428 98.0995C108.078 98.4495 108.583 98.9345 108.943 99.5545C109.313 100.175 109.498 100.88 109.498 101.67C109.498 102.46 109.313 103.17 108.943 103.8C108.583 104.42 108.078 104.905 107.428 105.255C106.778 105.605 106.043 105.78 105.223 105.78ZM105.223 104.175C105.913 104.175 106.483 103.945 106.933 103.485C107.383 103.025 107.608 102.42 107.608 101.67C107.608 100.92 107.383 100.315 106.933 99.8545C106.483 99.3945 105.913 99.1645 105.223 99.1645C104.533 99.1645 103.963 99.3945 103.513 99.8545C103.073 100.315 102.853 100.92 102.853 101.67C102.853 102.42 103.073 103.025 103.513 103.485C103.963 103.945 104.533 104.175 105.223 104.175Z" fill="white"/>
<path d="M110.466 108.69C109.676 108.69 109.076 108.535 108.666 108.225L109.206 106.83C109.486 107.04 109.851 107.145 110.301 107.145C110.651 107.145 110.916 107.035 111.096 106.815C111.286 106.605 111.381 106.29 111.381 105.87V97.6645H113.256V105.825C113.256 106.715 113.011 107.415 112.521 107.925C112.031 108.435 111.346 108.69 110.466 108.69ZM112.311 96.3445C111.971 96.3445 111.686 96.2395 111.456 96.0295C111.226 95.8095 111.111 95.5395 111.111 95.2195C111.111 94.8995 111.226 94.6345 111.456 94.4245C111.686 94.2045 111.971 94.0945 112.311 94.0945C112.651 94.0945 112.936 94.1995 113.166 94.4095C113.396 94.6095 113.511 94.8645 113.511 95.1745C113.511 95.5045 113.396 95.7845 113.166 96.0145C112.946 96.2345 112.661 96.3445 112.311 96.3445Z" fill="white"/>
<path d="M119.525 104.19C120.395 104.19 121.12 103.9 121.7 103.32L122.69 104.475C122.34 104.905 121.89 105.23 121.34 105.45C120.79 105.67 120.17 105.78 119.48 105.78C118.6 105.78 117.825 105.605 117.155 105.255C116.485 104.905 115.965 104.42 115.595 103.8C115.235 103.17 115.055 102.46 115.055 101.67C115.055 100.89 115.23 100.19 115.58 99.5695C115.94 98.9395 116.43 98.4495 117.05 98.0995C117.68 97.7495 118.39 97.5745 119.18 97.5745C119.93 97.5745 120.61 97.7395 121.22 98.0695C121.84 98.3895 122.33 98.8545 122.69 99.4645C123.05 100.065 123.23 100.77 123.23 101.58L117.095 102.78C117.285 103.24 117.59 103.59 118.01 103.83C118.43 104.07 118.935 104.19 119.525 104.19ZM119.18 99.0745C118.49 99.0745 117.93 99.2995 117.5 99.7495C117.08 100.2 116.87 100.805 116.87 101.565V101.58L121.4 100.71C121.27 100.22 121.005 99.8245 120.605 99.5245C120.215 99.2245 119.74 99.0745 119.18 99.0745Z" fill="white"/>
<path d="M128.706 105.78C127.876 105.78 127.131 105.605 126.471 105.255C125.811 104.905 125.296 104.42 124.926 103.8C124.556 103.17 124.371 102.46 124.371 101.67C124.371 100.88 124.556 100.175 124.926 99.5545C125.296 98.9345 125.806 98.4495 126.456 98.0995C127.116 97.7495 127.866 97.5745 128.706 97.5745C129.496 97.5745 130.186 97.7345 130.776 98.0545C131.376 98.3745 131.826 98.8345 132.126 99.4345L130.686 100.275C130.456 99.9045 130.166 99.6295 129.816 99.4495C129.476 99.2595 129.101 99.1645 128.691 99.1645C127.991 99.1645 127.411 99.3945 126.951 99.8545C126.491 100.305 126.261 100.91 126.261 101.67C126.261 102.43 126.486 103.04 126.936 103.5C127.396 103.95 127.981 104.175 128.691 104.175C129.101 104.175 129.476 104.085 129.816 103.905C130.166 103.715 130.456 103.435 130.686 103.065L132.126 103.905C131.816 104.505 131.361 104.97 130.761 105.3C130.171 105.62 129.486 105.78 128.706 105.78Z" fill="white"/>
<path d="M138.174 105.24C137.954 105.42 137.684 105.555 137.364 105.645C137.054 105.735 136.724 105.78 136.374 105.78C135.494 105.78 134.814 105.55 134.334 105.09C133.854 104.63 133.614 103.96 133.614 103.08V95.8945H135.489V97.7245H137.634V99.2245H135.489V103.035C135.489 103.425 135.584 103.725 135.774 103.935C135.974 104.135 136.249 104.235 136.599 104.235C137.019 104.235 137.369 104.125 137.649 103.905L138.174 105.24Z" fill="white"/>
<path d="M146.884 95.9545C146.094 95.9545 145.699 96.3845 145.699 97.2445V97.7245H147.904V99.2245H145.744V105.675H143.869V97.2145C143.869 96.3645 144.119 95.6895 144.619 95.1895C145.119 94.6895 145.829 94.4395 146.749 94.4395C147.459 94.4395 148.019 94.5845 148.429 94.8745L147.904 96.2845C147.604 96.0645 147.264 95.9545 146.884 95.9545ZM150.364 97.6645H152.239V105.675H150.364V97.6645ZM151.309 96.3445C150.969 96.3445 150.684 96.2395 150.454 96.0295C150.224 95.8095 150.109 95.5395 150.109 95.2195C150.109 94.8995 150.224 94.6345 150.454 94.4245C150.684 94.2045 150.969 94.0945 151.309 94.0945C151.649 94.0945 151.934 94.1995 152.164 94.4095C152.394 94.6095 152.509 94.8645 152.509 95.1745C152.509 95.5045 152.394 95.7845 152.164 96.0145C151.944 96.2345 151.659 96.3445 151.309 96.3445Z" fill="white"/>
<path d="M157.334 105.78C156.504 105.78 155.854 105.555 155.384 105.105C154.924 104.645 154.694 104 154.694 103.17V94.5445H156.569V103.035C156.569 103.835 156.944 104.235 157.694 104.235C157.944 104.235 158.169 104.185 158.369 104.085L158.459 105.585C158.109 105.715 157.734 105.78 157.334 105.78Z" fill="white"/>
<path d="M163.397 104.19C164.267 104.19 164.992 103.9 165.572 103.32L166.562 104.475C166.212 104.905 165.762 105.23 165.212 105.45C164.662 105.67 164.042 105.78 163.352 105.78C162.472 105.78 161.697 105.605 161.027 105.255C160.357 104.905 159.837 104.42 159.467 103.8C159.107 103.17 158.927 102.46 158.927 101.67C158.927 100.89 159.102 100.19 159.452 99.5695C159.812 98.9395 160.302 98.4495 160.922 98.0995C161.552 97.7495 162.262 97.5745 163.052 97.5745C163.802 97.5745 164.482 97.7395 165.092 98.0695C165.712 98.3895 166.202 98.8545 166.562 99.4645C166.922 100.065 167.102 100.77 167.102 101.58L160.967 102.78C161.157 103.24 161.462 103.59 161.882 103.83C162.302 104.07 162.807 104.19 163.397 104.19ZM163.052 99.0745C162.362 99.0745 161.802 99.2995 161.372 99.7495C160.952 100.2 160.742 100.805 160.742 101.565V101.58L165.272 100.71C165.142 100.22 164.877 99.8245 164.477 99.5245C164.087 99.2245 163.612 99.0745 163.052 99.0745Z" fill="white"/>
<path d="M173.049 97.6645H174.924V105.675H173.049V97.6645ZM173.994 96.3445C173.654 96.3445 173.369 96.2395 173.139 96.0295C172.909 95.8095 172.794 95.5395 172.794 95.2195C172.794 94.8995 172.909 94.6345 173.139 94.4245C173.369 94.2045 173.654 94.0945 173.994 94.0945C174.334 94.0945 174.619 94.1995 174.849 94.4095C175.079 94.6095 175.194 94.8645 175.194 95.1745C175.194 95.5045 175.079 95.7845 174.849 96.0145C174.629 96.2345 174.344 96.3445 173.994 96.3445Z" fill="white"/>
<path d="M181.929 97.5745C182.939 97.5745 183.749 97.8695 184.359 98.4595C184.969 99.0495 185.274 99.9245 185.274 101.085V105.675H183.399V101.325C183.399 100.625 183.234 100.1 182.904 99.7495C182.574 99.3895 182.104 99.2095 181.494 99.2095C180.804 99.2095 180.259 99.4195 179.859 99.8395C179.459 100.25 179.259 100.845 179.259 101.625V105.675H177.384V97.6645H179.169V98.6995C179.479 98.3295 179.869 98.0495 180.339 97.8595C180.809 97.6695 181.339 97.5745 181.929 97.5745Z" fill="white"/>
<path d="M89.8923 118.175C90.8023 118.175 91.5923 118.325 92.2623 118.625C92.9423 118.925 93.4623 119.355 93.8223 119.915C94.1823 120.475 94.3623 121.14 94.3623 121.91C94.3623 122.67 94.1823 123.335 93.8223 123.905C93.4623 124.465 92.9423 124.895 92.2623 125.195C91.5923 125.495 90.8023 125.645 89.8923 125.645H87.5223V128.675H85.5723V118.175H89.8923ZM89.8023 123.995C90.6523 123.995 91.2973 123.815 91.7373 123.455C92.1773 123.095 92.3973 122.58 92.3973 121.91C92.3973 121.24 92.1773 120.725 91.7373 120.365C91.2973 120.005 90.6523 119.825 89.8023 119.825H87.5223V123.995H89.8023Z" fill="white"/>
<path d="M97.8413 121.835C98.3813 120.995 99.3313 120.575 100.691 120.575V122.36C100.531 122.33 100.386 122.315 100.256 122.315C99.5263 122.315 98.9563 122.53 98.5463 122.96C98.1363 123.38 97.9313 123.99 97.9313 124.79V128.675H96.0563V120.665H97.8413V121.835Z" fill="white"/>
<path d="M106.019 127.19C106.889 127.19 107.614 126.9 108.194 126.32L109.184 127.475C108.834 127.905 108.384 128.23 107.834 128.45C107.284 128.67 106.664 128.78 105.974 128.78C105.094 128.78 104.319 128.605 103.649 128.255C102.979 127.905 102.459 127.42 102.089 126.8C101.729 126.17 101.549 125.46 101.549 124.67C101.549 123.89 101.724 123.19 102.074 122.57C102.434 121.94 102.924 121.45 103.544 121.1C104.174 120.75 104.884 120.575 105.674 120.575C106.424 120.575 107.104 120.74 107.714 121.07C108.334 121.39 108.824 121.855 109.184 122.465C109.544 123.065 109.724 123.77 109.724 124.58L103.589 125.78C103.779 126.24 104.084 126.59 104.504 126.83C104.924 127.07 105.429 127.19 106.019 127.19ZM105.674 122.075C104.984 122.075 104.424 122.3 103.994 122.75C103.574 123.2 103.364 123.805 103.364 124.565V124.58L107.894 123.71C107.764 123.22 107.499 122.825 107.099 122.525C106.709 122.225 106.234 122.075 105.674 122.075Z" fill="white"/>
<path d="M121.635 120.575C122.645 120.575 123.445 120.87 124.035 121.46C124.625 122.04 124.92 122.915 124.92 124.085V128.675H123.045V124.325C123.045 123.625 122.89 123.1 122.58 122.75C122.27 122.39 121.825 122.21 121.245 122.21C120.615 122.21 120.11 122.42 119.73 122.84C119.35 123.25 119.16 123.84 119.16 124.61V128.675H117.285V124.325C117.285 123.625 117.13 123.1 116.82 122.75C116.51 122.39 116.065 122.21 115.485 122.21C114.845 122.21 114.335 122.415 113.955 122.825C113.585 123.235 113.4 123.83 113.4 124.61V128.675H111.525V120.665H113.31V121.685C113.61 121.325 113.985 121.05 114.435 120.86C114.885 120.67 115.385 120.575 115.935 120.575C116.535 120.575 117.065 120.69 117.525 120.92C117.995 121.14 118.365 121.47 118.635 121.91C118.965 121.49 119.39 121.165 119.91 120.935C120.43 120.695 121.005 120.575 121.635 120.575Z" fill="white"/>
<path d="M127.316 120.665H129.191V128.675H127.316V120.665ZM128.261 119.345C127.921 119.345 127.636 119.24 127.406 119.03C127.176 118.81 127.061 118.54 127.061 118.22C127.061 117.9 127.176 117.635 127.406 117.425C127.636 117.205 127.921 117.095 128.261 117.095C128.601 117.095 128.886 117.2 129.116 117.41C129.346 117.61 129.461 117.865 129.461 118.175C129.461 118.505 129.346 118.785 129.116 119.015C128.896 119.235 128.611 119.345 128.261 119.345Z" fill="white"/>
<path d="M135.462 127.19C136.332 127.19 137.057 126.9 137.637 126.32L138.627 127.475C138.277 127.905 137.827 128.23 137.277 128.45C136.727 128.67 136.107 128.78 135.417 128.78C134.537 128.78 133.762 128.605 133.092 128.255C132.422 127.905 131.902 127.42 131.532 126.8C131.172 126.17 130.992 125.46 130.992 124.67C130.992 123.89 131.167 123.19 131.517 122.57C131.877 121.94 132.367 121.45 132.987 121.1C133.617 120.75 134.327 120.575 135.117 120.575C135.867 120.575 136.547 120.74 137.157 121.07C137.777 121.39 138.267 121.855 138.627 122.465C138.987 123.065 139.167 123.77 139.167 124.58L133.032 125.78C133.222 126.24 133.527 126.59 133.947 126.83C134.367 127.07 134.872 127.19 135.462 127.19ZM135.117 122.075C134.427 122.075 133.867 122.3 133.437 122.75C133.017 123.2 132.807 123.805 132.807 124.565V124.58L137.337 123.71C137.207 123.22 136.942 122.825 136.542 122.525C136.152 122.225 135.677 122.075 135.117 122.075Z" fill="white"/>
<path d="M142.753 121.835C143.293 120.995 144.243 120.575 145.603 120.575V122.36C145.443 122.33 145.298 122.315 145.168 122.315C144.438 122.315 143.868 122.53 143.458 122.96C143.048 123.38 142.843 123.99 142.843 124.79V128.675H140.968V120.665H142.753V121.835Z" fill="white"/>
<path d="M150.931 127.19C151.801 127.19 152.526 126.9 153.106 126.32L154.096 127.475C153.746 127.905 153.296 128.23 152.746 128.45C152.196 128.67 151.576 128.78 150.886 128.78C150.006 128.78 149.231 128.605 148.561 128.255C147.891 127.905 147.371 127.42 147.001 126.8C146.641 126.17 146.461 125.46 146.461 124.67C146.461 123.89 146.636 123.19 146.986 122.57C147.346 121.94 147.836 121.45 148.456 121.1C149.086 120.75 149.796 120.575 150.586 120.575C151.336 120.575 152.016 120.74 152.626 121.07C153.246 121.39 153.736 121.855 154.096 122.465C154.456 123.065 154.636 123.77 154.636 124.58L148.501 125.78C148.691 126.24 148.996 126.59 149.416 126.83C149.836 127.07 150.341 127.19 150.931 127.19ZM150.586 122.075C149.896 122.075 149.336 122.3 148.906 122.75C148.486 123.2 148.276 123.805 148.276 124.565V124.58L152.806 123.71C152.676 123.22 152.411 122.825 152.011 122.525C151.621 122.225 151.146 122.075 150.586 122.075Z" fill="white"/>
<path d="M165.083 118.175C165.993 118.175 166.783 118.325 167.453 118.625C168.133 118.925 168.653 119.355 169.013 119.915C169.373 120.475 169.553 121.14 169.553 121.91C169.553 122.67 169.373 123.335 169.013 123.905C168.653 124.465 168.133 124.895 167.453 125.195C166.783 125.495 165.993 125.645 165.083 125.645H162.713V128.675H160.763V118.175H165.083ZM164.993 123.995C165.843 123.995 166.488 123.815 166.928 123.455C167.368 123.095 167.588 122.58 167.588 121.91C167.588 121.24 167.368 120.725 166.928 120.365C166.488 120.005 165.843 119.825 164.993 119.825H162.713V123.995H164.993Z" fill="white"/>
<path d="M173.032 121.835C173.572 120.995 174.522 120.575 175.882 120.575V122.36C175.722 122.33 175.577 122.315 175.447 122.315C174.717 122.315 174.147 122.53 173.737 122.96C173.327 123.38 173.122 123.99 173.122 124.79V128.675H171.247V120.665H173.032V121.835Z" fill="white"/>
<path d="M180.999 128.78C180.189 128.78 179.459 128.605 178.809 128.255C178.159 127.905 177.649 127.42 177.279 126.8C176.919 126.17 176.739 125.46 176.739 124.67C176.739 123.88 176.919 123.175 177.279 122.555C177.649 121.935 178.159 121.45 178.809 121.1C179.459 120.75 180.189 120.575 180.999 120.575C181.819 120.575 182.554 120.75 183.204 121.1C183.854 121.45 184.359 121.935 184.719 122.555C185.089 123.175 185.274 123.88 185.274 124.67C185.274 125.46 185.089 126.17 184.719 126.8C184.359 127.42 183.854 127.905 183.204 128.255C182.554 128.605 181.819 128.78 180.999 128.78ZM180.999 127.175C181.689 127.175 182.259 126.945 182.709 126.485C183.159 126.025 183.384 125.42 183.384 124.67C183.384 123.92 183.159 123.315 182.709 122.855C182.259 122.395 181.689 122.165 180.999 122.165C180.309 122.165 179.739 122.395 179.289 122.855C178.849 123.315 178.629 123.92 178.629 124.67C178.629 125.42 178.849 126.025 179.289 126.485C179.739 126.945 180.309 127.175 180.999 127.175Z" fill="white"/>
<path d="M99.3341 151.78C98.5241 151.78 97.7941 151.605 97.1441 151.255C96.4941 150.905 95.9841 150.42 95.6141 149.8C95.2541 149.17 95.0741 148.46 95.0741 147.67C95.0741 146.88 95.2541 146.175 95.6141 145.555C95.9841 144.935 96.4941 144.45 97.1441 144.1C97.7941 143.75 98.5241 143.575 99.3341 143.575C100.154 143.575 100.889 143.75 101.539 144.1C102.189 144.45 102.694 144.935 103.054 145.555C103.424 146.175 103.609 146.88 103.609 147.67C103.609 148.46 103.424 149.17 103.054 149.8C102.694 150.42 102.189 150.905 101.539 151.255C100.889 151.605 100.154 151.78 99.3341 151.78ZM99.3341 150.175C100.024 150.175 100.594 149.945 101.044 149.485C101.494 149.025 101.719 148.42 101.719 147.67C101.719 146.92 101.494 146.315 101.044 145.855C100.594 145.395 100.024 145.165 99.3341 145.165C98.6441 145.165 98.0741 145.395 97.6241 145.855C97.1841 146.315 96.9641 146.92 96.9641 147.67C96.9641 148.42 97.1841 149.025 97.6241 149.485C98.0741 149.945 98.6441 150.175 99.3341 150.175Z" fill="white"/>
<path d="M107.187 144.835C107.727 143.995 108.677 143.575 110.037 143.575V145.36C109.877 145.33 109.732 145.315 109.602 145.315C108.872 145.315 108.302 145.53 107.892 145.96C107.482 146.38 107.277 146.99 107.277 147.79V151.675H105.402V143.665H107.187V144.835Z" fill="white"/>
<path d="M120.616 142.735C119.716 142.735 119.036 142.935 118.576 143.335C118.116 143.735 117.886 144.325 117.886 145.105V146.005H122.461V147.655H117.886V151.675H115.936V145.105C115.936 143.835 116.341 142.84 117.151 142.12C117.971 141.39 119.096 141.025 120.526 141.025C121.126 141.025 121.686 141.09 122.206 141.22C122.726 141.35 123.181 141.54 123.571 141.79L122.956 143.38C122.336 142.95 121.556 142.735 120.616 142.735Z" fill="white"/>
<path d="M129.851 151.825C128.791 151.825 127.831 151.595 126.971 151.135C126.121 150.665 125.451 150.02 124.961 149.2C124.481 148.38 124.241 147.455 124.241 146.425C124.241 145.395 124.486 144.47 124.976 143.65C125.466 142.83 126.136 142.19 126.986 141.73C127.846 141.26 128.806 141.025 129.866 141.025C130.726 141.025 131.511 141.175 132.221 141.475C132.931 141.775 133.531 142.21 134.021 142.78L132.761 143.965C132.001 143.145 131.066 142.735 129.956 142.735C129.236 142.735 128.591 142.895 128.021 143.215C127.451 143.525 127.006 143.96 126.686 144.52C126.366 145.08 126.206 145.715 126.206 146.425C126.206 147.135 126.366 147.77 126.686 148.33C127.006 148.89 127.451 149.33 128.021 149.65C128.591 149.96 129.236 150.115 129.956 150.115C131.066 150.115 132.001 149.7 132.761 148.87L134.021 150.07C133.531 150.64 132.926 151.075 132.206 151.375C131.496 151.675 130.711 151.825 129.851 151.825Z" fill="white"/>
<path d="M140.21 141.175C141.12 141.175 141.91 141.325 142.58 141.625C143.26 141.925 143.78 142.355 144.14 142.915C144.5 143.475 144.68 144.14 144.68 144.91C144.68 145.67 144.5 146.335 144.14 146.905C143.78 147.465 143.26 147.895 142.58 148.195C141.91 148.495 141.12 148.645 140.21 148.645H137.84V151.675H135.89V141.175H140.21ZM140.12 146.995C140.97 146.995 141.615 146.815 142.055 146.455C142.495 146.095 142.715 145.58 142.715 144.91C142.715 144.24 142.495 143.725 142.055 143.365C141.615 143.005 140.97 142.825 140.12 142.825H137.84V146.995H140.12Z" fill="white"/>
<path d="M153.008 151.675L150.158 147.685L147.338 151.675H145.118L149.018 146.32L145.328 141.175H147.533L150.218 144.91L152.873 141.175H154.988L151.313 146.245L155.258 151.675H153.008Z" fill="white"/>
<path d="M164.358 151.78C163.548 151.78 162.818 151.605 162.168 151.255C161.518 150.905 161.008 150.42 160.638 149.8C160.278 149.17 160.098 148.46 160.098 147.67C160.098 146.88 160.278 146.175 160.638 145.555C161.008 144.935 161.518 144.45 162.168 144.1C162.818 143.75 163.548 143.575 164.358 143.575C165.178 143.575 165.913 143.75 166.563 144.1C167.213 144.45 167.718 144.935 168.078 145.555C168.448 146.175 168.633 146.88 168.633 147.67C168.633 148.46 168.448 149.17 168.078 149.8C167.718 150.42 167.213 150.905 166.563 151.255C165.913 151.605 165.178 151.78 164.358 151.78ZM164.358 150.175C165.048 150.175 165.618 149.945 166.068 149.485C166.518 149.025 166.743 148.42 166.743 147.67C166.743 146.92 166.518 146.315 166.068 145.855C165.618 145.395 165.048 145.165 164.358 145.165C163.668 145.165 163.098 145.395 162.648 145.855C162.208 146.315 161.988 146.92 161.988 147.67C161.988 148.42 162.208 149.025 162.648 149.485C163.098 149.945 163.668 150.175 164.358 150.175Z" fill="white"/>
<path d="M172.211 144.835C172.751 143.995 173.701 143.575 175.061 143.575V145.36C174.901 145.33 174.756 145.315 174.626 145.315C173.896 145.315 173.326 145.53 172.916 145.96C172.506 146.38 172.301 146.99 172.301 147.79V151.675H170.426V143.665H172.211V144.835Z" fill="white"/>
<path d="M105.89 164.175H110.48C111.6 164.175 112.595 164.395 113.465 164.835C114.335 165.265 115.01 165.88 115.49 166.68C115.97 167.47 116.21 168.385 116.21 169.425C116.21 170.465 115.97 171.385 115.49 172.185C115.01 172.975 114.335 173.59 113.465 174.03C112.595 174.46 111.6 174.675 110.48 174.675H105.89V164.175ZM110.39 173.025C111.16 173.025 111.835 172.88 112.415 172.59C113.005 172.29 113.455 171.87 113.765 171.33C114.085 170.78 114.245 170.145 114.245 169.425C114.245 168.705 114.085 168.075 113.765 167.535C113.455 166.985 113.005 166.565 112.415 166.275C111.835 165.975 111.16 165.825 110.39 165.825H107.84V173.025H110.39Z" fill="white"/>
<path d="M125.932 166.665V174.675H124.147V173.64C123.837 174.02 123.452 174.305 122.992 174.495C122.542 174.685 122.042 174.78 121.492 174.78C120.712 174.78 120.012 174.61 119.392 174.27C118.782 173.93 118.302 173.45 117.952 172.83C117.612 172.21 117.442 171.49 117.442 170.67C117.442 169.85 117.612 169.135 117.952 168.525C118.302 167.905 118.782 167.425 119.392 167.085C120.012 166.745 120.712 166.575 121.492 166.575C122.012 166.575 122.487 166.665 122.917 166.845C123.357 167.025 123.737 167.29 124.057 167.64V166.665H125.932ZM121.702 173.175C122.392 173.175 122.962 172.945 123.412 172.485C123.862 172.025 124.087 171.42 124.087 170.67C124.087 169.92 123.862 169.315 123.412 168.855C122.962 168.395 122.392 168.165 121.702 168.165C121.012 168.165 120.442 168.395 119.992 168.855C119.552 169.315 119.332 169.92 119.332 170.67C119.332 171.42 119.552 172.025 119.992 172.485C120.442 172.945 121.012 173.175 121.702 173.175Z" fill="white"/>
<path d="M138.019 164.175L133.444 174.675H131.524L126.934 164.175H129.049L132.544 172.275L136.069 164.175H138.019Z" fill="white"/>
<path d="M139.02 166.665H140.895V174.675H139.02V166.665ZM139.965 165.345C139.625 165.345 139.34 165.24 139.11 165.03C138.88 164.81 138.765 164.54 138.765 164.22C138.765 163.9 138.88 163.635 139.11 163.425C139.34 163.205 139.625 163.095 139.965 163.095C140.305 163.095 140.59 163.2 140.82 163.41C141.05 163.61 141.165 163.865 141.165 164.175C141.165 164.505 141.05 164.785 140.82 165.015C140.6 165.235 140.315 165.345 139.965 165.345Z" fill="white"/>
<path d="M147.901 166.575C148.911 166.575 149.721 166.87 150.331 167.46C150.941 168.05 151.246 168.925 151.246 170.085V174.675H149.371V170.325C149.371 169.625 149.206 169.1 148.876 168.75C148.546 168.39 148.076 168.21 147.466 168.21C146.776 168.21 146.231 168.42 145.831 168.84C145.431 169.25 145.231 169.845 145.231 170.625V174.675H143.356V166.665H145.141V167.7C145.451 167.33 145.841 167.05 146.311 166.86C146.781 166.67 147.311 166.575 147.901 166.575Z" fill="white"/>
<path d="M157.373 174.78C156.543 174.78 155.798 174.605 155.138 174.255C154.478 173.905 153.963 173.42 153.593 172.8C153.223 172.17 153.038 171.46 153.038 170.67C153.038 169.88 153.223 169.175 153.593 168.555C153.963 167.935 154.473 167.45 155.123 167.1C155.783 166.75 156.533 166.575 157.373 166.575C158.163 166.575 158.853 166.735 159.443 167.055C160.043 167.375 160.493 167.835 160.793 168.435L159.353 169.275C159.123 168.905 158.833 168.63 158.483 168.45C158.143 168.26 157.768 168.165 157.358 168.165C156.658 168.165 156.078 168.395 155.618 168.855C155.158 169.305 154.928 169.91 154.928 170.67C154.928 171.43 155.153 172.04 155.603 172.5C156.063 172.95 156.648 173.175 157.358 173.175C157.768 173.175 158.143 173.085 158.483 172.905C158.833 172.715 159.123 172.435 159.353 172.065L160.793 172.905C160.483 173.505 160.028 173.97 159.428 174.3C158.838 174.62 158.153 174.78 157.373 174.78Z" fill="white"/>
<path d="M162.414 166.665H164.289V174.675H162.414V166.665ZM163.359 165.345C163.019 165.345 162.734 165.24 162.504 165.03C162.274 164.81 162.159 164.54 162.159 164.22C162.159 163.9 162.274 163.635 162.504 163.425C162.734 163.205 163.019 163.095 163.359 163.095C163.699 163.095 163.984 163.2 164.214 163.41C164.444 163.61 164.559 163.865 164.559 164.175C164.559 164.505 164.444 164.785 164.214 165.015C163.994 165.235 163.709 165.345 163.359 165.345Z" fill="white"/>
</svg>
