<svg width="270" height="271" viewBox="0 0 270 271" fill="none" xmlns="http://www.w3.org/2000/svg">
<path d="M196.316 135.407C196.316 147.199 205.912 156.795 217.704 156.795C223.478 156.795 228.764 154.518 232.587 150.777V226.491C232.587 230.069 229.659 232.997 226.081 232.997H150.367C154.108 236.819 156.385 242.105 156.385 247.88C156.385 259.672 146.788 269.268 134.996 269.268C123.204 269.268 113.608 259.672 113.608 247.88C113.608 242.105 115.885 236.819 119.626 232.997H43.9119C40.3336 232.997 37.4059 230.069 37.4059 226.491V150.777C33.5836 154.518 28.2974 156.795 22.5233 156.795C10.7312 156.795 1.13477 147.199 1.13477 135.407C1.13477 123.614 10.7312 114.018 22.5233 114.018C28.2974 114.018 33.5836 116.295 37.4059 120.036V44.3223C37.4059 40.744 40.3336 37.8163 43.9119 37.8163H119.626C115.885 41.6386 113.608 46.9247 113.608 52.6988C113.608 64.491 123.204 74.0874 134.996 74.0874C146.788 74.0874 156.385 64.491 156.385 52.6988C156.385 46.9247 154.108 41.6386 150.367 37.8163H226.081C229.659 37.8163 232.587 40.744 232.587 44.3223V120.036C228.764 116.295 223.478 114.018 217.704 114.018C205.831 114.018 196.316 123.614 196.316 135.407Z" fill="#E8E8E8"/>
<path d="M109.834 116.987C109.024 116.987 108.239 116.872 107.479 116.642C106.729 116.412 106.134 116.107 105.694 115.727L106.369 114.212C106.799 114.552 107.324 114.832 107.944 115.052C108.574 115.262 109.204 115.367 109.834 115.367C110.614 115.367 111.194 115.242 111.574 114.992C111.964 114.742 112.159 114.412 112.159 114.002C112.159 113.702 112.049 113.457 111.829 113.267C111.619 113.067 111.349 112.912 111.019 112.802C110.689 112.692 110.239 112.567 109.669 112.427C108.869 112.237 108.219 112.047 107.719 111.857C107.229 111.667 106.804 111.372 106.444 110.972C106.094 110.562 105.919 110.012 105.919 109.322C105.919 108.742 106.074 108.217 106.384 107.747C106.704 107.267 107.179 106.887 107.809 106.607C108.449 106.327 109.229 106.187 110.149 106.187C110.789 106.187 111.419 106.267 112.039 106.427C112.659 106.587 113.194 106.817 113.644 107.117L113.029 108.632C112.569 108.362 112.089 108.157 111.589 108.017C111.089 107.877 110.604 107.807 110.134 107.807C109.364 107.807 108.789 107.937 108.409 108.197C108.039 108.457 107.854 108.802 107.854 109.232C107.854 109.532 107.959 109.777 108.169 109.967C108.389 110.157 108.664 110.307 108.994 110.417C109.324 110.527 109.774 110.652 110.344 110.792C111.124 110.972 111.764 111.162 112.264 111.362C112.764 111.552 113.189 111.847 113.539 112.247C113.899 112.647 114.079 113.187 114.079 113.867C114.079 114.447 113.919 114.972 113.599 115.442C113.289 115.912 112.814 116.287 112.174 116.567C111.534 116.847 110.754 116.987 109.834 116.987Z" fill="#262626"/>
<path d="M119.433 116.942C118.623 116.942 117.893 116.767 117.243 116.417C116.593 116.067 116.083 115.582 115.713 114.962C115.353 114.332 115.173 113.622 115.173 112.832C115.173 112.042 115.353 111.337 115.713 110.717C116.083 110.097 116.593 109.612 117.243 109.262C117.893 108.912 118.623 108.737 119.433 108.737C120.253 108.737 120.988 108.912 121.638 109.262C122.288 109.612 122.793 110.097 123.153 110.717C123.523 111.337 123.708 112.042 123.708 112.832C123.708 113.622 123.523 114.332 123.153 114.962C122.793 115.582 122.288 116.067 121.638 116.417C120.988 116.767 120.253 116.942 119.433 116.942ZM119.433 115.337C120.123 115.337 120.693 115.107 121.143 114.647C121.593 114.187 121.818 113.582 121.818 112.832C121.818 112.082 121.593 111.477 121.143 111.017C120.693 110.557 120.123 110.327 119.433 110.327C118.743 110.327 118.173 110.557 117.723 111.017C117.283 111.477 117.063 112.082 117.063 112.832C117.063 113.582 117.283 114.187 117.723 114.647C118.173 115.107 118.743 115.337 119.433 115.337Z" fill="#262626"/>
<path d="M133.256 108.827V116.837H131.471V115.817C131.171 116.177 130.796 116.457 130.346 116.657C129.896 116.847 129.411 116.942 128.891 116.942C127.821 116.942 126.976 116.647 126.356 116.057C125.746 115.457 125.441 114.572 125.441 113.402V108.827H127.316V113.147C127.316 113.867 127.476 114.407 127.796 114.767C128.126 115.117 128.591 115.292 129.191 115.292C129.861 115.292 130.391 115.087 130.781 114.677C131.181 114.257 131.381 113.657 131.381 112.877V108.827H133.256Z" fill="#262626"/>
<path d="M140.256 108.737C141.266 108.737 142.076 109.032 142.686 109.622C143.296 110.212 143.601 111.087 143.601 112.247V116.837H141.726V112.487C141.726 111.787 141.561 111.262 141.231 110.912C140.901 110.552 140.431 110.372 139.821 110.372C139.131 110.372 138.586 110.582 138.186 111.002C137.786 111.412 137.586 112.007 137.586 112.787V116.837H135.711V108.827H137.496V109.862C137.806 109.492 138.196 109.212 138.666 109.022C139.136 108.832 139.666 108.737 140.256 108.737Z" fill="#262626"/>
<path d="M153.898 105.707V116.837H152.098V115.802C151.788 116.182 151.403 116.467 150.943 116.657C150.493 116.847 149.993 116.942 149.443 116.942C148.673 116.942 147.978 116.772 147.358 116.432C146.748 116.092 146.268 115.612 145.918 114.992C145.568 114.362 145.393 113.642 145.393 112.832C145.393 112.022 145.568 111.307 145.918 110.687C146.268 110.067 146.748 109.587 147.358 109.247C147.978 108.907 148.673 108.737 149.443 108.737C149.973 108.737 150.458 108.827 150.898 109.007C151.338 109.187 151.713 109.457 152.023 109.817V105.707H153.898ZM149.668 115.337C150.118 115.337 150.523 115.237 150.883 115.037C151.243 114.827 151.528 114.532 151.738 114.152C151.948 113.772 152.053 113.332 152.053 112.832C152.053 112.332 151.948 111.892 151.738 111.512C151.528 111.132 151.243 110.842 150.883 110.642C150.523 110.432 150.118 110.327 149.668 110.327C149.218 110.327 148.813 110.432 148.453 110.642C148.093 110.842 147.808 111.132 147.598 111.512C147.388 111.892 147.283 112.332 147.283 112.832C147.283 113.332 147.388 113.772 147.598 114.152C147.808 114.532 148.093 114.827 148.453 115.037C148.813 115.237 149.218 115.337 149.668 115.337Z" fill="#262626"/>
<path d="M163.766 104.207H165.446L160.496 118.337H158.816L163.766 104.207Z" fill="#262626"/>
<path d="M117.746 129.187C118.686 129.187 119.506 129.372 120.206 129.742C120.906 130.112 121.446 130.662 121.826 131.392C122.216 132.112 122.411 132.987 122.411 134.017V139.837H120.461V137.137H115.001V139.837H113.081V134.017C113.081 132.987 113.271 132.112 113.651 131.392C114.041 130.662 114.586 130.112 115.286 129.742C115.986 129.372 116.806 129.187 117.746 129.187ZM120.461 135.502V133.837C120.461 132.867 120.221 132.137 119.741 131.647C119.261 131.147 118.591 130.897 117.731 130.897C116.871 130.897 116.201 131.147 115.721 131.647C115.241 132.137 115.001 132.867 115.001 133.837V135.502H120.461Z" fill="#262626"/>
<path d="M132.714 131.827V139.837H130.929V138.817C130.629 139.177 130.254 139.457 129.804 139.657C129.354 139.847 128.869 139.942 128.349 139.942C127.279 139.942 126.434 139.647 125.814 139.057C125.204 138.457 124.899 137.572 124.899 136.402V131.827H126.774V136.147C126.774 136.867 126.934 137.407 127.254 137.767C127.584 138.117 128.049 138.292 128.649 138.292C129.319 138.292 129.849 138.087 130.239 137.677C130.639 137.257 130.839 136.657 130.839 135.877V131.827H132.714Z" fill="#262626"/>
<path d="M143.014 128.707V139.837H141.214V138.802C140.904 139.182 140.519 139.467 140.059 139.657C139.609 139.847 139.109 139.942 138.559 139.942C137.789 139.942 137.094 139.772 136.474 139.432C135.864 139.092 135.384 138.612 135.034 137.992C134.684 137.362 134.509 136.642 134.509 135.832C134.509 135.022 134.684 134.307 135.034 133.687C135.384 133.067 135.864 132.587 136.474 132.247C137.094 131.907 137.789 131.737 138.559 131.737C139.089 131.737 139.574 131.827 140.014 132.007C140.454 132.187 140.829 132.457 141.139 132.817V128.707H143.014ZM138.784 138.337C139.234 138.337 139.639 138.237 139.999 138.037C140.359 137.827 140.644 137.532 140.854 137.152C141.064 136.772 141.169 136.332 141.169 135.832C141.169 135.332 141.064 134.892 140.854 134.512C140.644 134.132 140.359 133.842 139.999 133.642C139.639 133.432 139.234 133.327 138.784 133.327C138.334 133.327 137.929 133.432 137.569 133.642C137.209 133.842 136.924 134.132 136.714 134.512C136.504 134.892 136.399 135.332 136.399 135.832C136.399 136.332 136.504 136.772 136.714 137.152C136.924 137.532 137.209 137.827 137.569 138.037C137.929 138.237 138.334 138.337 138.784 138.337Z" fill="#262626"/>
<path d="M145.467 131.827H147.342V139.837H145.467V131.827ZM146.412 130.507C146.072 130.507 145.787 130.402 145.557 130.192C145.327 129.972 145.212 129.702 145.212 129.382C145.212 129.062 145.327 128.797 145.557 128.587C145.787 128.367 146.072 128.257 146.412 128.257C146.752 128.257 147.037 128.362 147.267 128.572C147.497 128.772 147.612 129.027 147.612 129.337C147.612 129.667 147.497 129.947 147.267 130.177C147.047 130.397 146.762 130.507 146.412 130.507Z" fill="#262626"/>
<path d="M153.403 139.942C152.593 139.942 151.863 139.767 151.213 139.417C150.563 139.067 150.053 138.582 149.683 137.962C149.323 137.332 149.143 136.622 149.143 135.832C149.143 135.042 149.323 134.337 149.683 133.717C150.053 133.097 150.563 132.612 151.213 132.262C151.863 131.912 152.593 131.737 153.403 131.737C154.223 131.737 154.958 131.912 155.608 132.262C156.258 132.612 156.763 133.097 157.123 133.717C157.493 134.337 157.678 135.042 157.678 135.832C157.678 136.622 157.493 137.332 157.123 137.962C156.763 138.582 156.258 139.067 155.608 139.417C154.958 139.767 154.223 139.942 153.403 139.942ZM153.403 138.337C154.093 138.337 154.663 138.107 155.113 137.647C155.563 137.187 155.788 136.582 155.788 135.832C155.788 135.082 155.563 134.477 155.113 134.017C154.663 133.557 154.093 133.327 153.403 133.327C152.713 133.327 152.143 133.557 151.693 134.017C151.253 134.477 151.033 135.082 151.033 135.832C151.033 136.582 151.253 137.187 151.693 137.647C152.143 138.107 152.713 138.337 153.403 138.337Z" fill="#262626"/>
<path d="M103.556 162.942C102.726 162.942 101.981 162.767 101.321 162.417C100.661 162.067 100.146 161.582 99.7757 160.962C99.4057 160.332 99.2207 159.622 99.2207 158.832C99.2207 158.042 99.4057 157.337 99.7757 156.717C100.146 156.097 100.656 155.612 101.306 155.262C101.966 154.912 102.716 154.737 103.556 154.737C104.346 154.737 105.036 154.897 105.626 155.217C106.226 155.537 106.676 155.997 106.976 156.597L105.536 157.437C105.306 157.067 105.016 156.792 104.666 156.612C104.326 156.422 103.951 156.327 103.541 156.327C102.841 156.327 102.261 156.557 101.801 157.017C101.341 157.467 101.111 158.072 101.111 158.832C101.111 159.592 101.336 160.202 101.786 160.662C102.246 161.112 102.831 161.337 103.541 161.337C103.951 161.337 104.326 161.247 104.666 161.067C105.016 160.877 105.306 160.597 105.536 160.227L106.976 161.067C106.666 161.667 106.211 162.132 105.611 162.462C105.021 162.782 104.336 162.942 103.556 162.942Z" fill="#262626"/>
<path d="M112.079 162.942C111.269 162.942 110.539 162.767 109.889 162.417C109.239 162.067 108.729 161.582 108.359 160.962C107.999 160.332 107.819 159.622 107.819 158.832C107.819 158.042 107.999 157.337 108.359 156.717C108.729 156.097 109.239 155.612 109.889 155.262C110.539 154.912 111.269 154.737 112.079 154.737C112.899 154.737 113.634 154.912 114.284 155.262C114.934 155.612 115.439 156.097 115.799 156.717C116.169 157.337 116.354 158.042 116.354 158.832C116.354 159.622 116.169 160.332 115.799 160.962C115.439 161.582 114.934 162.067 114.284 162.417C113.634 162.767 112.899 162.942 112.079 162.942ZM112.079 161.337C112.769 161.337 113.339 161.107 113.789 160.647C114.239 160.187 114.464 159.582 114.464 158.832C114.464 158.082 114.239 157.477 113.789 157.017C113.339 156.557 112.769 156.327 112.079 156.327C111.389 156.327 110.819 156.557 110.369 157.017C109.929 157.477 109.709 158.082 109.709 158.832C109.709 159.582 109.929 160.187 110.369 160.647C110.819 161.107 111.389 161.337 112.079 161.337Z" fill="#262626"/>
<path d="M119.932 155.997C120.472 155.157 121.422 154.737 122.782 154.737V156.522C122.622 156.492 122.477 156.477 122.347 156.477C121.617 156.477 121.047 156.692 120.637 157.122C120.227 157.542 120.022 158.152 120.022 158.952V162.837H118.147V154.827H119.932V155.997Z" fill="#262626"/>
<path d="M128.11 161.352C128.98 161.352 129.705 161.062 130.285 160.482L131.275 161.637C130.925 162.067 130.475 162.392 129.925 162.612C129.375 162.832 128.755 162.942 128.065 162.942C127.185 162.942 126.41 162.767 125.74 162.417C125.07 162.067 124.55 161.582 124.18 160.962C123.82 160.332 123.64 159.622 123.64 158.832C123.64 158.052 123.815 157.352 124.165 156.732C124.525 156.102 125.015 155.612 125.635 155.262C126.265 154.912 126.975 154.737 127.765 154.737C128.515 154.737 129.195 154.902 129.805 155.232C130.425 155.552 130.915 156.017 131.275 156.627C131.635 157.227 131.815 157.932 131.815 158.742L125.68 159.942C125.87 160.402 126.175 160.752 126.595 160.992C127.015 161.232 127.52 161.352 128.11 161.352ZM127.765 156.237C127.075 156.237 126.515 156.462 126.085 156.912C125.665 157.362 125.455 157.967 125.455 158.727V158.742L129.985 157.872C129.855 157.382 129.59 156.987 129.19 156.687C128.8 156.387 128.325 156.237 127.765 156.237Z" fill="#262626"/>
<path d="M137.291 162.942C136.461 162.942 135.716 162.767 135.056 162.417C134.396 162.067 133.881 161.582 133.511 160.962C133.141 160.332 132.956 159.622 132.956 158.832C132.956 158.042 133.141 157.337 133.511 156.717C133.881 156.097 134.391 155.612 135.041 155.262C135.701 154.912 136.451 154.737 137.291 154.737C138.081 154.737 138.771 154.897 139.361 155.217C139.961 155.537 140.411 155.997 140.711 156.597L139.271 157.437C139.041 157.067 138.751 156.792 138.401 156.612C138.061 156.422 137.686 156.327 137.276 156.327C136.576 156.327 135.996 156.557 135.536 157.017C135.076 157.467 134.846 158.072 134.846 158.832C134.846 159.592 135.071 160.202 135.521 160.662C135.981 161.112 136.566 161.337 137.276 161.337C137.686 161.337 138.061 161.247 138.401 161.067C138.751 160.877 139.041 160.597 139.271 160.227L140.711 161.067C140.401 161.667 139.946 162.132 139.346 162.462C138.756 162.782 138.071 162.942 137.291 162.942Z" fill="#262626"/>
<path d="M146.759 162.402C146.539 162.582 146.269 162.717 145.949 162.807C145.639 162.897 145.309 162.942 144.959 162.942C144.079 162.942 143.399 162.712 142.919 162.252C142.439 161.792 142.199 161.122 142.199 160.242V153.057H144.074V154.887H146.219V156.387H144.074V160.197C144.074 160.587 144.169 160.887 144.359 161.097C144.559 161.297 144.834 161.397 145.184 161.397C145.604 161.397 145.954 161.287 146.234 161.067L146.759 162.402Z" fill="#262626"/>
<path d="M148.308 154.827H150.183V162.837H148.308V154.827ZM149.253 153.507C148.913 153.507 148.628 153.402 148.398 153.192C148.168 152.972 148.053 152.702 148.053 152.382C148.053 152.062 148.168 151.797 148.398 151.587C148.628 151.367 148.913 151.257 149.253 151.257C149.593 151.257 149.878 151.362 150.108 151.572C150.338 151.772 150.453 152.027 150.453 152.337C150.453 152.667 150.338 152.947 150.108 153.177C149.888 153.397 149.603 153.507 149.253 153.507Z" fill="#262626"/>
<path d="M156.244 162.942C155.434 162.942 154.704 162.767 154.054 162.417C153.404 162.067 152.894 161.582 152.524 160.962C152.164 160.332 151.984 159.622 151.984 158.832C151.984 158.042 152.164 157.337 152.524 156.717C152.894 156.097 153.404 155.612 154.054 155.262C154.704 154.912 155.434 154.737 156.244 154.737C157.064 154.737 157.799 154.912 158.449 155.262C159.099 155.612 159.604 156.097 159.964 156.717C160.334 157.337 160.519 158.042 160.519 158.832C160.519 159.622 160.334 160.332 159.964 160.962C159.604 161.582 159.099 162.067 158.449 162.417C157.799 162.767 157.064 162.942 156.244 162.942ZM156.244 161.337C156.934 161.337 157.504 161.107 157.954 160.647C158.404 160.187 158.629 159.582 158.629 158.832C158.629 158.082 158.404 157.477 157.954 157.017C157.504 156.557 156.934 156.327 156.244 156.327C155.554 156.327 154.984 156.557 154.534 157.017C154.094 157.477 153.874 158.082 153.874 158.832C153.874 159.582 154.094 160.187 154.534 160.647C154.984 161.107 155.554 161.337 156.244 161.337Z" fill="#262626"/>
<path d="M166.857 154.737C167.867 154.737 168.677 155.032 169.287 155.622C169.897 156.212 170.202 157.087 170.202 158.247V162.837H168.327V158.487C168.327 157.787 168.162 157.262 167.832 156.912C167.502 156.552 167.032 156.372 166.422 156.372C165.732 156.372 165.187 156.582 164.787 157.002C164.387 157.412 164.187 158.007 164.187 158.787V162.837H162.312V154.827H164.097V155.862C164.407 155.492 164.797 155.212 165.267 155.022C165.737 154.832 166.267 154.737 166.857 154.737Z" fill="#262626"/>
</svg>
