<svg width="270" height="271" viewBox="0 0 270 271" fill="none" xmlns="http://www.w3.org/2000/svg">
<path d="M269.108 135.265C269.108 147.057 259.512 156.653 247.719 156.653C241.945 156.653 236.659 154.376 232.837 150.635V226.349C232.837 229.928 229.909 232.855 226.331 232.855H150.617C154.358 229.033 156.635 223.747 156.635 217.973C156.635 206.181 147.039 196.584 135.247 196.584C123.454 196.584 113.858 206.181 113.858 217.973C113.858 223.747 116.135 229.033 119.876 232.855H44.1623C40.584 232.855 37.6562 229.928 37.6562 226.349V150.635C41.4785 154.376 46.7647 156.653 52.5388 156.653C64.331 156.653 73.9273 147.057 73.9273 135.265C73.9273 123.473 64.331 113.876 52.5388 113.876C46.7647 113.876 41.5599 116.153 37.6562 119.894V44.1806C37.6562 40.6023 40.584 37.6746 44.1623 37.6746H119.876C116.135 41.4969 113.858 46.783 113.858 52.5571C113.858 64.3493 123.454 73.9456 135.247 73.9456C147.039 73.9456 156.635 64.3493 156.635 52.5571C156.635 46.783 154.358 41.4969 150.617 37.6746H226.331C229.909 37.6746 232.837 40.6023 232.837 44.1806V119.894C236.659 116.153 241.945 113.876 247.719 113.876C259.512 113.958 269.108 123.473 269.108 135.265Z" fill="#F6F6F6"/>
<path d="M120.704 157.825C119.644 157.825 118.684 157.595 117.824 157.135C116.974 156.665 116.304 156.02 115.814 155.2C115.334 154.38 115.094 153.455 115.094 152.425C115.094 151.395 115.339 150.47 115.829 149.65C116.319 148.83 116.989 148.19 117.839 147.73C118.699 147.26 119.659 147.025 120.719 147.025C121.579 147.025 122.364 147.175 123.074 147.475C123.784 147.775 124.384 148.21 124.874 148.78L123.614 149.965C122.854 149.145 121.919 148.735 120.809 148.735C120.089 148.735 119.444 148.895 118.874 149.215C118.304 149.525 117.859 149.96 117.539 150.52C117.219 151.08 117.059 151.715 117.059 152.425C117.059 153.135 117.219 153.77 117.539 154.33C117.859 154.89 118.304 155.33 118.874 155.65C119.444 155.96 120.089 156.115 120.809 156.115C121.919 156.115 122.854 155.7 123.614 154.87L124.874 156.07C124.384 156.64 123.779 157.075 123.059 157.375C122.349 157.675 121.564 157.825 120.704 157.825Z" fill="#262626"/>
<path d="M129.869 157.78C129.059 157.78 128.329 157.605 127.679 157.255C127.029 156.905 126.519 156.42 126.149 155.8C125.789 155.17 125.609 154.46 125.609 153.67C125.609 152.88 125.789 152.175 126.149 151.555C126.519 150.935 127.029 150.45 127.679 150.1C128.329 149.75 129.059 149.575 129.869 149.575C130.689 149.575 131.424 149.75 132.074 150.1C132.724 150.45 133.229 150.935 133.589 151.555C133.959 152.175 134.144 152.88 134.144 153.67C134.144 154.46 133.959 155.17 133.589 155.8C133.229 156.42 132.724 156.905 132.074 157.255C131.424 157.605 130.689 157.78 129.869 157.78ZM129.869 156.175C130.559 156.175 131.129 155.945 131.579 155.485C132.029 155.025 132.254 154.42 132.254 153.67C132.254 152.92 132.029 152.315 131.579 151.855C131.129 151.395 130.559 151.165 129.869 151.165C129.179 151.165 128.609 151.395 128.159 151.855C127.719 152.315 127.499 152.92 127.499 153.67C127.499 154.42 127.719 155.025 128.159 155.485C128.609 155.945 129.179 156.175 129.869 156.175Z" fill="#262626"/>
<path d="M138.577 157.78C137.747 157.78 137.097 157.555 136.627 157.105C136.167 156.645 135.937 156 135.937 155.17V146.545H137.812V155.035C137.812 155.835 138.187 156.235 138.937 156.235C139.187 156.235 139.412 156.185 139.612 156.085L139.702 157.585C139.352 157.715 138.977 157.78 138.577 157.78Z" fill="#262626"/>
<path d="M144.43 157.78C143.62 157.78 142.89 157.605 142.24 157.255C141.59 156.905 141.08 156.42 140.71 155.8C140.35 155.17 140.17 154.46 140.17 153.67C140.17 152.88 140.35 152.175 140.71 151.555C141.08 150.935 141.59 150.45 142.24 150.1C142.89 149.75 143.62 149.575 144.43 149.575C145.25 149.575 145.985 149.75 146.635 150.1C147.285 150.45 147.79 150.935 148.15 151.555C148.52 152.175 148.705 152.88 148.705 153.67C148.705 154.46 148.52 155.17 148.15 155.8C147.79 156.42 147.285 156.905 146.635 157.255C145.985 157.605 145.25 157.78 144.43 157.78ZM144.43 156.175C145.12 156.175 145.69 155.945 146.14 155.485C146.59 155.025 146.815 154.42 146.815 153.67C146.815 152.92 146.59 152.315 146.14 151.855C145.69 151.395 145.12 151.165 144.43 151.165C143.74 151.165 143.17 151.395 142.72 151.855C142.28 152.315 142.06 152.92 142.06 153.67C142.06 154.42 142.28 155.025 142.72 155.485C143.17 155.945 143.74 156.175 144.43 156.175Z" fill="#262626"/>
<path d="M152.283 150.835C152.823 149.995 153.773 149.575 155.133 149.575V151.36C154.973 151.33 154.828 151.315 154.698 151.315C153.968 151.315 153.398 151.53 152.988 151.96C152.578 152.38 152.373 152.99 152.373 153.79V157.675H150.498V149.665H152.283V150.835Z" fill="#262626"/>
<path d="M100.442 180.78C99.6124 180.78 98.8674 180.605 98.2074 180.255C97.5474 179.905 97.0324 179.42 96.6624 178.8C96.2924 178.17 96.1074 177.46 96.1074 176.67C96.1074 175.88 96.2924 175.175 96.6624 174.555C97.0324 173.935 97.5424 173.45 98.1924 173.1C98.8524 172.75 99.6024 172.575 100.442 172.575C101.232 172.575 101.922 172.735 102.512 173.055C103.112 173.375 103.562 173.835 103.862 174.435L102.422 175.275C102.192 174.905 101.902 174.63 101.552 174.45C101.212 174.26 100.837 174.165 100.427 174.165C99.7274 174.165 99.1474 174.395 98.6874 174.855C98.2274 175.305 97.9974 175.91 97.9974 176.67C97.9974 177.43 98.2224 178.04 98.6724 178.5C99.1324 178.95 99.7174 179.175 100.427 179.175C100.837 179.175 101.212 179.085 101.552 178.905C101.902 178.715 102.192 178.435 102.422 178.065L103.862 178.905C103.552 179.505 103.097 179.97 102.497 180.3C101.907 180.62 101.222 180.78 100.442 180.78Z" fill="#262626"/>
<path d="M108.966 180.78C108.156 180.78 107.426 180.605 106.776 180.255C106.126 179.905 105.616 179.42 105.246 178.8C104.886 178.17 104.706 177.46 104.706 176.67C104.706 175.88 104.886 175.175 105.246 174.555C105.616 173.935 106.126 173.45 106.776 173.1C107.426 172.75 108.156 172.575 108.966 172.575C109.786 172.575 110.521 172.75 111.171 173.1C111.821 173.45 112.326 173.935 112.686 174.555C113.056 175.175 113.241 175.88 113.241 176.67C113.241 177.46 113.056 178.17 112.686 178.8C112.326 179.42 111.821 179.905 111.171 180.255C110.521 180.605 109.786 180.78 108.966 180.78ZM108.966 179.175C109.656 179.175 110.226 178.945 110.676 178.485C111.126 178.025 111.351 177.42 111.351 176.67C111.351 175.92 111.126 175.315 110.676 174.855C110.226 174.395 109.656 174.165 108.966 174.165C108.276 174.165 107.706 174.395 107.256 174.855C106.816 175.315 106.596 175.92 106.596 176.67C106.596 177.42 106.816 178.025 107.256 178.485C107.706 178.945 108.276 179.175 108.966 179.175Z" fill="#262626"/>
<path d="M116.819 173.835C117.359 172.995 118.309 172.575 119.669 172.575V174.36C119.509 174.33 119.364 174.315 119.234 174.315C118.504 174.315 117.934 174.53 117.524 174.96C117.114 175.38 116.909 175.99 116.909 176.79V180.675H115.034V172.665H116.819V173.835Z" fill="#262626"/>
<path d="M123.045 173.835C123.585 172.995 124.535 172.575 125.895 172.575V174.36C125.735 174.33 125.59 174.315 125.46 174.315C124.73 174.315 124.16 174.53 123.75 174.96C123.34 175.38 123.135 175.99 123.135 176.79V180.675H121.26V172.665H123.045V173.835Z" fill="#262626"/>
<path d="M131.222 179.19C132.092 179.19 132.817 178.9 133.397 178.32L134.387 179.475C134.037 179.905 133.587 180.23 133.037 180.45C132.487 180.67 131.867 180.78 131.177 180.78C130.297 180.78 129.522 180.605 128.852 180.255C128.182 179.905 127.662 179.42 127.292 178.8C126.932 178.17 126.752 177.46 126.752 176.67C126.752 175.89 126.927 175.19 127.277 174.57C127.637 173.94 128.127 173.45 128.747 173.1C129.377 172.75 130.087 172.575 130.877 172.575C131.627 172.575 132.307 172.74 132.917 173.07C133.537 173.39 134.027 173.855 134.387 174.465C134.747 175.065 134.927 175.77 134.927 176.58L128.792 177.78C128.982 178.24 129.287 178.59 129.707 178.83C130.127 179.07 130.632 179.19 131.222 179.19ZM130.877 174.075C130.187 174.075 129.627 174.3 129.197 174.75C128.777 175.2 128.567 175.805 128.567 176.565V176.58L133.097 175.71C132.967 175.22 132.702 174.825 132.302 174.525C131.912 174.225 131.437 174.075 130.877 174.075Z" fill="#262626"/>
<path d="M140.403 180.78C139.573 180.78 138.828 180.605 138.168 180.255C137.508 179.905 136.993 179.42 136.623 178.8C136.253 178.17 136.068 177.46 136.068 176.67C136.068 175.88 136.253 175.175 136.623 174.555C136.993 173.935 137.503 173.45 138.153 173.1C138.813 172.75 139.563 172.575 140.403 172.575C141.193 172.575 141.883 172.735 142.473 173.055C143.073 173.375 143.523 173.835 143.823 174.435L142.383 175.275C142.153 174.905 141.863 174.63 141.513 174.45C141.173 174.26 140.798 174.165 140.388 174.165C139.688 174.165 139.108 174.395 138.648 174.855C138.188 175.305 137.958 175.91 137.958 176.67C137.958 177.43 138.183 178.04 138.633 178.5C139.093 178.95 139.678 179.175 140.388 179.175C140.798 179.175 141.173 179.085 141.513 178.905C141.863 178.715 142.153 178.435 142.383 178.065L143.823 178.905C143.513 179.505 143.058 179.97 142.458 180.3C141.868 180.62 141.183 180.78 140.403 180.78Z" fill="#262626"/>
<path d="M149.871 180.24C149.651 180.42 149.381 180.555 149.061 180.645C148.751 180.735 148.421 180.78 148.071 180.78C147.191 180.78 146.511 180.55 146.031 180.09C145.551 179.63 145.311 178.96 145.311 178.08V170.895H147.186V172.725H149.331V174.225H147.186V178.035C147.186 178.425 147.281 178.725 147.471 178.935C147.671 179.135 147.946 179.235 148.296 179.235C148.716 179.235 149.066 179.125 149.346 178.905L149.871 180.24Z" fill="#262626"/>
<path d="M151.421 172.665H153.296V180.675H151.421V172.665ZM152.366 171.345C152.026 171.345 151.741 171.24 151.511 171.03C151.281 170.81 151.166 170.54 151.166 170.22C151.166 169.9 151.281 169.635 151.511 169.425C151.741 169.205 152.026 169.095 152.366 169.095C152.706 169.095 152.991 169.2 153.221 169.41C153.451 169.61 153.566 169.865 153.566 170.175C153.566 170.505 153.451 170.785 153.221 171.015C153.001 171.235 152.716 171.345 152.366 171.345Z" fill="#262626"/>
<path d="M159.357 180.78C158.547 180.78 157.817 180.605 157.167 180.255C156.517 179.905 156.007 179.42 155.637 178.8C155.277 178.17 155.097 177.46 155.097 176.67C155.097 175.88 155.277 175.175 155.637 174.555C156.007 173.935 156.517 173.45 157.167 173.1C157.817 172.75 158.547 172.575 159.357 172.575C160.177 172.575 160.912 172.75 161.562 173.1C162.212 173.45 162.717 173.935 163.077 174.555C163.447 175.175 163.632 175.88 163.632 176.67C163.632 177.46 163.447 178.17 163.077 178.8C162.717 179.42 162.212 179.905 161.562 180.255C160.912 180.605 160.177 180.78 159.357 180.78ZM159.357 179.175C160.047 179.175 160.617 178.945 161.067 178.485C161.517 178.025 161.742 177.42 161.742 176.67C161.742 175.92 161.517 175.315 161.067 174.855C160.617 174.395 160.047 174.165 159.357 174.165C158.667 174.165 158.097 174.395 157.647 174.855C157.207 175.315 156.987 175.92 156.987 176.67C156.987 177.42 157.207 178.025 157.647 178.485C158.097 178.945 158.667 179.175 159.357 179.175Z" fill="#262626"/>
<path d="M169.97 172.575C170.98 172.575 171.79 172.87 172.4 173.46C173.01 174.05 173.315 174.925 173.315 176.085V180.675H171.44V176.325C171.44 175.625 171.275 175.1 170.945 174.75C170.615 174.39 170.145 174.21 169.535 174.21C168.845 174.21 168.3 174.42 167.9 174.84C167.5 175.25 167.3 175.845 167.3 176.625V180.675H165.425V172.665H167.21V173.7C167.52 173.33 167.91 173.05 168.38 172.86C168.85 172.67 169.38 172.575 169.97 172.575Z" fill="#262626"/>
<path d="M165 94.6746C165.1 92.6746 164.6 90.9746 164 89.7746C163.5 88.4746 162.9 87.5746 162.4 86.9746C161.9 86.3746 161.1 85.6746 161.1 85.6746C161.1 85.5746 161 85.4746 160.9 85.3746C160.5 84.7746 159.8 83.8746 158.7 82.9746C157.7 81.9746 156.2 80.8746 154.4 80.0746C152.6 79.0746 150.4 78.3746 147.8 78.0746C145.2 77.8746 142.3 77.9746 139.5 78.9746C137.7 79.5746 135.9 80.5746 134.5 81.8746C133.8 80.7746 132.7 80.0746 131.4 79.4746C129.6 78.4746 127.3 77.7746 124.8 77.4746C122.2 77.2746 119.3 77.3746 116.5 78.3746C113.4 79.3746 110.7 81.4746 108.7 84.2746C106.7 87.0746 105.4 90.6746 105.2 94.2746C105 97.0746 105.3 99.8746 106.2 102.475C106.2 102.575 106.1 102.775 106.2 102.975C106.6 104.875 107.2 106.675 108.3 108.375C109.3 110.075 110.4 111.675 112 112.875C112.8 113.475 113.6 114.075 114.4 114.575C114.5 114.675 114.6 114.675 114.7 114.775C115.5 120.475 119 125.675 123.9 128.675C126 129.975 128.3 130.775 130.7 131.275H130.8C132.9 131.975 135 132.275 137.3 132.075C140.4 131.875 146.4 128.675 146.2 128.175C146.9 127.575 147.7 127.075 148.4 126.375C148.5 126.275 148.7 126.075 148.8 125.975L149.9 124.875C150.6 123.975 151.1 123.175 151.6 122.275L152.5 120.975C152.7 120.475 153 119.875 153.1 119.375C153.2 118.975 153.4 118.675 153.4 118.275L153.6 117.075C153.7 116.175 153.9 115.375 153.9 114.575V111.975C154.6 111.575 155.5 111.275 156.2 110.775L156.6 110.375C157.6 109.775 158.4 109.175 159.2 108.375C161.5 106.275 163.1 103.875 164.1 101.475C164.7 99.2746 165.1 96.7746 165 94.6746ZM135 83.2746C137.1 84.9746 137.9 86.1746 138.1 86.0746C138.2 86.3746 138.6 86.9746 139.1 88.0746C138.4 87.5746 137.3 87.0746 135.9 86.9746C134.6 86.7746 132.8 86.9746 131.7 87.9746C132.1 87.0746 132.6 86.3746 133.1 85.6746C133.6 84.7746 134.2 84.0746 135 83.2746ZM144.1 98.4746C145.5 98.8746 146.7 99.5746 147.5 100.275L147.8 100.475C147.2 101.475 146.5 103.875 145.1 106.575C144.2 108.275 143.3 109.775 142.4 110.775C142.2 111.175 141.9 111.375 141.7 111.775C140.2 111.475 139 111.075 137.6 110.475C138 110.375 138.3 109.975 138.8 109.775C140 108.775 141.5 107.375 142.5 105.275C143.5 103.175 144.3 100.675 144.1 98.4746ZM150.3 103.475C150.5 103.875 151 104.875 151.5 106.075C151.4 105.975 151.4 105.775 151.3 105.775C150.8 105.775 150.3 107.275 149.3 108.975C148.6 110.275 148 111.475 147.7 112.075C146.1 112.375 144.5 112.375 142.8 112.075C142.9 111.975 143.1 111.975 143.2 111.875C144.3 110.975 145.5 109.575 146.5 107.575C147.5 105.775 148 103.875 148.1 102.575C148.2 102.075 148.2 101.775 148.2 101.375C149.5 102.475 150.1 103.375 150.3 103.475ZM151.7 106.175C151.8 106.575 151.9 106.875 152.1 107.375C152.3 108.375 152.5 109.375 152.6 110.575C151.7 110.975 151 111.175 150 111.475C149.9 111.475 149.6 111.575 149.4 111.575C150 111.175 150.5 110.475 151 109.575C151.7 108.175 151.9 106.975 151.7 106.175ZM141.1 104.175C139.8 106.975 137.8 108.975 137.1 109.975C136.5 109.575 135.9 109.075 135.4 108.675L135.8 108.275C138.1 106.175 139.7 103.775 140.7 101.375C141.3 99.8746 141.7 98.4746 141.8 97.0746C142.4 97.4746 142.9 97.5746 143.4 97.7746C142.9 99.0746 142.4 101.575 141.1 104.175ZM122.9 108.375C121.9 106.975 121.3 105.675 120.9 104.975C121.3 104.075 121.8 103.375 122.2 102.675C122.7 101.975 123.3 101.175 123.9 100.575C123.9 100.875 123.9 101.175 124 101.575C124.3 102.775 124.7 104.575 125.7 106.075C126.8 108.175 128.3 109.575 129.3 110.475C128.4 110.875 127.6 111.075 126.7 111.375C126 111.475 125.5 111.475 124.9 111.575C124.5 110.875 123.8 109.675 122.9 108.375ZM123.6 111.875C122.1 111.975 120.7 111.975 119.2 111.775C119.3 110.075 119.7 108.375 120.3 106.875C120.6 107.775 120.9 108.675 121.5 109.575C122.2 110.475 122.9 111.275 123.6 111.875ZM127.4 105.275C126.5 103.675 125.8 102.175 125.3 101.275C125 100.675 124.9 100.275 124.7 99.8746C125 99.5746 125.2 99.4746 125.3 99.2746C126.3 98.5746 127.3 97.8746 128.2 97.4746C128.4 100.275 129.2 103.075 130.5 105.675C131.1 106.675 131.7 107.675 132.6 108.575C132 109.175 131.1 109.675 130.2 110.075C129.6 109.075 128.5 107.275 127.4 105.275ZM138.8 99.0746C137.9 98.4746 136.6 97.8746 135 97.7746C133.4 97.6746 132 97.9746 131 98.3746C130.6 98.4746 130.4 98.5746 130.1 98.7746C130 98.1746 130 97.3746 129.8 96.7746C133 95.7746 136.7 95.7746 140.3 96.7746C140.3 97.8746 140.1 99.0746 139.6 100.175C139.6 99.9746 139.4 99.5746 138.8 99.0746ZM139.5 100.575C139.5 100.675 139.4 100.875 139.4 100.975C139.2 101.675 138.8 102.275 138.4 102.975C138.3 102.775 138 102.475 137.7 102.275C137.1 101.875 136 101.575 134.9 101.375C133.1 101.275 131.6 101.775 131.2 102.075C130.9 101.275 130.7 100.375 130.5 99.4746C131.4 99.4746 133.1 99.3746 134.9 99.4746C137.2 99.5746 138.9 100.575 139.5 100.575ZM131.3 102.675C131.9 102.875 133.3 103.075 134.7 103.175C136.2 103.175 137.4 103.575 138 103.375C137.1 104.775 136 106.075 134.7 107.175C134.6 107.275 134.3 107.475 134.2 107.575C133 106.175 132.1 104.775 131.3 102.675ZM140.8 95.7746C137.1 94.5746 133.3 94.5746 130 95.3746V94.6746C130 94.0746 130.1 93.4746 130.2 92.9746C131.1 92.9746 133.1 92.3746 135.7 92.4746C137.8 92.4746 139.6 92.9746 140.7 93.1746C140.7 93.6746 140.8 94.1746 140.8 94.6746C141 95.0746 141 95.4746 140.8 95.7746ZM140.3 91.6746C139.3 91.0746 137.7 90.5746 135.9 90.5746C134.1 90.5746 132.5 90.9746 131.4 91.4746C131 91.5746 130.8 91.8746 130.5 91.9746C130.7 90.7746 131.1 89.6746 131.6 88.5746C131.7 88.8746 132.2 88.6746 132.8 88.5746C133.5 88.4746 134.6 88.4746 135.7 88.5746C137.3 88.8746 138.8 89.1746 139.7 89.1746C139.8 89.4746 139.8 89.5746 140 89.7746C140.2 90.3746 140.4 91.0746 140.6 91.9746C140.6 91.7746 140.5 91.7746 140.3 91.6746ZM116.8 111.275C113.5 110.175 110.7 107.875 109 104.675C108.6 103.975 108.3 103.275 108 102.475C108 102.475 108 102.475 108 102.375C108 102.275 107.9 102.275 107.9 102.175C107 99.6746 106.6 96.9746 106.8 94.2746C107 90.8746 108.1 87.5746 110 84.9746C111.8 82.3746 114.3 80.5746 116.9 79.5746C119.6 78.5746 122.3 78.3746 124.6 78.5746C128.6 78.9746 131.8 80.3746 134 81.9746C133.3 82.6746 132.5 83.4746 131.9 84.2746C129.9 87.0746 128.6 90.6746 128.3 94.2746V95.7746C127 96.2746 125.6 96.9746 124.4 97.9746C123 98.9746 122 100.175 120.8 101.675C119 104.375 117.7 107.675 117.4 111.275C117.2 111.375 117.1 111.275 116.8 111.275ZM152.7 112.475C152.7 114.475 152.4 116.675 151.6 118.975C149.8 123.975 145 128.375 139.2 129.675C137.9 129.975 136.5 130.075 135.1 130.075C132.5 129.975 130.1 129.175 127.7 127.875C126.6 127.275 125.5 126.675 124.4 125.875C123.3 124.875 122.2 123.575 121.4 122.275C119.8 119.575 118.9 116.375 118.9 113.375C123.8 114.075 129.2 112.875 133.7 109.675C133.9 109.975 134.2 110.075 134.4 110.275C136 111.475 137.7 112.375 139.6 112.975C143.3 114.075 146.9 113.975 150.4 113.075C151.1 112.875 151.9 112.575 152.6 112.375V112.475H152.7ZM162.6 101.275C161.6 103.475 160 105.675 158 107.575C156.6 108.675 155.1 109.675 153.3 110.475C153.2 109.375 152.9 108.275 152.6 107.375C152.1 105.975 151.6 105.075 151.3 104.475C151 103.975 150.5 103.375 150.4 103.275C150.3 103.075 150.2 102.875 150 102.475C149.6 101.875 149 101.175 148.3 100.275C148.2 100.175 148.1 99.9746 147.9 99.8746C146.9 98.8746 145.6 97.8746 143.9 97.0746C143.9 96.9746 143.8 96.9746 143.8 96.9746C143.2 96.6746 142.6 96.3746 141.8 96.0746V94.6746C141.8 94.1746 141.7 93.6746 141.7 93.1746C141.7 93.0746 141.7 93.0746 141.6 92.9746C141.4 91.7746 141 90.6746 140.6 89.6746C140.5 89.3746 140.4 89.1746 140.2 88.9746C140.2 88.9746 140.2 88.8746 140.1 88.8746C139.7 87.9746 139.2 87.2746 138.9 86.8746C138.4 86.2746 138.2 85.9746 138.2 85.9746C138.2 85.9746 138.2 85.9746 138.2 86.0746C138.2 85.9746 138 85.6746 137.7 85.0746C137.3 84.4746 136.6 83.7746 135.7 82.7746C136.9 81.5746 138.4 80.6746 140 80.0746C142.7 79.0746 145.4 78.8746 147.7 79.0746C152.6 79.4746 156.2 81.6746 158.2 83.3746C160.3 85.0746 161.3 86.4746 161.4 86.2746C161.4 86.2746 161.4 86.1746 161.3 86.0746C161.8 86.7746 162.7 88.1746 163.4 89.9746C163.8 91.2746 164.1 92.9746 164.1 94.8746C164.1 96.8746 163.8 99.0746 162.6 101.275Z" fill="black"/>
<path d="M164.099 94.9745C164.099 96.9745 163.699 99.1745 162.599 101.375C161.599 103.575 159.999 105.775 157.999 107.675C156.599 108.775 155.099 109.775 153.299 110.575C153.199 109.475 152.899 108.375 152.599 107.475C152.099 106.075 151.599 105.175 151.299 104.575C150.999 104.075 150.499 103.475 150.399 103.375C150.299 103.175 150.199 102.975 149.999 102.575C149.599 101.975 148.999 101.275 148.299 100.375C148.199 100.275 148.099 100.075 147.899 99.9745C146.899 98.9745 145.599 97.9745 143.899 97.1745C143.899 97.0745 143.799 97.0745 143.799 97.0745C143.199 96.7745 142.599 96.4745 141.799 96.1745V94.6745C141.799 94.1745 141.699 93.6745 141.699 93.1745C141.699 93.0745 141.699 93.0745 141.599 92.9745C141.399 91.7745 140.999 90.6745 140.599 89.6745C140.499 89.3745 140.399 89.1745 140.199 88.9745C140.199 88.9745 140.199 88.8745 140.099 88.8745C139.699 87.9745 139.199 87.2745 138.899 86.8745C138.399 86.2745 138.199 85.9745 138.199 85.9745C138.199 85.9745 138.199 85.9745 138.199 86.0745C138.199 85.9745 137.999 85.6745 137.699 85.0745C137.299 84.4745 136.599 83.7745 135.699 82.7745C136.899 81.5745 138.399 80.6745 139.999 80.0745C142.699 79.0745 145.399 78.8745 147.699 79.0745C152.599 79.4745 156.199 81.6745 158.199 83.3745C160.299 85.0745 161.299 86.4745 161.399 86.2745C161.399 86.2745 161.399 86.1745 161.299 86.0745C161.799 86.7745 162.699 88.1745 163.399 89.9745C163.799 91.3745 164.099 92.9745 164.099 94.9745Z" fill="white"/>
<path d="M152.7 112.375V112.475C152.7 114.475 152.4 116.675 151.6 118.975C149.8 123.975 145 128.375 139.2 129.675C137.9 129.975 136.5 130.075 135.1 130.075C132.5 129.975 130.1 129.175 127.7 127.875C126.6 127.275 125.5 126.675 124.4 125.875C123.3 124.875 122.2 123.575 121.4 122.275C119.8 119.575 118.9 116.375 118.9 113.375C123.8 114.075 129.2 112.875 133.7 109.675C133.9 109.975 134.2 110.075 134.4 110.275C136 111.475 137.7 112.375 139.6 112.975C143.3 114.075 146.9 113.975 150.4 113.075C151.3 112.875 152 112.575 152.7 112.375Z" fill="#FFC999"/>
<path d="M134 82.0745C133.3 82.7745 132.5 83.5745 131.9 84.3745C129.9 87.1745 128.6 90.7745 128.3 94.3745V95.8745C127 96.3745 125.6 97.0745 124.4 98.0745C123 99.0745 122 100.275 120.8 101.775C119 104.475 117.7 107.775 117.4 111.375C117.2 111.375 117 111.275 116.8 111.275C113.5 110.175 110.7 107.875 109 104.675C108.6 103.975 108.3 103.275 108 102.475C108 102.475 108 102.475 108 102.375C108 102.275 107.9 102.275 107.9 102.175C107 99.6745 106.6 96.9745 106.8 94.2745C107 90.8745 108.1 87.5745 110 84.9745C111.8 82.3745 114.3 80.5745 116.9 79.5745C119.6 78.5745 122.3 78.3745 124.6 78.5745C128.6 78.9745 131.8 80.4745 134 82.0745Z" fill="#FF7700"/>
</svg>
