<svg width="270" height="271" viewBox="0 0 270 271" fill="none" xmlns="http://www.w3.org/2000/svg">
<path d="M196.074 134.837C196.074 146.63 205.67 156.226 217.462 156.226C223.236 156.226 228.523 153.949 232.345 150.208V225.922C232.345 229.5 229.417 232.428 225.839 232.428H150.125C153.866 236.25 156.143 241.536 156.143 247.31C156.143 259.103 146.547 268.699 134.754 268.699C122.962 268.699 113.366 259.103 113.366 247.31C113.366 241.536 115.643 236.25 119.384 232.428H43.6701C40.0918 232.428 37.1641 229.5 37.1641 225.922V150.208C40.9864 153.949 46.2725 156.226 52.0466 156.226C63.8388 156.226 73.4352 146.63 73.4352 134.837C73.4352 123.045 63.8388 113.449 52.0466 113.449C46.2725 113.449 40.9864 115.726 37.1641 119.467V43.7531C37.1641 40.1748 40.0918 37.2471 43.6701 37.2471H119.384C115.643 33.4248 113.366 28.1387 113.366 22.3646C113.366 10.5724 122.962 0.976013 134.754 0.976013C146.547 0.976013 156.143 10.5724 156.143 22.3646C156.143 28.1387 153.866 33.4248 150.125 37.2471H225.839C229.417 37.2471 232.345 40.1748 232.345 43.7531V119.467C228.523 115.726 223.236 113.449 217.462 113.449C205.67 113.449 196.074 123.045 196.074 134.837Z" fill="#F6F6F6"/>
<path d="M88.1908 98.9873C87.3808 98.9873 86.5958 98.8723 85.8358 98.6423C85.0858 98.4123 84.4908 98.1073 84.0508 97.7273L84.7258 96.2123C85.1558 96.5523 85.6808 96.8323 86.3008 97.0523C86.9308 97.2623 87.5608 97.3673 88.1908 97.3673C88.9708 97.3673 89.5508 97.2423 89.9308 96.9923C90.3208 96.7423 90.5158 96.4123 90.5158 96.0023C90.5158 95.7023 90.4058 95.4573 90.1858 95.2673C89.9758 95.0673 89.7058 94.9123 89.3758 94.8023C89.0458 94.6923 88.5958 94.5673 88.0258 94.4273C87.2258 94.2373 86.5758 94.0473 86.0758 93.8573C85.5858 93.6673 85.1608 93.3723 84.8008 92.9723C84.4508 92.5623 84.2758 92.0123 84.2758 91.3223C84.2758 90.7423 84.4308 90.2173 84.7408 89.7473C85.0608 89.2673 85.5358 88.8873 86.1658 88.6073C86.8058 88.3273 87.5858 88.1873 88.5058 88.1873C89.1458 88.1873 89.7758 88.2673 90.3958 88.4273C91.0158 88.5873 91.5508 88.8173 92.0008 89.1173L91.3858 90.6323C90.9258 90.3623 90.4458 90.1573 89.9458 90.0173C89.4458 89.8773 88.9608 89.8073 88.4908 89.8073C87.7208 89.8073 87.1458 89.9373 86.7658 90.1973C86.3958 90.4573 86.2108 90.8023 86.2108 91.2323C86.2108 91.5323 86.3158 91.7773 86.5258 91.9673C86.7458 92.1573 87.0208 92.3073 87.3508 92.4173C87.6808 92.5273 88.1308 92.6523 88.7008 92.7923C89.4808 92.9723 90.1208 93.1623 90.6208 93.3623C91.1208 93.5523 91.5458 93.8473 91.8958 94.2473C92.2558 94.6473 92.4358 95.1873 92.4358 95.8673C92.4358 96.4473 92.2758 96.9723 91.9558 97.4423C91.6458 97.9123 91.1708 98.2873 90.5308 98.5673C89.8908 98.8473 89.1108 98.9873 88.1908 98.9873Z" fill="#262626"/>
<path d="M97.8644 98.9423C97.0344 98.9423 96.2894 98.7673 95.6294 98.4173C94.9694 98.0673 94.4544 97.5823 94.0844 96.9623C93.7144 96.3323 93.5294 95.6223 93.5294 94.8323C93.5294 94.0423 93.7144 93.3373 94.0844 92.7173C94.4544 92.0973 94.9644 91.6123 95.6144 91.2623C96.2744 90.9123 97.0244 90.7373 97.8644 90.7373C98.6544 90.7373 99.3444 90.8973 99.9344 91.2173C100.534 91.5373 100.984 91.9973 101.284 92.5973L99.8444 93.4373C99.6144 93.0673 99.3244 92.7923 98.9744 92.6123C98.6344 92.4223 98.2594 92.3273 97.8494 92.3273C97.1494 92.3273 96.5694 92.5573 96.1094 93.0173C95.6494 93.4673 95.4194 94.0723 95.4194 94.8323C95.4194 95.5923 95.6444 96.2023 96.0944 96.6623C96.5544 97.1123 97.1394 97.3373 97.8494 97.3373C98.2594 97.3373 98.6344 97.2473 98.9744 97.0673C99.3244 96.8773 99.6144 96.5973 99.8444 96.2273L101.284 97.0673C100.974 97.6673 100.519 98.1323 99.9194 98.4623C99.3294 98.7823 98.6444 98.9423 97.8644 98.9423Z" fill="#262626"/>
<path d="M104.69 91.9973C105.23 91.1573 106.18 90.7373 107.54 90.7373V92.5223C107.38 92.4923 107.235 92.4773 107.105 92.4773C106.375 92.4773 105.805 92.6923 105.395 93.1223C104.985 93.5423 104.78 94.1523 104.78 94.9523V98.8373H102.905V90.8273H104.69V91.9973Z" fill="#262626"/>
<path d="M112.868 97.3523C113.738 97.3523 114.463 97.0623 115.043 96.4823L116.033 97.6373C115.683 98.0673 115.233 98.3923 114.683 98.6123C114.133 98.8323 113.513 98.9423 112.823 98.9423C111.943 98.9423 111.168 98.7673 110.498 98.4173C109.828 98.0673 109.308 97.5823 108.938 96.9623C108.578 96.3323 108.398 95.6223 108.398 94.8323C108.398 94.0523 108.573 93.3523 108.923 92.7323C109.283 92.1023 109.773 91.6123 110.393 91.2623C111.023 90.9123 111.733 90.7373 112.523 90.7373C113.273 90.7373 113.953 90.9023 114.563 91.2323C115.183 91.5523 115.673 92.0173 116.033 92.6273C116.393 93.2273 116.573 93.9323 116.573 94.7423L110.438 95.9423C110.628 96.4023 110.933 96.7523 111.353 96.9923C111.773 97.2323 112.278 97.3523 112.868 97.3523ZM112.523 92.2373C111.833 92.2373 111.273 92.4623 110.843 92.9123C110.423 93.3623 110.213 93.9673 110.213 94.7273V94.7423L114.743 93.8723C114.613 93.3823 114.348 92.9873 113.948 92.6873C113.558 92.3873 113.083 92.2373 112.523 92.2373Z" fill="#262626"/>
<path d="M122.184 97.3523C123.054 97.3523 123.779 97.0623 124.359 96.4823L125.349 97.6373C124.999 98.0673 124.549 98.3923 123.999 98.6123C123.449 98.8323 122.829 98.9423 122.139 98.9423C121.259 98.9423 120.484 98.7673 119.814 98.4173C119.144 98.0673 118.624 97.5823 118.254 96.9623C117.894 96.3323 117.714 95.6223 117.714 94.8323C117.714 94.0523 117.889 93.3523 118.239 92.7323C118.599 92.1023 119.089 91.6123 119.709 91.2623C120.339 90.9123 121.049 90.7373 121.839 90.7373C122.589 90.7373 123.269 90.9023 123.879 91.2323C124.499 91.5523 124.989 92.0173 125.349 92.6273C125.709 93.2273 125.889 93.9323 125.889 94.7423L119.754 95.9423C119.944 96.4023 120.249 96.7523 120.669 96.9923C121.089 97.2323 121.594 97.3523 122.184 97.3523ZM121.839 92.2373C121.149 92.2373 120.589 92.4623 120.159 92.9123C119.739 93.3623 119.529 93.9673 119.529 94.7273V94.7423L124.059 93.8723C123.929 93.3823 123.664 92.9873 123.264 92.6873C122.874 92.3873 122.399 92.2373 121.839 92.2373Z" fill="#262626"/>
<path d="M132.235 90.7373C133.245 90.7373 134.055 91.0323 134.665 91.6223C135.275 92.2123 135.58 93.0873 135.58 94.2473V98.8373H133.705V94.4873C133.705 93.7873 133.54 93.2623 133.21 92.9123C132.88 92.5523 132.41 92.3723 131.8 92.3723C131.11 92.3723 130.565 92.5823 130.165 93.0023C129.765 93.4123 129.565 94.0073 129.565 94.7873V98.8373H127.69V90.8273H129.475V91.8623C129.785 91.4923 130.175 91.2123 130.645 91.0223C131.115 90.8323 131.645 90.7373 132.235 90.7373Z" fill="#262626"/>
<path d="M140.434 98.9423C139.784 98.9423 139.149 98.8573 138.529 98.6873C137.909 98.5173 137.414 98.3023 137.044 98.0423L137.764 96.6173C138.124 96.8573 138.554 97.0523 139.054 97.2023C139.564 97.3423 140.064 97.4123 140.554 97.4123C141.674 97.4123 142.234 97.1173 142.234 96.5273C142.234 96.2473 142.089 96.0523 141.799 95.9423C141.519 95.8323 141.064 95.7273 140.434 95.6273C139.774 95.5273 139.234 95.4123 138.814 95.2823C138.404 95.1523 138.044 94.9273 137.734 94.6073C137.434 94.2773 137.284 93.8223 137.284 93.2423C137.284 92.4823 137.599 91.8773 138.229 91.4273C138.869 90.9673 139.729 90.7373 140.809 90.7373C141.359 90.7373 141.909 90.8023 142.459 90.9323C143.009 91.0523 143.459 91.2173 143.809 91.4273L143.089 92.8523C142.409 92.4523 141.644 92.2523 140.794 92.2523C140.244 92.2523 139.824 92.3373 139.534 92.5073C139.254 92.6673 139.114 92.8823 139.114 93.1523C139.114 93.4523 139.264 93.6673 139.564 93.7973C139.874 93.9173 140.349 94.0323 140.989 94.1423C141.629 94.2423 142.154 94.3573 142.564 94.4873C142.974 94.6173 143.324 94.8373 143.614 95.1473C143.914 95.4573 144.064 95.8973 144.064 96.4673C144.064 97.2173 143.739 97.8173 143.089 98.2673C142.439 98.7173 141.554 98.9423 140.434 98.9423Z" fill="#262626"/>
<path d="M153.509 90.8273V98.8373H151.724V97.8023C151.414 98.1823 151.029 98.4673 150.569 98.6573C150.119 98.8473 149.619 98.9423 149.069 98.9423C148.289 98.9423 147.589 98.7723 146.969 98.4323C146.359 98.0923 145.879 97.6123 145.529 96.9923C145.189 96.3723 145.019 95.6523 145.019 94.8323C145.019 94.0123 145.189 93.2973 145.529 92.6873C145.879 92.0673 146.359 91.5873 146.969 91.2473C147.589 90.9073 148.289 90.7373 149.069 90.7373C149.589 90.7373 150.064 90.8273 150.494 91.0073C150.934 91.1873 151.314 91.4523 151.634 91.8023V90.8273H153.509ZM149.279 97.3373C149.969 97.3373 150.539 97.1073 150.989 96.6473C151.439 96.1873 151.664 95.5823 151.664 94.8323C151.664 94.0823 151.439 93.4773 150.989 93.0173C150.539 92.5573 149.969 92.3273 149.279 92.3273C148.589 92.3273 148.019 92.5573 147.569 93.0173C147.129 93.4773 146.909 94.0823 146.909 94.8323C146.909 95.5823 147.129 96.1873 147.569 96.6473C148.019 97.1073 148.589 97.3373 149.279 97.3373Z" fill="#262626"/>
<path d="M163.462 90.8273L160.027 98.8373H158.092L154.657 90.8273H156.607L159.097 96.7673L161.662 90.8273H163.462Z" fill="#262626"/>
<path d="M168.224 97.3523C169.094 97.3523 169.819 97.0623 170.399 96.4823L171.389 97.6373C171.039 98.0673 170.589 98.3923 170.039 98.6123C169.489 98.8323 168.869 98.9423 168.179 98.9423C167.299 98.9423 166.524 98.7673 165.854 98.4173C165.184 98.0673 164.664 97.5823 164.294 96.9623C163.934 96.3323 163.754 95.6223 163.754 94.8323C163.754 94.0523 163.929 93.3523 164.279 92.7323C164.639 92.1023 165.129 91.6123 165.749 91.2623C166.379 90.9123 167.089 90.7373 167.879 90.7373C168.629 90.7373 169.309 90.9023 169.919 91.2323C170.539 91.5523 171.029 92.0173 171.389 92.6273C171.749 93.2273 171.929 93.9323 171.929 94.7423L165.794 95.9423C165.984 96.4023 166.289 96.7523 166.709 96.9923C167.129 97.2323 167.634 97.3523 168.224 97.3523ZM167.879 92.2373C167.189 92.2373 166.629 92.4623 166.199 92.9123C165.779 93.3623 165.569 93.9673 165.569 94.7273V94.7423L170.099 93.8723C169.969 93.3823 169.704 92.9873 169.304 92.6873C168.914 92.3873 168.439 92.2373 167.879 92.2373Z" fill="#262626"/>
<path d="M175.515 91.9973C176.055 91.1573 177.005 90.7373 178.365 90.7373V92.5223C178.205 92.4923 178.06 92.4773 177.93 92.4773C177.2 92.4773 176.63 92.6923 176.22 93.1223C175.81 93.5423 175.605 94.1523 175.605 94.9523V98.8373H173.73V90.8273H175.515V91.9973Z" fill="#262626"/>
<path d="M182.46 98.9423C181.81 98.9423 181.175 98.8573 180.555 98.6873C179.935 98.5173 179.44 98.3023 179.07 98.0423L179.79 96.6173C180.15 96.8573 180.58 97.0523 181.08 97.2023C181.59 97.3423 182.09 97.4123 182.58 97.4123C183.7 97.4123 184.26 97.1173 184.26 96.5273C184.26 96.2473 184.115 96.0523 183.825 95.9423C183.545 95.8323 183.09 95.7273 182.46 95.6273C181.8 95.5273 181.26 95.4123 180.84 95.2823C180.43 95.1523 180.07 94.9273 179.76 94.6073C179.46 94.2773 179.31 93.8223 179.31 93.2423C179.31 92.4823 179.625 91.8773 180.255 91.4273C180.895 90.9673 181.755 90.7373 182.835 90.7373C183.385 90.7373 183.935 90.8023 184.485 90.9323C185.035 91.0523 185.485 91.2173 185.835 91.4273L185.115 92.8523C184.435 92.4523 183.67 92.2523 182.82 92.2523C182.27 92.2523 181.85 92.3373 181.56 92.5073C181.28 92.6673 181.14 92.8823 181.14 93.1523C181.14 93.4523 181.29 93.6673 181.59 93.7973C181.9 93.9173 182.375 94.0323 183.015 94.1423C183.655 94.2423 184.18 94.3573 184.59 94.4873C185 94.6173 185.35 94.8373 185.64 95.1473C185.94 95.4573 186.09 95.8973 186.09 96.4673C186.09 97.2173 185.765 97.8173 185.115 98.2673C184.465 98.7173 183.58 98.9423 182.46 98.9423Z" fill="#262626"/>
<path d="M107.344 113.827V121.837H105.559V120.802C105.249 121.182 104.864 121.467 104.404 121.657C103.954 121.847 103.454 121.942 102.904 121.942C102.124 121.942 101.424 121.772 100.804 121.432C100.194 121.092 99.7141 120.612 99.3641 119.992C99.0241 119.372 98.8541 118.652 98.8541 117.832C98.8541 117.012 99.0241 116.297 99.3641 115.687C99.7141 115.067 100.194 114.587 100.804 114.247C101.424 113.907 102.124 113.737 102.904 113.737C103.424 113.737 103.899 113.827 104.329 114.007C104.769 114.187 105.149 114.452 105.469 114.802V113.827H107.344ZM103.114 120.337C103.804 120.337 104.374 120.107 104.824 119.647C105.274 119.187 105.499 118.582 105.499 117.832C105.499 117.082 105.274 116.477 104.824 116.017C104.374 115.557 103.804 115.327 103.114 115.327C102.424 115.327 101.854 115.557 101.404 116.017C100.964 116.477 100.744 117.082 100.744 117.832C100.744 118.582 100.964 119.187 101.404 119.647C101.854 120.107 102.424 120.337 103.114 120.337Z" fill="#262626"/>
<path d="M114.342 113.737C115.352 113.737 116.162 114.032 116.772 114.622C117.382 115.212 117.687 116.087 117.687 117.247V121.837H115.812V117.487C115.812 116.787 115.647 116.262 115.317 115.912C114.987 115.552 114.517 115.372 113.907 115.372C113.217 115.372 112.672 115.582 112.272 116.002C111.872 116.412 111.672 117.007 111.672 117.787V121.837H109.797V113.827H111.582V114.862C111.892 114.492 112.282 114.212 112.752 114.022C113.222 113.832 113.752 113.737 114.342 113.737Z" fill="#262626"/>
<path d="M127.984 110.707V121.837H126.184V120.802C125.874 121.182 125.489 121.467 125.029 121.657C124.579 121.847 124.079 121.942 123.529 121.942C122.759 121.942 122.064 121.772 121.444 121.432C120.834 121.092 120.354 120.612 120.004 119.992C119.654 119.362 119.479 118.642 119.479 117.832C119.479 117.022 119.654 116.307 120.004 115.687C120.354 115.067 120.834 114.587 121.444 114.247C122.064 113.907 122.759 113.737 123.529 113.737C124.059 113.737 124.544 113.827 124.984 114.007C125.424 114.187 125.799 114.457 126.109 114.817V110.707H127.984ZM123.754 120.337C124.204 120.337 124.609 120.237 124.969 120.037C125.329 119.827 125.614 119.532 125.824 119.152C126.034 118.772 126.139 118.332 126.139 117.832C126.139 117.332 126.034 116.892 125.824 116.512C125.614 116.132 125.329 115.842 124.969 115.642C124.609 115.432 124.204 115.327 123.754 115.327C123.304 115.327 122.899 115.432 122.539 115.642C122.179 115.842 121.894 116.132 121.684 116.512C121.474 116.892 121.369 117.332 121.369 117.832C121.369 118.332 121.474 118.772 121.684 119.152C121.894 119.532 122.179 119.827 122.539 120.037C122.899 120.237 123.304 120.337 123.754 120.337Z" fill="#262626"/>
<path d="M139.082 121.402C138.862 121.582 138.592 121.717 138.272 121.807C137.962 121.897 137.632 121.942 137.282 121.942C136.402 121.942 135.722 121.712 135.242 121.252C134.762 120.792 134.522 120.122 134.522 119.242V112.057H136.397V113.887H138.542V115.387H136.397V119.197C136.397 119.587 136.492 119.887 136.682 120.097C136.882 120.297 137.157 120.397 137.507 120.397C137.927 120.397 138.277 120.287 138.557 120.067L139.082 121.402Z" fill="#262626"/>
<path d="M140.632 113.827H142.507V121.837H140.632V113.827ZM141.577 112.507C141.237 112.507 140.952 112.402 140.722 112.192C140.492 111.972 140.377 111.702 140.377 111.382C140.377 111.062 140.492 110.797 140.722 110.587C140.952 110.367 141.237 110.257 141.577 110.257C141.917 110.257 142.202 110.362 142.432 110.572C142.662 110.772 142.777 111.027 142.777 111.337C142.777 111.667 142.662 111.947 142.432 112.177C142.212 112.397 141.927 112.507 141.577 112.507Z" fill="#262626"/>
<path d="M149.468 121.402C149.248 121.582 148.978 121.717 148.658 121.807C148.348 121.897 148.018 121.942 147.668 121.942C146.788 121.942 146.108 121.712 145.628 121.252C145.148 120.792 144.908 120.122 144.908 119.242V112.057H146.783V113.887H148.928V115.387H146.783V119.197C146.783 119.587 146.878 119.887 147.068 120.097C147.268 120.297 147.543 120.397 147.893 120.397C148.313 120.397 148.663 120.287 148.943 120.067L149.468 121.402Z" fill="#262626"/>
<path d="M153.658 121.942C152.828 121.942 152.178 121.717 151.708 121.267C151.248 120.807 151.018 120.162 151.018 119.332V110.707H152.893V119.197C152.893 119.997 153.268 120.397 154.018 120.397C154.268 120.397 154.493 120.347 154.693 120.247L154.783 121.747C154.433 121.877 154.058 121.942 153.658 121.942Z" fill="#262626"/>
<path d="M159.721 120.352C160.591 120.352 161.316 120.062 161.896 119.482L162.886 120.637C162.536 121.067 162.086 121.392 161.536 121.612C160.986 121.832 160.366 121.942 159.676 121.942C158.796 121.942 158.021 121.767 157.351 121.417C156.681 121.067 156.161 120.582 155.791 119.962C155.431 119.332 155.251 118.622 155.251 117.832C155.251 117.052 155.426 116.352 155.776 115.732C156.136 115.102 156.626 114.612 157.246 114.262C157.876 113.912 158.586 113.737 159.376 113.737C160.126 113.737 160.806 113.902 161.416 114.232C162.036 114.552 162.526 115.017 162.886 115.627C163.246 116.227 163.426 116.932 163.426 117.742L157.291 118.942C157.481 119.402 157.786 119.752 158.206 119.992C158.626 120.232 159.131 120.352 159.721 120.352ZM159.376 115.237C158.686 115.237 158.126 115.462 157.696 115.912C157.276 116.362 157.066 116.967 157.066 117.727V117.742L161.596 116.872C161.466 116.382 161.201 115.987 160.801 115.687C160.411 115.387 159.936 115.237 159.376 115.237Z" fill="#262626"/>
<path d="M167.702 121.942C167.052 121.942 166.417 121.857 165.797 121.687C165.177 121.517 164.682 121.302 164.312 121.042L165.032 119.617C165.392 119.857 165.822 120.052 166.322 120.202C166.832 120.342 167.332 120.412 167.822 120.412C168.942 120.412 169.502 120.117 169.502 119.527C169.502 119.247 169.357 119.052 169.067 118.942C168.787 118.832 168.332 118.727 167.702 118.627C167.042 118.527 166.502 118.412 166.082 118.282C165.672 118.152 165.312 117.927 165.002 117.607C164.702 117.277 164.552 116.822 164.552 116.242C164.552 115.482 164.867 114.877 165.497 114.427C166.137 113.967 166.997 113.737 168.077 113.737C168.627 113.737 169.177 113.802 169.727 113.932C170.277 114.052 170.727 114.217 171.077 114.427L170.357 115.852C169.677 115.452 168.912 115.252 168.062 115.252C167.512 115.252 167.092 115.337 166.802 115.507C166.522 115.667 166.382 115.882 166.382 116.152C166.382 116.452 166.532 116.667 166.832 116.797C167.142 116.917 167.617 117.032 168.257 117.142C168.897 117.242 169.422 117.357 169.832 117.487C170.242 117.617 170.592 117.837 170.882 118.147C171.182 118.457 171.332 118.897 171.332 119.467C171.332 120.217 171.007 120.817 170.357 121.267C169.707 121.717 168.822 121.942 167.702 121.942Z" fill="#262626"/>
<path d="M153.5 137.737C152.7 136.337 151 135.437 149.3 135.437C149.2 135.437 149 135.437 148.9 135.437C147.6 135.537 146.2 136.337 145.1 137.437L144.9 137.637L144.8 137.437C143.7 136.137 142.1 135.437 140.5 135.437C140.2 135.437 140 135.437 139.8 135.437H139.6C138.5 135.437 136.5 135.637 135.3 137.037C133.4 139.337 133.3 143.437 136.8 147.037C138.2 148.437 139.9 149.537 141.2 150.337C142.1 150.837 142.7 151.137 143.3 151.137C143.6 151.137 144 151.037 144.4 150.937C144.6 150.937 144.7 150.837 145.2 150.537C145.4 150.437 145.7 150.237 146 149.937C147.5 148.937 147.9 148.537 148.5 148.037C148.8 147.837 149.1 147.537 149.6 147.137C150.8 146.237 152 145.237 152.9 143.937C154.3 141.937 154.5 139.537 153.5 137.737ZM151.7 143.137C151 144.237 149.9 145.037 148.8 145.937C148.4 146.237 148.1 146.537 147.7 146.837C146.8 147.537 146 148.137 145.2 148.637C144.9 148.837 144.3 149.337 144.3 149.337L144.2 149.237C142.7 148.437 140.7 147.337 139.5 146.337C137.7 144.937 136.7 143.137 136.5 141.337C136.4 140.137 136.7 139.037 137.5 138.137C138.1 137.337 139.2 136.837 140.4 136.837C141.7 136.837 143 137.437 143.9 138.537C144.1 138.837 144.5 139.037 145 139.037C145.2 139.037 145.6 139.037 146 138.537C146.8 137.637 147.9 136.937 148.9 136.837C149 136.837 149.1 136.837 149.2 136.837C150.4 136.837 151.6 137.537 152.2 138.437C153.1 140.037 152.5 141.937 151.7 143.137Z" fill="black"/>
<path d="M151.701 143.137C151.001 144.237 149.901 145.037 148.801 145.937C148.401 146.237 148.101 146.537 147.701 146.837C146.801 147.537 146.001 148.137 145.201 148.637C144.901 148.837 144.301 149.337 144.301 149.337L144.201 149.237C142.701 148.437 140.701 147.337 139.501 146.337C137.701 144.937 136.701 143.137 136.501 141.337C136.401 140.137 136.701 139.037 137.501 138.137C138.101 137.337 139.201 136.837 140.401 136.837C141.701 136.837 143.001 137.437 143.901 138.537C144.101 138.837 144.501 139.037 145.001 139.037C145.201 139.037 145.601 139.037 146.001 138.537C146.801 137.637 147.901 136.937 148.901 136.837C149.001 136.837 149.101 136.837 149.201 136.837C150.401 136.837 151.601 137.537 152.201 138.437C153.101 140.037 152.501 141.937 151.701 143.137Z" fill="#FF7700"/>
<path d="M164.6 150.137C164 149.137 163 148.537 161.8 148.537C160.9 148.537 160 148.937 159.3 149.537L159.2 149.637H159C158.3 148.937 157.4 148.537 156.4 148.537C156.1 148.537 155.7 148.537 155.3 148.737C154.7 148.937 154 149.237 153.7 149.537C152.9 150.237 152.4 151.237 152.4 152.437C152.4 153.937 153.1 155.437 154.3 156.637C155.1 157.437 156.2 158.137 157.7 158.737C157.9 158.837 158.1 158.837 158.3 158.837C158.5 158.837 158.7 158.837 158.8 158.637V158.537H158.9C159 158.537 159.1 158.437 159.4 158.237L159.9 157.937C160.8 157.337 161 157.137 161.5 156.737C161.7 156.637 161.8 156.437 162.1 156.237C162.8 155.637 163.6 155.037 164.2 154.237C165.1 152.837 165.2 151.337 164.6 150.137ZM163 153.437C162.6 154.137 161.9 154.537 161.3 155.137C160.9 155.437 160.7 155.637 160.5 155.737C160.2 155.937 160.2 156.037 158.8 156.937L158.7 157.037L158.6 156.937C157.4 156.337 156.5 155.737 155.9 155.237C154.2 153.837 154 152.337 154.3 151.337C154.6 150.437 155.4 149.937 156.3 149.937C157 149.937 157.7 150.337 158.2 150.837C158.4 151.137 158.8 151.237 159.1 151.237C159.5 151.237 159.8 151.037 160 150.837C160.4 150.337 161.1 149.937 161.6 149.937H161.7C162.3 149.937 163 150.237 163.3 150.737C163.8 151.637 163.5 152.737 163 153.437Z" fill="black"/>
<path d="M163.001 153.437C162.601 154.137 161.901 154.537 161.301 155.137C160.901 155.437 160.701 155.637 160.501 155.737C160.201 155.937 160.201 156.037 158.801 156.937L158.701 157.037L158.601 156.937C157.401 156.337 156.501 155.737 155.901 155.237C154.201 153.837 154.001 152.337 154.301 151.337C154.601 150.437 155.401 149.937 156.301 149.937C157.001 149.937 157.701 150.337 158.201 150.837C158.401 151.137 158.801 151.237 159.101 151.237C159.501 151.237 159.801 151.037 160.001 150.837C160.401 150.337 161.101 149.937 161.601 149.937H161.701C162.301 149.937 163.001 150.237 163.301 150.737C163.801 151.637 163.501 152.737 163.001 153.437Z" fill="#FFC999"/>
<path d="M112.701 152.337C112.401 152.337 112.201 152.237 111.801 151.737C111.301 151.237 110.501 150.437 108.701 149.337C108.401 149.137 108.301 148.637 108.501 148.337C108.601 148.137 108.901 148.037 109.101 148.037C109.201 148.037 109.401 148.037 109.501 148.137C110.801 149.037 112.101 150.037 113.201 151.137C113.401 151.337 113.501 151.637 113.401 151.937C113.301 152.137 113.001 152.337 112.701 152.337Z" fill="black"/>
<path d="M115.9 150.037C115.6 150.037 115.3 149.837 115.2 149.537C114.8 147.937 114.1 146.437 113.2 145.137C113 144.937 113 144.737 113 144.537C113 144.337 113.1 144.137 113.3 144.037C113.4 143.937 113.6 143.937 113.7 143.937C113.9 143.937 114.2 144.037 114.3 144.237C115.3 145.737 116 147.337 116.5 149.037C116.6 149.237 116.5 149.437 116.4 149.637C116.3 149.837 116.1 149.937 116 149.937C116 150.037 116 150.037 115.9 150.037Z" fill="black"/>
<path d="M119.3 149.137C119.2 149.137 119.2 149.137 119.1 149.137C118.7 149.037 118.5 148.637 118.5 148.237C118.8 146.837 119.3 145.437 120 144.137C120.1 143.937 120.4 143.737 120.7 143.737C120.8 143.737 120.9 143.737 121 143.837C121.4 144.037 121.5 144.437 121.3 144.837C120.7 146.037 120.2 147.237 120 148.637C120 148.837 119.7 149.137 119.3 149.137Z" fill="black"/>
<path d="M152.601 159.137C150.601 155.637 146.601 153.437 142.501 153.437C142.201 153.437 141.801 153.437 141.501 153.537C138.201 153.837 134.501 155.937 131.901 158.937C131.701 159.137 131.401 159.337 131.101 159.337C130.701 159.337 130.401 159.137 130.201 158.937C127.401 155.437 123.301 153.437 119.001 153.437C115.401 153.437 112.101 154.837 109.601 157.437C107.001 159.537 105.501 162.537 105.101 166.037C104.601 171.137 106.601 176.737 110.801 181.237C114.701 185.537 119.901 188.537 124.401 190.937C126.101 191.837 127.401 192.237 128.601 192.237C128.901 192.237 128.901 192.237 128.901 192.237H129.001H129.101C129.201 192.237 129.201 192.237 129.401 192.337C129.501 192.337 129.601 192.437 129.701 192.437C129.901 192.437 130.001 192.437 130.101 192.337C131.201 191.537 132.301 190.837 133.401 190.037C135.501 188.537 137.701 187.037 140.201 185.037C141.001 184.337 141.901 183.637 142.801 182.937L142.901 182.837C146.001 180.437 149.201 177.937 151.401 174.537C154.501 169.337 155.001 163.337 152.601 159.137ZM150.101 173.537C148.101 176.737 145.001 179.137 141.901 181.537C141.001 182.237 140.101 182.937 139.201 183.737C136.801 185.737 134.601 187.237 132.401 188.737C131.401 189.437 130.501 190.037 129.501 190.737L129.401 190.837L129.301 190.737C125.801 188.937 119.501 185.337 115.801 182.337C113.101 180.137 111.001 177.637 109.501 174.937L109.401 174.737L108.801 173.437L108.701 173.237C106.601 168.137 107.101 162.437 110.301 158.837C112.401 156.337 115.601 154.837 119.001 154.837C122.801 154.837 126.501 156.637 129.101 159.837C129.901 160.837 131.001 160.837 131.101 160.837H131.201H131.401C132.101 160.737 132.701 160.437 133.101 159.937C135.401 157.237 138.801 155.237 141.701 155.037C142.001 155.037 142.301 155.037 142.601 155.037C146.201 155.037 149.701 156.937 151.401 160.037C153.501 163.637 153.001 168.937 150.101 173.537Z" fill="black"/>
<path d="M150.101 173.537C148.101 176.737 145.001 179.137 141.901 181.537C141.001 182.237 140.101 182.937 139.201 183.737C136.801 185.737 134.601 187.237 132.401 188.737C131.401 189.437 130.501 190.037 129.501 190.737L129.401 190.837L129.301 190.737C125.801 188.937 119.501 185.337 115.801 182.337C113.101 180.137 111.001 177.637 109.501 174.937L109.401 174.737L108.801 173.437L108.701 173.237C106.601 168.137 107.101 162.437 110.301 158.837C112.401 156.337 115.601 154.837 119.001 154.837C122.801 154.837 126.501 156.637 129.101 159.837C129.901 160.837 131.001 160.837 131.101 160.837H131.201H131.401C132.101 160.737 132.701 160.437 133.101 159.937C135.401 157.237 138.801 155.237 141.701 155.037C142.001 155.037 142.301 155.037 142.601 155.037C146.201 155.037 149.701 156.937 151.401 160.037C153.501 163.637 153.001 168.937 150.101 173.537Z" fill="white"/>
</svg>
