<svg width="270" height="271" viewBox="0 0 270 271" fill="none" xmlns="http://www.w3.org/2000/svg">
<path d="M268.866 135.651C268.866 147.443 259.27 157.039 247.477 157.039C241.703 157.039 236.417 154.762 232.595 151.021V226.735C232.595 230.313 229.667 233.241 226.089 233.241H150.375C154.116 237.063 156.393 242.349 156.393 248.123C156.393 259.916 146.797 269.512 135.004 269.512C123.212 269.512 113.616 259.916 113.616 248.123C113.616 242.349 115.893 237.063 119.634 233.241H43.9201C40.3418 233.241 37.4141 230.313 37.4141 226.735V151.021C41.2364 154.762 46.5225 157.039 52.2966 157.039C64.0888 157.039 73.6852 147.443 73.6852 135.651C73.6852 123.858 64.0888 114.262 52.2966 114.262C46.5225 114.262 41.2364 116.539 37.4141 120.28V44.5662C37.4141 40.9879 40.3418 38.0602 43.9201 38.0602H119.634C115.893 41.8825 113.616 47.1686 113.616 52.9427C113.616 64.7349 123.212 74.3313 135.004 74.3313C146.797 74.3313 156.393 64.7349 156.393 52.9427C156.393 47.1686 154.116 41.8825 150.375 38.0602H226.089C229.667 38.0602 232.595 40.9879 232.595 44.5662V120.28C236.417 116.539 241.703 114.262 247.477 114.262C259.27 114.262 268.866 123.858 268.866 135.651Z" fill="#F6F6F6"/>
<path d="M96.5413 156.897C95.6413 156.897 94.9613 157.097 94.5013 157.497C94.0413 157.897 93.8113 158.487 93.8113 159.267V160.167H98.3863V161.817H93.8113V165.837H91.8613V159.267C91.8613 157.997 92.2663 157.002 93.0763 156.282C93.8963 155.552 95.0213 155.187 96.4513 155.187C97.0513 155.187 97.6113 155.252 98.1313 155.382C98.6513 155.512 99.1063 155.702 99.4963 155.952L98.8813 157.542C98.2613 157.112 97.4813 156.897 96.5413 156.897Z" fill="#262626"/>
<path d="M108.301 157.827V165.837H106.516V164.817C106.216 165.177 105.841 165.457 105.391 165.657C104.941 165.847 104.456 165.942 103.936 165.942C102.866 165.942 102.021 165.647 101.401 165.057C100.791 164.457 100.486 163.572 100.486 162.402V157.827H102.361V162.147C102.361 162.867 102.521 163.407 102.841 163.767C103.171 164.117 103.636 164.292 104.236 164.292C104.906 164.292 105.436 164.087 105.826 163.677C106.226 163.257 106.426 162.657 106.426 161.877V157.827H108.301Z" fill="#262626"/>
<path d="M113.396 165.942C112.566 165.942 111.916 165.717 111.446 165.267C110.986 164.807 110.756 164.162 110.756 163.332V154.707H112.631V163.197C112.631 163.997 113.006 164.397 113.756 164.397C114.006 164.397 114.231 164.347 114.431 164.247L114.521 165.747C114.171 165.877 113.796 165.942 113.396 165.942Z" fill="#262626"/>
<path d="M118.435 165.942C117.605 165.942 116.955 165.717 116.485 165.267C116.025 164.807 115.795 164.162 115.795 163.332V154.707H117.67V163.197C117.67 163.997 118.045 164.397 118.795 164.397C119.045 164.397 119.27 164.347 119.47 164.247L119.56 165.747C119.21 165.877 118.835 165.942 118.435 165.942Z" fill="#262626"/>
<path d="M129.524 157.737C130.534 157.737 131.344 158.032 131.954 158.622C132.564 159.212 132.869 160.087 132.869 161.247V165.837H130.994V161.487C130.994 160.787 130.829 160.262 130.499 159.912C130.169 159.552 129.699 159.372 129.089 159.372C128.399 159.372 127.854 159.582 127.454 160.002C127.054 160.412 126.854 161.007 126.854 161.787V165.837H124.979V154.707H126.854V158.757C127.164 158.427 127.544 158.177 127.994 158.007C128.454 157.827 128.964 157.737 129.524 157.737Z" fill="#262626"/>
<path d="M143.166 154.707V165.837H141.366V164.802C141.056 165.182 140.671 165.467 140.211 165.657C139.761 165.847 139.261 165.942 138.711 165.942C137.941 165.942 137.246 165.772 136.626 165.432C136.016 165.092 135.536 164.612 135.186 163.992C134.836 163.362 134.661 162.642 134.661 161.832C134.661 161.022 134.836 160.307 135.186 159.687C135.536 159.067 136.016 158.587 136.626 158.247C137.246 157.907 137.941 157.737 138.711 157.737C139.241 157.737 139.726 157.827 140.166 158.007C140.606 158.187 140.981 158.457 141.291 158.817V154.707H143.166ZM138.936 164.337C139.386 164.337 139.791 164.237 140.151 164.037C140.511 163.827 140.796 163.532 141.006 163.152C141.216 162.772 141.321 162.332 141.321 161.832C141.321 161.332 141.216 160.892 141.006 160.512C140.796 160.132 140.511 159.842 140.151 159.642C139.791 159.432 139.386 159.327 138.936 159.327C138.486 159.327 138.081 159.432 137.721 159.642C137.361 159.842 137.076 160.132 136.866 160.512C136.656 160.892 136.551 161.332 136.551 161.832C136.551 162.332 136.656 162.772 136.866 163.152C137.076 163.532 137.361 163.827 137.721 164.037C138.081 164.237 138.486 164.337 138.936 164.337Z" fill="#262626"/>
<path d="M157.594 157.827V165.837H155.809V164.802C155.499 165.182 155.114 165.467 154.654 165.657C154.204 165.847 153.704 165.942 153.154 165.942C152.374 165.942 151.674 165.772 151.054 165.432C150.444 165.092 149.964 164.612 149.614 163.992C149.274 163.372 149.104 162.652 149.104 161.832C149.104 161.012 149.274 160.297 149.614 159.687C149.964 159.067 150.444 158.587 151.054 158.247C151.674 157.907 152.374 157.737 153.154 157.737C153.674 157.737 154.149 157.827 154.579 158.007C155.019 158.187 155.399 158.452 155.719 158.802V157.827H157.594ZM153.364 164.337C154.054 164.337 154.624 164.107 155.074 163.647C155.524 163.187 155.749 162.582 155.749 161.832C155.749 161.082 155.524 160.477 155.074 160.017C154.624 159.557 154.054 159.327 153.364 159.327C152.674 159.327 152.104 159.557 151.654 160.017C151.214 160.477 150.994 161.082 150.994 161.832C150.994 162.582 151.214 163.187 151.654 163.647C152.104 164.107 152.674 164.337 153.364 164.337Z" fill="#262626"/>
<path d="M164.593 157.737C165.603 157.737 166.413 158.032 167.023 158.622C167.633 159.212 167.938 160.087 167.938 161.247V165.837H166.063V161.487C166.063 160.787 165.898 160.262 165.568 159.912C165.238 159.552 164.768 159.372 164.158 159.372C163.468 159.372 162.923 159.582 162.523 160.002C162.123 160.412 161.923 161.007 161.923 161.787V165.837H160.048V157.827H161.833V158.862C162.143 158.492 162.533 158.212 163.003 158.022C163.473 157.832 164.003 157.737 164.593 157.737Z" fill="#262626"/>
<path d="M178.234 154.707V165.837H176.434V164.802C176.124 165.182 175.739 165.467 175.279 165.657C174.829 165.847 174.329 165.942 173.779 165.942C173.009 165.942 172.314 165.772 171.694 165.432C171.084 165.092 170.604 164.612 170.254 163.992C169.904 163.362 169.729 162.642 169.729 161.832C169.729 161.022 169.904 160.307 170.254 159.687C170.604 159.067 171.084 158.587 171.694 158.247C172.314 157.907 173.009 157.737 173.779 157.737C174.309 157.737 174.794 157.827 175.234 158.007C175.674 158.187 176.049 158.457 176.359 158.817V154.707H178.234ZM174.004 164.337C174.454 164.337 174.859 164.237 175.219 164.037C175.579 163.827 175.864 163.532 176.074 163.152C176.284 162.772 176.389 162.332 176.389 161.832C176.389 161.332 176.284 160.892 176.074 160.512C175.864 160.132 175.579 159.842 175.219 159.642C174.859 159.432 174.454 159.327 174.004 159.327C173.554 159.327 173.149 159.432 172.789 159.642C172.429 159.842 172.144 160.132 171.934 160.512C171.724 160.892 171.619 161.332 171.619 161.832C171.619 162.332 171.724 162.772 171.934 163.152C172.144 163.532 172.429 163.827 172.789 164.037C173.149 164.237 173.554 164.337 174.004 164.337Z" fill="#262626"/>
<path d="M107.431 186.452H105.571V188.837H103.681V186.452H97.9214V185.102L103.096 178.337H105.181L100.306 184.802H103.741V182.687H105.571V184.802H107.431V186.452Z" fill="#262626"/>
<path d="M112.617 184.442L110.952 186.152V188.837H109.002V178.337H110.952V183.722L116.142 178.337H118.332L113.922 183.032L118.602 188.837H116.322L112.617 184.442Z" fill="#262626"/>
<path d="M127.705 187.352C128.575 187.352 129.3 187.062 129.88 186.482L130.87 187.637C130.52 188.067 130.07 188.392 129.52 188.612C128.97 188.832 128.35 188.942 127.66 188.942C126.78 188.942 126.005 188.767 125.335 188.417C124.665 188.067 124.145 187.582 123.775 186.962C123.415 186.332 123.235 185.622 123.235 184.832C123.235 184.052 123.41 183.352 123.76 182.732C124.12 182.102 124.61 181.612 125.23 181.262C125.86 180.912 126.57 180.737 127.36 180.737C128.11 180.737 128.79 180.902 129.4 181.232C130.02 181.552 130.51 182.017 130.87 182.627C131.23 183.227 131.41 183.932 131.41 184.742L125.275 185.942C125.465 186.402 125.77 186.752 126.19 186.992C126.61 187.232 127.115 187.352 127.705 187.352ZM127.36 182.237C126.67 182.237 126.11 182.462 125.68 182.912C125.26 183.362 125.05 183.967 125.05 184.727V184.742L129.58 183.872C129.45 183.382 129.185 182.987 128.785 182.687C128.395 182.387 127.92 182.237 127.36 182.237Z" fill="#262626"/>
<path d="M138.092 188.837L136.037 186.062L133.967 188.837H131.897L135.017 184.772L132.032 180.827H134.117L136.082 183.452L138.047 180.827H140.072L137.072 184.742L140.207 188.837H138.092Z" fill="#262626"/>
<path d="M146.031 180.737C146.811 180.737 147.506 180.907 148.116 181.247C148.736 181.587 149.221 182.067 149.571 182.687C149.921 183.307 150.096 184.022 150.096 184.832C150.096 185.642 149.921 186.362 149.571 186.992C149.221 187.612 148.736 188.092 148.116 188.432C147.506 188.772 146.811 188.942 146.031 188.942C144.951 188.942 144.096 188.582 143.466 187.862V191.747H141.591V180.827H143.376V181.877C143.686 181.497 144.066 181.212 144.516 181.022C144.976 180.832 145.481 180.737 146.031 180.737ZM145.821 187.337C146.511 187.337 147.076 187.107 147.516 186.647C147.966 186.187 148.191 185.582 148.191 184.832C148.191 184.082 147.966 183.477 147.516 183.017C147.076 182.557 146.511 182.327 145.821 182.327C145.371 182.327 144.966 182.432 144.606 182.642C144.246 182.842 143.961 183.132 143.751 183.512C143.541 183.892 143.436 184.332 143.436 184.832C143.436 185.332 143.541 185.772 143.751 186.152C143.961 186.532 144.246 186.827 144.606 187.037C144.966 187.237 145.371 187.337 145.821 187.337Z" fill="#262626"/>
<path d="M155.474 188.942C154.664 188.942 153.934 188.767 153.284 188.417C152.634 188.067 152.124 187.582 151.754 186.962C151.394 186.332 151.214 185.622 151.214 184.832C151.214 184.042 151.394 183.337 151.754 182.717C152.124 182.097 152.634 181.612 153.284 181.262C153.934 180.912 154.664 180.737 155.474 180.737C156.294 180.737 157.029 180.912 157.679 181.262C158.329 181.612 158.834 182.097 159.194 182.717C159.564 183.337 159.749 184.042 159.749 184.832C159.749 185.622 159.564 186.332 159.194 186.962C158.834 187.582 158.329 188.067 157.679 188.417C157.029 188.767 156.294 188.942 155.474 188.942ZM155.474 187.337C156.164 187.337 156.734 187.107 157.184 186.647C157.634 186.187 157.859 185.582 157.859 184.832C157.859 184.082 157.634 183.477 157.184 183.017C156.734 182.557 156.164 182.327 155.474 182.327C154.784 182.327 154.214 182.557 153.764 183.017C153.324 183.477 153.104 184.082 153.104 184.832C153.104 185.582 153.324 186.187 153.764 186.647C154.214 187.107 154.784 187.337 155.474 187.337Z" fill="#262626"/>
<path d="M163.327 181.997C163.867 181.157 164.817 180.737 166.177 180.737V182.522C166.017 182.492 165.872 182.477 165.742 182.477C165.012 182.477 164.442 182.692 164.032 183.122C163.622 183.542 163.417 184.152 163.417 184.952V188.837H161.542V180.827H163.327V181.997Z" fill="#262626"/>
<path d="M172.267 188.402C172.047 188.582 171.777 188.717 171.457 188.807C171.147 188.897 170.817 188.942 170.467 188.942C169.587 188.942 168.907 188.712 168.427 188.252C167.947 187.792 167.707 187.122 167.707 186.242V179.057H169.582V180.887H171.727V182.387H169.582V186.197C169.582 186.587 169.677 186.887 169.867 187.097C170.067 187.297 170.342 187.397 170.692 187.397C171.112 187.397 171.462 187.287 171.742 187.067L172.267 188.402Z" fill="#262626"/>
<path d="M154.6 94.9373C154.2 94.9373 153.9 95.2373 153.9 95.6373C153.9 97.5373 153.6 99.3373 153 101.137C152.9 101.537 153.2 102.037 153.7 102.037C154 102.037 154.3 101.837 154.4 101.537C155 99.6373 155.3 97.6373 155.4 95.6373C155.3 95.2373 155 94.9373 154.6 94.9373Z" fill="black"/>
<path d="M156.3 102.137C155.9 102.637 156.3 103.237 156.8 103.237C157.6 103.237 157.5 102.237 160.7 99.4373C161 99.2373 161 98.7373 160.8 98.4373C160.6 98.1373 160.1 98.1373 159.8 98.3373C158.5 99.5373 157.3 100.737 156.3 102.137Z" fill="black"/>
<path d="M162.899 106.337C163.299 106.237 163.499 105.837 163.399 105.437C163.299 105.037 162.899 104.837 162.499 104.937C161.199 105.337 159.799 105.537 158.399 105.537C157.999 105.537 157.699 105.837 157.699 106.237C157.699 106.637 157.999 106.937 158.399 106.937C159.099 106.937 160.599 106.937 162.899 106.337Z" fill="black"/>
<path d="M154.5 104.937C148.2 104.537 141.7 104.437 135.4 104.337C135.4 102.537 135.4 100.637 135.3 98.6373C136.6 99.2373 138 99.8373 139.4 100.437C140.8 101.037 142.2 99.5373 141.4 98.2373C138.6 93.5373 134.9 88.4373 132.1 83.2373C131.9 82.8373 131.2 82.7373 130.9 83.1373C127.2 88.3373 123 93.0373 119.6 97.7373C118.7 99.0373 119.9 100.637 121.4 100.137C122.5 99.7373 123.2 99.4373 124.2 99.0373C124.3 100.837 124.3 102.637 124.4 104.437C119.3 104.537 114.2 104.737 109 105.037C108.2 105.037 108.2 106.437 106.5 108.037C107.6 129.937 106.1 138.337 106.7 140.637C107 141.637 107.6 142.537 108.5 142.837C108.5 142.737 108.5 142.737 108.5 142.637C115.2 142.537 109.5 141.937 153.1 142.437C153.4 142.437 153.8 142.137 153.8 141.737C154.4 129.437 154.5 117.837 155.1 105.537C155.2 105.237 154.9 104.937 154.5 104.937ZM122 98.4373C120.8 98.8373 120.9 98.9373 120.8 98.7373C120.8 98.6373 120.8 98.6373 120.8 98.5373C123.8 94.3373 128 89.5373 131.5 84.8373C134.3 89.7373 137.7 94.5373 140.3 98.8373C140.4 98.9373 140.2 99.1373 140.1 99.0373C138.4 98.3373 136.6 97.6373 135.1 96.7373C134.6 96.4373 134 96.8373 134.1 97.3373C134.2 105.837 134.1 108.637 134.2 117.937C134.2 118.937 133.8 119.837 133.2 120.437C131.1 122.537 127.1 121.137 127.2 117.937C127.3 110.637 127.1 105.437 127.1 97.3373C127.1 96.8373 126.5 96.4373 126.1 96.7373C124.7 97.3373 123.3 97.9373 122 98.4373ZM152.5 141.037C138.4 140.837 123.6 140.437 109.3 141.237C110.2 128.237 110.5 118.137 109.8 106.437C114.7 106.137 119.6 105.937 124.4 105.837C124.8 116.737 124.5 119.037 126.4 120.937C129.3 124.737 135.3 122.637 135.3 118.037C135.2 113.537 135.2 110.137 135.2 105.737C141.3 105.737 147.5 105.937 153.6 106.237C153.1 118.037 153 129.237 152.5 141.037Z" fill="black"/>
<path d="M139.9 99.0372C138.2 98.3372 136.4 97.6372 134.9 96.7372C134.4 96.4372 133.8 96.8372 133.9 97.3372C134 105.837 133.9 108.637 134 117.937C134 118.937 133.6 119.837 133 120.437C130.9 122.537 126.9 121.137 127 117.937C127.1 110.637 126.9 105.437 126.9 97.3372C126.9 96.8372 126.3 96.4372 125.9 96.7372C124.8 97.3372 123.4 97.8372 122.1 98.3372C120.9 98.7372 121 98.8372 120.9 98.6372C120.9 98.5372 120.9 98.5372 120.9 98.4372C123.9 94.2372 128.1 89.4372 131.6 84.7372C134.4 89.6372 137.8 94.4372 140.4 98.7372C140.2 99.0372 140.1 99.1372 139.9 99.0372Z" fill="#FF7700"/>
<path d="M153.701 106.237C153.101 118.037 153.001 129.237 152.401 141.037C138.401 140.837 123.601 140.437 109.301 141.237C110.201 128.237 110.501 118.137 109.801 106.437C114.701 106.137 119.601 105.937 124.401 105.837C124.801 116.737 124.501 119.037 126.401 120.937C129.301 124.737 135.301 122.637 135.301 118.037C135.201 113.537 135.201 110.137 135.201 105.737C141.401 105.737 147.601 105.937 153.701 106.237Z" fill="white"/>
<path d="M141.2 127.737C140.6 127.137 139.7 127.037 138.8 127.037C133.2 127.037 127.7 127.037 122.1 127.137C121.4 127.137 121.1 127.537 121.1 127.937C120.9 128.137 120.8 128.337 120.7 128.637C120.6 129.237 120.7 129.937 121 130.437C121.5 131.237 122.5 131.337 123.5 131.337C128.4 131.437 133.4 131.537 138.3 131.637C139.2 131.637 140.3 131.837 141 131.337C141.7 130.937 141.8 130.137 141.8 129.437C141.8 128.837 141.7 128.237 141.2 127.737ZM122.9 129.737C122.8 129.637 122.8 129.637 122.7 129.437C122.8 129.437 122.8 129.537 122.8 129.537C123 129.637 123.3 129.737 123.5 129.837C123.3 129.837 123 129.837 122.9 129.737ZM138.9 130.037C139 130.037 139.1 130.037 139.2 130.037C139.5 130.037 139.7 129.937 139.8 129.837C139.8 129.937 139.8 130.037 139.9 130.037C139.7 130.137 139.2 130.137 138.9 130.037Z" fill="black"/>
</svg>
