<svg width="270" height="270" viewBox="0 0 270 270" fill="none" xmlns="http://www.w3.org/2000/svg">
<path d="M196.073 135.488C196.073 147.28 205.67 156.877 217.462 156.877C223.236 156.877 228.522 154.6 232.344 150.859V226.573C232.344 230.151 229.417 233.079 225.838 233.079H150.125C153.865 236.901 156.143 242.187 156.143 247.961C156.143 259.753 146.546 269.35 134.754 269.35C122.962 269.35 113.365 259.753 113.365 247.961C113.365 242.187 115.643 236.901 119.384 233.079H43.6697C40.0914 233.079 37.1636 230.151 37.1636 226.573V150.859C33.3414 154.6 28.0552 156.877 22.2811 156.877C10.4889 156.877 0.892578 147.28 0.892578 135.488C0.892578 123.696 10.4889 114.1 22.2811 114.1C28.0552 114.1 33.3414 116.377 37.1636 120.118V44.4039C37.1636 40.8255 40.0914 37.8978 43.6697 37.8978H119.384C115.643 41.7201 113.365 47.0063 113.365 52.7804C113.365 64.5725 122.962 74.1689 134.754 74.1689C146.546 74.1689 156.143 64.5725 156.143 52.7804C156.143 47.0063 153.865 41.7201 150.125 37.8978H225.838C229.417 37.8978 232.344 40.8255 232.344 44.4039V120.118C228.522 116.377 223.236 114.1 217.462 114.1C205.67 114.1 196.073 123.615 196.073 135.488Z" fill="#FF7700"/>
<path d="M98.1812 101.605L96.5162 103.315V106H94.5662V95.5H96.5162V100.885L101.706 95.5H103.896L99.4862 100.195L104.166 106H101.886L98.1812 101.605Z" fill="white"/>
<path d="M108.772 104.515C109.642 104.515 110.367 104.225 110.947 103.645L111.937 104.8C111.587 105.23 111.137 105.555 110.587 105.775C110.037 105.995 109.417 106.105 108.727 106.105C107.847 106.105 107.072 105.93 106.402 105.58C105.732 105.23 105.212 104.745 104.842 104.125C104.482 103.495 104.302 102.785 104.302 101.995C104.302 101.215 104.477 100.515 104.827 99.895C105.187 99.265 105.677 98.775 106.297 98.425C106.927 98.075 107.637 97.9 108.427 97.9C109.177 97.9 109.857 98.065 110.467 98.395C111.087 98.715 111.577 99.18 111.937 99.79C112.297 100.39 112.477 101.095 112.477 101.905L106.342 103.105C106.532 103.565 106.837 103.915 107.257 104.155C107.677 104.395 108.182 104.515 108.772 104.515ZM108.427 99.4C107.737 99.4 107.177 99.625 106.747 100.075C106.327 100.525 106.117 101.13 106.117 101.89V101.905L110.647 101.035C110.517 100.545 110.252 100.15 109.852 99.85C109.462 99.55 108.987 99.4 108.427 99.4Z" fill="white"/>
<path d="M118.089 104.515C118.959 104.515 119.684 104.225 120.264 103.645L121.254 104.8C120.904 105.23 120.454 105.555 119.904 105.775C119.354 105.995 118.734 106.105 118.044 106.105C117.164 106.105 116.389 105.93 115.719 105.58C115.049 105.23 114.529 104.745 114.159 104.125C113.799 103.495 113.619 102.785 113.619 101.995C113.619 101.215 113.794 100.515 114.144 99.895C114.504 99.265 114.994 98.775 115.614 98.425C116.244 98.075 116.954 97.9 117.744 97.9C118.494 97.9 119.174 98.065 119.784 98.395C120.404 98.715 120.894 99.18 121.254 99.79C121.614 100.39 121.794 101.095 121.794 101.905L115.659 103.105C115.849 103.565 116.154 103.915 116.574 104.155C116.994 104.395 117.499 104.515 118.089 104.515ZM117.744 99.4C117.054 99.4 116.494 99.625 116.064 100.075C115.644 100.525 115.434 101.13 115.434 101.89V101.905L119.964 101.035C119.834 100.545 119.569 100.15 119.169 99.85C118.779 99.55 118.304 99.4 117.744 99.4Z" fill="white"/>
<path d="M128.035 97.9C128.815 97.9 129.51 98.07 130.12 98.41C130.74 98.75 131.225 99.23 131.575 99.85C131.925 100.47 132.1 101.185 132.1 101.995C132.1 102.805 131.925 103.525 131.575 104.155C131.225 104.775 130.74 105.255 130.12 105.595C129.51 105.935 128.815 106.105 128.035 106.105C126.955 106.105 126.1 105.745 125.47 105.025V108.91H123.595V97.99H125.38V99.04C125.69 98.66 126.07 98.375 126.52 98.185C126.98 97.995 127.485 97.9 128.035 97.9ZM127.825 104.5C128.515 104.5 129.08 104.27 129.52 103.81C129.97 103.35 130.195 102.745 130.195 101.995C130.195 101.245 129.97 100.64 129.52 100.18C129.08 99.72 128.515 99.49 127.825 99.49C127.375 99.49 126.97 99.595 126.61 99.805C126.25 100.005 125.965 100.295 125.755 100.675C125.545 101.055 125.44 101.495 125.44 101.995C125.44 102.495 125.545 102.935 125.755 103.315C125.965 103.695 126.25 103.99 126.61 104.2C126.97 104.4 127.375 104.5 127.825 104.5Z" fill="white"/>
<path d="M133.878 97.99H135.753V106H133.878V97.99ZM134.823 96.67C134.483 96.67 134.198 96.565 133.968 96.355C133.738 96.135 133.623 95.865 133.623 95.545C133.623 95.225 133.738 94.96 133.968 94.75C134.198 94.53 134.483 94.42 134.823 94.42C135.163 94.42 135.448 94.525 135.678 94.735C135.908 94.935 136.023 95.19 136.023 95.5C136.023 95.83 135.908 96.11 135.678 96.34C135.458 96.56 135.173 96.67 134.823 96.67Z" fill="white"/>
<path d="M142.759 97.9C143.769 97.9 144.579 98.195 145.189 98.785C145.799 99.375 146.104 100.25 146.104 101.41V106H144.229V101.65C144.229 100.95 144.064 100.425 143.734 100.075C143.404 99.715 142.934 99.535 142.324 99.535C141.634 99.535 141.089 99.745 140.689 100.165C140.289 100.575 140.089 101.17 140.089 101.95V106H138.214V97.99H139.999V99.025C140.309 98.655 140.699 98.375 141.169 98.185C141.639 97.995 142.169 97.9 142.759 97.9Z" fill="white"/>
<path d="M156.506 97.99V104.785C156.506 107.605 155.066 109.015 152.186 109.015C151.416 109.015 150.686 108.915 149.996 108.715C149.306 108.525 148.736 108.245 148.286 107.875L149.126 106.465C149.476 106.755 149.916 106.985 150.446 107.155C150.986 107.335 151.531 107.425 152.081 107.425C152.961 107.425 153.606 107.225 154.016 106.825C154.426 106.425 154.631 105.815 154.631 104.995V104.575C154.311 104.925 153.921 105.19 153.461 105.37C153.001 105.55 152.496 105.64 151.946 105.64C151.186 105.64 150.496 105.48 149.876 105.16C149.266 104.83 148.781 104.37 148.421 103.78C148.071 103.19 147.896 102.515 147.896 101.755C147.896 100.995 148.071 100.325 148.421 99.745C148.781 99.155 149.266 98.7 149.876 98.38C150.496 98.06 151.186 97.9 151.946 97.9C152.526 97.9 153.051 97.995 153.521 98.185C154.001 98.375 154.401 98.665 154.721 99.055V97.99H156.506ZM152.231 104.05C152.941 104.05 153.521 103.84 153.971 103.42C154.431 102.99 154.661 102.435 154.661 101.755C154.661 101.085 154.431 100.54 153.971 100.12C153.521 99.7 152.941 99.49 152.231 99.49C151.511 99.49 150.921 99.7 150.461 100.12C150.011 100.54 149.786 101.085 149.786 101.755C149.786 102.435 150.011 102.99 150.461 103.42C150.921 103.84 151.511 104.05 152.231 104.05Z" fill="white"/>
<path d="M166.717 106.105C165.907 106.105 165.177 105.93 164.527 105.58C163.877 105.23 163.367 104.745 162.997 104.125C162.637 103.495 162.457 102.785 162.457 101.995C162.457 101.205 162.637 100.5 162.997 99.88C163.367 99.26 163.877 98.775 164.527 98.425C165.177 98.075 165.907 97.9 166.717 97.9C167.537 97.9 168.272 98.075 168.922 98.425C169.572 98.775 170.077 99.26 170.437 99.88C170.807 100.5 170.992 101.205 170.992 101.995C170.992 102.785 170.807 103.495 170.437 104.125C170.077 104.745 169.572 105.23 168.922 105.58C168.272 105.93 167.537 106.105 166.717 106.105ZM166.717 104.5C167.407 104.5 167.977 104.27 168.427 103.81C168.877 103.35 169.102 102.745 169.102 101.995C169.102 101.245 168.877 100.64 168.427 100.18C167.977 99.72 167.407 99.49 166.717 99.49C166.027 99.49 165.457 99.72 165.007 100.18C164.567 100.64 164.347 101.245 164.347 101.995C164.347 102.745 164.567 103.35 165.007 103.81C165.457 104.27 166.027 104.5 166.717 104.5Z" fill="white"/>
<path d="M175.8 96.28C175.01 96.28 174.615 96.71 174.615 97.57V98.05H176.82V99.55H174.66V106H172.785V97.54C172.785 96.69 173.035 96.015 173.535 95.515C174.035 95.015 174.745 94.765 175.665 94.765C176.375 94.765 176.935 94.91 177.345 95.2L176.82 96.61C176.52 96.39 176.18 96.28 175.8 96.28Z" fill="white"/>
<path d="M122.874 129L120.729 125.925C120.639 125.935 120.504 125.94 120.324 125.94H117.954V129H116.004V118.5H120.324C121.234 118.5 122.024 118.65 122.694 118.95C123.374 119.25 123.894 119.68 124.254 120.24C124.614 120.8 124.794 121.465 124.794 122.235C124.794 123.025 124.599 123.705 124.209 124.275C123.829 124.845 123.279 125.27 122.559 125.55L124.974 129H122.874ZM122.829 122.235C122.829 121.565 122.609 121.05 122.169 120.69C121.729 120.33 121.084 120.15 120.234 120.15H117.954V124.335H120.234C121.084 124.335 121.729 124.155 122.169 123.795C122.609 123.425 122.829 122.905 122.829 122.235Z" fill="white"/>
<path d="M131.551 118.35C132.491 118.35 133.311 118.535 134.011 118.905C134.711 119.275 135.251 119.825 135.631 120.555C136.021 121.275 136.216 122.15 136.216 123.18V129H134.266V126.3H128.806V129H126.886V123.18C126.886 122.15 127.076 121.275 127.456 120.555C127.846 119.825 128.391 119.275 129.091 118.905C129.791 118.535 130.611 118.35 131.551 118.35ZM134.266 124.665V123C134.266 122.03 134.026 121.3 133.546 120.81C133.066 120.31 132.396 120.06 131.536 120.06C130.676 120.06 130.006 120.31 129.526 120.81C129.046 121.3 128.806 122.03 128.806 123V124.665H134.266Z" fill="white"/>
<path d="M154.064 118.5V124.755C154.064 126.195 153.694 127.29 152.954 128.04C152.224 128.78 151.174 129.15 149.804 129.15C149.064 129.15 148.404 129.035 147.824 128.805C147.254 128.565 146.799 128.24 146.459 127.83C146.109 128.24 145.649 128.565 145.079 128.805C144.519 129.035 143.869 129.15 143.129 129.15C141.759 129.15 140.704 128.775 139.964 128.025C139.224 127.275 138.854 126.185 138.854 124.755V118.5H140.804V124.695C140.804 125.645 140.999 126.34 141.389 126.78C141.789 127.22 142.369 127.44 143.129 127.44C144.699 127.44 145.484 126.525 145.484 124.695V118.5H147.434V124.695C147.434 126.525 148.224 127.44 149.804 127.44C151.354 127.44 152.129 126.525 152.129 124.695V118.5H154.064Z" fill="white"/>
<path d="M110.7 143.9C111.71 143.9 112.51 144.195 113.1 144.785C113.69 145.365 113.985 146.24 113.985 147.41V152H112.11V147.65C112.11 146.95 111.955 146.425 111.645 146.075C111.335 145.715 110.89 145.535 110.31 145.535C109.68 145.535 109.175 145.745 108.795 146.165C108.415 146.575 108.225 147.165 108.225 147.935V152H106.35V147.65C106.35 146.95 106.195 146.425 105.885 146.075C105.575 145.715 105.13 145.535 104.55 145.535C103.91 145.535 103.4 145.74 103.02 146.15C102.65 146.56 102.465 147.155 102.465 147.935V152H100.59V143.99H102.375V145.01C102.675 144.65 103.05 144.375 103.5 144.185C103.95 143.995 104.45 143.9 105 143.9C105.6 143.9 106.13 144.015 106.59 144.245C107.06 144.465 107.43 144.795 107.7 145.235C108.03 144.815 108.455 144.49 108.975 144.26C109.495 144.02 110.07 143.9 110.7 143.9Z" fill="white"/>
<path d="M124.284 143.99V152H122.499V150.965C122.189 151.345 121.804 151.63 121.344 151.82C120.894 152.01 120.394 152.105 119.844 152.105C119.064 152.105 118.364 151.935 117.744 151.595C117.134 151.255 116.654 150.775 116.304 150.155C115.964 149.535 115.794 148.815 115.794 147.995C115.794 147.175 115.964 146.46 116.304 145.85C116.654 145.23 117.134 144.75 117.744 144.41C118.364 144.07 119.064 143.9 119.844 143.9C120.364 143.9 120.839 143.99 121.269 144.17C121.709 144.35 122.089 144.615 122.409 144.965V143.99H124.284ZM120.054 150.5C120.744 150.5 121.314 150.27 121.764 149.81C122.214 149.35 122.439 148.745 122.439 147.995C122.439 147.245 122.214 146.64 121.764 146.18C121.314 145.72 120.744 145.49 120.054 145.49C119.364 145.49 118.794 145.72 118.344 146.18C117.904 146.64 117.684 147.245 117.684 147.995C117.684 148.745 117.904 149.35 118.344 149.81C118.794 150.27 119.364 150.5 120.054 150.5Z" fill="white"/>
<path d="M131.237 151.565C131.017 151.745 130.747 151.88 130.427 151.97C130.117 152.06 129.787 152.105 129.437 152.105C128.557 152.105 127.877 151.875 127.397 151.415C126.917 150.955 126.677 150.285 126.677 149.405V142.22H128.552V144.05H130.697V145.55H128.552V149.36C128.552 149.75 128.647 150.05 128.837 150.26C129.037 150.46 129.312 150.56 129.662 150.56C130.082 150.56 130.432 150.45 130.712 150.23L131.237 151.565Z" fill="white"/>
<path d="M136.333 150.515C137.203 150.515 137.928 150.225 138.508 149.645L139.498 150.8C139.148 151.23 138.698 151.555 138.148 151.775C137.598 151.995 136.978 152.105 136.288 152.105C135.408 152.105 134.633 151.93 133.963 151.58C133.293 151.23 132.773 150.745 132.403 150.125C132.043 149.495 131.863 148.785 131.863 147.995C131.863 147.215 132.038 146.515 132.388 145.895C132.748 145.265 133.238 144.775 133.858 144.425C134.488 144.075 135.198 143.9 135.988 143.9C136.738 143.9 137.418 144.065 138.028 144.395C138.648 144.715 139.138 145.18 139.498 145.79C139.858 146.39 140.038 147.095 140.038 147.905L133.903 149.105C134.093 149.565 134.398 149.915 134.818 150.155C135.238 150.395 135.743 150.515 136.333 150.515ZM135.988 145.4C135.298 145.4 134.738 145.625 134.308 146.075C133.888 146.525 133.678 147.13 133.678 147.89V147.905L138.208 147.035C138.078 146.545 137.813 146.15 137.413 145.85C137.023 145.55 136.548 145.4 135.988 145.4Z" fill="white"/>
<path d="M143.625 145.16C144.165 144.32 145.115 143.9 146.475 143.9V145.685C146.315 145.655 146.17 145.64 146.04 145.64C145.31 145.64 144.74 145.855 144.33 146.285C143.92 146.705 143.715 147.315 143.715 148.115V152H141.84V143.99H143.625V145.16Z" fill="white"/>
<path d="M148.065 143.99H149.94V152H148.065V143.99ZM149.01 142.67C148.67 142.67 148.385 142.565 148.155 142.355C147.925 142.135 147.81 141.865 147.81 141.545C147.81 141.225 147.925 140.96 148.155 140.75C148.385 140.53 148.67 140.42 149.01 140.42C149.35 140.42 149.635 140.525 149.865 140.735C150.095 140.935 150.21 141.19 150.21 141.5C150.21 141.83 150.095 142.11 149.865 142.34C149.645 142.56 149.36 142.67 149.01 142.67Z" fill="white"/>
<path d="M160.231 143.99V152H158.446V150.965C158.136 151.345 157.751 151.63 157.291 151.82C156.841 152.01 156.341 152.105 155.791 152.105C155.011 152.105 154.311 151.935 153.691 151.595C153.081 151.255 152.601 150.775 152.251 150.155C151.911 149.535 151.741 148.815 151.741 147.995C151.741 147.175 151.911 146.46 152.251 145.85C152.601 145.23 153.081 144.75 153.691 144.41C154.311 144.07 155.011 143.9 155.791 143.9C156.311 143.9 156.786 143.99 157.216 144.17C157.656 144.35 158.036 144.615 158.356 144.965V143.99H160.231ZM156.001 150.5C156.691 150.5 157.261 150.27 157.711 149.81C158.161 149.35 158.386 148.745 158.386 147.995C158.386 147.245 158.161 146.64 157.711 146.18C157.261 145.72 156.691 145.49 156.001 145.49C155.311 145.49 154.741 145.72 154.291 146.18C153.851 146.64 153.631 147.245 153.631 147.995C153.631 148.745 153.851 149.35 154.291 149.81C154.741 150.27 155.311 150.5 156.001 150.5Z" fill="white"/>
<path d="M165.325 152.105C164.495 152.105 163.845 151.88 163.375 151.43C162.915 150.97 162.685 150.325 162.685 149.495V140.87H164.56V149.36C164.56 150.16 164.935 150.56 165.685 150.56C165.935 150.56 166.16 150.51 166.36 150.41L166.45 151.91C166.1 152.04 165.725 152.105 165.325 152.105Z" fill="white"/>
<path d="M90.2455 165.28C89.4555 165.28 89.0605 165.71 89.0605 166.57V167.05H91.2655V168.55H89.1055V175H87.2305V166.54C87.2305 165.69 87.4805 165.015 87.9805 164.515C88.4805 164.015 89.1905 163.765 90.1105 163.765C90.8205 163.765 91.3805 163.91 91.7905 164.2L91.2655 165.61C90.9655 165.39 90.6255 165.28 90.2455 165.28Z" fill="white"/>
<path d="M96.0014 175.105C95.1914 175.105 94.4614 174.93 93.8114 174.58C93.1614 174.23 92.6514 173.745 92.2814 173.125C91.9214 172.495 91.7414 171.785 91.7414 170.995C91.7414 170.205 91.9214 169.5 92.2814 168.88C92.6514 168.26 93.1614 167.775 93.8114 167.425C94.4614 167.075 95.1914 166.9 96.0014 166.9C96.8214 166.9 97.5564 167.075 98.2064 167.425C98.8564 167.775 99.3614 168.26 99.7214 168.88C100.091 169.5 100.276 170.205 100.276 170.995C100.276 171.785 100.091 172.495 99.7214 173.125C99.3614 173.745 98.8564 174.23 98.2064 174.58C97.5564 174.93 96.8214 175.105 96.0014 175.105ZM96.0014 173.5C96.6914 173.5 97.2614 173.27 97.7114 172.81C98.1614 172.35 98.3864 171.745 98.3864 170.995C98.3864 170.245 98.1614 169.64 97.7114 169.18C97.2614 168.72 96.6914 168.49 96.0014 168.49C95.3114 168.49 94.7414 168.72 94.2914 169.18C93.8514 169.64 93.6314 170.245 93.6314 170.995C93.6314 171.745 93.8514 172.35 94.2914 172.81C94.7414 173.27 95.3114 173.5 96.0014 173.5Z" fill="white"/>
<path d="M103.854 168.16C104.394 167.32 105.344 166.9 106.704 166.9V168.685C106.544 168.655 106.399 168.64 106.269 168.64C105.539 168.64 104.969 168.855 104.559 169.285C104.149 169.705 103.944 170.315 103.944 171.115V175H102.069V166.99H103.854V168.16Z" fill="white"/>
<path d="M119.549 173.35V175H111.809V173.695L115.979 169.735C116.449 169.285 116.764 168.895 116.924 168.565C117.094 168.225 117.179 167.89 117.179 167.56C117.179 167.07 117.014 166.695 116.684 166.435C116.354 166.175 115.869 166.045 115.229 166.045C114.159 166.045 113.339 166.41 112.769 167.14L111.404 166.09C111.814 165.54 112.364 165.115 113.054 164.815C113.754 164.505 114.534 164.35 115.394 164.35C116.534 164.35 117.444 164.62 118.124 165.16C118.804 165.7 119.144 166.435 119.144 167.365C119.144 167.935 119.024 168.47 118.784 168.97C118.544 169.47 118.084 170.04 117.404 170.68L114.599 173.35H119.549Z" fill="white"/>
<path d="M135.5 166.9C136.51 166.9 137.31 167.195 137.9 167.785C138.49 168.365 138.785 169.24 138.785 170.41V175H136.91V170.65C136.91 169.95 136.755 169.425 136.445 169.075C136.135 168.715 135.69 168.535 135.11 168.535C134.48 168.535 133.975 168.745 133.595 169.165C133.215 169.575 133.025 170.165 133.025 170.935V175H131.15V170.65C131.15 169.95 130.995 169.425 130.685 169.075C130.375 168.715 129.93 168.535 129.35 168.535C128.71 168.535 128.2 168.74 127.82 169.15C127.45 169.56 127.265 170.155 127.265 170.935V175H125.39V166.99H127.175V168.01C127.475 167.65 127.85 167.375 128.3 167.185C128.75 166.995 129.25 166.9 129.8 166.9C130.4 166.9 130.93 167.015 131.39 167.245C131.86 167.465 132.23 167.795 132.5 168.235C132.83 167.815 133.255 167.49 133.775 167.26C134.295 167.02 134.87 166.9 135.5 166.9Z" fill="white"/>
<path d="M144.854 175.105C144.044 175.105 143.314 174.93 142.664 174.58C142.014 174.23 141.504 173.745 141.134 173.125C140.774 172.495 140.594 171.785 140.594 170.995C140.594 170.205 140.774 169.5 141.134 168.88C141.504 168.26 142.014 167.775 142.664 167.425C143.314 167.075 144.044 166.9 144.854 166.9C145.674 166.9 146.409 167.075 147.059 167.425C147.709 167.775 148.214 168.26 148.574 168.88C148.944 169.5 149.129 170.205 149.129 170.995C149.129 171.785 148.944 172.495 148.574 173.125C148.214 173.745 147.709 174.23 147.059 174.58C146.409 174.93 145.674 175.105 144.854 175.105ZM144.854 173.5C145.544 173.5 146.114 173.27 146.564 172.81C147.014 172.35 147.239 171.745 147.239 170.995C147.239 170.245 147.014 169.64 146.564 169.18C146.114 168.72 145.544 168.49 144.854 168.49C144.164 168.49 143.594 168.72 143.144 169.18C142.704 169.64 142.484 170.245 142.484 170.995C142.484 171.745 142.704 172.35 143.144 172.81C143.594 173.27 144.164 173.5 144.854 173.5Z" fill="white"/>
<path d="M155.467 166.9C156.477 166.9 157.287 167.195 157.897 167.785C158.507 168.375 158.812 169.25 158.812 170.41V175H156.937V170.65C156.937 169.95 156.772 169.425 156.442 169.075C156.112 168.715 155.642 168.535 155.032 168.535C154.342 168.535 153.797 168.745 153.397 169.165C152.997 169.575 152.797 170.17 152.797 170.95V175H150.922V166.99H152.707V168.025C153.017 167.655 153.407 167.375 153.877 167.185C154.347 166.995 154.877 166.9 155.467 166.9Z" fill="white"/>
<path d="M165.69 174.565C165.47 174.745 165.2 174.88 164.88 174.97C164.57 175.06 164.24 175.105 163.89 175.105C163.01 175.105 162.33 174.875 161.85 174.415C161.37 173.955 161.13 173.285 161.13 172.405V165.22H163.005V167.05H165.15V168.55H163.005V172.36C163.005 172.75 163.1 173.05 163.29 173.26C163.49 173.46 163.765 173.56 164.115 173.56C164.535 173.56 164.885 173.45 165.165 173.23L165.69 174.565Z" fill="white"/>
<path d="M171.785 166.9C172.795 166.9 173.605 167.195 174.215 167.785C174.825 168.375 175.13 169.25 175.13 170.41V175H173.255V170.65C173.255 169.95 173.09 169.425 172.76 169.075C172.43 168.715 171.96 168.535 171.35 168.535C170.66 168.535 170.115 168.745 169.715 169.165C169.315 169.575 169.115 170.17 169.115 170.95V175H167.24V163.87H169.115V167.92C169.425 167.59 169.805 167.34 170.255 167.17C170.715 166.99 171.225 166.9 171.785 166.9Z" fill="white"/>
<path d="M179.984 175.105C179.334 175.105 178.699 175.02 178.079 174.85C177.459 174.68 176.964 174.465 176.594 174.205L177.314 172.78C177.674 173.02 178.104 173.215 178.604 173.365C179.114 173.505 179.614 173.575 180.104 173.575C181.224 173.575 181.784 173.28 181.784 172.69C181.784 172.41 181.639 172.215 181.349 172.105C181.069 171.995 180.614 171.89 179.984 171.79C179.324 171.69 178.784 171.575 178.364 171.445C177.954 171.315 177.594 171.09 177.284 170.77C176.984 170.44 176.834 169.985 176.834 169.405C176.834 168.645 177.149 168.04 177.779 167.59C178.419 167.13 179.279 166.9 180.359 166.9C180.909 166.9 181.459 166.965 182.009 167.095C182.559 167.215 183.009 167.38 183.359 167.59L182.639 169.015C181.959 168.615 181.194 168.415 180.344 168.415C179.794 168.415 179.374 168.5 179.084 168.67C178.804 168.83 178.664 169.045 178.664 169.315C178.664 169.615 178.814 169.83 179.114 169.96C179.424 170.08 179.899 170.195 180.539 170.305C181.179 170.405 181.704 170.52 182.114 170.65C182.524 170.78 182.874 171 183.164 171.31C183.464 171.62 183.614 172.06 183.614 172.63C183.614 173.38 183.289 173.98 182.639 174.43C181.989 174.88 181.104 175.105 179.984 175.105Z" fill="white"/>
</svg>
