<svg width="270" height="270" viewBox="0 0 270 270" fill="none" xmlns="http://www.w3.org/2000/svg">
<path d="M196.726 134.756C196.726 146.548 206.322 156.145 218.115 156.145C223.889 156.145 229.175 153.868 232.997 150.127V225.84C232.997 229.419 230.069 232.346 226.491 232.346H150.777C154.518 236.169 156.795 241.455 156.795 247.229C156.795 259.021 147.199 268.618 135.407 268.618C123.615 268.618 114.018 259.021 114.018 247.229C114.018 241.455 116.295 236.169 120.036 232.346H44.3224C40.7441 232.346 37.8164 229.419 37.8164 225.84V150.127C41.6387 153.868 46.9248 156.145 52.6989 156.145C64.4911 156.145 74.0875 146.548 74.0875 134.756C74.0875 122.964 64.4911 113.368 52.6989 113.368C46.9248 113.368 41.6387 115.645 37.8164 119.386V43.6718C37.8164 40.0935 40.7441 37.1658 44.3224 37.1658H120.036C116.295 40.9881 114.018 46.2742 114.018 52.0483C114.018 63.8405 123.615 73.4369 135.407 73.4369C147.199 73.4369 156.795 63.8405 156.795 52.0483C156.795 46.2742 154.518 40.9881 150.777 37.1658H226.491C230.069 37.1658 232.997 40.0935 232.997 43.6718V119.386C229.175 115.645 223.889 113.368 218.115 113.368C206.322 113.368 196.726 122.964 196.726 134.756Z" fill="#F6F6F6"/>
<path d="M86.9541 149.35C87.8941 149.35 88.7141 149.535 89.4141 149.905C90.1141 150.275 90.6541 150.825 91.0341 151.555C91.4241 152.275 91.6191 153.15 91.6191 154.18V160H89.6691V157.3H84.2091V160H82.2891V154.18C82.2891 153.15 82.4791 152.275 82.8591 151.555C83.2491 150.825 83.7941 150.275 84.4941 149.905C85.1941 149.535 86.0141 149.35 86.9541 149.35ZM89.6691 155.665V154C89.6691 153.03 89.4291 152.3 88.9491 151.81C88.4691 151.31 87.7991 151.06 86.9391 151.06C86.0791 151.06 85.4091 151.31 84.9291 151.81C84.4491 152.3 84.2091 153.03 84.2091 154V155.665H89.6691Z" fill="#262626"/>
<path d="M102.012 148.87V160H100.212V158.965C99.9018 159.345 99.5168 159.63 99.0568 159.82C98.6068 160.01 98.1068 160.105 97.5568 160.105C96.7868 160.105 96.0918 159.935 95.4718 159.595C94.8618 159.255 94.3818 158.775 94.0318 158.155C93.6818 157.525 93.5068 156.805 93.5068 155.995C93.5068 155.185 93.6818 154.47 94.0318 153.85C94.3818 153.23 94.8618 152.75 95.4718 152.41C96.0918 152.07 96.7868 151.9 97.5568 151.9C98.0868 151.9 98.5718 151.99 99.0118 152.17C99.4518 152.35 99.8268 152.62 100.137 152.98V148.87H102.012ZM97.7818 158.5C98.2318 158.5 98.6368 158.4 98.9968 158.2C99.3568 157.99 99.6418 157.695 99.8518 157.315C100.062 156.935 100.167 156.495 100.167 155.995C100.167 155.495 100.062 155.055 99.8518 154.675C99.6418 154.295 99.3568 154.005 98.9968 153.805C98.6368 153.595 98.2318 153.49 97.7818 153.49C97.3318 153.49 96.9268 153.595 96.5668 153.805C96.2068 154.005 95.9218 154.295 95.7118 154.675C95.5018 155.055 95.3968 155.495 95.3968 155.995C95.3968 156.495 95.5018 156.935 95.7118 157.315C95.9218 157.695 96.2068 157.99 96.5668 158.2C96.9268 158.4 97.3318 158.5 97.7818 158.5Z" fill="#262626"/>
<path d="M112.31 148.87V160H110.51V158.965C110.2 159.345 109.815 159.63 109.355 159.82C108.905 160.01 108.405 160.105 107.855 160.105C107.085 160.105 106.39 159.935 105.77 159.595C105.16 159.255 104.68 158.775 104.33 158.155C103.98 157.525 103.805 156.805 103.805 155.995C103.805 155.185 103.98 154.47 104.33 153.85C104.68 153.23 105.16 152.75 105.77 152.41C106.39 152.07 107.085 151.9 107.855 151.9C108.385 151.9 108.87 151.99 109.31 152.17C109.75 152.35 110.125 152.62 110.435 152.98V148.87H112.31ZM108.08 158.5C108.53 158.5 108.935 158.4 109.295 158.2C109.655 157.99 109.94 157.695 110.15 157.315C110.36 156.935 110.465 156.495 110.465 155.995C110.465 155.495 110.36 155.055 110.15 154.675C109.94 154.295 109.655 154.005 109.295 153.805C108.935 153.595 108.53 153.49 108.08 153.49C107.63 153.49 107.225 153.595 106.865 153.805C106.505 154.005 106.22 154.295 106.01 154.675C105.8 155.055 105.695 155.495 105.695 155.995C105.695 156.495 105.8 156.935 106.01 157.315C106.22 157.695 106.505 157.99 106.865 158.2C107.225 158.4 107.63 158.5 108.08 158.5Z" fill="#262626"/>
<path d="M114.763 151.99H116.638V160H114.763V151.99ZM115.708 150.67C115.368 150.67 115.083 150.565 114.853 150.355C114.623 150.135 114.508 149.865 114.508 149.545C114.508 149.225 114.623 148.96 114.853 148.75C115.083 148.53 115.368 148.42 115.708 148.42C116.048 148.42 116.333 148.525 116.563 148.735C116.793 148.935 116.908 149.19 116.908 149.5C116.908 149.83 116.793 150.11 116.563 150.34C116.343 150.56 116.058 150.67 115.708 150.67Z" fill="#262626"/>
<path d="M123.643 151.9C124.653 151.9 125.463 152.195 126.073 152.785C126.683 153.375 126.988 154.25 126.988 155.41V160H125.113V155.65C125.113 154.95 124.948 154.425 124.618 154.075C124.288 153.715 123.818 153.535 123.208 153.535C122.518 153.535 121.973 153.745 121.573 154.165C121.173 154.575 120.973 155.17 120.973 155.95V160H119.098V151.99H120.883V153.025C121.193 152.655 121.583 152.375 122.053 152.185C122.523 151.995 123.053 151.9 123.643 151.9Z" fill="#262626"/>
<path d="M137.39 151.99V158.785C137.39 161.605 135.95 163.015 133.07 163.015C132.3 163.015 131.57 162.915 130.88 162.715C130.19 162.525 129.62 162.245 129.17 161.875L130.01 160.465C130.36 160.755 130.8 160.985 131.33 161.155C131.87 161.335 132.415 161.425 132.965 161.425C133.845 161.425 134.49 161.225 134.9 160.825C135.31 160.425 135.515 159.815 135.515 158.995V158.575C135.195 158.925 134.805 159.19 134.345 159.37C133.885 159.55 133.38 159.64 132.83 159.64C132.07 159.64 131.38 159.48 130.76 159.16C130.15 158.83 129.665 158.37 129.305 157.78C128.955 157.19 128.78 156.515 128.78 155.755C128.78 154.995 128.955 154.325 129.305 153.745C129.665 153.155 130.15 152.7 130.76 152.38C131.38 152.06 132.07 151.9 132.83 151.9C133.41 151.9 133.935 151.995 134.405 152.185C134.885 152.375 135.285 152.665 135.605 153.055V151.99H137.39ZM133.115 158.05C133.825 158.05 134.405 157.84 134.855 157.42C135.315 156.99 135.545 156.435 135.545 155.755C135.545 155.085 135.315 154.54 134.855 154.12C134.405 153.7 133.825 153.49 133.115 153.49C132.395 153.49 131.805 153.7 131.345 154.12C130.895 154.54 130.67 155.085 130.67 155.755C130.67 156.435 130.895 156.99 131.345 157.42C131.805 157.84 132.395 158.05 133.115 158.05Z" fill="#262626"/>
<path d="M151.501 151.99L148.066 160H146.131L142.696 151.99H144.646L147.136 157.93L149.701 151.99H151.501Z" fill="#262626"/>
<path d="M152.673 151.99H154.548V160H152.673V151.99ZM153.618 150.67C153.278 150.67 152.993 150.565 152.763 150.355C152.533 150.135 152.418 149.865 152.418 149.545C152.418 149.225 152.533 148.96 152.763 148.75C152.993 148.53 153.278 148.42 153.618 148.42C153.958 148.42 154.243 148.525 154.473 148.735C154.703 148.935 154.818 149.19 154.818 149.5C154.818 149.83 154.703 150.11 154.473 150.34C154.253 150.56 153.968 150.67 153.618 150.67Z" fill="#262626"/>
<path d="M159.484 160.105C158.834 160.105 158.199 160.02 157.579 159.85C156.959 159.68 156.464 159.465 156.094 159.205L156.814 157.78C157.174 158.02 157.604 158.215 158.104 158.365C158.614 158.505 159.114 158.575 159.604 158.575C160.724 158.575 161.284 158.28 161.284 157.69C161.284 157.41 161.139 157.215 160.849 157.105C160.569 156.995 160.114 156.89 159.484 156.79C158.824 156.69 158.284 156.575 157.864 156.445C157.454 156.315 157.094 156.09 156.784 155.77C156.484 155.44 156.334 154.985 156.334 154.405C156.334 153.645 156.649 153.04 157.279 152.59C157.919 152.13 158.779 151.9 159.859 151.9C160.409 151.9 160.959 151.965 161.509 152.095C162.059 152.215 162.509 152.38 162.859 152.59L162.139 154.015C161.459 153.615 160.694 153.415 159.844 153.415C159.294 153.415 158.874 153.5 158.584 153.67C158.304 153.83 158.164 154.045 158.164 154.315C158.164 154.615 158.314 154.83 158.614 154.96C158.924 155.08 159.399 155.195 160.039 155.305C160.679 155.405 161.204 155.52 161.614 155.65C162.024 155.78 162.374 156 162.664 156.31C162.964 156.62 163.114 157.06 163.114 157.63C163.114 158.38 162.789 158.98 162.139 159.43C161.489 159.88 160.604 160.105 159.484 160.105Z" fill="#262626"/>
<path d="M172.483 151.99V160H170.698V158.98C170.398 159.34 170.023 159.62 169.573 159.82C169.123 160.01 168.638 160.105 168.118 160.105C167.048 160.105 166.203 159.81 165.583 159.22C164.973 158.62 164.668 157.735 164.668 156.565V151.99H166.543V156.31C166.543 157.03 166.703 157.57 167.023 157.93C167.353 158.28 167.818 158.455 168.418 158.455C169.088 158.455 169.618 158.25 170.008 157.84C170.408 157.42 170.608 156.82 170.608 156.04V151.99H172.483Z" fill="#262626"/>
<path d="M182.768 151.99V160H180.983V158.965C180.673 159.345 180.288 159.63 179.828 159.82C179.378 160.01 178.878 160.105 178.328 160.105C177.548 160.105 176.848 159.935 176.228 159.595C175.618 159.255 175.138 158.775 174.788 158.155C174.448 157.535 174.278 156.815 174.278 155.995C174.278 155.175 174.448 154.46 174.788 153.85C175.138 153.23 175.618 152.75 176.228 152.41C176.848 152.07 177.548 151.9 178.328 151.9C178.848 151.9 179.323 151.99 179.753 152.17C180.193 152.35 180.573 152.615 180.893 152.965V151.99H182.768ZM178.538 158.5C179.228 158.5 179.798 158.27 180.248 157.81C180.698 157.35 180.923 156.745 180.923 155.995C180.923 155.245 180.698 154.64 180.248 154.18C179.798 153.72 179.228 153.49 178.538 153.49C177.848 153.49 177.278 153.72 176.828 154.18C176.388 154.64 176.168 155.245 176.168 155.995C176.168 156.745 176.388 157.35 176.828 157.81C177.278 158.27 177.848 158.5 178.538 158.5Z" fill="#262626"/>
<path d="M187.862 160.105C187.032 160.105 186.382 159.88 185.912 159.43C185.452 158.97 185.222 158.325 185.222 157.495V148.87H187.097V157.36C187.097 158.16 187.472 158.56 188.222 158.56C188.472 158.56 188.697 158.51 188.897 158.41L188.987 159.91C188.637 160.04 188.262 160.105 187.862 160.105Z" fill="#262626"/>
<path d="M114.288 181.515C115.158 181.515 115.883 181.225 116.463 180.645L117.453 181.8C117.103 182.23 116.653 182.555 116.103 182.775C115.553 182.995 114.933 183.105 114.243 183.105C113.363 183.105 112.588 182.93 111.918 182.58C111.248 182.23 110.728 181.745 110.358 181.125C109.998 180.495 109.818 179.785 109.818 178.995C109.818 178.215 109.993 177.515 110.343 176.895C110.703 176.265 111.193 175.775 111.813 175.425C112.443 175.075 113.153 174.9 113.943 174.9C114.693 174.9 115.373 175.065 115.983 175.395C116.603 175.715 117.093 176.18 117.453 176.79C117.813 177.39 117.993 178.095 117.993 178.905L111.858 180.105C112.048 180.565 112.353 180.915 112.773 181.155C113.193 181.395 113.698 181.515 114.288 181.515ZM113.943 176.4C113.253 176.4 112.693 176.625 112.263 177.075C111.843 177.525 111.633 178.13 111.633 178.89V178.905L116.163 178.035C116.033 177.545 115.768 177.15 115.368 176.85C114.978 176.55 114.503 176.4 113.943 176.4Z" fill="#262626"/>
<path d="M122.809 173.28C122.019 173.28 121.624 173.71 121.624 174.57V175.05H123.829V176.55H121.669V183H119.794V174.54C119.794 173.69 120.044 173.015 120.544 172.515C121.044 172.015 121.754 171.765 122.674 171.765C123.384 171.765 123.944 171.91 124.354 172.2L123.829 173.61C123.529 173.39 123.189 173.28 122.809 173.28Z" fill="#262626"/>
<path d="M128.097 173.28C127.307 173.28 126.912 173.71 126.912 174.57V175.05H129.117V176.55H126.957V183H125.082V174.54C125.082 173.69 125.332 173.015 125.832 172.515C126.332 172.015 127.042 171.765 127.962 171.765C128.672 171.765 129.232 171.91 129.642 172.2L129.117 173.61C128.817 173.39 128.477 173.28 128.097 173.28Z" fill="#262626"/>
<path d="M134.063 181.515C134.933 181.515 135.658 181.225 136.238 180.645L137.228 181.8C136.878 182.23 136.428 182.555 135.878 182.775C135.328 182.995 134.708 183.105 134.018 183.105C133.138 183.105 132.363 182.93 131.693 182.58C131.023 182.23 130.503 181.745 130.133 181.125C129.773 180.495 129.593 179.785 129.593 178.995C129.593 178.215 129.768 177.515 130.118 176.895C130.478 176.265 130.968 175.775 131.588 175.425C132.218 175.075 132.928 174.9 133.718 174.9C134.468 174.9 135.148 175.065 135.758 175.395C136.378 175.715 136.868 176.18 137.228 176.79C137.588 177.39 137.768 178.095 137.768 178.905L131.633 180.105C131.823 180.565 132.128 180.915 132.548 181.155C132.968 181.395 133.473 181.515 134.063 181.515ZM133.718 176.4C133.028 176.4 132.468 176.625 132.038 177.075C131.618 177.525 131.408 178.13 131.408 178.89V178.905L135.938 178.035C135.808 177.545 135.543 177.15 135.143 176.85C134.753 176.55 134.278 176.4 133.718 176.4Z" fill="#262626"/>
<path d="M143.245 183.105C142.415 183.105 141.67 182.93 141.01 182.58C140.35 182.23 139.835 181.745 139.465 181.125C139.095 180.495 138.91 179.785 138.91 178.995C138.91 178.205 139.095 177.5 139.465 176.88C139.835 176.26 140.345 175.775 140.995 175.425C141.655 175.075 142.405 174.9 143.245 174.9C144.035 174.9 144.725 175.06 145.315 175.38C145.915 175.7 146.365 176.16 146.665 176.76L145.225 177.6C144.995 177.23 144.705 176.955 144.355 176.775C144.015 176.585 143.64 176.49 143.23 176.49C142.53 176.49 141.95 176.72 141.49 177.18C141.03 177.63 140.8 178.235 140.8 178.995C140.8 179.755 141.025 180.365 141.475 180.825C141.935 181.275 142.52 181.5 143.23 181.5C143.64 181.5 144.015 181.41 144.355 181.23C144.705 181.04 144.995 180.76 145.225 180.39L146.665 181.23C146.355 181.83 145.9 182.295 145.3 182.625C144.71 182.945 144.025 183.105 143.245 183.105Z" fill="#262626"/>
<path d="M152.712 182.565C152.492 182.745 152.222 182.88 151.902 182.97C151.592 183.06 151.262 183.105 150.912 183.105C150.032 183.105 149.352 182.875 148.872 182.415C148.392 181.955 148.152 181.285 148.152 180.405V173.22H150.027V175.05H152.172V176.55H150.027V180.36C150.027 180.75 150.122 181.05 150.312 181.26C150.512 181.46 150.787 181.56 151.137 181.56C151.557 181.56 151.907 181.45 152.187 181.23L152.712 182.565Z" fill="#262626"/>
<path d="M156.737 183.105C156.087 183.105 155.452 183.02 154.832 182.85C154.212 182.68 153.717 182.465 153.347 182.205L154.067 180.78C154.427 181.02 154.857 181.215 155.357 181.365C155.867 181.505 156.367 181.575 156.857 181.575C157.977 181.575 158.537 181.28 158.537 180.69C158.537 180.41 158.392 180.215 158.102 180.105C157.822 179.995 157.367 179.89 156.737 179.79C156.077 179.69 155.537 179.575 155.117 179.445C154.707 179.315 154.347 179.09 154.037 178.77C153.737 178.44 153.587 177.985 153.587 177.405C153.587 176.645 153.902 176.04 154.532 175.59C155.172 175.13 156.032 174.9 157.112 174.9C157.662 174.9 158.212 174.965 158.762 175.095C159.312 175.215 159.762 175.38 160.112 175.59L159.392 177.015C158.712 176.615 157.947 176.415 157.097 176.415C156.547 176.415 156.127 176.5 155.837 176.67C155.557 176.83 155.417 177.045 155.417 177.315C155.417 177.615 155.567 177.83 155.867 177.96C156.177 178.08 156.652 178.195 157.292 178.305C157.932 178.405 158.457 178.52 158.867 178.65C159.277 178.78 159.627 179 159.917 179.31C160.217 179.62 160.367 180.06 160.367 180.63C160.367 181.38 160.042 181.98 159.392 182.43C158.742 182.88 157.857 183.105 156.737 183.105Z" fill="#262626"/>
<path d="M161.901 99.7V99.6C161.901 99.5 161.901 99.5 161.901 99.4C161.601 98.7 161.001 98.2 160.201 98.1L157.001 97.7L158.101 96.8C159.801 95.3 159.801 95.3 159.801 94C159.901 93.6 159.801 93.2 159.601 92.9C159.001 92.2 158.601 91.7 158.201 91.3C157.101 90 157.101 90 156.601 90C156.401 90 156.101 90.1 156.001 90.2C154.301 91.8 150.301 95 148.801 96.3L148.101 96.8L146.001 96.4C145.701 95.8 145.401 95 145.101 94.3C143.101 89.6 140.301 83.1 137.601 81.4C136.801 80.9 135.701 80.4 135.001 80.4C134.901 80.4 134.701 80.4 134.601 80.4H134.501C134.501 80.4 134.401 80.4 134.301 80.4C133.501 80.4 132.901 80.9 132.501 81.6L125.801 96.2C125.701 96.4 125.501 96.6 125.201 96.7L109.101 99.5C108.301 99.6 107.701 100.2 107.501 100.9C107.301 101.7 107.501 102.4 108.101 102.9L120.001 113.9C120.201 114.1 120.301 114.4 120.301 114.6L118.001 130.6C117.901 131.2 118.101 131.7 118.401 132.1C118.901 132.7 119.901 133.1 120.901 133.2C122.401 133.4 124.501 133.5 126.901 133.5C131.601 133.5 134.501 133.1 134.601 132.8C134.501 132.5 131.801 132.1 127.001 132.1C126.201 132.1 125.501 132.1 124.801 132.1L124.701 131.9C125.501 131.5 133.101 127 136.401 125C142.201 127.8 145.601 129.5 147.601 130.5C150.201 131.8 150.601 132 151.101 132C151.201 132 151.201 132 151.301 132C151.401 132 151.601 132.1 151.801 132.1C152.901 132.1 154.001 131.3 154.401 130.3C155.001 128.9 154.701 127.3 154.401 125.6C153.701 122.1 153.201 119.9 152.901 118.4C152.401 116 152.201 115.5 152.201 114.1V114C153.301 112.8 154.401 111.5 155.501 110.4C157.401 108.7 159.401 106.8 161.101 104.9C162.401 103.4 163.101 102.3 161.901 99.7ZM151.101 95.8C153.401 93.8 155.501 92.2 156.401 91.3L156.501 91.2L157.401 92.2C157.901 92.8 158.301 93.2 158.601 93.5L158.701 93.6L158.601 93.7C150.301 100.6 144.701 105.6 138.101 112.1H138.001L137.901 112C136.801 110.9 135.701 110 134.801 109.1C132.601 107.1 130.701 105.3 128.101 102.4H128.001L128.101 102.3C128.601 101.8 129.101 101.3 129.601 100.9C130.001 100.5 130.501 100 130.901 99.6L131.001 99.5L131.101 99.6C134.101 102.8 135.701 104.6 136.601 105.7C137.601 106.9 137.801 107 138.101 107C138.401 107 138.501 106.9 140.501 104.9C142.301 103.1 147.201 99 151.101 95.8ZM160.501 100.7L149.301 112.3C148.801 112.8 148.601 113.5 148.801 114.1L152.001 129.9C152.101 130.2 152.001 130.4 151.801 130.6C151.601 130.8 151.401 130.9 151.101 130.9C151.001 130.9 150.901 130.9 150.701 130.8L136.201 123.7C135.901 123.6 135.601 123.5 135.301 123.5C135.001 123.5 134.601 123.6 134.301 123.8L120.201 131.7C120.101 131.8 119.901 131.8 119.801 131.8C119.601 131.8 119.301 131.7 119.201 131.5C119.101 131.3 119.001 131.1 119.001 130.8L121.301 114.8C121.401 114.2 121.201 113.5 120.701 113L108.901 102.1C108.701 101.9 108.601 101.6 108.701 101.3C108.801 101 109.001 100.7 109.301 100.7L125.201 97.9C125.801 97.8 126.401 97.4 126.701 96.8L133.501 82.1C133.601 81.8 133.901 81.6 134.301 81.6C134.601 81.6 134.901 81.8 135.001 82.1L142.501 96.4C142.801 97 143.401 97.4 144.001 97.5L146.901 97.8L146.701 98C141.001 102.8 140.701 103.1 139.501 104.4L139.001 104.8L138.901 104.7C137.201 102.9 136.101 101.7 135.301 100.7C133.701 98.9 133.301 98.5 132.401 98.3C132.101 98.2 131.701 98.2 131.401 98.2C131.101 98.2 131.001 98.2 130.801 98.2V98.3H130.701C130.401 98.4 130.301 98.5 129.401 99.3C128.901 99.8 128.201 100.4 127.101 101.5C126.701 101.9 126.601 102.6 127.001 103.1C129.601 106.1 131.601 107.9 133.901 110C135.001 111 136.201 112.1 137.601 113.4C137.701 113.5 137.701 113.5 137.901 113.6C138.101 113.7 138.301 113.7 138.501 113.7C138.901 113.7 139.401 113.5 139.601 113.3C144.001 109.3 149.801 104 155.801 98.8L160.101 99.3C160.401 99.3 160.701 99.6 160.801 99.9C160.801 100.1 160.701 100.5 160.501 100.7Z" fill="black"/>
<path d="M158.7 93.6C150.3 100.6 144.7 105.6 138.1 112.1H138L137.9 112C136.8 110.9 135.7 110 134.8 109.1C132.6 107.1 130.7 105.3 128.1 102.4H128L128.1 102.3C128.6 101.8 129.1 101.3 129.6 100.9C130 100.5 130.5 100 130.9 99.6L131 99.5L131.1 99.6C134.1 102.8 135.7 104.6 136.6 105.7C137.6 106.9 137.8 107 138.1 107C138.4 107 138.5 106.9 140.5 104.9C142.3 103.1 147.2 99 151.1 95.7C153.4 93.7 155.5 92.1 156.4 91.2L156.5 91.1L157.4 92.1C158 92.8 158.3 93.2 158.7 93.6Z" fill="#FF7700"/>
<path d="M149.301 112.3C148.801 112.8 148.601 113.5 148.801 114.1L152.001 129.9C152.101 130.2 152.001 130.4 151.801 130.6C151.601 130.8 151.401 130.9 151.101 130.9C151.001 130.9 150.901 130.9 150.701 130.8L136.201 123.7C135.901 123.6 135.601 123.5 135.301 123.5C135.001 123.5 134.601 123.6 134.301 123.8L120.201 131.7C120.101 131.8 119.901 131.8 119.801 131.8C119.601 131.8 119.301 131.7 119.201 131.5C119.101 131.3 119.001 131.1 119.001 130.8L121.301 114.8C121.401 114.2 121.201 113.5 120.701 113L108.901 102.1C108.701 101.9 108.601 101.6 108.701 101.3C108.801 101 109.001 100.7 109.301 100.7L125.201 97.9C125.801 97.8 126.401 97.4 126.701 96.8L133.501 82.1C133.601 81.8 133.901 81.6 134.301 81.6C134.601 81.6 134.901 81.8 135.001 82.1L142.501 96.4C142.801 97 143.401 97.4 144.001 97.5L146.901 97.8L146.701 98C141.001 102.8 140.701 103.1 139.501 104.4L139.001 104.8L138.901 104.7C137.201 102.9 136.101 101.7 135.301 100.7C133.701 98.9 133.301 98.5 132.401 98.3C132.101 98.2 131.701 98.2 131.401 98.2C131.101 98.2 131.001 98.2 130.801 98.2V98.3H130.701C130.401 98.4 130.301 98.5 129.401 99.3C128.901 99.8 128.201 100.4 127.101 101.5C126.701 101.9 126.601 102.6 127.001 103.1C129.601 106.1 131.601 107.9 133.901 110C135.001 111 136.201 112.1 137.601 113.4C137.701 113.5 137.701 113.5 137.901 113.6C138.101 113.7 138.301 113.7 138.501 113.7C138.901 113.7 139.401 113.5 139.601 113.3C144.001 109.3 149.801 104 155.801 98.8L160.101 99.3C160.401 99.3 160.701 99.6 160.801 99.9C160.901 100.2 160.801 100.5 160.601 100.7L149.301 112.3Z" fill="white"/>
</svg>
