<svg width="270" height="271" viewBox="0 0 270 271" fill="none" xmlns="http://www.w3.org/2000/svg">
<path d="M195.997 131.326C195.997 143.118 205.594 152.714 217.386 152.714C223.16 152.714 228.446 150.437 232.268 146.696V222.41C232.268 225.988 229.341 228.916 225.762 228.916H150.048C153.789 225.094 156.066 219.808 156.066 214.034C156.066 202.241 146.47 192.645 134.678 192.645C122.886 192.645 113.289 202.241 113.289 214.034C113.289 219.808 115.566 225.094 119.307 228.916H43.5936C40.0153 228.916 37.0876 225.988 37.0876 222.41V146.696C33.2653 150.437 27.9791 152.714 22.205 152.714C10.4128 152.714 0.816406 143.118 0.816406 131.326C0.816406 119.534 10.4128 109.937 22.205 109.937C27.9791 109.937 33.2653 112.214 37.0876 115.955V40.2414C37.0876 36.6631 40.0153 33.7354 43.5936 33.7354H119.307C115.566 37.5576 113.289 42.8438 113.289 48.6179C113.289 60.4101 122.886 70.0065 134.678 70.0065C146.47 70.0065 156.066 60.4101 156.066 48.6179C156.066 42.8438 153.789 37.5576 150.048 33.7354H225.762C229.341 33.7354 232.268 36.6631 232.268 40.2414V115.955C228.446 112.214 223.16 109.937 217.386 109.937C205.512 109.937 195.997 119.534 195.997 131.326Z" fill="#E8E8E8"/>
<path d="M91.3392 114.313C90.5292 114.313 89.7442 114.198 88.9842 113.968C88.2342 113.738 87.6392 113.433 87.1992 113.053L87.8742 111.538C88.3042 111.878 88.8292 112.158 89.4492 112.378C90.0792 112.588 90.7092 112.693 91.3392 112.693C92.1192 112.693 92.6992 112.568 93.0792 112.318C93.4692 112.068 93.6642 111.738 93.6642 111.328C93.6642 111.028 93.5542 110.783 93.3342 110.593C93.1242 110.393 92.8542 110.238 92.5242 110.128C92.1942 110.018 91.7442 109.893 91.1742 109.753C90.3742 109.563 89.7242 109.373 89.2242 109.183C88.7342 108.993 88.3092 108.698 87.9492 108.298C87.5992 107.888 87.4242 107.338 87.4242 106.648C87.4242 106.068 87.5792 105.543 87.8892 105.073C88.2092 104.593 88.6842 104.213 89.3142 103.933C89.9542 103.653 90.7342 103.513 91.6542 103.513C92.2942 103.513 92.9242 103.593 93.5442 103.753C94.1642 103.913 94.6992 104.143 95.1492 104.443L94.5342 105.958C94.0742 105.688 93.5942 105.483 93.0942 105.343C92.5942 105.203 92.1092 105.133 91.6392 105.133C90.8692 105.133 90.2942 105.263 89.9142 105.523C89.5442 105.783 89.3592 106.128 89.3592 106.558C89.3592 106.858 89.4642 107.103 89.6742 107.293C89.8942 107.483 90.1692 107.633 90.4992 107.743C90.8292 107.853 91.2792 107.978 91.8492 108.118C92.6292 108.298 93.2692 108.488 93.7692 108.688C94.2692 108.878 94.6942 109.173 95.0442 109.573C95.4042 109.973 95.5842 110.513 95.5842 111.193C95.5842 111.773 95.4242 112.298 95.1042 112.768C94.7942 113.238 94.3192 113.613 93.6792 113.893C93.0392 114.173 92.2592 114.313 91.3392 114.313Z" fill="#262626"/>
<path d="M105.093 106.153V112.948C105.093 115.768 103.708 117.178 100.938 117.178C100.208 117.178 99.5078 117.078 98.8378 116.878C98.1778 116.688 97.6328 116.408 97.2028 116.038L98.0428 114.628C98.3828 114.918 98.7978 115.148 99.2878 115.318C99.7778 115.488 100.293 115.573 100.833 115.573C101.653 115.573 102.253 115.373 102.633 114.973C103.023 114.583 103.218 113.978 103.218 113.158V112.783C102.918 113.113 102.553 113.368 102.123 113.548C101.693 113.718 101.228 113.803 100.728 113.803C99.6578 113.803 98.8128 113.508 98.1928 112.918C97.5828 112.328 97.2778 111.443 97.2778 110.263V106.153H99.1528V110.023C99.1528 110.733 99.3128 111.268 99.6328 111.628C99.9628 111.978 100.428 112.153 101.028 112.153C101.698 112.153 102.228 111.948 102.618 111.538C103.018 111.128 103.218 110.533 103.218 109.753V106.153H105.093Z" fill="#262626"/>
<path d="M112.093 106.063C113.103 106.063 113.913 106.358 114.523 106.948C115.133 107.538 115.438 108.413 115.438 109.573V114.163H113.563V109.813C113.563 109.113 113.398 108.588 113.068 108.238C112.738 107.878 112.268 107.698 111.658 107.698C110.968 107.698 110.423 107.908 110.023 108.328C109.623 108.738 109.423 109.333 109.423 110.113V114.163H107.548V106.153H109.333V107.188C109.643 106.818 110.033 106.538 110.503 106.348C110.973 106.158 111.503 106.063 112.093 106.063Z" fill="#262626"/>
<path d="M121.565 114.268C120.735 114.268 119.99 114.093 119.33 113.743C118.67 113.393 118.155 112.908 117.785 112.288C117.415 111.658 117.23 110.948 117.23 110.158C117.23 109.368 117.415 108.663 117.785 108.043C118.155 107.423 118.665 106.938 119.315 106.588C119.975 106.238 120.725 106.063 121.565 106.063C122.355 106.063 123.045 106.223 123.635 106.543C124.235 106.863 124.685 107.323 124.985 107.923L123.545 108.763C123.315 108.393 123.025 108.118 122.675 107.938C122.335 107.748 121.96 107.653 121.55 107.653C120.85 107.653 120.27 107.883 119.81 108.343C119.35 108.793 119.12 109.398 119.12 110.158C119.12 110.918 119.345 111.528 119.795 111.988C120.255 112.438 120.84 112.663 121.55 112.663C121.96 112.663 122.335 112.573 122.675 112.393C123.025 112.203 123.315 111.923 123.545 111.553L124.985 112.393C124.675 112.993 124.22 113.458 123.62 113.788C123.03 114.108 122.345 114.268 121.565 114.268Z" fill="#262626"/>
<path d="M131.077 106.063C132.087 106.063 132.897 106.358 133.507 106.948C134.117 107.538 134.422 108.413 134.422 109.573V114.163H132.547V109.813C132.547 109.113 132.382 108.588 132.052 108.238C131.722 107.878 131.252 107.698 130.642 107.698C129.952 107.698 129.407 107.908 129.007 108.328C128.607 108.738 128.407 109.333 128.407 110.113V114.163H126.532V103.033H128.407V107.083C128.717 106.753 129.097 106.503 129.547 106.333C130.007 106.153 130.517 106.063 131.077 106.063Z" fill="#262626"/>
<path d="M138.586 107.323C139.126 106.483 140.076 106.063 141.436 106.063V107.848C141.276 107.818 141.131 107.803 141.001 107.803C140.271 107.803 139.701 108.018 139.291 108.448C138.881 108.868 138.676 109.478 138.676 110.278V114.163H136.801V106.153H138.586V107.323Z" fill="#262626"/>
<path d="M146.553 114.268C145.743 114.268 145.013 114.093 144.363 113.743C143.713 113.393 143.203 112.908 142.833 112.288C142.473 111.658 142.293 110.948 142.293 110.158C142.293 109.368 142.473 108.663 142.833 108.043C143.203 107.423 143.713 106.938 144.363 106.588C145.013 106.238 145.743 106.063 146.553 106.063C147.373 106.063 148.108 106.238 148.758 106.588C149.408 106.938 149.913 107.423 150.273 108.043C150.643 108.663 150.828 109.368 150.828 110.158C150.828 110.948 150.643 111.658 150.273 112.288C149.913 112.908 149.408 113.393 148.758 113.743C148.108 114.093 147.373 114.268 146.553 114.268ZM146.553 112.663C147.243 112.663 147.813 112.433 148.263 111.973C148.713 111.513 148.938 110.908 148.938 110.158C148.938 109.408 148.713 108.803 148.263 108.343C147.813 107.883 147.243 107.653 146.553 107.653C145.863 107.653 145.293 107.883 144.843 108.343C144.403 108.803 144.183 109.408 144.183 110.158C144.183 110.908 144.403 111.513 144.843 111.973C145.293 112.433 145.863 112.663 146.553 112.663Z" fill="#262626"/>
<path d="M157.166 106.063C158.176 106.063 158.986 106.358 159.596 106.948C160.206 107.538 160.511 108.413 160.511 109.573V114.163H158.636V109.813C158.636 109.113 158.471 108.588 158.141 108.238C157.811 107.878 157.341 107.698 156.731 107.698C156.041 107.698 155.496 107.908 155.096 108.328C154.696 108.738 154.496 109.333 154.496 110.113V114.163H152.621V106.153H154.406V107.188C154.716 106.818 155.106 106.538 155.576 106.348C156.046 106.158 156.576 106.063 157.166 106.063Z" fill="#262626"/>
<path d="M162.89 106.153H164.765V114.163H162.89V106.153ZM163.835 104.833C163.495 104.833 163.21 104.728 162.98 104.518C162.75 104.298 162.635 104.028 162.635 103.708C162.635 103.388 162.75 103.123 162.98 102.913C163.21 102.693 163.495 102.583 163.835 102.583C164.175 102.583 164.46 102.688 164.69 102.898C164.92 103.098 165.035 103.353 165.035 103.663C165.035 103.993 164.92 104.273 164.69 104.503C164.47 104.723 164.185 104.833 163.835 104.833Z" fill="#262626"/>
<path d="M173.556 112.663V114.163H166.641V112.978L168.441 110.803H167.196V109.423H169.581L171.036 107.653H166.731V106.153H173.436V107.338L171.696 109.438H172.986V110.818H170.556L169.026 112.663H173.556Z" fill="#262626"/>
<path d="M179.048 112.678C179.918 112.678 180.643 112.388 181.223 111.808L182.213 112.963C181.863 113.393 181.413 113.718 180.863 113.938C180.313 114.158 179.693 114.268 179.003 114.268C178.123 114.268 177.348 114.093 176.678 113.743C176.008 113.393 175.488 112.908 175.118 112.288C174.758 111.658 174.578 110.948 174.578 110.158C174.578 109.378 174.753 108.678 175.103 108.058C175.463 107.428 175.953 106.938 176.573 106.588C177.203 106.238 177.913 106.063 178.703 106.063C179.453 106.063 180.133 106.228 180.743 106.558C181.363 106.878 181.853 107.343 182.213 107.953C182.573 108.553 182.753 109.258 182.753 110.068L176.618 111.268C176.808 111.728 177.113 112.078 177.533 112.318C177.953 112.558 178.458 112.678 179.048 112.678ZM178.703 107.563C178.013 107.563 177.453 107.788 177.023 108.238C176.603 108.688 176.393 109.293 176.393 110.053V110.068L180.923 109.198C180.793 108.708 180.528 108.313 180.128 108.013C179.738 107.713 179.263 107.563 178.703 107.563Z" fill="#262626"/>
<path d="M98.9711 129.153L95.5361 137.163H93.6011L90.1661 129.153H92.1161L94.6061 135.093L97.1711 129.153H98.9711Z" fill="#262626"/>
<path d="M100.143 129.153H102.018V137.163H100.143V129.153ZM101.088 127.833C100.748 127.833 100.463 127.728 100.233 127.518C100.003 127.298 99.888 127.028 99.888 126.708C99.888 126.388 100.003 126.123 100.233 125.913C100.463 125.693 100.748 125.583 101.088 125.583C101.428 125.583 101.713 125.688 101.943 125.898C102.173 126.098 102.288 126.353 102.288 126.663C102.288 126.993 102.173 127.273 101.943 127.503C101.723 127.723 101.438 127.833 101.088 127.833Z" fill="#262626"/>
<path d="M112.324 126.033V137.163H110.524V136.128C110.214 136.508 109.829 136.793 109.369 136.983C108.919 137.173 108.419 137.268 107.869 137.268C107.099 137.268 106.404 137.098 105.784 136.758C105.174 136.418 104.694 135.938 104.344 135.318C103.994 134.688 103.819 133.968 103.819 133.158C103.819 132.348 103.994 131.633 104.344 131.013C104.694 130.393 105.174 129.913 105.784 129.573C106.404 129.233 107.099 129.063 107.869 129.063C108.399 129.063 108.884 129.153 109.324 129.333C109.764 129.513 110.139 129.783 110.449 130.143V126.033H112.324ZM108.094 135.663C108.544 135.663 108.949 135.563 109.309 135.363C109.669 135.153 109.954 134.858 110.164 134.478C110.374 134.098 110.479 133.658 110.479 133.158C110.479 132.658 110.374 132.218 110.164 131.838C109.954 131.458 109.669 131.168 109.309 130.968C108.949 130.758 108.544 130.653 108.094 130.653C107.644 130.653 107.239 130.758 106.879 130.968C106.519 131.168 106.234 131.458 106.024 131.838C105.814 132.218 105.709 132.658 105.709 133.158C105.709 133.658 105.814 134.098 106.024 134.478C106.234 134.858 106.519 135.153 106.879 135.363C107.239 135.563 107.644 135.663 108.094 135.663Z" fill="#262626"/>
<path d="M118.587 135.678C119.457 135.678 120.182 135.388 120.762 134.808L121.752 135.963C121.402 136.393 120.952 136.718 120.402 136.938C119.852 137.158 119.232 137.268 118.542 137.268C117.662 137.268 116.887 137.093 116.217 136.743C115.547 136.393 115.027 135.908 114.657 135.288C114.297 134.658 114.117 133.948 114.117 133.158C114.117 132.378 114.292 131.678 114.642 131.058C115.002 130.428 115.492 129.938 116.112 129.588C116.742 129.238 117.452 129.063 118.242 129.063C118.992 129.063 119.672 129.228 120.282 129.558C120.902 129.878 121.392 130.343 121.752 130.953C122.112 131.553 122.292 132.258 122.292 133.068L116.157 134.268C116.347 134.728 116.652 135.078 117.072 135.318C117.492 135.558 117.997 135.678 118.587 135.678ZM118.242 130.563C117.552 130.563 116.992 130.788 116.562 131.238C116.142 131.688 115.932 132.293 115.932 133.053V133.068L120.462 132.198C120.332 131.708 120.067 131.313 119.667 131.013C119.277 130.713 118.802 130.563 118.242 130.563Z" fill="#262626"/>
<path d="M127.693 137.268C126.883 137.268 126.153 137.093 125.503 136.743C124.853 136.393 124.343 135.908 123.973 135.288C123.613 134.658 123.433 133.948 123.433 133.158C123.433 132.368 123.613 131.663 123.973 131.043C124.343 130.423 124.853 129.938 125.503 129.588C126.153 129.238 126.883 129.063 127.693 129.063C128.513 129.063 129.248 129.238 129.898 129.588C130.548 129.938 131.053 130.423 131.413 131.043C131.783 131.663 131.968 132.368 131.968 133.158C131.968 133.948 131.783 134.658 131.413 135.288C131.053 135.908 130.548 136.393 129.898 136.743C129.248 137.093 128.513 137.268 127.693 137.268ZM127.693 135.663C128.383 135.663 128.953 135.433 129.403 134.973C129.853 134.513 130.078 133.908 130.078 133.158C130.078 132.408 129.853 131.803 129.403 131.343C128.953 130.883 128.383 130.653 127.693 130.653C127.003 130.653 126.433 130.883 125.983 131.343C125.543 131.803 125.323 132.408 125.323 133.158C125.323 133.908 125.543 134.513 125.983 134.973C126.433 135.433 127.003 135.663 127.693 135.663Z" fill="#262626"/>
<path d="M136.236 137.268C135.586 137.268 134.951 137.183 134.331 137.013C133.711 136.843 133.216 136.628 132.846 136.368L133.566 134.943C133.926 135.183 134.356 135.378 134.856 135.528C135.366 135.668 135.866 135.738 136.356 135.738C137.476 135.738 138.036 135.443 138.036 134.853C138.036 134.573 137.891 134.378 137.601 134.268C137.321 134.158 136.866 134.053 136.236 133.953C135.576 133.853 135.036 133.738 134.616 133.608C134.206 133.478 133.846 133.253 133.536 132.933C133.236 132.603 133.086 132.148 133.086 131.568C133.086 130.808 133.401 130.203 134.031 129.753C134.671 129.293 135.531 129.063 136.611 129.063C137.161 129.063 137.711 129.128 138.261 129.258C138.811 129.378 139.261 129.543 139.611 129.753L138.891 131.178C138.211 130.778 137.446 130.578 136.596 130.578C136.046 130.578 135.626 130.663 135.336 130.833C135.056 130.993 134.916 131.208 134.916 131.478C134.916 131.778 135.066 131.993 135.366 132.123C135.676 132.243 136.151 132.358 136.791 132.468C137.431 132.568 137.956 132.683 138.366 132.813C138.776 132.943 139.126 133.163 139.416 133.473C139.716 133.783 139.866 134.223 139.866 134.793C139.866 135.543 139.541 136.143 138.891 136.593C138.241 137.043 137.356 137.268 136.236 137.268Z" fill="#262626"/>
<path d="M157.941 129.153V133.578C157.941 134.748 157.636 135.658 157.026 136.308C156.416 136.948 155.541 137.268 154.401 137.268C153.171 137.268 152.286 136.853 151.746 136.023C151.466 136.443 151.106 136.758 150.666 136.968C150.236 137.168 149.711 137.268 149.091 137.268C147.951 137.268 147.076 136.948 146.466 136.308C145.866 135.658 145.566 134.748 145.566 133.578V129.153H147.441V133.413C147.441 134.173 147.571 134.733 147.831 135.093C148.101 135.453 148.526 135.633 149.106 135.633C149.686 135.633 150.116 135.453 150.396 135.093C150.676 134.723 150.816 134.163 150.816 133.413V129.153H152.691V133.413C152.691 134.163 152.831 134.723 153.111 135.093C153.391 135.453 153.821 135.633 154.401 135.633C154.981 135.633 155.401 135.453 155.661 135.093C155.931 134.733 156.066 134.173 156.066 133.413V129.153H157.941Z" fill="#262626"/>
<path d="M160.333 129.153H162.208V137.163H160.333V129.153ZM161.278 127.833C160.938 127.833 160.653 127.728 160.423 127.518C160.193 127.298 160.078 127.028 160.078 126.708C160.078 126.388 160.193 126.123 160.423 125.913C160.653 125.693 160.938 125.583 161.278 125.583C161.618 125.583 161.903 125.688 162.133 125.898C162.363 126.098 162.478 126.353 162.478 126.663C162.478 126.993 162.363 127.273 162.133 127.503C161.913 127.723 161.628 127.833 161.278 127.833Z" fill="#262626"/>
<path d="M169.169 136.728C168.949 136.908 168.679 137.043 168.359 137.133C168.049 137.223 167.719 137.268 167.369 137.268C166.489 137.268 165.809 137.038 165.329 136.578C164.849 136.118 164.609 135.448 164.609 134.568V127.383H166.484V129.213H168.629V130.713H166.484V134.523C166.484 134.913 166.579 135.213 166.769 135.423C166.969 135.623 167.244 135.723 167.594 135.723C168.014 135.723 168.364 135.613 168.644 135.393L169.169 136.728Z" fill="#262626"/>
<path d="M175.264 129.063C176.274 129.063 177.084 129.358 177.694 129.948C178.304 130.538 178.609 131.413 178.609 132.573V137.163H176.734V132.813C176.734 132.113 176.569 131.588 176.239 131.238C175.909 130.878 175.439 130.698 174.829 130.698C174.139 130.698 173.594 130.908 173.194 131.328C172.794 131.738 172.594 132.333 172.594 133.113V137.163H170.719V126.033H172.594V130.083C172.904 129.753 173.284 129.503 173.734 129.333C174.194 129.153 174.704 129.063 175.264 129.063Z" fill="#262626"/>
<path d="M99.037 160.313C98.227 160.313 97.442 160.198 96.682 159.968C95.932 159.738 95.337 159.433 94.897 159.053L95.572 157.538C96.002 157.878 96.527 158.158 97.147 158.378C97.777 158.588 98.407 158.693 99.037 158.693C99.817 158.693 100.397 158.568 100.777 158.318C101.167 158.068 101.362 157.738 101.362 157.328C101.362 157.028 101.252 156.783 101.032 156.593C100.822 156.393 100.552 156.238 100.222 156.128C99.892 156.018 99.442 155.893 98.872 155.753C98.072 155.563 97.422 155.373 96.922 155.183C96.432 154.993 96.007 154.698 95.647 154.298C95.297 153.888 95.122 153.338 95.122 152.648C95.122 152.068 95.277 151.543 95.587 151.073C95.907 150.593 96.382 150.213 97.012 149.933C97.652 149.653 98.432 149.513 99.352 149.513C99.992 149.513 100.622 149.593 101.242 149.753C101.862 149.913 102.397 150.143 102.847 150.443L102.232 151.958C101.772 151.688 101.292 151.483 100.792 151.343C100.292 151.203 99.807 151.133 99.337 151.133C98.567 151.133 97.992 151.263 97.612 151.523C97.242 151.783 97.057 152.128 97.057 152.558C97.057 152.858 97.162 153.103 97.372 153.293C97.592 153.483 97.867 153.633 98.197 153.743C98.527 153.853 98.977 153.978 99.547 154.118C100.327 154.298 100.967 154.488 101.467 154.688C101.967 154.878 102.392 155.173 102.742 155.573C103.102 155.973 103.282 156.513 103.282 157.193C103.282 157.773 103.122 158.298 102.802 158.768C102.492 159.238 102.017 159.613 101.377 159.893C100.737 160.173 99.957 160.313 99.037 160.313Z" fill="#262626"/>
<path d="M112.791 152.153V158.948C112.791 161.768 111.406 163.178 108.636 163.178C107.906 163.178 107.206 163.078 106.536 162.878C105.876 162.688 105.331 162.408 104.901 162.038L105.741 160.628C106.081 160.918 106.496 161.148 106.986 161.318C107.476 161.488 107.991 161.573 108.531 161.573C109.351 161.573 109.951 161.373 110.331 160.973C110.721 160.583 110.916 159.978 110.916 159.158V158.783C110.616 159.113 110.251 159.368 109.821 159.548C109.391 159.718 108.926 159.803 108.426 159.803C107.356 159.803 106.511 159.508 105.891 158.918C105.281 158.328 104.976 157.443 104.976 156.263V152.153H106.851V156.023C106.851 156.733 107.011 157.268 107.331 157.628C107.661 157.978 108.126 158.153 108.726 158.153C109.396 158.153 109.926 157.948 110.316 157.538C110.716 157.128 110.916 156.533 110.916 155.753V152.153H112.791Z" fill="#262626"/>
<path d="M119.791 152.063C120.801 152.063 121.611 152.358 122.221 152.948C122.831 153.538 123.136 154.413 123.136 155.573V160.163H121.261V155.813C121.261 155.113 121.096 154.588 120.766 154.238C120.436 153.878 119.966 153.698 119.356 153.698C118.666 153.698 118.121 153.908 117.721 154.328C117.321 154.738 117.121 155.333 117.121 156.113V160.163H115.246V152.153H117.031V153.188C117.341 152.818 117.731 152.538 118.201 152.348C118.671 152.158 119.201 152.063 119.791 152.063Z" fill="#262626"/>
<path d="M129.262 160.268C128.432 160.268 127.687 160.093 127.027 159.743C126.367 159.393 125.852 158.908 125.482 158.288C125.112 157.658 124.927 156.948 124.927 156.158C124.927 155.368 125.112 154.663 125.482 154.043C125.852 153.423 126.362 152.938 127.012 152.588C127.672 152.238 128.422 152.063 129.262 152.063C130.052 152.063 130.742 152.223 131.332 152.543C131.932 152.863 132.382 153.323 132.682 153.923L131.242 154.763C131.012 154.393 130.722 154.118 130.372 153.938C130.032 153.748 129.657 153.653 129.247 153.653C128.547 153.653 127.967 153.883 127.507 154.343C127.047 154.793 126.817 155.398 126.817 156.158C126.817 156.918 127.042 157.528 127.492 157.988C127.952 158.438 128.537 158.663 129.247 158.663C129.657 158.663 130.032 158.573 130.372 158.393C130.722 158.203 131.012 157.923 131.242 157.553L132.682 158.393C132.372 158.993 131.917 159.458 131.317 159.788C130.727 160.108 130.042 160.268 129.262 160.268Z" fill="#262626"/>
<path d="M142.016 152.153V160.163H140.231V159.128C139.921 159.508 139.536 159.793 139.076 159.983C138.626 160.173 138.126 160.268 137.576 160.268C136.796 160.268 136.096 160.098 135.476 159.758C134.866 159.418 134.386 158.938 134.036 158.318C133.696 157.698 133.526 156.978 133.526 156.158C133.526 155.338 133.696 154.623 134.036 154.013C134.386 153.393 134.866 152.913 135.476 152.573C136.096 152.233 136.796 152.063 137.576 152.063C138.096 152.063 138.571 152.153 139.001 152.333C139.441 152.513 139.821 152.778 140.141 153.128V152.153H142.016ZM137.786 158.663C138.476 158.663 139.046 158.433 139.496 157.973C139.946 157.513 140.171 156.908 140.171 156.158C140.171 155.408 139.946 154.803 139.496 154.343C139.046 153.883 138.476 153.653 137.786 153.653C137.096 153.653 136.526 153.883 136.076 154.343C135.636 154.803 135.416 155.408 135.416 156.158C135.416 156.908 135.636 157.513 136.076 157.973C136.526 158.433 137.096 158.663 137.786 158.663Z" fill="#262626"/>
<path d="M144.469 152.153H146.344V160.163H144.469V152.153ZM145.414 150.833C145.074 150.833 144.789 150.728 144.559 150.518C144.329 150.298 144.214 150.028 144.214 149.708C144.214 149.388 144.329 149.123 144.559 148.913C144.789 148.693 145.074 148.583 145.414 148.583C145.754 148.583 146.039 148.688 146.269 148.898C146.499 149.098 146.614 149.353 146.614 149.663C146.614 149.993 146.499 150.273 146.269 150.503C146.049 150.723 145.764 150.833 145.414 150.833Z" fill="#262626"/>
<path d="M151.445 160.268C150.615 160.268 149.965 160.043 149.495 159.593C149.035 159.133 148.805 158.488 148.805 157.658V149.033H150.68V157.523C150.68 158.323 151.055 158.723 151.805 158.723C152.055 158.723 152.28 158.673 152.48 158.573L152.57 160.073C152.22 160.203 151.845 160.268 151.445 160.268Z" fill="#262626"/>
<path d="M161.528 152.153V160.163H159.743V159.128C159.433 159.508 159.048 159.793 158.588 159.983C158.138 160.173 157.638 160.268 157.088 160.268C156.308 160.268 155.608 160.098 154.988 159.758C154.378 159.418 153.898 158.938 153.548 158.318C153.208 157.698 153.038 156.978 153.038 156.158C153.038 155.338 153.208 154.623 153.548 154.013C153.898 153.393 154.378 152.913 154.988 152.573C155.608 152.233 156.308 152.063 157.088 152.063C157.608 152.063 158.083 152.153 158.513 152.333C158.953 152.513 159.333 152.778 159.653 153.128V152.153H161.528ZM157.298 158.663C157.988 158.663 158.558 158.433 159.008 157.973C159.458 157.513 159.683 156.908 159.683 156.158C159.683 155.408 159.458 154.803 159.008 154.343C158.558 153.883 157.988 153.653 157.298 153.653C156.608 153.653 156.038 153.883 155.588 154.343C155.148 154.803 154.928 155.408 154.928 156.158C154.928 156.908 155.148 157.513 155.588 157.973C156.038 158.433 156.608 158.663 157.298 158.663Z" fill="#262626"/>
<path d="M175.161 158.513V160.163H167.421V158.858L171.591 154.898C172.061 154.448 172.376 154.058 172.536 153.728C172.706 153.388 172.791 153.053 172.791 152.723C172.791 152.233 172.626 151.858 172.296 151.598C171.966 151.338 171.481 151.208 170.841 151.208C169.771 151.208 168.951 151.573 168.381 152.303L167.016 151.253C167.426 150.703 167.976 150.278 168.666 149.978C169.366 149.668 170.146 149.513 171.006 149.513C172.146 149.513 173.056 149.783 173.736 150.323C174.416 150.863 174.756 151.598 174.756 152.528C174.756 153.098 174.636 153.633 174.396 154.133C174.156 154.633 173.696 155.203 173.016 155.843L170.211 158.513H175.161Z" fill="#262626"/>
</svg>
