<svg width="270" height="271" viewBox="0 0 270 271" fill="none" xmlns="http://www.w3.org/2000/svg">
<path d="M268.616 135.163C268.616 146.955 259.019 156.551 247.227 156.551C241.453 156.551 236.248 154.274 232.345 150.533V226.247C232.345 229.825 229.417 232.753 225.839 232.753H150.125C153.866 236.575 156.143 241.862 156.143 247.636C156.143 259.428 146.547 269.024 134.754 269.024C122.962 269.024 113.366 259.428 113.366 247.636C113.366 241.862 115.643 236.575 119.384 232.753H43.6701C40.0918 232.753 37.1641 229.825 37.1641 226.247V150.533C40.9864 154.274 46.2725 156.551 52.0466 156.551C63.8388 156.551 73.4352 146.955 73.4352 135.163C73.4352 123.371 63.8388 113.856 52.0466 113.856C46.2725 113.856 41.0677 116.133 37.1641 119.874V44.1597C37.1641 40.5814 40.0918 37.6537 43.6701 37.6537H119.384C115.643 41.476 113.366 46.7622 113.366 52.5363C113.366 64.3284 122.962 73.9248 134.754 73.9248C146.547 73.9248 156.143 64.3284 156.143 52.5363C156.143 46.7622 153.866 41.476 150.125 37.6537H225.839C229.417 37.6537 232.345 40.5814 232.345 44.1597V119.874C236.167 116.133 241.453 113.856 247.227 113.856C259.019 113.856 268.616 123.371 268.616 135.163Z" fill="#FF7700"/>
<path d="M95.7375 104.67C95.2675 105.04 94.6625 105.325 93.9225 105.525C93.1825 105.725 92.3825 105.825 91.5225 105.825C90.5125 105.825 89.6525 105.695 88.9425 105.435C88.2425 105.175 87.7125 104.815 87.3525 104.355C86.9925 103.895 86.8125 103.365 86.8125 102.765C86.8125 102.185 86.9725 101.68 87.2925 101.25C87.6125 100.82 88.0425 100.505 88.5825 100.305C88.1725 100.085 87.8475 99.7795 87.6075 99.3895C87.3775 98.9895 87.2625 98.5445 87.2625 98.0545C87.2625 97.4945 87.4275 96.9895 87.7575 96.5395C88.0975 96.0795 88.6025 95.7145 89.2725 95.4445C89.9425 95.1645 90.7675 95.0245 91.7475 95.0245C92.4075 95.0245 93.0525 95.0945 93.6825 95.2345C94.3125 95.3745 94.8625 95.5645 95.3325 95.8045L94.7775 97.3495C93.8975 96.8895 92.9125 96.6595 91.8225 96.6595C90.9625 96.6595 90.3125 96.7995 89.8725 97.0795C89.4425 97.3495 89.2275 97.7145 89.2275 98.1745C89.2275 98.6245 89.3875 98.9695 89.7075 99.2095C90.0275 99.4395 90.4975 99.5545 91.1175 99.5545H93.8925V101.175H91.0125C90.3025 101.175 89.7525 101.3 89.3625 101.55C88.9725 101.79 88.7775 102.15 88.7775 102.63C88.7775 103.11 89.0125 103.49 89.4825 103.77C89.9525 104.05 90.6625 104.19 91.6125 104.19C92.2725 104.19 92.9125 104.1 93.5325 103.92C94.1625 103.74 94.6875 103.49 95.1075 103.17L95.7375 104.67Z" fill="white"/>
<path d="M104.924 94.5445V105.675H103.124V104.64C102.814 105.02 102.429 105.305 101.969 105.495C101.519 105.685 101.019 105.78 100.469 105.78C99.6994 105.78 99.0044 105.61 98.3844 105.27C97.7744 104.93 97.2944 104.45 96.9444 103.83C96.5944 103.2 96.4194 102.48 96.4194 101.67C96.4194 100.86 96.5944 100.145 96.9444 99.5245C97.2944 98.9045 97.7744 98.4245 98.3844 98.0845C99.0044 97.7445 99.6994 97.5745 100.469 97.5745C100.999 97.5745 101.484 97.6645 101.924 97.8445C102.364 98.0245 102.739 98.2945 103.049 98.6545V94.5445H104.924ZM100.694 104.175C101.144 104.175 101.549 104.075 101.909 103.875C102.269 103.665 102.554 103.37 102.764 102.99C102.974 102.61 103.079 102.17 103.079 101.67C103.079 101.17 102.974 100.73 102.764 100.35C102.554 99.9695 102.269 99.6795 101.909 99.4795C101.549 99.2695 101.144 99.1645 100.694 99.1645C100.244 99.1645 99.8394 99.2695 99.4794 99.4795C99.1194 99.6795 98.8344 99.9695 98.6244 100.35C98.4144 100.73 98.3094 101.17 98.3094 101.67C98.3094 102.17 98.4144 102.61 98.6244 102.99C98.8344 103.37 99.1194 103.665 99.4794 103.875C99.8394 104.075 100.244 104.175 100.694 104.175Z" fill="white"/>
<path d="M107.377 97.6645H109.252V105.675H107.377V97.6645ZM108.322 96.3445C107.982 96.3445 107.697 96.2395 107.467 96.0295C107.237 95.8095 107.122 95.5395 107.122 95.2195C107.122 94.8995 107.237 94.6345 107.467 94.4245C107.697 94.2045 107.982 94.0945 108.322 94.0945C108.662 94.0945 108.947 94.1995 109.177 94.4095C109.407 94.6095 109.522 94.8645 109.522 95.1745C109.522 95.5045 109.407 95.7845 109.177 96.0145C108.957 96.2345 108.672 96.3445 108.322 96.3445Z" fill="white"/>
<path d="M116.213 105.24C115.993 105.42 115.723 105.555 115.403 105.645C115.093 105.735 114.763 105.78 114.413 105.78C113.533 105.78 112.853 105.55 112.373 105.09C111.893 104.63 111.653 103.96 111.653 103.08V95.8945H113.528V97.7245H115.673V99.2245H113.528V103.035C113.528 103.425 113.623 103.725 113.813 103.935C114.013 104.135 114.288 104.235 114.638 104.235C115.058 104.235 115.408 104.125 115.688 103.905L116.213 105.24Z" fill="white"/>
<path d="M117.763 97.6645H119.638V105.675H117.763V97.6645ZM118.708 96.3445C118.368 96.3445 118.083 96.2395 117.853 96.0295C117.623 95.8095 117.508 95.5395 117.508 95.2195C117.508 94.8995 117.623 94.6345 117.853 94.4245C118.083 94.2045 118.368 94.0945 118.708 94.0945C119.048 94.0945 119.333 94.1995 119.563 94.4095C119.793 94.6095 119.908 94.8645 119.908 95.1745C119.908 95.5045 119.793 95.7845 119.563 96.0145C119.343 96.2345 119.058 96.3445 118.708 96.3445Z" fill="white"/>
<path d="M126.644 97.5745C127.654 97.5745 128.464 97.8695 129.074 98.4595C129.684 99.0495 129.989 99.9245 129.989 101.085V105.675H128.114V101.325C128.114 100.625 127.949 100.1 127.619 99.7495C127.289 99.3895 126.819 99.2095 126.209 99.2095C125.519 99.2095 124.974 99.4195 124.574 99.8395C124.174 100.25 123.974 100.845 123.974 101.625V105.675H122.099V97.6645H123.884V98.6995C124.194 98.3295 124.584 98.0495 125.054 97.8595C125.524 97.6695 126.054 97.5745 126.644 97.5745Z" fill="white"/>
<path d="M140.391 97.6645V104.46C140.391 107.28 138.951 108.69 136.071 108.69C135.301 108.69 134.571 108.59 133.881 108.39C133.191 108.2 132.621 107.92 132.171 107.55L133.011 106.14C133.361 106.43 133.801 106.66 134.331 106.83C134.871 107.01 135.416 107.1 135.966 107.1C136.846 107.1 137.491 106.9 137.901 106.5C138.311 106.1 138.516 105.49 138.516 104.67V104.25C138.196 104.6 137.806 104.865 137.346 105.045C136.886 105.225 136.381 105.315 135.831 105.315C135.071 105.315 134.381 105.155 133.761 104.835C133.151 104.505 132.666 104.045 132.306 103.455C131.956 102.865 131.781 102.19 131.781 101.43C131.781 100.67 131.956 99.9995 132.306 99.4195C132.666 98.8295 133.151 98.3745 133.761 98.0545C134.381 97.7345 135.071 97.5745 135.831 97.5745C136.411 97.5745 136.936 97.6695 137.406 97.8595C137.886 98.0495 138.286 98.3395 138.606 98.7295V97.6645H140.391ZM136.116 103.725C136.826 103.725 137.406 103.515 137.856 103.095C138.316 102.665 138.546 102.11 138.546 101.43C138.546 100.76 138.316 100.215 137.856 99.7945C137.406 99.3745 136.826 99.1645 136.116 99.1645C135.396 99.1645 134.806 99.3745 134.346 99.7945C133.896 100.215 133.671 100.76 133.671 101.43C133.671 102.11 133.896 102.665 134.346 103.095C134.806 103.515 135.396 103.725 136.116 103.725Z" fill="white"/>
<path d="M154.756 97.6645V105.675H152.971V104.655C152.671 105.015 152.296 105.295 151.846 105.495C151.396 105.685 150.911 105.78 150.391 105.78C149.321 105.78 148.476 105.485 147.856 104.895C147.246 104.295 146.941 103.41 146.941 102.24V97.6645H148.816V101.985C148.816 102.705 148.976 103.245 149.296 103.605C149.626 103.955 150.091 104.13 150.691 104.13C151.361 104.13 151.891 103.925 152.281 103.515C152.681 103.095 152.881 102.495 152.881 101.715V97.6645H154.756Z" fill="white"/>
<path d="M161.651 97.5745C162.431 97.5745 163.126 97.7445 163.736 98.0845C164.356 98.4245 164.841 98.9045 165.191 99.5245C165.541 100.145 165.716 100.86 165.716 101.67C165.716 102.48 165.541 103.2 165.191 103.83C164.841 104.45 164.356 104.93 163.736 105.27C163.126 105.61 162.431 105.78 161.651 105.78C160.571 105.78 159.716 105.42 159.086 104.7V108.585H157.211V97.6645H158.996V98.7145C159.306 98.3345 159.686 98.0495 160.136 97.8595C160.596 97.6695 161.101 97.5745 161.651 97.5745ZM161.441 104.175C162.131 104.175 162.696 103.945 163.136 103.485C163.586 103.025 163.811 102.42 163.811 101.67C163.811 100.92 163.586 100.315 163.136 99.8545C162.696 99.3945 162.131 99.1645 161.441 99.1645C160.991 99.1645 160.586 99.2695 160.226 99.4795C159.866 99.6795 159.581 99.9695 159.371 100.35C159.161 100.73 159.056 101.17 159.056 101.67C159.056 102.17 159.161 102.61 159.371 102.99C159.581 103.37 159.866 103.665 160.226 103.875C160.586 104.075 160.991 104.175 161.441 104.175Z" fill="white"/>
<path d="M176.14 105.24C175.92 105.42 175.65 105.555 175.33 105.645C175.02 105.735 174.69 105.78 174.34 105.78C173.46 105.78 172.78 105.55 172.3 105.09C171.82 104.63 171.58 103.96 171.58 103.08V95.8945H173.455V97.7245H175.6V99.2245H173.455V103.035C173.455 103.425 173.55 103.725 173.74 103.935C173.94 104.135 174.215 104.235 174.565 104.235C174.985 104.235 175.335 104.125 175.615 103.905L176.14 105.24Z" fill="white"/>
<path d="M181.026 105.78C180.216 105.78 179.486 105.605 178.836 105.255C178.186 104.905 177.676 104.42 177.306 103.8C176.946 103.17 176.766 102.46 176.766 101.67C176.766 100.88 176.946 100.175 177.306 99.5545C177.676 98.9345 178.186 98.4495 178.836 98.0995C179.486 97.7495 180.216 97.5745 181.026 97.5745C181.846 97.5745 182.581 97.7495 183.231 98.0995C183.881 98.4495 184.386 98.9345 184.746 99.5545C185.116 100.175 185.301 100.88 185.301 101.67C185.301 102.46 185.116 103.17 184.746 103.8C184.386 104.42 183.881 104.905 183.231 105.255C182.581 105.605 181.846 105.78 181.026 105.78ZM181.026 104.175C181.716 104.175 182.286 103.945 182.736 103.485C183.186 103.025 183.411 102.42 183.411 101.67C183.411 100.92 183.186 100.315 182.736 99.8545C182.286 99.3945 181.716 99.1645 181.026 99.1645C180.336 99.1645 179.766 99.3945 179.316 99.8545C178.876 100.315 178.656 100.92 178.656 101.67C178.656 102.42 178.876 103.025 179.316 103.485C179.766 103.945 180.336 104.175 181.026 104.175Z" fill="white"/>
<path d="M104.858 123.155C105.408 123.405 105.828 123.745 106.118 124.175C106.418 124.595 106.568 125.09 106.568 125.66C106.568 126.3 106.388 126.86 106.028 127.34C105.677 127.82 105.178 128.19 104.528 128.45C103.878 128.7 103.122 128.825 102.262 128.825C101.402 128.825 100.648 128.7 99.9975 128.45C99.3575 128.19 98.8625 127.82 98.5125 127.34C98.1625 126.86 97.9875 126.3 97.9875 125.66C97.9875 125.09 98.1325 124.595 98.4225 124.175C98.7125 123.745 99.1275 123.405 99.6675 123.155C99.2475 122.925 98.9225 122.625 98.6925 122.255C98.4725 121.875 98.3625 121.44 98.3625 120.95C98.3625 120.36 98.5225 119.845 98.8425 119.405C99.1725 118.965 99.6325 118.625 100.222 118.385C100.812 118.145 101.492 118.025 102.262 118.025C103.042 118.025 103.728 118.145 104.318 118.385C104.908 118.625 105.368 118.965 105.698 119.405C106.028 119.845 106.193 120.36 106.193 120.95C106.193 121.44 106.077 121.87 105.847 122.24C105.617 122.61 105.287 122.915 104.858 123.155ZM102.262 119.555C101.652 119.555 101.167 119.685 100.807 119.945C100.457 120.205 100.283 120.57 100.283 121.04C100.283 121.49 100.457 121.85 100.807 122.12C101.167 122.38 101.652 122.51 102.262 122.51C102.882 122.51 103.373 122.38 103.733 122.12C104.093 121.85 104.273 121.49 104.273 121.04C104.273 120.57 104.088 120.205 103.718 119.945C103.358 119.685 102.872 119.555 102.262 119.555ZM102.262 127.295C102.982 127.295 103.552 127.145 103.972 126.845C104.393 126.545 104.603 126.13 104.603 125.6C104.603 125.08 104.393 124.67 103.972 124.37C103.552 124.07 102.982 123.92 102.262 123.92C101.542 123.92 100.978 124.07 100.568 124.37C100.158 124.67 99.9525 125.08 99.9525 125.6C99.9525 126.13 100.158 126.545 100.568 126.845C100.978 127.145 101.542 127.295 102.262 127.295Z" fill="white"/>
<path d="M117.093 120.575C118.103 120.575 118.913 120.87 119.523 121.46C120.133 122.05 120.438 122.925 120.438 124.085V128.675H118.563V124.325C118.563 123.625 118.398 123.1 118.068 122.75C117.738 122.39 117.268 122.21 116.658 122.21C115.968 122.21 115.423 122.42 115.023 122.84C114.623 123.25 114.423 123.845 114.423 124.625V128.675H112.548V117.545H114.423V121.595C114.733 121.265 115.113 121.015 115.563 120.845C116.023 120.665 116.533 120.575 117.093 120.575Z" fill="white"/>
<path d="M126.49 128.78C125.68 128.78 124.95 128.605 124.3 128.255C123.65 127.905 123.14 127.42 122.77 126.8C122.41 126.17 122.23 125.46 122.23 124.67C122.23 123.88 122.41 123.175 122.77 122.555C123.14 121.935 123.65 121.45 124.3 121.1C124.95 120.75 125.68 120.575 126.49 120.575C127.31 120.575 128.045 120.75 128.695 121.1C129.345 121.45 129.85 121.935 130.21 122.555C130.58 123.175 130.765 123.88 130.765 124.67C130.765 125.46 130.58 126.17 130.21 126.8C129.85 127.42 129.345 127.905 128.695 128.255C128.045 128.605 127.31 128.78 126.49 128.78ZM126.49 127.175C127.18 127.175 127.75 126.945 128.2 126.485C128.65 126.025 128.875 125.42 128.875 124.67C128.875 123.92 128.65 123.315 128.2 122.855C127.75 122.395 127.18 122.165 126.49 122.165C125.8 122.165 125.23 122.395 124.78 122.855C124.34 123.315 124.12 123.92 124.12 124.67C124.12 125.42 124.34 126.025 124.78 126.485C125.23 126.945 125.8 127.175 126.49 127.175Z" fill="white"/>
<path d="M140.313 120.665V128.675H138.528V127.655C138.228 128.015 137.853 128.295 137.403 128.495C136.953 128.685 136.468 128.78 135.948 128.78C134.878 128.78 134.033 128.485 133.413 127.895C132.803 127.295 132.498 126.41 132.498 125.24V120.665H134.373V124.985C134.373 125.705 134.533 126.245 134.853 126.605C135.183 126.955 135.648 127.13 136.248 127.13C136.918 127.13 137.448 126.925 137.838 126.515C138.238 126.095 138.438 125.495 138.438 124.715V120.665H140.313Z" fill="white"/>
<path d="M144.553 121.835C145.093 120.995 146.043 120.575 147.403 120.575V122.36C147.243 122.33 147.098 122.315 146.968 122.315C146.238 122.315 145.668 122.53 145.258 122.96C144.848 123.38 144.643 123.99 144.643 124.79V128.675H142.768V120.665H144.553V121.835Z" fill="white"/>
<path d="M151.498 128.78C150.848 128.78 150.213 128.695 149.593 128.525C148.973 128.355 148.478 128.14 148.108 127.88L148.828 126.455C149.188 126.695 149.618 126.89 150.118 127.04C150.628 127.18 151.128 127.25 151.618 127.25C152.738 127.25 153.298 126.955 153.298 126.365C153.298 126.085 153.153 125.89 152.863 125.78C152.583 125.67 152.128 125.565 151.498 125.465C150.838 125.365 150.298 125.25 149.878 125.12C149.468 124.99 149.108 124.765 148.798 124.445C148.498 124.115 148.348 123.66 148.348 123.08C148.348 122.32 148.663 121.715 149.293 121.265C149.933 120.805 150.793 120.575 151.873 120.575C152.423 120.575 152.973 120.64 153.523 120.77C154.073 120.89 154.523 121.055 154.873 121.265L154.153 122.69C153.473 122.29 152.708 122.09 151.858 122.09C151.308 122.09 150.888 122.175 150.598 122.345C150.318 122.505 150.178 122.72 150.178 122.99C150.178 123.29 150.328 123.505 150.628 123.635C150.938 123.755 151.413 123.87 152.053 123.98C152.693 124.08 153.218 124.195 153.628 124.325C154.038 124.455 154.388 124.675 154.678 124.985C154.978 125.295 155.128 125.735 155.128 126.305C155.128 127.055 154.803 127.655 154.153 128.105C153.503 128.555 152.618 128.78 151.498 128.78Z" fill="white"/>
<path d="M164.488 128.78C163.678 128.78 162.948 128.605 162.298 128.255C161.648 127.905 161.138 127.42 160.768 126.8C160.408 126.17 160.228 125.46 160.228 124.67C160.228 123.88 160.408 123.175 160.768 122.555C161.138 121.935 161.648 121.45 162.298 121.1C162.948 120.75 163.678 120.575 164.488 120.575C165.308 120.575 166.043 120.75 166.693 121.1C167.343 121.45 167.848 121.935 168.208 122.555C168.578 123.175 168.763 123.88 168.763 124.67C168.763 125.46 168.578 126.17 168.208 126.8C167.848 127.42 167.343 127.905 166.693 128.255C166.043 128.605 165.308 128.78 164.488 128.78ZM164.488 127.175C165.178 127.175 165.748 126.945 166.198 126.485C166.648 126.025 166.873 125.42 166.873 124.67C166.873 123.92 166.648 123.315 166.198 122.855C165.748 122.395 165.178 122.165 164.488 122.165C163.798 122.165 163.228 122.395 162.778 122.855C162.338 123.315 162.118 123.92 162.118 124.67C162.118 125.42 162.338 126.025 162.778 126.485C163.228 126.945 163.798 127.175 164.488 127.175Z" fill="white"/>
<path d="M173.571 118.955C172.781 118.955 172.386 119.385 172.386 120.245V120.725H174.591V122.225H172.431V128.675H170.556V120.215C170.556 119.365 170.806 118.69 171.306 118.19C171.806 117.69 172.516 117.44 173.436 117.44C174.146 117.44 174.706 117.585 175.116 117.875L174.591 119.285C174.291 119.065 173.951 118.955 173.571 118.955Z" fill="white"/>
<path d="M123.876 151.675L121.731 148.6C121.641 148.61 121.506 148.615 121.326 148.615H118.956V151.675H117.006V141.175H121.326C122.236 141.175 123.026 141.325 123.696 141.625C124.376 141.925 124.896 142.355 125.256 142.915C125.616 143.475 125.796 144.14 125.796 144.91C125.796 145.7 125.601 146.38 125.211 146.95C124.831 147.52 124.281 147.945 123.561 148.225L125.976 151.675H123.876ZM123.831 144.91C123.831 144.24 123.611 143.725 123.171 143.365C122.731 143.005 122.086 142.825 121.236 142.825H118.956V147.01H121.236C122.086 147.01 122.731 146.83 123.171 146.47C123.611 146.1 123.831 145.58 123.831 144.91Z" fill="white"/>
<path d="M132.552 141.025C133.492 141.025 134.312 141.21 135.012 141.58C135.712 141.95 136.252 142.5 136.632 143.23C137.022 143.95 137.217 144.825 137.217 145.855V151.675H135.267V148.975H129.807V151.675H127.887V145.855C127.887 144.825 128.077 143.95 128.457 143.23C128.847 142.5 129.392 141.95 130.092 141.58C130.792 141.21 131.612 141.025 132.552 141.025ZM135.267 147.34V145.675C135.267 144.705 135.027 143.975 134.547 143.485C134.067 142.985 133.397 142.735 132.537 142.735C131.677 142.735 131.007 142.985 130.527 143.485C130.047 143.975 129.807 144.705 129.807 145.675V147.34H135.267Z" fill="white"/>
<path d="M155.065 141.175V147.43C155.065 148.87 154.695 149.965 153.955 150.715C153.225 151.455 152.175 151.825 150.805 151.825C150.065 151.825 149.405 151.71 148.825 151.48C148.255 151.24 147.8 150.915 147.46 150.505C147.11 150.915 146.65 151.24 146.08 151.48C145.52 151.71 144.87 151.825 144.13 151.825C142.76 151.825 141.705 151.45 140.965 150.7C140.225 149.95 139.855 148.86 139.855 147.43V141.175H141.805V147.37C141.805 148.32 142 149.015 142.39 149.455C142.79 149.895 143.37 150.115 144.13 150.115C145.7 150.115 146.485 149.2 146.485 147.37V141.175H148.435V147.37C148.435 149.2 149.225 150.115 150.805 150.115C152.355 150.115 153.13 149.2 153.13 147.37V141.175H155.065Z" fill="white"/>
<path d="M113.774 166.575C114.784 166.575 115.584 166.87 116.174 167.46C116.764 168.04 117.059 168.915 117.059 170.085V174.675H115.184V170.325C115.184 169.625 115.029 169.1 114.719 168.75C114.409 168.39 113.964 168.21 113.384 168.21C112.754 168.21 112.249 168.42 111.869 168.84C111.489 169.25 111.299 169.84 111.299 170.61V174.675H109.424V170.325C109.424 169.625 109.269 169.1 108.959 168.75C108.649 168.39 108.204 168.21 107.624 168.21C106.984 168.21 106.474 168.415 106.094 168.825C105.724 169.235 105.539 169.83 105.539 170.61V174.675H103.664V166.665H105.449V167.685C105.749 167.325 106.124 167.05 106.574 166.86C107.024 166.67 107.524 166.575 108.074 166.575C108.674 166.575 109.204 166.69 109.664 166.92C110.134 167.14 110.504 167.47 110.774 167.91C111.104 167.49 111.529 167.165 112.049 166.935C112.569 166.695 113.144 166.575 113.774 166.575Z" fill="white"/>
<path d="M127.358 166.665V174.675H125.573V173.64C125.263 174.02 124.878 174.305 124.418 174.495C123.968 174.685 123.468 174.78 122.918 174.78C122.138 174.78 121.438 174.61 120.818 174.27C120.208 173.93 119.728 173.45 119.378 172.83C119.038 172.21 118.868 171.49 118.868 170.67C118.868 169.85 119.038 169.135 119.378 168.525C119.728 167.905 120.208 167.425 120.818 167.085C121.438 166.745 122.138 166.575 122.918 166.575C123.438 166.575 123.913 166.665 124.343 166.845C124.783 167.025 125.163 167.29 125.483 167.64V166.665H127.358ZM123.128 173.175C123.818 173.175 124.388 172.945 124.838 172.485C125.288 172.025 125.513 171.42 125.513 170.67C125.513 169.92 125.288 169.315 124.838 168.855C124.388 168.395 123.818 168.165 123.128 168.165C122.438 168.165 121.868 168.395 121.418 168.855C120.978 169.315 120.758 169.92 120.758 170.67C120.758 171.42 120.978 172.025 121.418 172.485C121.868 172.945 122.438 173.175 123.128 173.175Z" fill="white"/>
<path d="M134.311 174.24C134.091 174.42 133.821 174.555 133.501 174.645C133.191 174.735 132.861 174.78 132.511 174.78C131.631 174.78 130.951 174.55 130.471 174.09C129.991 173.63 129.751 172.96 129.751 172.08V164.895H131.626V166.725H133.771V168.225H131.626V172.035C131.626 172.425 131.721 172.725 131.911 172.935C132.111 173.135 132.386 173.235 132.736 173.235C133.156 173.235 133.506 173.125 133.786 172.905L134.311 174.24Z" fill="white"/>
<path d="M139.407 173.19C140.277 173.19 141.002 172.9 141.582 172.32L142.572 173.475C142.222 173.905 141.772 174.23 141.222 174.45C140.672 174.67 140.052 174.78 139.362 174.78C138.482 174.78 137.707 174.605 137.037 174.255C136.367 173.905 135.847 173.42 135.477 172.8C135.117 172.17 134.937 171.46 134.937 170.67C134.937 169.89 135.112 169.19 135.462 168.57C135.822 167.94 136.312 167.45 136.932 167.1C137.562 166.75 138.272 166.575 139.062 166.575C139.812 166.575 140.492 166.74 141.102 167.07C141.722 167.39 142.212 167.855 142.572 168.465C142.932 169.065 143.112 169.77 143.112 170.58L136.977 171.78C137.167 172.24 137.472 172.59 137.892 172.83C138.312 173.07 138.817 173.19 139.407 173.19ZM139.062 168.075C138.372 168.075 137.812 168.3 137.382 168.75C136.962 169.2 136.752 169.805 136.752 170.565V170.58L141.282 169.71C141.152 169.22 140.887 168.825 140.487 168.525C140.097 168.225 139.622 168.075 139.062 168.075Z" fill="white"/>
<path d="M146.699 167.835C147.239 166.995 148.189 166.575 149.549 166.575V168.36C149.389 168.33 149.244 168.315 149.114 168.315C148.384 168.315 147.814 168.53 147.404 168.96C146.994 169.38 146.789 169.99 146.789 170.79V174.675H144.914V166.665H146.699V167.835Z" fill="white"/>
<path d="M151.139 166.665H153.014V174.675H151.139V166.665ZM152.084 165.345C151.744 165.345 151.459 165.24 151.229 165.03C150.999 164.81 150.884 164.54 150.884 164.22C150.884 163.9 150.999 163.635 151.229 163.425C151.459 163.205 151.744 163.095 152.084 163.095C152.424 163.095 152.709 163.2 152.939 163.41C153.169 163.61 153.284 163.865 153.284 164.175C153.284 164.505 153.169 164.785 152.939 165.015C152.719 165.235 152.434 165.345 152.084 165.345Z" fill="white"/>
<path d="M163.305 166.665V174.675H161.52V173.64C161.21 174.02 160.825 174.305 160.365 174.495C159.915 174.685 159.415 174.78 158.865 174.78C158.085 174.78 157.385 174.61 156.765 174.27C156.155 173.93 155.675 173.45 155.325 172.83C154.985 172.21 154.815 171.49 154.815 170.67C154.815 169.85 154.985 169.135 155.325 168.525C155.675 167.905 156.155 167.425 156.765 167.085C157.385 166.745 158.085 166.575 158.865 166.575C159.385 166.575 159.86 166.665 160.29 166.845C160.73 167.025 161.11 167.29 161.43 167.64V166.665H163.305ZM159.075 173.175C159.765 173.175 160.335 172.945 160.785 172.485C161.235 172.025 161.46 171.42 161.46 170.67C161.46 169.92 161.235 169.315 160.785 168.855C160.335 168.395 159.765 168.165 159.075 168.165C158.385 168.165 157.815 168.395 157.365 168.855C156.925 169.315 156.705 169.92 156.705 170.67C156.705 171.42 156.925 172.025 157.365 172.485C157.815 172.945 158.385 173.175 159.075 173.175Z" fill="white"/>
<path d="M168.399 174.78C167.569 174.78 166.919 174.555 166.449 174.105C165.989 173.645 165.759 173 165.759 172.17V163.545H167.634V172.035C167.634 172.835 168.009 173.235 168.759 173.235C169.009 173.235 169.234 173.185 169.434 173.085L169.524 174.585C169.174 174.715 168.799 174.78 168.399 174.78Z" fill="white"/>
</svg>
