<svg width="456" height="400" viewBox="0 0 456 400" fill="none" xmlns="http://www.w3.org/2000/svg">
<path d="M406.97 172.334C405.344 187.046 403.53 201.639 401.606 216.322C397.759 245.688 393.722 274.935 390.471 304.359C388.747 319.061 387.221 333.782 385.695 348.504L383.457 370.591L382.387 381.639L381.857 387.114L381.587 389.901L381.453 391.294L381.414 391.692L381.115 391.663L379.613 391.618L376.607 391.528L370.597 391.348L358.585 390.889C350.574 390.616 342.573 390.243 334.572 389.87C318.569 389.125 302.586 388.18 286.612 387.136C254.664 385.048 222.746 382.662 190.924 379.28C182.971 378.409 175.008 377.638 167.064 376.668C159.121 375.698 151.177 374.728 143.243 373.659C127.366 371.62 111.498 369.481 95.6306 367.342C64.3928 363.112 33.2642 358.793 2.04564 354.364C4.12029 340.198 5.98624 326.112 7.86181 311.927C9.97501 297.363 11.7992 282.67 13.5239 267.968C15.2486 253.266 16.8738 238.554 18.2998 223.823C19.0129 216.457 19.6264 209.082 20.2399 201.707C20.8534 194.331 21.3674 186.947 21.5827 179.533C21.7981 172.119 21.9043 164.795 22.2192 157.391L22.592 146.275L23.1639 135.179C23.9928 120.39 25.0111 105.72 26.2381 90.9693C28.7435 61.9758 31.8557 32.9406 35.7546 4.08201C67.3039 6.13155 98.7441 8.27098 130.274 10.5196C162.193 12.9063 194.14 14.9943 225.933 18.675C257.746 22.1565 289.53 25.9367 321.304 29.8164L414.824 41.3816C413.632 70.3013 412.231 99.3013 410.532 128.272C409.613 142.952 408.694 157.632 406.97 172.334Z" fill="white"/>
<path d="M406.276 109.086C405.176 79.4856 403.876 49.9856 402.376 20.3856L402.276 18.5856H400.476C368.476 17.7856 336.476 16.9856 304.476 16.2856C272.476 15.5856 240.476 14.9856 208.476 14.6856C200.476 14.5856 192.476 14.5856 184.476 14.5856C176.476 14.5856 168.476 14.7856 160.476 14.8856C144.476 15.1856 128.476 15.5856 112.476 16.0856C80.476 16.9856 48.476 17.9856 16.476 19.0856H15.176V20.3856C14.076 49.9856 13.876 79.5856 14.276 109.186C14.676 138.786 16.076 168.386 18.276 197.886C18.776 205.186 18.976 212.586 19.076 219.986C19.176 227.386 19.176 234.786 19.076 242.186C18.976 256.986 18.676 271.786 18.176 286.486C17.276 315.986 16.176 345.586 14.876 375.086L14.776 376.686L16.376 376.786C48.376 378.186 80.376 379.386 112.376 380.586C128.376 381.186 144.376 381.686 160.376 382.186C168.376 382.386 176.376 382.586 184.376 382.786C192.376 382.986 200.376 382.986 208.376 383.086C240.376 383.186 272.476 382.586 304.476 381.486C320.476 380.886 336.476 380.186 352.476 379.286C360.476 378.886 368.476 378.386 376.476 377.886L388.476 377.086L394.476 376.686L397.476 376.486L398.976 376.386H399.376C399.576 376.386 399.776 376.286 399.976 376.286C400.376 376.186 400.776 376.086 401.176 375.986L401.376 375.886C401.476 375.686 401.576 375.386 401.576 375.086C401.576 374.886 401.576 374.686 401.576 374.586V373.886V372.486V369.686V364.186L401.676 353.086L401.876 330.886C402.076 316.086 402.276 301.286 402.676 286.586C403.276 256.986 404.576 227.486 405.676 197.886C406.176 183.086 406.676 168.286 406.876 153.486C407.276 138.686 406.776 123.786 406.276 109.086ZM403.476 153.486C403.276 168.286 402.876 182.986 402.376 197.786C401.376 227.386 400.176 256.886 399.776 286.486C399.476 301.286 399.376 316.086 399.276 330.886L399.176 353.086V364.186V369.686V372.486V373.886V374.286H399.276C399.376 374.286 399.376 374.386 399.476 374.386C399.376 374.386 399.176 374.486 399.176 374.586V374.686V374.186H398.876L397.376 374.286L394.376 374.486L388.376 374.886L376.376 375.586C368.376 376.086 360.376 376.486 352.376 376.886C336.376 377.686 320.376 378.286 304.376 378.786C272.376 379.786 240.376 380.486 208.376 380.186C200.376 380.086 192.376 380.086 184.376 379.886C176.376 379.686 168.376 379.486 160.376 379.186C144.376 378.686 128.376 378.086 112.376 377.486C80.876 376.286 49.476 374.986 17.976 373.586C17.976 374.086 17.976 374.586 17.876 375.186L16.376 373.486C16.876 373.486 17.476 373.486 17.976 373.586C18.676 359.286 19.176 345.086 19.676 330.786C20.376 316.186 20.776 301.386 21.076 286.586C21.376 271.786 21.576 256.986 21.576 242.186C21.576 234.786 21.476 227.386 21.376 219.986C21.276 212.586 21.076 205.186 20.576 197.786C20.076 190.386 19.476 183.086 19.076 175.686L18.376 164.586L17.876 153.486C17.276 138.686 16.876 123.986 16.676 109.186C16.376 80.0856 16.676 50.8856 17.776 21.7856C17.376 21.7856 16.976 21.7856 16.476 21.7856L17.876 20.5856C17.876 20.9856 17.876 21.3856 17.876 21.8856C49.476 20.8856 80.976 19.9856 112.576 19.1856C144.576 18.4856 176.576 17.4856 208.576 18.0856C240.576 18.4856 272.576 19.1856 304.576 19.9856L398.776 22.4856C398.776 21.8856 398.676 21.2856 398.676 20.6856L400.476 22.4856H398.676C400.276 51.3856 401.676 80.3856 402.776 109.386C403.276 123.986 403.776 138.686 403.476 153.486Z" fill="#1D1D1B"/>
<path d="M403.476 153.486C403.276 168.286 402.876 182.986 402.376 197.786C401.376 227.386 400.176 256.886 399.776 286.486C399.476 301.286 399.376 316.086 399.276 330.886L399.176 353.086V364.186V369.686V372.486V373.886V374.286H398.876L397.376 374.386L394.376 374.586L388.376 374.986L376.376 375.686C368.376 376.186 360.376 376.586 352.376 376.986C336.376 377.786 320.376 378.386 304.376 378.886C272.376 379.886 240.376 380.586 208.376 380.286C200.376 380.186 192.376 380.186 184.376 379.986C176.376 379.786 168.376 379.586 160.376 379.286C144.376 378.786 128.376 378.186 112.376 377.586C80.876 376.386 49.476 375.086 17.976 373.686C18.676 359.386 19.176 345.186 19.676 330.886C20.376 316.186 20.776 301.386 21.076 286.586C21.376 271.786 21.576 256.986 21.576 242.186C21.576 234.786 21.476 227.386 21.376 219.986C21.276 212.586 21.076 205.186 20.576 197.786C20.076 190.386 19.476 183.086 19.076 175.686L18.376 164.586L17.876 153.486C17.276 138.686 16.876 123.986 16.676 109.186C16.376 80.0856 16.676 50.8856 17.776 21.7856C49.376 20.7856 80.876 19.8856 112.476 19.0856C144.476 18.3856 176.476 17.3856 208.476 17.9856C240.476 18.3856 272.476 19.0856 304.476 19.8856L398.676 22.3856C400.276 51.2856 401.676 80.2856 402.776 109.286C403.276 123.986 403.776 138.686 403.476 153.486Z" fill="white"/>
<path d="M359.584 258.904C357.651 252.996 354.428 244.939 348.09 243.328C347.553 243.221 347.016 243.113 346.587 243.113H346.372C344.223 243.113 342.075 244.939 341.86 246.766C341.645 248.914 342.827 250.847 344.008 252.674C347.661 257.83 349.272 264.06 348.305 269.216C346.587 278.884 336.811 283.932 328.862 285.329C328.755 285.329 328.755 285.329 328.648 285.329C328.11 285.329 327.466 284.899 327.359 284.362C327.251 283.932 327.359 283.503 327.788 283.181C329.507 281.677 331.011 279.958 332.3 278.132C339.175 268.464 341.43 257.83 338.315 248.806C335.522 240.535 328.433 234.305 318.335 231.297C314.253 230.223 310.171 229.686 305.982 229.686C297.496 229.686 289.654 231.942 283.532 236.346C273.649 243.328 269.675 255.252 273.005 267.605C274.508 273.62 278.268 279.099 283.961 283.181C284.391 283.503 284.928 283.932 285.465 284.255C286.325 284.899 287.291 285.651 288.151 286.296C288.365 286.403 288.473 286.618 288.58 286.833C288.688 287.155 288.688 287.477 288.58 287.8C288.473 288.122 288.258 288.337 287.936 288.444C274.294 295.641 266.774 304.557 265.593 314.869C264.626 320.455 265.807 326.47 269.245 333.13C271.716 337.964 274.723 342.798 279.557 345.483L279.665 345.591C280.416 346.021 281.276 346.235 282.243 346.235C282.672 346.235 282.995 346.235 283.424 346.128C284.713 345.806 285.895 345.054 286.539 343.872C287.291 342.691 287.506 341.402 287.184 340.113C286.754 336.997 284.713 334.527 282.887 332.271C281.92 331.197 281.061 330.015 280.309 328.726C277.624 324.215 277.086 319.381 278.913 315.728C280.739 312.076 284.498 309.928 289.225 309.713C289.762 309.713 290.299 310.143 290.406 310.68C294.596 330.875 292.233 351.714 289.869 371.909L289.225 378.031C288.903 381.254 288.473 384.477 288.258 387.807C288.258 388.236 288.151 388.666 288.151 389.203C288.043 391.029 287.936 392.855 288.258 394.574V394.681L288.365 394.789L288.473 394.896C290.192 395.97 293.951 396.722 297.818 396.722C301.471 396.722 304.371 396.078 305.66 394.896C305.767 394.789 305.767 394.681 305.875 394.681H305.982L306.09 394.359H305.982C306.304 393.715 306.304 392.963 306.197 392.318C306.09 391.996 305.875 391.674 305.66 391.351C305.445 391.029 305.23 390.814 305.015 390.492C304.478 389.848 303.941 389.203 303.619 388.344C303.189 387.377 303.297 386.195 303.404 385.121V384.691C303.619 380.072 304.263 375.453 304.801 371.049C305.015 369.223 305.23 367.504 305.445 365.786C305.66 364.067 305.875 362.348 305.982 360.63V360.415C306.197 357.085 306.304 354.077 309.742 352.573C311.138 352.036 312.642 351.714 314.253 351.714C315.005 351.714 315.865 351.821 316.617 351.929C320.806 353.218 320.699 360.2 320.591 364.389V365.571C320.484 369.223 320.161 372.875 319.839 376.42C319.41 381.147 318.98 386.088 319.087 390.922C319.087 391.996 319.302 393.07 319.732 394.037C321.773 395.863 325.962 396.722 329.292 396.722C331.548 396.722 333.481 396.4 334.663 395.648C335.737 395.004 335.952 393.5 335.63 392.533C335.2 391.459 334.341 390.707 333.267 390.17C332.729 390.062 331.87 389.525 331.978 388.773C334.556 374.057 335.952 358.051 336.274 339.898C336.382 329.8 336.274 316.588 333.696 303.912C333.589 303.59 333.696 303.268 333.911 302.946C334.126 302.623 334.341 302.516 334.77 302.409C345.19 299.401 353.461 293.063 357.865 284.577C361.947 276.95 362.592 268.034 359.584 258.904Z" fill="white"/>
<path d="M301.471 290.485C301.149 291.237 300.934 292.096 300.612 292.848C300.504 293.278 301.041 293.708 301.364 293.493C302.33 292.848 303.19 292.096 304.049 291.344C303.727 291.237 303.405 291.237 303.19 291.13C303.297 291.774 302.975 292.526 302.653 293.063C302.223 293.708 301.901 294.352 301.578 294.997C301.471 295.211 301.686 295.534 301.901 295.641C302.115 295.749 302.438 295.641 302.545 295.426C303.19 294.46 303.834 293.493 304.479 292.633C304.156 292.633 303.834 292.526 303.512 292.526C303.619 293.063 303.405 293.6 303.297 294.03C303.082 294.567 302.867 295.104 302.867 295.749C302.867 296.178 303.297 296.393 303.727 296.178C305.231 295.319 306.412 294.245 307.486 292.956C307.164 292.848 306.842 292.741 306.52 292.633C306.412 293.171 306.412 293.6 306.412 294.137C306.412 294.782 307.486 294.782 307.486 294.137C307.486 293.6 307.486 293.171 307.594 292.633C307.594 292.419 307.379 292.204 307.164 292.096C306.949 291.989 306.735 292.204 306.52 292.311C305.66 293.493 304.479 294.46 303.19 295.211C303.512 295.319 303.727 295.534 304.049 295.641C304.049 295.104 304.264 294.46 304.479 293.922C304.694 293.278 304.801 292.741 304.694 292.096C304.586 291.667 303.942 291.559 303.727 291.989C303.082 292.956 302.438 293.922 301.793 294.782C302.115 294.889 302.438 295.104 302.76 295.211C302.975 294.46 303.512 293.815 303.834 293.171C304.264 292.419 304.479 291.667 304.264 290.807C304.156 290.378 303.619 290.27 303.405 290.592C302.653 291.344 301.793 291.989 300.934 292.526C301.149 292.741 301.471 292.956 301.686 293.171C302.008 292.419 302.223 291.559 302.545 290.807C302.653 290.485 302.438 290.27 302.223 290.163C301.793 289.948 301.578 290.163 301.471 290.485Z" fill="#FF7700"/>
<path d="M308.99 294.567C308.346 295.319 307.916 296.178 307.594 297.038C307.487 297.252 307.701 297.575 307.916 297.682C308.131 297.79 308.453 297.682 308.561 297.467C309.205 296.608 309.85 295.856 310.602 295.104C310.279 294.997 309.957 294.997 309.742 294.889C309.957 295.534 309.742 296.393 309.313 296.93C308.883 297.467 309.528 298.112 310.065 297.682C310.602 297.252 311.031 296.501 311.246 295.856C311.354 295.319 310.709 294.997 310.387 295.319C309.957 295.749 309.528 296.178 309.205 296.608C308.883 297.145 308.453 297.682 308.99 298.219C309.098 298.327 309.313 298.434 309.528 298.327C310.817 297.79 311.783 296.93 312.535 295.856C312.213 295.749 311.891 295.641 311.569 295.534C311.569 296.178 311.461 296.715 311.139 297.145C311.461 297.36 311.783 297.467 312.106 297.682C312.535 296.823 312.858 296.071 313.287 295.211C312.965 295.211 312.643 295.104 312.32 295.104C312.32 295.426 312.32 295.856 312.32 296.178C312.643 296.071 312.965 295.963 313.287 295.856C313.287 295.749 313.18 295.749 313.18 295.641C313.18 295.319 312.965 295.104 312.643 295.104C312.32 295.104 312.106 295.319 312.106 295.641C312.106 295.856 312.213 296.178 312.32 296.393C312.643 296.823 313.287 296.608 313.287 296.071C313.287 295.641 313.287 295.104 313.287 294.674C313.18 294.245 312.535 294.137 312.32 294.567C311.891 295.426 311.569 296.178 311.139 297.038C310.817 297.682 311.676 298.112 312.106 297.575C312.535 296.93 312.75 296.178 312.643 295.426C312.643 294.889 311.891 294.674 311.676 295.104C311.139 295.963 310.279 296.715 309.313 297.145C309.528 297.145 309.635 297.252 309.85 297.252C309.957 297.36 309.957 297.36 309.957 297.467C310.065 297.36 310.065 297.252 310.172 297.252C310.279 297.145 310.387 296.93 310.494 296.823C310.709 296.501 311.031 296.178 311.354 295.963C311.031 295.749 310.709 295.641 310.494 295.426C310.387 295.963 310.065 296.501 309.635 296.823C309.85 297.038 310.172 297.36 310.387 297.575C311.139 296.715 311.354 295.534 311.139 294.46C311.031 294.03 310.494 293.922 310.279 294.245C309.528 295.104 308.776 295.963 308.131 296.823C308.453 296.93 308.776 297.145 309.098 297.252C309.313 296.501 309.742 295.856 310.172 295.211C310.387 294.997 310.387 294.674 310.172 294.46C309.528 294.46 309.205 294.352 308.99 294.567Z" fill="#FF7700"/>
<path d="M312.964 292.741C313.072 292.956 313.072 293.171 313.072 293.385C313.072 293.922 313.824 294.137 314.038 293.708C314.361 293.063 314.79 292.311 315.113 291.667C314.79 291.559 314.468 291.452 314.146 291.344C314.253 292.204 314.253 293.063 314.253 293.922C314.253 294.46 315.005 294.674 315.22 294.245C315.65 293.278 316.079 292.204 316.294 291.13C315.972 291.13 315.542 291.022 315.22 291.022C315.327 292.311 315.435 293.493 315.435 294.782C315.435 295.426 316.402 295.534 316.509 294.889C316.831 293.493 317.154 291.989 317.583 290.592C317.261 290.592 316.831 290.485 316.509 290.485C316.509 291.667 316.509 292.956 316.509 294.137C316.831 294.137 317.261 294.137 317.583 294.137C317.583 292.741 317.583 291.344 317.691 289.948C317.368 289.948 316.939 290.055 316.617 290.055C316.939 291.559 317.046 293.171 317.046 294.674C317.368 294.674 317.798 294.674 318.12 294.674C318.12 292.956 318.12 291.237 318.443 289.518C318.335 289.626 318.228 289.733 318.12 289.841C318.12 289.841 318.12 289.841 318.228 289.841C318.12 289.841 318.013 289.841 317.906 289.841C317.906 289.841 317.906 289.841 318.013 289.841C317.906 289.841 317.906 289.733 317.798 289.733C317.906 289.841 318.013 290.055 318.013 290.27C318.12 290.485 318.12 290.7 318.228 290.807C318.335 291.237 318.443 291.774 318.55 292.204C318.657 293.063 318.657 294.03 318.55 294.997C318.872 294.997 319.302 294.889 319.624 294.889C319.195 293.278 319.409 291.559 319.946 290.055C319.624 290.163 319.302 290.163 319.087 290.27C319.302 290.485 319.517 290.7 319.624 291.022C319.839 291.667 320.913 291.344 320.698 290.7C320.484 290.163 320.269 289.841 319.839 289.411C319.517 289.089 319.087 289.303 318.98 289.626C318.335 291.344 318.228 293.278 318.657 295.104C318.765 295.319 318.98 295.534 319.195 295.534C319.517 295.534 319.624 295.319 319.624 294.997C319.732 293.815 319.732 292.633 319.517 291.452C319.409 290.915 319.195 290.378 318.98 289.841C318.765 289.303 318.55 288.659 317.798 288.874C317.583 288.874 317.476 289.089 317.476 289.196C317.154 291.022 317.046 292.848 317.046 294.674C317.046 295.319 318.12 295.319 318.12 294.674C318.12 293.063 318.013 291.344 317.691 289.733C317.691 289.518 317.368 289.303 317.154 289.303C316.831 289.303 316.724 289.518 316.724 289.841C316.617 291.237 316.509 292.633 316.617 294.03C316.617 294.674 317.691 294.674 317.691 294.03C317.691 292.848 317.691 291.559 317.691 290.378C317.691 289.733 316.831 289.626 316.617 290.27C316.187 291.667 315.757 293.063 315.542 294.567C315.865 294.567 316.294 294.674 316.617 294.674C316.617 293.385 316.617 292.096 316.402 290.915C316.294 290.378 315.542 290.163 315.327 290.807C315.005 291.774 314.683 292.741 314.361 293.6C314.683 293.708 315.005 293.815 315.327 293.922C315.327 293.063 315.327 292.204 315.22 291.344C315.22 290.807 314.468 290.592 314.253 291.022C313.931 291.667 313.501 292.419 313.179 293.063C313.501 293.171 313.824 293.278 314.146 293.385C314.146 292.956 314.038 292.633 313.931 292.204C313.501 291.559 312.642 292.204 312.964 292.741Z" fill="#FF7700"/>
<path d="M309.42 301.871C310.387 301.979 311.246 301.979 312.213 302.086C312.213 301.764 312.105 301.334 312.105 301.012C311.246 301.334 310.279 301.657 309.42 301.871C308.775 301.979 308.99 302.838 309.527 302.946C310.387 303.053 311.246 303.053 312.105 303.16C312.105 302.838 311.998 302.409 311.998 302.086C310.816 302.301 309.635 302.516 308.453 303.053C308.023 303.268 307.916 304.02 308.453 304.127C309.957 304.45 311.568 304.342 313.072 304.235C313.072 303.912 312.965 303.483 312.965 303.16C311.89 303.483 310.924 303.912 309.85 304.235C309.42 304.342 309.312 305.201 309.85 305.309C311.139 305.524 312.428 305.739 313.717 305.631C313.717 305.309 313.609 304.879 313.609 304.557C311.998 304.879 310.387 304.987 308.775 304.879C308.131 304.879 308.131 305.953 308.775 305.953C310.279 306.061 311.89 306.168 313.394 306.168C313.394 305.846 313.287 305.416 313.287 305.094C311.783 305.524 310.279 305.953 308.883 306.383C308.453 306.49 308.346 307.35 308.883 307.457C310.494 307.672 312.105 307.779 313.717 307.672C313.609 307.35 313.502 307.028 313.287 306.705C312.857 307.242 311.353 307.242 310.709 307.35C309.85 307.457 308.883 307.672 308.023 307.779C307.379 307.887 307.594 308.746 308.131 308.854C310.064 308.961 311.998 309.176 313.824 309.283C313.717 308.961 313.609 308.639 313.502 308.317C312.213 308.961 310.924 309.283 309.527 309.391C308.883 309.391 308.883 310.465 309.527 310.465C310.924 310.572 312.32 310.572 313.717 310.68C313.717 310.358 313.609 309.928 313.609 309.606C311.998 309.82 310.387 310.143 308.775 310.358C308.131 310.465 308.346 311.432 308.883 311.432C310.601 311.539 312.213 311.647 313.931 311.754C313.824 311.432 313.717 311.109 313.609 310.787C312.857 311.324 311.783 311.217 310.924 311.217C309.957 311.324 308.99 311.432 308.023 311.539C307.379 311.647 307.379 312.506 308.023 312.613C309.85 312.828 311.568 312.936 313.394 312.936C313.394 312.613 313.287 312.184 313.287 311.861C311.676 312.184 310.172 312.506 308.561 312.721C307.916 312.828 308.131 313.795 308.668 313.795C310.494 313.902 312.213 314.01 314.039 314.117C314.039 313.795 314.039 313.365 314.039 313.043C311.676 313.258 309.42 313.365 307.057 313.58C306.52 313.58 306.305 314.547 306.949 314.654C308.99 314.977 310.924 315.191 312.965 315.514C312.965 315.191 312.857 314.869 312.857 314.547C311.353 315.299 309.742 315.943 308.023 316.373C307.379 316.48 307.594 317.447 308.131 317.447C309.742 317.555 311.353 317.555 313.072 317.662C313.072 317.34 313.072 316.91 313.072 316.588C312.105 316.695 311.031 316.803 310.064 316.803C309.42 316.91 309.312 317.877 310.064 317.877C311.031 317.877 312.105 317.984 313.072 317.984C313.072 317.662 312.965 317.232 312.965 316.91C311.676 317.232 310.387 317.662 309.205 318.199C308.668 318.414 308.99 319.166 309.527 319.166C310.387 319.273 311.246 319.381 312.105 319.488C312.105 319.166 311.998 318.736 311.998 318.414C311.139 318.629 310.172 318.844 309.312 319.166C308.668 319.381 308.883 320.133 309.42 320.24C310.172 320.24 310.924 320.347 311.783 320.347C311.676 320.025 311.461 319.81 311.353 319.488C311.139 319.81 310.816 320.133 310.494 320.455C310.279 320.67 310.279 321.207 310.601 321.314C310.924 321.422 311.139 321.529 311.461 321.744C311.353 321.529 311.246 321.314 311.246 321.099C311.353 321.099 311.353 320.992 311.461 320.992C311.568 321.314 311.568 321.637 311.676 321.851C313.717 319.81 314.898 317.232 315.113 314.332C315.113 313.688 314.039 313.688 314.039 314.332C313.931 316.91 312.75 319.273 310.924 321.099C310.601 321.314 310.709 321.959 311.139 321.959C311.676 322.066 312.105 321.851 312.213 321.314C312.213 321.099 312.213 320.777 311.998 320.67C311.676 320.562 311.461 320.455 311.139 320.24C311.139 320.562 311.246 320.777 311.246 321.099C311.676 320.777 311.998 320.348 312.32 319.918C312.535 319.596 312.213 319.166 311.89 319.058C311.139 319.058 310.387 318.951 309.527 318.951C309.527 319.273 309.635 319.703 309.635 320.025C310.494 319.81 311.461 319.596 312.32 319.273C312.965 319.058 312.75 318.307 312.213 318.199C311.353 318.092 310.494 317.984 309.635 317.877C309.742 318.199 309.85 318.521 309.957 318.844C311.031 318.307 312.213 317.877 313.502 317.662C314.146 317.555 313.931 316.588 313.394 316.588C312.428 316.588 311.353 316.48 310.387 316.48C310.387 316.803 310.387 317.232 310.387 317.555C311.353 317.447 312.428 317.34 313.394 317.34C314.039 317.232 314.146 316.266 313.394 316.266C311.783 316.158 310.172 316.158 308.453 316.051C308.453 316.373 308.561 316.803 308.561 317.125C310.279 316.695 311.998 316.051 313.609 315.191C314.039 314.977 313.931 314.225 313.502 314.225C311.461 313.902 309.527 313.688 307.486 313.365C307.486 313.688 307.379 314.117 307.379 314.439C309.742 314.225 311.998 314.117 314.361 313.902C315.006 313.902 315.006 312.828 314.361 312.828C312.535 312.721 310.816 312.613 308.99 312.506C308.99 312.828 309.098 313.258 309.098 313.58C310.709 313.258 312.213 312.936 313.824 312.721C314.469 312.613 314.254 311.647 313.717 311.647C311.891 311.647 310.172 311.539 308.346 311.324C308.346 311.647 308.346 312.076 308.346 312.399C309.527 312.291 310.709 312.184 311.998 312.076C312.857 311.969 313.717 311.969 314.469 311.539C314.898 311.217 314.791 310.572 314.146 310.572C312.428 310.465 310.816 310.358 309.098 310.25C309.098 310.572 309.205 311.002 309.205 311.324C310.816 311.109 312.428 310.787 314.039 310.572C314.683 310.465 314.469 309.498 313.931 309.498C312.535 309.391 311.139 309.391 309.742 309.283C309.742 309.606 309.742 310.035 309.742 310.358C311.353 310.25 312.857 309.928 314.254 309.176C314.791 308.961 314.469 308.209 313.931 308.209C311.998 308.102 310.064 307.887 308.238 307.779C308.238 308.102 308.346 308.531 308.346 308.854C309.527 308.639 310.601 308.531 311.783 308.317C312.535 308.209 313.502 308.209 314.039 307.565C314.361 307.242 314.146 306.598 313.609 306.598C312.105 306.705 310.601 306.598 309.098 306.383C309.098 306.705 309.098 307.028 309.098 307.457C310.601 307.028 312.105 306.598 313.502 306.168C314.146 305.953 313.931 305.094 313.394 305.094C311.89 304.987 310.279 304.879 308.775 304.879C308.775 305.201 308.775 305.631 308.775 305.953C310.494 306.061 312.213 305.846 313.824 305.524C314.469 305.416 314.254 304.449 313.717 304.449C312.535 304.449 311.246 304.342 310.064 304.127C310.064 304.45 310.064 304.772 310.064 305.201C311.139 304.879 312.105 304.45 313.18 304.127C313.717 303.912 313.717 303.053 313.072 303.053C311.676 303.16 310.172 303.16 308.775 302.946C308.775 303.268 308.775 303.59 308.775 304.02C309.957 303.59 311.031 303.268 312.32 303.053C312.965 302.946 312.75 302.086 312.213 301.979C311.139 301.871 310.279 301.871 309.42 301.871C309.527 302.194 309.527 302.516 309.635 302.838C310.601 302.623 311.461 302.409 312.32 301.979C312.857 301.764 312.857 301.012 312.213 300.905C311.246 300.797 310.387 300.797 309.42 300.69C308.775 300.69 308.775 301.764 309.42 301.871Z" fill="#FF7700"/>
<path d="M315.865 354.722C315.973 354.829 315.973 354.829 315.973 354.829L315.865 354.722Z" fill="black"/>
<path d="M360.659 253.963C359.477 250.74 357.758 247.84 355.503 245.154C353.247 242.469 349.702 240.75 346.479 240.75C343.579 240.75 341.216 242.147 339.927 244.617L339.605 245.154L339.282 244.617C333.589 233.875 320.914 227.323 306.197 227.323C291.374 227.323 278.591 233.983 272.897 244.617C267.204 254.607 268.386 269.216 275.583 278.669C278.161 281.999 281.598 284.577 284.928 287.048L285.358 287.37L284.928 287.585C278.806 291.13 271.179 296.178 266.882 303.912C262.263 312.076 261.726 322.066 265.486 330.66C267.741 336.568 274.831 348.814 282.35 348.814C284.391 348.814 286.432 347.847 288.258 345.913C288.581 345.591 288.795 345.161 289.01 344.839V344.732L289.547 344.839V344.946C289.118 354.507 287.936 364.067 286.862 373.305V373.627C286.432 377.172 286.003 380.824 285.68 384.369C285.573 385.014 285.573 385.766 285.465 386.518C285.143 389.525 284.928 392.533 285.573 395.326C287.077 398.763 294.918 399.086 297.389 399.086C297.819 399.086 298.248 399.086 298.678 399.086C302.33 398.978 305.983 398.548 307.809 396.078C308.99 394.467 309.098 392.211 308.131 390.492C307.701 389.74 307.164 388.988 306.52 388.344C305.983 387.807 305.768 386.947 305.875 386.303C306.09 380.717 306.842 375.131 307.486 369.653C308.023 365.571 308.561 361.274 308.883 356.977C308.99 356.44 309.312 355.903 309.742 355.473C309.957 355.259 310.172 355.044 310.494 354.936C311.783 354.184 313.072 354.077 314.254 354.077C314.576 354.077 314.898 354.077 315.328 354.077H315.543H315.65C315.758 354.077 315.972 354.077 316.08 354.184H316.187L316.402 354.292V354.399C318.98 357.622 318.121 367.29 317.369 376.528C316.724 383.51 316.187 390.17 317.047 393.5C317.691 396.293 320.806 397.474 323.062 398.011C325.318 398.548 327.574 398.871 329.615 398.871C331.548 398.871 333.374 398.548 334.878 398.011C337.027 397.259 338.423 395.756 338.53 393.715C338.745 391.351 337.349 389.096 335.093 387.914L334.878 387.807V387.592C336.382 378.676 337.564 369.438 338.101 360.415C339.282 343.55 340.034 323.677 336.597 304.45V304.127L336.919 304.02C348.306 300.368 356.899 293.171 361.088 283.825C365.17 275.017 365.063 264.597 360.659 253.963ZM342.398 255.896L342.935 255.681V255.789C344.224 258.045 345.083 260.515 345.513 262.986H345.62V263.201C347.231 271.257 343.042 277.917 334.019 281.462L332.945 281.892L333.589 281.032C337.886 275.124 342.827 265.994 342.398 255.896ZM289.118 337.749C288.903 336.997 288.581 336.46 288.258 335.816L288.151 335.494C287.292 333.882 286.217 332.486 285.036 331.197C284.391 330.337 283.639 329.478 282.995 328.511C281.491 326.363 280.417 323.892 280.095 321.314C279.557 316.803 282.887 312.613 287.399 312.076H287.721L287.829 312.399C289.333 319.703 289.87 327.652 289.762 337.535V337.642L289.118 337.749ZM357.758 284.684C353.247 293.171 345.083 299.401 334.663 302.516C334.341 302.516 334.019 302.731 333.804 303.053C333.589 303.375 333.482 303.698 333.589 304.02C336.167 316.695 336.382 329.908 336.167 340.005C335.845 358.159 334.449 374.164 331.87 388.881C331.763 389.633 332.622 390.062 333.159 390.277C334.234 390.707 334.986 391.566 335.523 392.64C335.845 393.715 335.63 395.111 334.556 395.756C333.374 396.4 331.441 396.83 329.185 396.83C325.855 396.83 321.666 395.97 319.625 394.144C319.195 393.178 318.98 392.103 318.98 391.029C318.873 386.195 319.302 381.254 319.732 376.528C320.054 372.983 320.377 369.331 320.484 365.678V364.497C320.484 360.307 320.591 353.325 316.51 352.036C315.758 351.821 314.898 351.821 314.146 351.821C312.642 351.821 311.031 352.144 309.635 352.681C306.197 354.184 306.09 357.085 305.875 360.522V360.737C305.66 362.456 305.553 364.174 305.338 365.893C305.123 367.612 304.908 369.331 304.693 371.157C304.156 375.668 303.512 380.287 303.297 384.799V385.229C303.19 386.303 303.19 387.484 303.512 388.451C303.834 389.31 304.371 389.955 304.908 390.599C305.123 390.922 305.338 391.137 305.553 391.459C305.768 391.781 305.875 392.103 306.09 392.426C306.305 393.07 306.197 393.822 305.875 394.467H305.983L305.875 394.789H305.768C305.768 394.896 305.66 394.896 305.553 395.004C304.156 396.078 301.363 396.83 297.711 396.83C293.844 396.83 290.085 396.078 288.366 395.004L288.258 394.896L288.151 394.789V394.681C287.829 392.963 287.936 391.137 288.044 389.31C288.044 388.881 288.151 388.451 288.151 387.914C288.366 384.691 288.795 381.361 289.118 378.139L289.762 372.016C292.018 351.821 294.489 330.875 290.299 310.787C290.192 310.25 289.655 309.82 289.118 309.82C284.391 310.035 280.632 312.291 278.806 315.836C276.979 319.488 277.516 324.322 280.202 328.834C280.954 330.015 281.921 331.197 282.78 332.378C284.714 334.742 286.647 337.105 287.077 340.22C287.399 341.509 287.184 342.905 286.432 343.98C285.68 345.161 284.606 345.913 283.317 346.235C282.995 346.343 282.565 346.343 282.136 346.343C281.276 346.343 280.417 346.128 279.557 345.698L279.45 345.591C274.616 342.905 271.608 338.072 269.138 333.238C265.808 326.578 264.626 320.562 265.486 314.977C266.667 304.664 274.187 295.749 287.829 288.552C288.151 288.444 288.366 288.122 288.473 287.907C288.581 287.585 288.581 287.263 288.473 286.94C288.366 286.725 288.258 286.618 288.044 286.403C287.184 285.651 286.217 285.007 285.358 284.362C284.821 284.04 284.391 283.61 283.854 283.288C278.161 279.099 274.294 273.728 272.897 267.712C269.567 255.466 273.542 243.436 283.425 236.453C289.547 232.157 297.389 229.793 305.875 229.793C310.064 229.793 314.254 230.33 318.228 231.405C328.326 234.412 335.415 240.643 338.208 248.914C341.323 257.937 339.068 268.572 332.193 278.239C330.904 280.173 329.4 281.784 327.681 283.288C327.251 283.61 327.144 284.04 327.251 284.47C327.466 285.007 328.003 285.436 328.54 285.436C328.648 285.436 328.648 285.436 328.755 285.436C336.704 284.04 346.479 278.884 348.198 269.324C349.165 264.167 347.554 257.937 343.901 252.781C342.612 251.062 341.538 249.129 341.753 246.873C341.968 244.939 344.116 243.221 346.265 243.221H346.479C346.909 243.221 347.446 243.221 347.983 243.436C354.321 245.047 357.544 253.103 359.477 259.011C362.485 268.035 361.948 276.95 357.758 284.684Z" fill="black"/>
<path d="M321.988 287.37C321.881 286.833 321.773 286.081 321.344 285.973C321.236 285.973 321.129 285.973 321.129 285.973C320.806 285.973 320.592 286.081 320.269 286.188C318.443 287.048 316.724 288.229 315.113 289.303C313.824 290.163 312.428 291.022 311.031 291.774H310.816H310.709C309.42 291.13 308.131 290.592 306.842 290.055C304.801 289.196 302.76 288.337 300.826 287.155C300.719 287.048 300.612 287.048 300.504 287.048C300.182 287.048 299.86 287.37 299.645 287.8C298.893 288.981 299.215 290.7 299.43 292.096V292.419C299.752 294.137 300.075 295.749 300.504 297.467C300.612 297.897 300.719 298.327 300.934 298.649C301.041 298.756 301.149 298.864 301.256 298.864C301.471 298.864 301.686 298.756 302.008 298.649C303.082 298.219 304.156 297.682 305.231 297.252L305.66 297.038V297.467C305.66 297.682 305.66 297.897 305.66 298.112C305.768 298.971 305.768 299.938 306.52 300.475V300.582C306.627 304.45 306.09 308.317 305.553 311.969V312.076C305.338 313.58 305.123 315.084 304.908 316.48C305.016 317.232 305.231 317.877 305.66 318.521C306.842 320.562 308.131 322.711 309.742 324.429C310.065 324.537 310.279 324.644 310.602 324.644C311.891 324.644 312.965 322.711 313.717 321.314C313.824 320.992 314.039 320.777 314.146 320.562C314.361 320.133 314.684 319.596 314.898 319.166C315.65 317.769 316.402 316.373 316.724 315.084C316.187 311.539 315.65 307.994 315.006 304.449L314.361 300.475L314.576 300.368C315.221 299.938 315.221 299.186 315.113 298.327C315.113 298.004 315.113 297.79 315.113 297.467V297.038L315.543 297.252C316.295 297.575 316.939 297.79 317.691 298.112L318.658 298.434H318.765C318.98 298.434 319.195 298.327 319.41 298.004C321.773 295.426 322.633 291.559 321.988 287.37ZM308.453 295.749C309.098 295.426 309.742 295.104 310.279 294.674L310.494 294.567L310.709 294.674C311.354 294.997 311.998 295.426 312.643 295.749L312.857 295.856L312.965 298.004H312.643C311.783 298.004 310.924 298.112 310.065 298.112C309.635 298.112 309.205 298.112 308.775 298.112H308.453V297.897C308.346 297.575 308.453 297.36 308.453 297.038C308.453 296.715 308.453 296.501 308.346 296.286L308.238 295.963L308.453 295.749ZM302.438 296.071L302.116 296.178L302.008 295.856C301.578 294.245 301.256 292.526 301.041 290.807L300.934 290.163L301.471 290.485C302.653 291.022 303.942 291.559 305.123 292.096C305.983 292.419 306.735 292.741 307.594 293.171L307.916 293.278L307.809 293.385L307.594 293.708L307.057 293.922C305.66 294.674 304.049 295.426 302.438 296.071ZM314.576 315.191C314.576 315.299 314.469 315.406 314.469 315.406V315.514V315.621C313.609 317.555 312.643 319.488 311.568 321.314L311.354 321.744L311.031 321.422C309.85 319.918 308.775 318.199 307.916 316.48L307.809 316.373L307.701 315.836V315.728C307.809 314.977 308.024 313.258 308.024 313.258C308.668 309.283 309.205 305.094 309.205 301.012V300.69H309.527C310.279 300.69 311.031 300.69 311.891 300.582H312.213V300.797C313.18 306.168 313.824 310.572 314.469 314.654L314.576 314.762C314.684 314.869 314.684 314.977 314.576 315.191ZM320.269 293.171C320.162 293.708 320.054 294.137 319.84 294.674C319.732 294.889 319.625 295.211 319.517 295.426L319.41 295.641L318.658 295.426C316.939 294.782 315.113 294.137 313.395 293.278L312.857 293.063L314.898 291.774C316.187 291.022 317.584 290.163 318.873 289.303L319.41 288.981L319.625 288.874C319.195 288.552 319.195 288.229 319.303 288.122L319.517 287.907H319.625C319.84 287.907 320.054 288.014 320.054 288.444L320.162 288.659V288.874L320.269 289.196V289.518C320.592 290.592 320.592 291.881 320.269 293.171Z" fill="black"/>
<path d="M297.603 249.881V254.715C297.603 255.144 297.496 255.466 297.174 255.681C296.959 255.896 296.637 256.004 296.207 256.004C295.562 256.004 294.918 255.574 294.918 254.715V249.881C294.918 249.021 295.562 248.592 296.207 248.592C296.852 248.699 297.603 249.021 297.603 249.881Z" fill="black"/>
<path d="M318.873 250.525V255.359C318.873 256.218 318.228 256.648 317.584 256.648C316.939 256.648 316.295 256.218 316.295 255.359V250.525C316.295 249.666 316.939 249.236 317.584 249.236C318.228 249.236 318.873 249.666 318.873 250.525Z" fill="black"/>
<path d="M307.916 272.761C309.957 272.761 311.783 272.009 313.287 270.72C313.609 270.398 313.716 269.968 313.502 269.431C313.287 268.894 312.857 268.464 312.213 268.464C311.998 268.464 311.676 268.572 311.568 268.786C310.494 269.753 309.097 270.29 307.594 270.29C306.09 270.29 304.693 269.753 303.619 268.786C303.297 268.464 302.975 268.357 302.76 268.357C302.33 268.357 302.008 268.572 301.793 269.001C301.578 269.431 301.686 269.968 302.115 270.398C303.619 271.902 305.767 272.761 307.916 272.761Z" fill="black"/>
<path d="M455.51 133.868C453.361 123.019 443.586 114.855 432.629 114.855C431.125 114.855 429.622 114.963 428.118 115.392C431.233 110.773 431.985 104.865 430.266 99.4942C427.795 91.6527 420.384 85.3149 410.501 82.4146C406.741 81.3404 402.874 80.8033 398.792 80.8033C385.15 80.8033 372.045 86.9262 364.526 96.8088C360.014 85.3149 348.52 77.3659 336.382 77.3659C334.663 77.3659 332.945 77.5808 331.333 77.7956C316.295 80.6959 305.23 95.3049 307.057 109.806C308.023 117.111 311.998 123.341 317.584 126.671C304.586 132.15 296.207 147.51 298.463 161.797C300.934 177.48 316.402 189.834 333.696 189.834H333.911C343.257 189.834 352.602 185.752 359.584 178.662C363.559 191.445 375.16 201.542 388.588 204.013C390.521 204.335 392.562 204.55 394.496 204.55C406.204 204.55 417.268 198.32 424.143 187.9C428.44 181.455 430.588 173.828 430.266 166.416C438.645 165.235 446.272 160.83 450.998 154.17C455.295 148.262 456.906 141.065 455.51 133.868ZM448.527 152.989C443.908 159.112 436.604 163.194 428.762 163.838C428.01 163.946 427.366 164.483 427.473 165.235C428.87 181.885 416.302 198.427 400.081 201.327C398.363 201.65 396.537 201.757 394.71 201.864C379.564 201.864 364.955 190.263 361.518 175.547C361.411 175.01 360.766 174.473 360.122 174.473C359.799 174.473 359.477 174.58 359.155 174.902C352.387 182.529 343.042 186.933 333.482 186.933C332.622 186.933 331.763 186.933 330.796 186.826C321.021 185.966 311.568 180.596 305.982 172.861C300.719 165.449 299.537 155.459 302.76 146.329C305.982 137.306 312.965 130.538 321.558 128.068C322.203 127.853 322.525 127.423 322.632 126.779C322.632 126.134 322.203 125.597 321.666 125.382C312.965 122.482 308.99 112.707 309.742 104.543C310.387 96.7013 315.328 88.9672 322.632 84.3482C326.714 81.7701 331.441 80.3737 336.275 80.3737C348.413 80.3737 359.262 88.4301 362.7 99.9239C362.914 100.568 363.452 100.891 363.989 100.891C364.418 100.891 364.955 100.676 365.17 100.354C365.385 100.031 365.492 99.6016 365.385 99.172L365.278 99.0646C372.26 89.2894 385.043 83.1666 398.47 83.1666C401.156 83.1666 403.841 83.3814 406.419 83.9185C415.55 85.6372 422.854 90.471 426.399 96.9162C429.944 103.361 429.299 113.029 422.102 117.541C421.887 117.648 421.673 117.755 421.458 117.97C420.921 118.293 420.706 118.83 420.813 119.474C421.028 120.011 421.458 120.441 422.102 120.441C422.317 120.441 422.532 120.441 422.747 120.226C422.962 120.119 423.176 120.011 423.391 119.796C426.292 118.185 429.407 117.326 432.737 117.326C442.404 117.326 451.105 124.63 452.931 134.298C454.221 141.065 452.609 147.618 448.527 152.989Z" fill="black"/>
<path d="M448.528 152.989C443.909 159.112 436.604 163.194 428.763 163.838C428.011 163.946 427.366 164.483 427.474 165.235C428.87 181.885 416.302 198.427 400.082 201.327C398.363 201.65 396.537 201.757 394.711 201.864C379.565 201.864 364.956 190.263 361.518 175.547C361.411 175.01 360.766 174.473 360.122 174.473C359.8 174.473 359.477 174.58 359.155 174.902C352.388 182.529 343.042 186.933 333.482 186.933C332.623 186.933 331.763 186.933 330.797 186.826C321.021 185.966 311.569 180.596 305.983 172.861C300.719 165.449 299.538 155.459 302.76 146.329C305.983 137.306 312.965 130.538 321.558 128.068C322.203 127.853 322.525 127.423 322.633 126.779C322.633 126.134 322.203 125.597 321.666 125.382C312.965 122.482 308.99 112.707 309.742 104.543C310.387 96.7013 315.328 88.9672 322.633 84.3482C326.715 81.7701 331.441 80.3737 336.275 80.3737C348.413 80.3737 359.263 88.4301 362.7 99.9239C362.915 100.568 363.452 100.891 363.989 100.891C364.419 100.891 364.956 100.676 365.171 100.354C365.385 100.031 365.493 99.6016 365.385 99.172L365.278 99.0646C372.26 89.2894 385.043 83.1665 398.47 83.1665C401.156 83.1665 403.841 83.3814 406.419 83.9185C415.55 85.6372 422.855 90.471 426.399 96.9162C429.944 103.361 429.3 113.029 422.103 117.541C421.888 117.648 421.673 117.755 421.458 117.97C420.921 118.293 420.706 118.83 420.814 119.474C421.028 120.011 421.458 120.441 422.103 120.441C422.317 120.441 422.532 120.441 422.747 120.226C422.962 120.119 423.177 120.011 423.392 119.796C426.292 118.185 429.407 117.326 432.737 117.326C442.405 117.326 451.106 124.63 452.932 134.298C454.221 141.065 452.61 147.618 448.528 152.989Z" fill="white"/>
<path d="M360.444 194.238C360.229 194.13 360.122 194.13 359.907 194.13C359.37 194.13 358.833 194.56 358.725 195.097C358.618 195.634 358.833 196.064 359.37 196.279C360.981 197.031 362.055 198.642 362.377 200.468C362.7 202.187 362.163 203.905 361.088 205.087C360.014 206.161 358.51 206.806 356.684 206.806C355.288 206.806 353.784 206.376 352.71 205.624C350.884 204.443 349.595 201.435 350.132 199.501C350.454 198.212 351.421 197.568 353.032 197.46C353.139 197.46 353.139 197.46 353.247 197.46C355.073 197.46 356.684 198.749 358.188 199.931C358.833 200.361 359.37 200.898 359.907 201.22C360.014 201.327 360.229 201.327 360.336 201.327C360.659 201.327 361.088 201.113 361.196 200.79C361.303 200.468 361.303 200.146 361.088 199.931C359.37 197.568 356.04 195.097 352.817 195.097C351.743 195.097 350.669 195.419 349.809 195.956C347.876 197.245 347.339 199.179 347.339 200.575C347.231 203.153 348.628 206.054 350.669 207.558C352.28 208.739 354.428 209.491 356.577 209.491C359.477 209.491 361.948 208.31 363.452 206.161C364.848 204.228 365.17 201.757 364.633 199.286C363.881 196.923 362.377 195.097 360.444 194.238Z" fill="black"/>
<path d="M355.825 216.903C355.18 216.473 354.214 216.259 353.032 216.259C352.495 216.259 351.958 216.259 351.528 216.366C351.421 216.151 351.313 216.044 351.206 215.936C350.669 215.614 350.132 215.399 349.487 215.399C348.52 215.399 347.446 215.936 346.587 216.796C345.62 217.762 345.083 219.159 345.19 220.233C345.405 223.133 348.198 224.96 350.669 224.96C351.313 224.96 351.85 224.852 352.387 224.637C353.999 224.1 355.395 222.811 356.254 221.092C357.329 218.514 356.684 217.333 355.825 216.903ZM348.198 220.126C348.305 220.555 348.735 220.878 349.165 220.878C349.594 220.878 350.024 220.555 350.132 220.126C350.346 219.159 350.776 218.837 351.85 218.514C352.173 218.407 352.71 218.3 353.247 218.3C353.569 218.3 354.214 218.3 354.428 218.729C354.858 219.481 353.891 220.878 353.247 221.522C352.495 222.381 351.528 222.811 350.561 222.919H350.346C349.38 222.919 348.305 222.489 347.661 221.737C347.339 221.307 346.909 220.77 346.909 219.911C346.909 218.622 347.768 218.085 348.413 217.762C348.091 218.514 347.983 219.266 348.198 220.126Z" fill="black"/>
<path d="M434.885 171.68C434.563 171.68 434.24 171.895 434.24 172.217C434.026 173.613 434.026 175.01 433.918 176.406C433.918 177.373 433.918 178.34 433.811 179.306C433.488 182.314 432.844 185.322 431.877 188.222C430.051 193.808 426.936 198.32 422.854 203.368C422.532 203.798 422.424 204.335 422.639 204.872C422.854 205.302 423.284 205.624 423.821 205.624C424.143 205.624 424.465 205.517 424.68 205.302C429.621 200.79 432.414 194.453 433.918 189.941C435.637 184.785 437.463 177.48 435.637 172.217C435.529 171.895 435.207 171.68 434.885 171.68Z" fill="black"/>
<path d="M353.891 228.827C353.783 228.612 353.676 228.397 353.461 228.29C353.031 228.075 352.709 227.967 352.279 227.967C350.668 227.967 349.379 229.471 349.057 230.975C348.734 232.479 349.379 233.768 350.668 234.412C351.098 234.627 351.527 234.735 352.064 234.735C353.461 234.735 354.857 233.983 355.394 232.801C356.254 231.082 355.072 229.471 353.891 228.827ZM351.098 230.653C351.313 230.33 351.527 230.223 351.742 230.008H351.85C352.494 230.116 353.461 230.653 353.676 231.297C353.783 231.512 353.676 231.727 353.461 232.049C353.139 232.479 352.602 232.694 352.064 232.694C351.742 232.694 351.527 232.586 351.313 232.479C350.668 232.049 350.668 231.297 351.098 230.653Z" fill="black"/>
<path d="M425.325 143.321C424.68 135.587 420.706 128.712 414.798 125.597C413.294 124.738 411.683 123.986 409.964 123.556C407.923 123.019 405.882 122.697 403.841 122.697C400.941 122.697 398.255 123.234 395.677 124.308C389.554 126.779 385.043 132.579 383.432 140.421C383.324 141.065 383.754 141.71 384.291 141.817L387.836 142.892C388.695 143.106 389.554 143.429 390.414 143.751L390.629 143.966C391.81 144.395 393.099 144.825 394.281 145.147L394.818 145.255H394.925C395.463 145.255 395.892 144.825 396 144.288C396.214 142.892 397.074 141.71 398.363 140.743C399.652 139.884 401.263 139.454 402.874 139.454C403.519 139.454 404.163 139.562 404.808 139.669H405.023C407.171 140.313 409.427 142.354 409.212 144.932C409.105 145.899 408.782 146.866 408.245 147.94C407.708 148.907 406.956 149.766 406.097 150.518C405.452 151.055 404.593 151.378 403.841 151.7C402.874 152.022 402.015 152.344 401.156 152.559C399.974 152.881 398.793 153.311 397.611 153.741C393.422 155.46 390.306 158.79 389.34 162.657L387.406 169.639C387.191 170.283 387.621 170.82 388.158 171.143C388.803 171.358 389.447 171.68 390.092 171.787C391.058 172.109 392.133 172.432 393.207 172.647C395.785 173.398 398.363 174.043 401.156 174.795H401.263C401.8 174.795 402.23 174.365 402.337 173.936C402.552 172.969 402.874 171.895 403.197 170.713C403.734 168.242 405.023 166.416 407.064 165.342C407.923 164.912 408.89 164.698 409.964 164.483C410.394 164.375 410.931 164.268 411.468 164.16C413.079 163.731 414.798 163.086 416.302 162.334C423.391 158.575 425.97 150.089 425.325 143.321ZM400.726 169.854L400.619 170.068C400.404 170.82 400.189 171.465 400.082 172.109L399.115 171.895C397.181 171.358 395.248 170.928 393.314 170.391C392.025 170.068 390.844 169.639 389.769 169.317L390.414 167.168C390.844 165.772 391.273 164.268 391.703 162.871C392.562 160.079 394.925 157.715 398.148 156.211C399.33 155.674 400.619 155.352 401.908 154.922C403.734 154.385 405.56 153.848 407.279 152.774C410.179 150.626 412.327 146.436 411.038 142.677C410.179 140.206 408.031 138.38 405.345 137.628C404.486 137.413 403.519 137.198 402.552 137.198C401.478 137.198 400.296 137.413 399.33 137.735C398.363 138.058 395.033 139.347 393.959 142.569L386.01 139.991C387.514 134.191 390.736 129.572 395.033 127.316C397.718 125.919 400.726 125.06 403.949 125.06C405.775 125.06 407.708 125.275 409.427 125.812C413.294 126.886 416.731 129.142 418.987 132.257C422.854 137.843 424.036 145.255 421.995 151.485C420.169 157.071 415.98 160.723 409.857 162.012C409.534 162.119 409.212 162.119 408.782 162.227C408.353 162.334 407.923 162.334 407.493 162.442C404.915 163.086 402.66 164.912 401.478 167.276C401.156 168.242 400.941 169.102 400.726 169.854Z" fill="black"/>
<path d="M399.437 178.125C397.504 177.48 395.57 176.943 393.529 176.299C392.347 175.977 391.273 175.654 390.092 175.332C389.125 175.01 388.158 174.795 387.084 174.473H386.977C386.439 174.473 385.902 174.795 385.688 175.332C384.613 178.769 383.324 182.744 382.465 186.933C382.358 187.685 382.787 188.115 383.217 188.222C384.291 188.545 385.365 188.867 386.439 189.082L387.943 189.511C390.521 190.263 393.099 191.015 395.785 191.552C395.892 191.552 396 191.552 396 191.552C396.966 191.552 397.289 190.586 397.396 190.156C398.256 187.363 399.33 183.603 399.974 179.736C399.974 179.521 400.082 179.307 400.082 179.199C400.189 178.877 399.867 178.34 399.437 178.125ZM397.611 180.166C397.074 183.496 396.107 186.718 395.355 189.189C392.67 188.545 389.877 187.685 387.084 186.933L384.936 186.396C385.687 183.066 386.654 179.951 387.514 177.266C388.48 177.48 389.34 177.803 390.307 178.018C392.347 178.555 394.926 179.307 397.611 180.166Z" fill="black"/>
<path d="M377.631 129.572C377.094 128.82 376.342 128.497 375.375 128.283C378.061 124.523 379.994 119.259 377.524 115.285C378.598 112.707 378.49 109.162 376.127 107.336C374.516 106.476 372.153 106.047 369.038 106.047C363.344 106.047 357.007 107.551 355.288 107.98C349.38 109.484 335.201 113.781 330.044 121.408C328.97 122.912 328.648 124.63 329.078 126.134C329.507 127.638 330.689 128.82 332.408 129.464C333.052 129.679 333.804 129.894 334.556 130.001C333.697 131.075 333.482 132.364 333.912 133.331C334.234 134.191 335.093 134.62 336.275 134.62C340.357 134.191 344.439 133.224 347.876 132.257C355.395 130.109 362.592 126.886 369.252 122.804L369.575 122.589C371.83 121.193 374.516 119.582 376.235 117.326C377.309 121.623 374.516 125.919 372.797 128.068C362.592 128.82 352.71 132.15 344.009 137.735C342.398 138.81 340.786 139.884 339.82 141.495C338.853 143.106 338.853 145.147 339.82 146.544C340.572 147.725 341.861 148.262 343.687 148.262C344.116 148.262 344.546 148.262 344.976 148.155C347.661 147.725 350.239 146.973 352.71 145.899C352.173 146.329 351.528 146.866 350.991 147.296C350.347 147.94 349.595 148.692 349.165 149.659C348.735 150.626 348.843 151.485 349.272 152.237C349.81 152.989 350.669 153.419 351.636 153.419C351.743 153.419 351.851 153.419 352.065 153.419C353.462 153.311 354.751 152.667 356.04 152.13C356.47 151.915 356.899 151.807 357.329 151.592C361.733 149.659 366.03 147.296 370.004 144.61C369.575 146.651 367.963 148.262 366.352 149.766C365.922 150.196 365.6 150.518 365.17 150.948C363.881 152.237 362.485 153.526 361.089 154.708C360.551 155.03 360.444 155.782 360.874 156.319C361.089 156.534 361.411 156.749 361.733 156.749C361.948 156.749 362.27 156.641 362.485 156.534C364.096 155.137 365.708 153.741 367.104 152.237C367.426 151.915 367.749 151.592 368.178 151.163C370.327 149.014 373.012 146.329 372.26 143.106C374.946 140.958 378.061 138.058 378.598 134.083C379.027 132.579 378.598 130.646 377.631 129.572ZM351.099 151.055C351.206 150.303 352.71 149.014 353.354 148.37C353.569 148.262 353.677 148.155 353.784 148.048C357.759 144.932 362.485 143.106 367.534 142.892H367.641C367.856 142.892 367.963 142.892 368.178 142.892C368.393 142.892 368.608 142.892 368.823 142.892L368.5 143.106C363.989 146.329 358.94 148.907 353.784 150.841C353.569 150.948 353.462 150.948 353.247 151.055C352.71 151.27 352.173 151.485 351.636 151.485C351.421 151.485 351.313 151.485 351.099 151.378L350.991 151.27C351.206 151.27 351.099 151.163 351.099 151.055ZM347.769 138.165C354.751 134.191 362.27 131.72 370.219 130.753C367.641 133.224 364.956 135.48 362.163 137.628C358.94 140.099 356.147 141.925 353.354 143.321C351.099 144.503 348.628 145.362 346.05 145.899C345.405 146.007 344.546 146.221 343.687 146.221C342.075 146.221 341.323 145.577 341.323 144.288C341.216 141.925 344.331 140.099 346.587 138.702C347.124 138.595 347.446 138.38 347.769 138.165ZM371.078 141.388C370.327 140.851 369.575 140.636 368.608 140.636H368.286C365.278 140.636 362.378 141.173 359.585 142.247C363.237 139.776 366.459 137.091 369.252 134.728C370.649 133.439 372.153 132.042 373.549 130.538H373.657C373.871 130.538 374.086 130.538 374.301 130.538C374.838 130.538 375.268 130.646 375.483 130.861C376.879 132.257 376.449 134.728 375.483 136.446C374.731 138.165 373.334 139.669 371.078 141.388ZM370.756 119.367C361.733 125.597 351.636 129.786 340.894 131.935C339.605 132.15 338.208 132.472 336.812 132.579C336.704 132.579 336.597 132.579 336.382 132.579C336.275 132.579 336.167 132.579 336.167 132.579H336.06V132.472H335.953C336.06 131.613 336.812 130.861 337.456 130.323C343.15 130.109 348.628 128.283 354.321 126.349C354.643 126.242 354.858 126.027 354.966 125.812C355.073 125.597 355.073 125.275 354.966 124.953C354.751 124.523 354.429 124.201 353.891 124.201C353.784 124.201 353.677 124.201 353.462 124.308C349.487 125.704 345.191 127.208 340.572 127.853C347.661 122.482 356.04 118.722 364.741 116.789C366.459 116.466 368.178 116.144 369.897 115.929C370.756 115.822 371.616 115.715 372.475 115.715C372.797 115.715 373.119 115.715 373.442 115.715C373.979 115.715 374.301 115.822 374.731 115.929C374.623 116.037 374.516 116.144 374.408 116.359C373.442 117.433 372.26 118.293 370.756 119.367ZM331.441 126.027C331.226 125.597 331.119 125.06 331.119 124.523C331.119 124.415 331.119 124.308 331.119 124.308L331.226 124.201V124.093C331.226 124.093 331.226 123.986 331.226 123.878C331.333 123.556 331.441 123.234 331.656 122.912L331.763 122.697L331.871 122.482C333.804 119.582 336.919 117.648 339.712 116.037C348.521 111.418 358.188 108.732 367.641 108.195C368.071 108.195 368.5 108.195 368.823 108.195C370.434 108.195 372.153 108.41 373.764 108.732C374.731 108.947 375.483 109.699 375.698 110.988C375.805 111.847 375.805 112.707 375.59 113.566C374.838 113.351 373.979 113.136 373.012 113.136C371.938 113.136 370.756 113.351 369.682 113.459C369.252 113.566 368.715 113.566 368.286 113.674C356.577 115.392 345.62 120.334 336.704 127.853C334.663 127.745 332.408 127.531 331.441 125.812V126.027Z" fill="black"/>
<path d="M312.32 154.063C313.072 152.452 314.254 150.948 315.65 149.766C317.154 148.692 318.766 148.048 320.592 147.618C322.31 147.296 324.351 147.296 326.07 148.048C327.789 148.8 329.4 150.303 330.044 152.022C330.474 152.881 330.689 153.848 330.796 154.708C330.904 155.674 330.796 156.641 330.582 157.5C330.367 158.36 330.044 159.327 329.615 160.079C329.185 160.83 328.755 161.475 328.326 162.227C327.896 162.979 327.466 163.516 327.252 164.16C327.144 164.483 326.929 164.805 326.822 165.127C326.715 165.449 326.607 165.664 326.607 165.987C326.607 166.631 326.715 167.061 327.037 167.705C327.144 168.028 327.359 168.35 327.574 168.565C327.789 168.779 328.004 169.102 328.111 169.209L328.218 169.317C328.648 169.639 328.755 170.176 328.433 170.606C328.111 170.928 327.681 171.035 327.252 170.928C326.607 170.606 326.285 170.283 325.963 169.961C325.64 169.639 325.318 169.209 325.103 168.887C324.566 168.135 324.136 167.061 324.136 166.094C324.136 165.557 324.136 165.02 324.244 164.59C324.351 164.053 324.459 163.731 324.674 163.301C324.996 162.442 325.533 161.582 325.855 160.938L327.037 158.897C327.359 158.252 327.574 157.608 327.681 156.963C327.896 156.319 327.896 155.674 327.789 155.03C327.789 154.385 327.574 153.741 327.359 153.096C326.929 151.915 325.963 150.948 324.781 150.411C323.599 149.874 322.203 149.659 320.806 149.874C319.41 150.196 318.014 150.733 316.939 151.592C315.865 152.452 315.006 153.633 314.469 154.922C314.254 155.567 313.502 155.889 312.75 155.674C312.32 155.567 311.998 154.815 312.32 154.063Z" fill="black"/>
<path d="M330.688 172.324C330.474 172.324 330.151 172.324 329.936 172.432C329.722 172.539 329.507 172.647 329.292 172.754C329.077 172.969 328.862 173.184 328.647 173.398C328.54 173.721 328.433 174.043 328.433 174.365C328.433 174.687 328.54 175.01 328.647 175.225C328.755 175.439 328.97 175.654 329.185 175.869C329.399 175.977 329.507 176.084 329.722 176.191C329.829 176.299 330.044 176.299 330.151 176.299C330.259 176.299 330.474 176.299 330.581 176.191C330.796 176.084 331.011 175.977 331.226 175.869C331.44 175.654 331.548 175.439 331.548 175.225C331.548 175.01 331.655 174.795 331.548 174.58C331.44 174.365 331.44 174.258 331.226 174.043C331.118 173.936 331.011 173.936 330.903 173.828C330.903 173.828 330.796 173.828 330.688 173.721C330.581 173.721 330.581 173.613 330.474 173.613C330.259 173.613 330.044 173.613 329.829 173.613C329.614 173.613 329.507 173.828 329.292 173.936C329.507 173.936 329.399 174.043 329.399 174.15C329.292 174.258 329.292 174.365 329.292 174.58C329.292 174.687 329.292 174.795 329.292 174.902C329.292 175.01 329.292 175.225 329.399 175.332C329.507 175.439 329.614 175.654 329.829 175.762C330.044 175.869 330.366 175.977 330.688 175.869C330.903 175.869 331.118 175.762 331.333 175.762C331.011 175.117 330.688 174.58 330.259 173.936C330.366 173.828 330.366 173.828 330.474 173.721C330.581 173.721 330.688 173.613 330.688 173.613C330.796 173.613 330.903 173.613 331.011 173.613C331.118 173.613 331.226 173.613 331.333 173.613C331.44 173.613 331.548 173.721 331.548 173.721C331.655 173.828 331.655 173.828 331.763 173.936C331.87 174.043 331.87 174.043 331.977 174.15C331.977 174.15 331.977 174.15 331.977 174.043C331.977 174.15 332.085 174.258 332.085 174.258C332.085 174.258 332.085 174.258 332.085 174.15C332.085 174.258 332.085 174.365 332.085 174.473C332.085 174.473 332.085 174.473 332.085 174.365C332.085 174.258 332.085 174.043 331.977 173.936C331.977 173.828 331.87 173.721 331.763 173.613C331.548 173.398 331.226 173.291 331.011 173.291C330.688 173.291 330.474 173.398 330.259 173.613C330.151 173.721 330.151 173.721 330.044 173.828C329.936 174.043 329.936 174.15 329.936 174.365C329.936 174.687 330.044 175.117 330.366 175.332C330.581 175.547 330.903 175.654 331.118 175.654C331.44 175.654 331.763 175.547 331.977 175.332C332.085 175.225 332.085 175.225 332.192 175.117C332.3 175.01 332.3 174.902 332.3 174.687C332.3 174.58 332.3 174.473 332.3 174.365C332.3 174.258 332.3 174.043 332.192 173.936C332.085 173.828 331.977 173.613 331.763 173.506C331.548 173.398 331.226 173.291 330.903 173.398C330.688 173.398 330.474 173.506 330.259 173.506C330.581 174.15 330.903 174.687 331.333 175.332C331.226 175.439 331.226 175.439 331.118 175.547C331.011 175.547 330.903 175.654 330.903 175.654C330.796 175.654 330.688 175.654 330.581 175.654C330.474 175.654 330.366 175.654 330.259 175.654C330.259 175.654 330.259 175.654 330.366 175.654C330.259 175.654 330.151 175.547 330.151 175.547C330.044 175.439 330.044 175.439 329.936 175.332C329.829 175.225 329.829 175.225 329.722 175.117C329.722 175.01 329.614 174.902 329.614 174.902C329.614 174.795 329.614 174.687 329.614 174.58C329.614 174.473 329.614 174.365 329.614 174.258C329.614 174.258 329.614 174.258 329.614 174.365C329.614 174.258 329.722 174.15 329.722 174.15C329.722 174.15 329.722 174.15 329.722 174.258C329.829 174.15 329.829 174.15 329.936 174.043C329.936 174.043 329.936 174.043 329.829 174.15C329.936 174.043 329.936 174.043 330.044 173.936C330.044 173.936 329.936 173.936 329.936 174.043C330.044 174.043 330.151 173.936 330.151 173.936H330.044C330.151 173.936 330.259 173.936 330.366 173.936H330.259C330.366 173.936 330.474 173.936 330.581 173.936H330.474C330.581 173.936 330.688 174.043 330.688 174.043C330.688 174.043 330.581 174.043 330.581 173.936C330.688 174.043 330.688 174.043 330.796 174.15L330.688 174.043C330.796 174.15 330.796 174.15 330.903 174.258C330.903 174.15 330.796 174.15 330.796 174.043C330.796 174.15 330.903 174.258 330.903 174.258C330.903 174.15 330.903 174.15 330.796 174.043C330.796 174.15 330.796 174.258 330.796 174.365C330.796 174.258 330.796 174.258 330.796 174.15C330.796 174.258 330.796 174.365 330.796 174.473C330.796 174.365 330.796 174.365 330.796 174.258C330.796 174.365 330.688 174.473 330.688 174.473C330.688 174.365 330.796 174.365 330.796 174.258C330.688 174.365 330.688 174.365 330.581 174.473C330.688 174.365 330.688 174.365 330.796 174.258C330.688 174.365 330.688 174.365 330.581 174.473C330.688 174.365 330.796 174.365 330.903 174.258C330.796 174.258 330.688 174.365 330.688 174.365C330.796 174.365 330.903 174.258 331.011 174.258C330.903 174.258 330.796 174.258 330.688 174.258C330.796 174.258 330.796 174.258 330.903 174.258C331.226 174.258 331.44 174.15 331.655 173.936C331.87 173.721 331.977 173.398 331.977 173.184C331.977 172.861 331.87 172.647 331.655 172.432C331.226 172.432 331.011 172.324 330.688 172.324Z" fill="black"/>
</svg>
