<svg width="44" height="25" viewBox="0 0 44 25" fill="none" xmlns="http://www.w3.org/2000/svg">
<path d="M13.3067 24.8008H0.23999V0.214111H12.72V2.82744H3.11999V11.0408H12.0267V13.6008H3.11999V22.2408H13.3067V24.8008Z" fill="white"/>
<path d="M43.12 24.8005H40.24V8.26713C40.24 6.98713 40.2933 5.38713 40.5067 3.46713H40.4533C40.1867 4.58713 39.92 5.38713 39.7067 5.86713L31.28 24.8005H29.8933L21.4667 6.02713C21.2 5.49379 20.9867 4.64046 20.72 3.52046H20.6667C20.7733 4.48046 20.8267 6.13379 20.8267 8.37379V24.8005H18.0533V0.213795H21.8933L29.4667 17.3871C30.0533 18.7205 30.4267 19.6805 30.5867 20.3205H30.6933C31.1733 18.9871 31.6 17.9738 31.8667 17.2805L39.6 0.160461H43.2267V24.8005H43.12Z" fill="white"/>
</svg>
