<svg width="160" height="56" viewBox="0 0 160 56" fill="none" xmlns="http://www.w3.org/2000/svg">
<path d="M55.04 0H0V55.1467H55.04V0Z" fill="#FF7700"/>
<path d="M19.3067 40.0005H6.24003V15.4139H18.72V18.0272H9.12003V26.2405H18.0267V28.8005H9.12003V37.4405H19.3067V40.0005Z" fill="white"/>
<path d="M49.12 40.0002H46.24V23.4669C46.24 22.1869 46.2934 20.5869 46.5067 18.6669H46.4534C46.1867 19.7869 45.92 20.5869 45.7067 21.0669L37.28 40.0002H35.8934L27.4667 21.2269C27.2 20.6936 26.9867 19.8402 26.72 18.7202H26.6667C26.7734 19.6802 26.8267 21.3336 26.8267 23.5736V40.0002H24.0534V15.4136H27.8934L35.4667 32.5869C36.0534 33.9202 36.4267 34.8802 36.5867 35.5202H36.6934C37.1734 34.1869 37.6 33.1736 37.8667 32.4802L45.6 15.3602H49.2267V40.0002H49.12Z" fill="white"/>
<path d="M60.3732 39.3064V35.8931C60.7466 36.2131 61.2266 36.5331 61.7599 36.7998C62.2932 37.0664 62.8799 37.2798 63.4666 37.4931C64.0532 37.7064 64.6932 37.8131 65.2799 37.9198C65.8666 38.0264 66.4532 38.0798 66.9866 38.0798C68.7466 38.0798 70.0799 37.7598 70.9866 37.0664C71.8399 36.4264 72.3199 35.4664 72.3199 34.2398C72.3199 33.5998 72.1599 33.0131 71.8932 32.4798C71.6266 31.9998 71.1999 31.5198 70.6666 31.1464C70.1332 30.7198 69.5466 30.3464 68.8532 29.9731C68.1599 29.5998 67.4132 29.2264 66.5599 28.7998C65.7066 28.3731 64.9066 27.9464 64.1599 27.4664C63.4132 27.0398 62.7732 26.5064 62.2399 25.9731C61.7066 25.4398 61.2799 24.7998 60.9599 24.1598C60.6399 23.4664 60.4799 22.6664 60.4799 21.7598C60.4799 20.6398 60.7466 19.6798 61.2266 18.8264C61.7066 17.9731 62.3466 17.3331 63.1466 16.7998C63.9466 16.2664 64.8532 15.8398 65.8666 15.5731C66.8799 15.3064 67.9466 15.1998 69.0132 15.1998C71.4666 15.1998 73.2266 15.4664 74.3466 16.0531V19.3064C72.9066 18.2931 71.0399 17.8131 68.7466 17.8131C68.1066 17.8131 67.4666 17.8664 66.8799 18.0264C66.2399 18.1331 65.7066 18.3464 65.1732 18.6664C64.6932 18.9864 64.2666 19.3598 63.9466 19.8398C63.6266 20.3198 63.4666 20.9064 63.4666 21.5464C63.4666 22.1864 63.5732 22.7198 63.8399 23.1998C64.0532 23.6798 64.4266 24.0531 64.8532 24.4798C65.3332 24.8531 65.8666 25.2264 66.5066 25.5998C67.1466 25.9731 67.9466 26.3464 68.7999 26.7731C69.7066 27.1998 70.5066 27.6798 71.3066 28.1598C72.1066 28.6398 72.7999 29.1731 73.3866 29.7598C73.9732 30.3464 74.4532 30.9864 74.8266 31.6798C75.1999 32.3731 75.3599 33.2264 75.3599 34.1331C75.3599 35.3598 75.1466 36.3731 74.6666 37.2264C74.1866 38.0798 73.5466 38.7731 72.7466 39.2531C71.9466 39.7864 70.9866 40.1598 69.9732 40.3731C68.9066 40.5864 67.7866 40.7464 66.6666 40.7464C66.2932 40.7464 65.8132 40.6931 65.2266 40.6398C64.6399 40.5864 64.0532 40.4798 63.4666 40.3731C62.8799 40.2664 62.2932 40.1064 61.7599 39.9464C61.1199 39.7331 60.6932 39.5198 60.3732 39.3064Z" fill="white"/>
<path d="M94.8267 18.2931H87.7334V40.3197H84.8V18.2931H77.7067V15.6797H94.7734V18.2931H94.8267Z" fill="white"/>
<path d="M107.04 40.6934C103.573 40.6934 100.747 39.5201 98.6666 37.2267C96.5333 34.9334 95.4666 31.9467 95.4666 28.2667C95.4666 24.3201 96.5333 21.1201 98.6666 18.7734C100.8 16.4268 103.733 15.2534 107.413 15.2534C110.827 15.2534 113.547 16.3734 115.627 18.6668C117.707 20.9601 118.72 23.9467 118.72 27.6267C118.72 31.6267 117.653 34.8267 115.52 37.1734C113.44 39.5201 110.613 40.6934 107.04 40.6934ZM107.253 17.8668C104.64 17.8668 102.56 18.8268 100.96 20.6934C99.3599 22.5601 98.5599 25.0134 98.5599 28.0534C98.5599 31.0934 99.3599 33.5468 100.907 35.3601C102.507 37.2267 104.533 38.1334 107.04 38.1334C109.76 38.1334 111.893 37.2267 113.44 35.4667C114.987 33.7067 115.787 31.2534 115.787 28.0534C115.787 24.8001 115.04 22.2934 113.493 20.5334C111.947 18.7734 109.867 17.8668 107.253 17.8668Z" fill="white"/>
<path d="M141.28 40.3197H137.867L133.76 33.4397C133.387 32.7997 133.013 32.2664 132.64 31.7864C132.267 31.3597 131.947 30.9864 131.573 30.6664C131.2 30.3997 130.827 30.1864 130.347 30.0264C129.92 29.9197 129.44 29.8131 128.907 29.8131H126.56V40.2664H123.68V15.6797H131.04C132.107 15.6797 133.12 15.8397 134.027 16.1064C134.933 16.3731 135.733 16.7997 136.373 17.3331C137.067 17.8664 137.547 18.5597 137.92 19.3597C138.293 20.1597 138.507 21.1197 138.507 22.2397C138.507 23.0931 138.4 23.8931 138.133 24.5864C137.867 25.2797 137.493 25.9197 137.013 26.5064C136.533 27.0931 135.947 27.5197 135.307 27.9464C134.613 28.3197 133.867 28.6397 133.067 28.8531V28.9064C133.493 29.0664 133.813 29.2797 134.133 29.5464C134.453 29.7597 134.72 30.0797 134.987 30.3997C135.253 30.7197 135.52 31.0931 135.787 31.4664C136.053 31.8931 136.373 32.3197 136.693 32.9064L141.28 40.3197ZM126.507 18.2931V27.1997H130.4C131.147 27.1997 131.787 27.0931 132.427 26.8797C133.013 26.6664 133.547 26.3464 134.027 25.9197C134.453 25.4931 134.827 25.0131 135.093 24.4264C135.36 23.8397 135.467 23.1997 135.467 22.4531C135.467 21.1197 135.04 20.1064 134.187 19.3597C133.333 18.6131 132.107 18.2397 130.507 18.2397H126.507V18.2931Z" fill="white"/>
<path d="M160 15.68L151.893 31.2V40.32H149.013V31.2533L141.12 15.68H144.427L149.867 26.7733C149.92 26.9333 150.133 27.4133 150.453 28.2666H150.507C150.613 27.8933 150.827 27.36 151.147 26.7733L156.907 15.6266H160V15.68Z" fill="white"/>
</svg>
