<svg width="110" height="55" viewBox="0 0 110 55" fill="none" xmlns="http://www.w3.org/2000/svg">
<g clip-path="url(#clip0_129_1053)">
<rect width="110" height="55" fill="white"/>
<path d="M55.04 0H0V55.1467H55.04V0Z" fill="#FF7700"/>
<path d="M110.04 0H55V55.1467H110.04V0Z" fill="#FF7700"/>
<path d="M103.256 24.2C102.256 18.9 98.7558 14 93.7558 10.7C90.0558 8.3 85.7558 7 81.4558 7C79.6558 7 77.7558 7.2 75.9558 7.7C75.2558 7.9 74.7558 8.6 74.9558 9.3C75.1558 9.9 75.6558 10.3 76.2558 10.3C76.3558 10.3 76.4558 10.3 76.5558 10.3C78.1558 9.9 79.7558 9.7 81.3558 9.7C85.1558 9.7 88.9558 10.8 92.2558 12.9C96.6558 15.7 99.6558 20 100.556 24.6C101.456 29.2 100.356 33.9 97.6558 37.8C94.9558 41.7 90.7558 44.4 86.0558 45.3C84.8558 45.5 83.7558 45.6 82.5558 45.6C78.9558 45.6 75.4558 44.6 72.4558 42.6C68.4558 40 65.7558 36 64.9558 31.3C63.7558 25 66.1558 18.6 71.2558 14.4C71.5558 14.2 71.7558 13.8 71.7558 13.5C71.7558 13.2 71.6558 12.8 71.4558 12.5C71.1558 12.2 70.8558 12 70.4558 12C70.1558 12 69.8558 12.1 69.5558 12.3C63.7558 17.1 60.9558 24.5 62.3558 31.8C63.3558 37.1 66.4558 41.8 71.0558 44.8C74.4558 47.1 78.4558 48.3 82.6558 48.3C83.9558 48.3 85.3558 48.2 86.6558 47.9C97.8558 45.9 105.356 35.2 103.256 24.2Z" fill="#262626"/>
<path d="M88.2557 24.4C88.9557 24.4 89.6557 23.8 89.6557 23C89.6557 21.1 88.5557 19.3999 88.4557 19.2999C88.1557 18.8999 87.7557 18.7 87.3557 18.7C87.0557 18.7 86.8557 18.8 86.6557 18.9C86.0557 19.3 85.8557 20.1999 86.2557 20.7999C86.5557 21.1999 87.0557 22.2 87.0557 23.1C86.9557 23.8 87.5557 24.4 88.2557 24.4Z" fill="#262626"/>
<path d="M78.2558 25.4C78.9558 25.4 79.6558 24.8 79.6558 24C79.6558 21.5 78.3558 20.2 78.2558 20C77.9558 19.7 77.6558 19.6 77.3558 19.6C76.9558 19.6 76.6558 19.7 76.4558 20C75.9558 20.5 75.9558 21.4 76.4558 21.9C76.4558 21.9 77.0558 22.6 77.0558 24C76.9558 24.8 77.5558 25.4 78.2558 25.4Z" fill="#262626"/>
<path d="M83.3557 39.5C84.0557 39.5 84.7557 39.5 85.3557 39.4C93.0557 38.3 95.3557 31.8 95.4557 31.5C95.6557 30.8 95.3557 29.9999 94.6557 29.7999C94.5557 29.7999 94.3557 29.7 94.2557 29.7C93.6557 29.7 93.1557 30.1 92.9557 30.6C92.8557 30.8 91.0557 35.8 85.0557 36.7C84.4557 36.8 83.9557 36.7999 83.3557 36.7999C78.2557 36.7999 75.3557 33.3 75.2557 33.2C74.9557 32.9 74.6557 32.7 74.1557 32.7C73.8557 32.7 73.5557 32.8 73.3557 33C73.0557 33.2 72.8557 33.5 72.8557 33.9C72.8557 34.3 72.9557 34.6 73.1557 34.9C73.3557 35.1 76.9557 39.5 83.3557 39.5Z" fill="#262626"/>
<path d="M19.0667 39.6403H6V15.0536H18.48V17.6669H8.88V25.8803H17.7867V28.4403H8.88V37.0802H19.0667V39.6403Z" fill="white"/>
<path d="M48.88 39.64H46V23.1067C46 21.8267 46.0533 20.2267 46.2667 18.3067H46.2134C45.9467 19.4267 45.68 20.2267 45.4667 20.7067L37.04 39.64H35.6534L27.2267 20.8667C26.96 20.3333 26.7467 19.48 26.48 18.36H26.4267C26.5334 19.32 26.5867 20.9733 26.5867 23.2133V39.64H23.8134V15.0533H27.6534L35.2267 32.2267C35.8134 33.56 36.1867 34.52 36.3467 35.16H36.4534C36.9334 33.8267 37.36 32.8133 37.6267 32.12L45.36 15H48.9867V39.64H48.88Z" fill="white"/>
</g>
<defs>
<clipPath id="clip0_129_1053">
<rect width="110" height="55" fill="white"/>
</clipPath>
</defs>
</svg>
