<svg width="174" height="26" viewBox="0 0 174 26" fill="none" xmlns="http://www.w3.org/2000/svg">
<path d="M74.3733 24.1067V20.6933C74.7466 21.0133 75.2266 21.3333 75.76 21.6C76.2933 21.8667 76.88 22.08 77.4666 22.2933C78.0533 22.5067 78.6933 22.6133 79.28 22.72C79.8666 22.8267 80.4533 22.88 80.9866 22.88C82.7466 22.88 84.08 22.56 84.9866 21.8667C85.84 21.2267 86.32 20.2667 86.32 19.04C86.32 18.4 86.16 17.8133 85.8933 17.28C85.6266 16.8 85.2 16.32 84.6666 15.9467C84.1333 15.52 83.5466 15.1467 82.8533 14.7733C82.16 14.4 81.4133 14.0267 80.56 13.6C79.7066 13.1733 78.9066 12.7467 78.16 12.2667C77.4133 11.84 76.7733 11.3067 76.24 10.7733C75.7066 10.24 75.28 9.6 74.96 8.96C74.64 8.26666 74.48 7.46666 74.48 6.56C74.48 5.44 74.7466 4.48 75.2266 3.62667C75.7066 2.77333 76.3466 2.13333 77.1466 1.6C77.9466 1.06667 78.8533 0.64 79.8666 0.373334C80.88 0.106667 81.9466 0 83.0133 0C85.4666 0 87.2266 0.266667 88.3466 0.853333V4.10667C86.9066 3.09333 85.04 2.61333 82.7466 2.61333C82.1066 2.61333 81.4666 2.66667 80.88 2.82667C80.24 2.93333 79.7066 3.14667 79.1733 3.46667C78.6933 3.78667 78.2666 4.16 77.9466 4.64C77.6266 5.12 77.4666 5.70667 77.4666 6.34667C77.4666 6.98667 77.5733 7.52 77.84 8C78.0533 8.48 78.4266 8.85333 78.8533 9.28C79.3333 9.65333 79.8666 10.0267 80.5066 10.4C81.1466 10.7733 81.9466 11.1467 82.8 11.5733C83.7066 12 84.5066 12.48 85.3066 12.96C86.1066 13.44 86.8 13.9733 87.3866 14.56C87.9733 15.1467 88.4533 15.7867 88.8266 16.48C89.2 17.1733 89.36 18.0267 89.36 18.9333C89.36 20.16 89.1466 21.1733 88.6666 22.0267C88.1866 22.88 87.5466 23.5733 86.7466 24.0533C85.9466 24.5867 84.9866 24.96 83.9733 25.1733C82.9066 25.3867 81.7866 25.5467 80.6666 25.5467C80.2933 25.5467 79.8133 25.4933 79.2266 25.44C78.64 25.3867 78.0533 25.28 77.4666 25.1733C76.88 25.0667 76.2933 24.9067 75.76 24.7467C75.12 24.5333 74.6933 24.32 74.3733 24.1067Z" fill="white"/>
<path d="M108.827 3.09331H101.733V25.12H98.8001V3.09331H91.7068V0.47998H108.773V3.09331H108.827Z" fill="white"/>
<path d="M121.04 25.4937C117.573 25.4937 114.747 24.3203 112.667 22.027C110.533 19.7337 109.467 16.747 109.467 13.067C109.467 9.12034 110.533 5.92035 112.667 3.57368C114.8 1.22701 117.733 0.0536804 121.413 0.0536804C124.827 0.0536804 127.547 1.17368 129.627 3.46701C131.707 5.76035 132.72 8.74701 132.72 12.427C132.72 16.427 131.653 19.627 129.52 21.9737C127.44 24.3203 124.613 25.4937 121.04 25.4937ZM121.253 2.66701C118.64 2.66701 116.56 3.62701 114.96 5.49368C113.36 7.36035 112.56 9.81368 112.56 12.8537C112.56 15.8937 113.36 18.347 114.907 20.1603C116.507 22.027 118.533 22.9337 121.04 22.9337C123.76 22.9337 125.893 22.027 127.44 20.267C128.987 18.507 129.787 16.0537 129.787 12.8537C129.787 9.60034 129.04 7.09368 127.493 5.33368C125.947 3.57368 123.867 2.66701 121.253 2.66701Z" fill="white"/>
<path d="M155.28 25.12H151.867L147.76 18.24C147.387 17.6 147.013 17.0666 146.64 16.5866C146.267 16.16 145.947 15.7866 145.573 15.4666C145.2 15.2 144.827 14.9866 144.347 14.8266C143.92 14.72 143.44 14.6133 142.907 14.6133H140.56V25.0666H137.68V0.47998H145.04C146.107 0.47998 147.12 0.639981 148.027 0.906648C148.933 1.17331 149.733 1.59998 150.373 2.13331C151.067 2.66665 151.547 3.35998 151.92 4.15998C152.293 4.95998 152.507 5.91998 152.507 7.03998C152.507 7.89331 152.4 8.69331 152.133 9.38664C151.867 10.08 151.493 10.72 151.013 11.3066C150.533 11.8933 149.947 12.32 149.307 12.7466C148.613 13.12 147.867 13.44 147.067 13.6533V13.7066C147.493 13.8666 147.813 14.08 148.133 14.3466C148.453 14.56 148.72 14.88 148.987 15.2C149.253 15.52 149.52 15.8933 149.787 16.2666C150.053 16.6933 150.373 17.12 150.693 17.7066L155.28 25.12ZM140.507 3.09331V12H144.4C145.147 12 145.787 11.8933 146.427 11.68C147.013 11.4666 147.547 11.1466 148.027 10.72C148.453 10.2933 148.827 9.81331 149.093 9.22664C149.36 8.63998 149.467 7.99998 149.467 7.25331C149.467 5.91998 149.04 4.90665 148.187 4.15998C147.333 3.41331 146.107 3.03998 144.507 3.03998H140.507V3.09331Z" fill="white"/>
<path d="M174 0.480183L165.893 16.0002V25.1202H163.013V16.0535L155.12 0.480183H158.427L163.867 11.5735C163.92 11.7335 164.133 12.2135 164.453 13.0668H164.507C164.613 12.6935 164.827 12.1602 165.147 11.5735L170.907 0.426849H174V0.480183Z" fill="white"/>
<path d="M13.3067 24.8008H0.23999V0.214111H12.72V2.82744H3.11999V11.0408H12.0267V13.6008H3.11999V22.2408H13.3067V24.8008Z" fill="white"/>
<path d="M43.12 24.8005H40.24V8.26713C40.24 6.98713 40.2933 5.38713 40.5067 3.46713H40.4533C40.1867 4.58713 39.92 5.38713 39.7067 5.86713L31.28 24.8005H29.8933L21.4667 6.02713C21.2 5.49379 20.9867 4.64046 20.72 3.52046H20.6667C20.7733 4.48046 20.8267 6.13379 20.8267 8.37379V24.8005H18.0533V0.213795H21.8933L29.4667 17.3871C30.0533 18.7205 30.4267 19.6805 30.5867 20.3205H30.6933C31.1733 18.9871 31.6 17.9738 31.8667 17.2805L39.6 0.160461H43.2267V24.8005H43.12Z" fill="white"/>
</svg>
