<svg width="161" height="17" viewBox="0 0 161 17" fill="none" xmlns="http://www.w3.org/2000/svg">
<path d="M7.37011 9.05217H1.85472C1.85472 9.90893 2.12246 10.605 2.55084 11.0334C2.97922 11.5153 3.62179 11.7295 4.37145 11.7295C5.22821 11.7295 6.03143 11.4618 6.78109 10.8728V12.0508C6.08497 12.5328 5.17467 12.8005 4.05017 12.8005C2.92567 12.8005 2.06891 12.4257 1.47989 11.7295C0.890865 11.0334 0.56958 10.0696 0.56958 8.78443C0.56958 7.55283 0.890865 6.58898 1.58698 5.83931C2.2831 5.08965 3.13986 4.71481 4.15726 4.71481C5.17467 4.71481 5.97788 5.0361 6.51335 5.67867C7.04883 6.32124 7.37011 7.23155 7.37011 8.4096V9.05217ZM6.08497 7.98122C6.08497 7.2851 5.92433 6.69607 5.5495 6.32124C5.22821 5.94641 4.74629 5.73222 4.10372 5.73222C3.51469 5.73222 3.03277 5.94641 2.60439 6.37479C2.17601 6.80317 1.96182 7.33865 1.85472 8.03477H6.08497V7.98122Z" fill="#262626"/>
<path d="M20.275 12.6402H19.0434V8.19575C19.0434 7.33899 18.9363 6.69641 18.6686 6.32158C18.4009 5.94675 17.9725 5.73256 17.3299 5.73256C16.7944 5.73256 16.366 6.0003 15.9912 6.48223C15.6164 6.96415 15.4557 7.55318 15.4557 8.2493V12.6937H14.2241V8.08865C14.2241 6.53577 13.6351 5.78611 12.4571 5.78611C11.9216 5.78611 11.4397 6.0003 11.1184 6.48223C10.7436 6.96415 10.5829 7.55318 10.5829 8.2493V12.6937H9.35132V4.92935H10.5829V6.16095H10.6365C11.1719 5.19709 11.9751 4.76871 13.0461 4.76871C13.5816 4.76871 14.0635 4.92935 14.4383 5.19709C14.8132 5.51837 15.0809 5.89321 15.2415 6.37513C15.8306 5.30418 16.6873 4.76871 17.8118 4.76871C19.5253 4.76871 20.3821 5.83965 20.3821 7.92801V12.6402H20.275Z" fill="#262626"/>
<path d="M25.8975 12.8009C24.773 12.8009 23.8091 12.4261 23.1666 11.73C22.4705 10.9803 22.1492 10.0164 22.1492 8.83839C22.1492 7.55325 22.524 6.53584 23.2201 5.78618C23.9162 5.03651 24.8801 4.66168 26.1117 4.66168C27.2897 4.66168 28.2 5.03651 28.8426 5.73263C29.4852 6.42875 29.8065 7.44615 29.8065 8.67775C29.8065 9.90934 29.4316 10.9267 28.7355 11.6764C27.9858 12.4261 27.0755 12.8009 25.8975 12.8009ZM25.951 5.73263C25.1478 5.73263 24.5053 6.00037 24.0769 6.53585C23.595 7.07132 23.3808 7.82098 23.3808 8.78484C23.3808 9.69515 23.595 10.4448 24.0769 10.9803C24.5588 11.5158 25.2014 11.7835 25.951 11.7835C26.7543 11.7835 27.3968 11.5158 27.8252 10.9803C28.2536 10.4448 28.4678 9.69514 28.4678 8.73129C28.4678 7.76743 28.2536 7.01777 27.8252 6.48229C27.3968 6.00037 26.7543 5.73263 25.951 5.73263Z" fill="#262626"/>
<path d="M35.322 12.5865C35.0543 12.7472 34.6259 12.8543 34.144 12.8543C32.8053 12.8543 32.1092 12.1046 32.1092 10.5517V5.94665H30.7705V4.8757H32.1627V3.00153L33.3943 2.57315V4.8757H35.3756V5.94665H33.3943V10.3375C33.3943 10.873 33.5014 11.2479 33.6621 11.462C33.8227 11.6762 34.144 11.7833 34.5188 11.7833C34.8401 11.7833 35.1079 11.6762 35.322 11.5156V12.5865Z" fill="#262626"/>
<path d="M37.6245 2.89466C37.4103 2.89466 37.1961 2.84112 37.0355 2.68048C36.8748 2.51983 36.8213 2.35919 36.8213 2.09145C36.8213 1.87726 36.8748 1.66307 37.0355 1.50243C37.1961 1.34178 37.3568 1.28824 37.6245 1.28824C37.8387 1.28824 38.0529 1.34178 38.2135 1.50243C38.3742 1.66307 38.4277 1.87726 38.4277 2.09145C38.4277 2.30564 38.3742 2.51983 38.2135 2.68048C38.0529 2.78757 37.8922 2.89466 37.6245 2.89466ZM38.2671 12.6403H36.9819V4.87592H38.2135V12.6403H38.2671Z" fill="#262626"/>
<path d="M43.9966 12.8009C42.8721 12.8009 41.9083 12.4261 41.2657 11.73C40.5696 10.9803 40.2483 10.0164 40.2483 8.83839C40.2483 7.55325 40.6231 6.53584 41.3192 5.78618C42.0154 5.03651 42.9792 4.66168 44.2108 4.66168C45.3889 4.66168 46.2992 5.03651 46.9417 5.73263C47.5843 6.42875 47.9056 7.44615 47.9056 8.67775C47.9056 9.90934 47.5308 10.9267 46.8346 11.6764C46.1385 12.4261 45.1747 12.8009 43.9966 12.8009ZM44.1037 5.73263C43.3005 5.73263 42.6579 6.00037 42.2296 6.53585C41.7476 7.07132 41.5334 7.82098 41.5334 8.78484C41.5334 9.69515 41.7476 10.4448 42.2296 10.9803C42.7115 11.5158 43.354 11.7835 44.1037 11.7835C44.9069 11.7835 45.5495 11.5158 45.9779 10.9803C46.4063 10.4448 46.6204 9.69514 46.6204 8.73129C46.6204 7.76743 46.4063 7.01777 45.9779 6.48229C45.5495 6.00037 44.9069 5.73263 44.1037 5.73263Z" fill="#262626"/>
<path d="M56.3124 12.6403H55.0808V8.19581C55.0808 6.53584 54.4918 5.73263 53.2602 5.73263C52.6176 5.73263 52.1357 5.94682 51.7073 6.42875C51.279 6.91068 51.1183 7.4997 51.1183 8.19581V12.6403H49.8867V4.87587H51.1183V6.16101H51.1719C51.7609 5.19716 52.6176 4.66168 53.7421 4.66168C54.5989 4.66168 55.2415 4.92942 55.6699 5.46489C56.0982 6.00037 56.366 6.80358 56.366 7.82098V12.6403H56.3124Z" fill="#262626"/>
<path d="M64.2376 12.6398H63.006V11.4083H62.9524C62.4169 12.3186 61.6137 12.8005 60.5428 12.8005C59.7931 12.8005 59.1505 12.5863 58.7222 12.2115C58.2938 11.7831 58.0796 11.2476 58.0796 10.605C58.0796 9.15926 58.9363 8.3025 60.6499 8.08831L63.006 7.76703C63.006 6.42834 62.4705 5.78576 61.3995 5.78576C60.4892 5.78576 59.6325 6.10705 58.8828 6.74962V5.46448C59.6325 4.98256 60.5428 4.71481 61.5066 4.71481C63.3272 4.71481 64.2376 5.67867 64.2376 7.60638V12.6398ZM63.006 8.73088L61.1318 8.99861C60.5428 9.10571 60.1144 9.21281 59.8467 9.427C59.5789 9.64119 59.4183 10.016 59.4183 10.4979C59.4183 10.8728 59.5789 11.1941 59.8467 11.4083C60.1144 11.6224 60.4892 11.7831 60.9176 11.7831C61.5602 11.7831 62.0421 11.5689 62.4705 11.1405C62.8989 10.7121 63.0595 10.1767 63.0595 9.48055V8.73088H63.006Z" fill="#262626"/>
<path d="M67.8253 12.6403H66.5938V1.12756H67.8253V12.6403Z" fill="#262626"/>
<path d="M74.144 12.3725V11.0338C74.8402 11.5158 75.5898 11.7835 76.393 11.7835C77.464 11.7835 78.053 11.4087 78.053 10.7126C78.053 10.4984 77.9995 10.3377 77.8924 10.1771C77.7853 10.0164 77.6782 9.90933 77.5175 9.80224C77.3569 9.69514 77.1963 9.58805 76.9821 9.48096C76.7679 9.37386 76.5537 9.32032 76.2859 9.21322C75.9647 9.05258 75.6434 8.94548 75.3756 8.78484C75.1079 8.6242 74.8937 8.46356 74.7331 8.30292C74.5724 8.14227 74.4118 7.92808 74.3582 7.71389C74.2511 7.4997 74.2511 7.23196 74.2511 6.91068C74.2511 6.53584 74.3582 6.21456 74.5189 5.94682C74.6795 5.67908 74.8937 5.41134 75.1615 5.2507C75.4292 5.03651 75.7505 4.92942 76.1253 4.82233C76.5001 4.71523 76.875 4.66168 77.2498 4.66168C77.9459 4.66168 78.5349 4.76878 79.0704 5.03651V6.32165C78.4814 5.94682 77.8388 5.78618 77.0892 5.78618C76.875 5.78618 76.6608 5.78618 76.4466 5.83973C76.2859 5.89327 76.1253 5.94682 75.9647 6.05391C75.804 6.16101 75.7505 6.26811 75.6434 6.3752C75.5898 6.53584 75.5363 6.64294 75.5363 6.80358C75.5363 7.01777 75.5898 7.17842 75.6434 7.33906C75.6969 7.4997 75.804 7.60679 75.9647 7.71389C76.1253 7.82098 76.2859 7.92808 76.5001 7.98163C76.7143 8.08872 76.9285 8.14227 77.1963 8.24936C77.5175 8.35646 77.8388 8.5171 78.1066 8.67775C78.3743 8.83839 78.5885 8.99903 78.8027 9.15967C79.0169 9.32031 79.124 9.53451 79.2311 9.7487C79.3382 9.96289 79.3917 10.2306 79.3917 10.5519C79.3917 10.9267 79.2846 11.248 79.124 11.5693C78.9633 11.837 78.7491 12.1048 78.4278 12.2654C78.1601 12.4261 77.8388 12.5867 77.464 12.6938C77.0892 12.8009 76.7143 12.8545 76.2859 12.8545C75.4292 12.8009 74.7331 12.6403 74.144 12.3725Z" fill="#262626"/>
<path d="M84.7998 12.5865C84.5321 12.7472 84.1037 12.8543 83.6218 12.8543C82.2831 12.8543 81.587 12.1046 81.587 10.5517V5.94665H80.2483V4.8757H81.587V3.00153L82.8186 2.57315V4.8757H84.7998V5.94665H82.8186V10.3375C82.8186 10.873 82.9257 11.2479 83.0863 11.462C83.247 11.6762 83.5682 11.7833 83.9431 11.7833C84.2644 11.7833 84.5321 11.6762 84.7463 11.5156V12.5865H84.7998Z" fill="#262626"/>
<path d="M89.6192 12.8009C88.4947 12.8009 87.5308 12.4261 86.8882 11.73C86.1921 10.9803 85.8708 10.0164 85.8708 8.83839C85.8708 7.55325 86.2457 6.53584 86.9418 5.78618C87.6379 5.03651 88.6018 4.66168 89.8334 4.66168C91.0114 4.66168 91.9217 5.03651 92.5643 5.73263C93.2069 6.42875 93.5281 7.44615 93.5281 8.67775C93.5281 9.90934 93.1533 10.9267 92.4572 11.6764C91.7075 12.4261 90.7972 12.8009 89.6192 12.8009ZM89.7263 5.73263C88.9231 5.73263 88.2805 6.00037 87.8521 6.53585C87.3702 7.07132 87.156 7.82098 87.156 8.78484C87.156 9.69515 87.3702 10.4448 87.8521 10.9803C88.334 11.5158 88.9766 11.7835 89.7263 11.7835C90.5295 11.7835 91.1721 11.5158 91.6004 10.9803C92.0288 10.4448 92.243 9.69514 92.243 8.73129C92.243 7.76743 92.0288 7.01777 91.6004 6.48229C91.1185 6.00037 90.5295 5.73263 89.7263 5.73263Z" fill="#262626"/>
<path d="M99.5254 6.10746C99.3112 5.94682 98.9899 5.83973 98.5616 5.83973C98.0261 5.83973 97.5977 6.10746 97.2229 6.58939C96.848 7.07132 96.6874 7.76744 96.6874 8.6242V12.5867H95.4558V4.82233H96.6874V6.42875H96.741C96.9016 5.89328 97.1693 5.46489 97.5442 5.14361C97.919 4.82232 98.2938 4.66168 98.7758 4.66168C99.097 4.66168 99.3648 4.71523 99.5254 4.76878V6.10746Z" fill="#262626"/>
<path d="M107.665 4.8759L104.077 13.8719C103.434 15.4783 102.524 16.2815 101.4 16.2815C101.078 16.2815 100.811 16.228 100.596 16.1744V15.0499C100.864 15.157 101.132 15.2106 101.346 15.2106C101.989 15.2106 102.471 14.8357 102.738 14.0861L103.381 12.5867L100.329 4.82236H101.721L103.809 10.8197C103.809 10.8732 103.863 11.0874 103.97 11.4087H104.023C104.023 11.3016 104.077 11.0874 104.184 10.8197L106.379 4.82236H107.665V4.8759Z" fill="#262626"/>
<path d="M116.554 12.8009C115.429 12.8009 114.465 12.4261 113.823 11.73C113.126 10.9803 112.805 10.0164 112.805 8.83839C112.805 7.55325 113.18 6.53584 113.876 5.78618C114.572 5.03651 115.536 4.66168 116.768 4.66168C117.946 4.66168 118.856 5.03651 119.499 5.73263C120.141 6.42875 120.462 7.44615 120.462 8.67775C120.462 9.90934 120.088 10.9267 119.392 11.6764C118.642 12.4261 117.732 12.8009 116.554 12.8009ZM116.607 5.73263C115.804 5.73263 115.161 6.00037 114.733 6.53585C114.251 7.07132 114.037 7.82098 114.037 8.78484C114.037 9.69515 114.251 10.4448 114.733 10.9803C115.215 11.5158 115.857 11.7835 116.607 11.7835C117.41 11.7835 118.053 11.5158 118.481 10.9803C118.91 10.4448 119.124 9.69514 119.124 8.73129C119.124 7.76743 118.91 7.01777 118.481 6.48229C118.053 6.00037 117.41 5.73263 116.607 5.73263Z" fill="#262626"/>
<path d="M125.978 2.19838C125.71 2.03773 125.442 1.98419 125.175 1.98419C124.318 1.98419 123.89 2.51966 123.89 3.64416V4.82221H125.71V5.89316H123.89V12.5866H122.658V5.89316H121.319V4.82221H122.658V3.53706C122.658 2.73385 122.872 2.09129 123.354 1.60936C123.836 1.12743 124.425 0.913239 125.121 0.913239C125.496 0.913239 125.817 0.966788 126.032 1.07388V2.19838H125.978Z" fill="#262626"/>
<path d="M132.885 12.6402L130.208 2.14492H131.654L132.885 7.44612C133.207 8.73126 133.474 10.07 133.689 11.0874H133.742C133.903 10.07 134.224 8.78481 134.599 7.44612L135.991 2.14492H137.383L138.669 7.44612C138.99 8.67772 139.258 9.90931 139.418 11.0338H139.472C139.686 9.90931 140.007 8.73126 140.328 7.39257L141.721 2.09137H143.113L140.168 12.5867H138.776L137.437 7.12483C137.116 5.78615 136.901 4.76875 136.741 3.6978H136.58C136.42 4.7152 136.152 5.78615 135.777 7.12483L134.278 12.5867H132.885V12.6402Z" fill="#262626"/>
<path d="M149.753 7.71371H145.683V11.5156H150.235V12.6401H144.345V2.14478H149.967V3.26927H145.683V6.58921H149.753V7.71371Z" fill="#262626"/>
<path d="M151.948 2.30556C152.752 2.19846 153.769 2.09137 154.84 2.09137C156.768 2.09137 158.16 2.51975 159.07 3.37651C159.981 4.23327 160.57 5.46486 160.57 7.12483C160.57 8.83835 160.034 10.2306 159.07 11.1944C158.106 12.1583 156.5 12.6938 154.412 12.6938C153.448 12.6938 152.645 12.6402 151.948 12.5867V2.30556ZM153.341 11.5693C153.662 11.6228 154.197 11.6228 154.733 11.6228C157.625 11.6228 159.177 10.0164 159.177 7.17838C159.177 4.7152 157.785 3.16232 154.947 3.16232C154.251 3.16232 153.716 3.21587 153.341 3.32296V11.5693Z" fill="#262626"/>
</svg>
