<svg width="100" height="26" viewBox="0 0 100 26" fill="none" xmlns="http://www.w3.org/2000/svg">
<path d="M0.373291 24.1067V20.6933C0.746624 21.0133 1.22663 21.3333 1.75996 21.6C2.29329 21.8667 2.87996 22.08 3.46663 22.2933C4.05329 22.5067 4.69329 22.6133 5.27996 22.72C5.86663 22.8267 6.45329 22.88 6.98662 22.88C8.74662 22.88 10.08 22.56 10.9866 21.8667C11.84 21.2267 12.32 20.2667 12.32 19.04C12.32 18.4 12.16 17.8133 11.8933 17.28C11.6266 16.8 11.2 16.32 10.6666 15.9467C10.1333 15.52 9.54663 15.1467 8.85329 14.7733C8.15996 14.4 7.41329 14.0267 6.55996 13.6C5.70663 13.1733 4.90663 12.7467 4.15996 12.2667C3.41329 11.84 2.77329 11.3067 2.23996 10.7733C1.70662 10.24 1.27996 9.6 0.959961 8.96C0.639961 8.26666 0.47996 7.46666 0.47996 6.56C0.47996 5.44 0.746628 4.48 1.22663 3.62667C1.70663 2.77333 2.34663 2.13333 3.14663 1.6C3.94663 1.06667 4.85329 0.64 5.86662 0.373334C6.87996 0.106667 7.94662 0 9.01329 0C11.4666 0 13.2266 0.266667 14.3466 0.853333V4.10667C12.9066 3.09333 11.04 2.61333 8.74662 2.61333C8.10662 2.61333 7.46662 2.66667 6.87996 2.82667C6.23996 2.93333 5.70662 3.14667 5.17329 3.46667C4.69329 3.78667 4.26663 4.16 3.94663 4.64C3.62663 5.12 3.46663 5.70667 3.46663 6.34667C3.46663 6.98667 3.57329 7.52 3.83996 8C4.05329 8.48 4.42662 8.85333 4.85329 9.28C5.33329 9.65333 5.86662 10.0267 6.50662 10.4C7.14662 10.7733 7.94662 11.1467 8.79996 11.5733C9.70662 12 10.5066 12.48 11.3066 12.96C12.1066 13.44 12.8 13.9733 13.3866 14.56C13.9733 15.1467 14.4533 15.7867 14.8266 16.48C15.2 17.1733 15.36 18.0267 15.36 18.9333C15.36 20.16 15.1466 21.1733 14.6666 22.0267C14.1866 22.88 13.5466 23.5733 12.7466 24.0533C11.9466 24.5867 10.9866 24.96 9.97329 25.1733C8.90662 25.3867 7.78662 25.5467 6.66662 25.5467C6.29329 25.5467 5.81329 25.4933 5.22663 25.44C4.63996 25.3867 4.05329 25.28 3.46663 25.1733C2.87996 25.0667 2.29329 24.9067 1.75996 24.7467C1.11996 24.5333 0.693291 24.32 0.373291 24.1067Z" fill="white"/>
<path d="M34.8268 3.09331H27.7335V25.12H24.8001V3.09331H17.7068V0.47998H34.7734V3.09331H34.8268Z" fill="white"/>
<path d="M47.04 25.4937C43.5733 25.4937 40.7467 24.3203 38.6667 22.027C36.5333 19.7337 35.4667 16.747 35.4667 13.067C35.4667 9.12034 36.5333 5.92035 38.6667 3.57368C40.8 1.22701 43.7333 0.0536804 47.4133 0.0536804C50.8267 0.0536804 53.5467 1.17368 55.6267 3.46701C57.7067 5.76035 58.72 8.74701 58.72 12.427C58.72 16.427 57.6533 19.627 55.52 21.9737C53.44 24.3203 50.6133 25.4937 47.04 25.4937ZM47.2533 2.66701C44.64 2.66701 42.56 3.62701 40.96 5.49368C39.36 7.36035 38.56 9.81368 38.56 12.8537C38.56 15.8937 39.36 18.347 40.9067 20.1603C42.5067 22.027 44.5333 22.9337 47.04 22.9337C49.76 22.9337 51.8933 22.027 53.44 20.267C54.9867 18.507 55.7867 16.0537 55.7867 12.8537C55.7867 9.60034 55.04 7.09368 53.4933 5.33368C51.9467 3.57368 49.8667 2.66701 47.2533 2.66701Z" fill="white"/>
<path d="M81.28 25.12H77.8667L73.7601 18.24C73.3867 17.6 73.0134 17.0666 72.6401 16.5866C72.2667 16.16 71.9467 15.7866 71.5734 15.4666C71.2001 15.2 70.8267 14.9866 70.3467 14.8266C69.9201 14.72 69.4401 14.6133 68.9067 14.6133H66.5601V25.0666H63.6801V0.47998H71.0401C72.1067 0.47998 73.1201 0.639981 74.0267 0.906648C74.9334 1.17331 75.7334 1.59998 76.3734 2.13331C77.0667 2.66665 77.5467 3.35998 77.9201 4.15998C78.2934 4.95998 78.5067 5.91998 78.5067 7.03998C78.5067 7.89331 78.4001 8.69331 78.1334 9.38664C77.8667 10.08 77.4934 10.72 77.0134 11.3066C76.5334 11.8933 75.9467 12.32 75.3067 12.7466C74.6134 13.12 73.8667 13.44 73.0667 13.6533V13.7066C73.4934 13.8666 73.8134 14.08 74.1334 14.3466C74.4534 14.56 74.7201 14.88 74.9867 15.2C75.2534 15.52 75.5201 15.8933 75.7867 16.2666C76.0534 16.6933 76.3734 17.12 76.6934 17.7066L81.28 25.12ZM66.5067 3.09331V12H70.4001C71.1467 12 71.7867 11.8933 72.4267 11.68C73.0134 11.4666 73.5467 11.1466 74.0267 10.72C74.4534 10.2933 74.8267 9.81331 75.0934 9.22664C75.3601 8.63998 75.4667 7.99998 75.4667 7.25331C75.4667 5.91998 75.0401 4.90665 74.1867 4.15998C73.3334 3.41331 72.1067 3.03998 70.5067 3.03998H66.5067V3.09331Z" fill="white"/>
<path d="M100 0.480183L91.8933 16.0002V25.1202H89.0133V16.0535L81.12 0.480183H84.4267L89.8667 11.5735C89.92 11.7335 90.1333 12.2135 90.4533 13.0668H90.5067C90.6133 12.6935 90.8267 12.1602 91.1467 11.5735L96.9067 0.426849H100V0.480183Z" fill="white"/>
</svg>
